<?xml version="1.0" encoding="utf-8" ?>
<svg baseProfile="full" height="1344" version="1.1" width="1664" xmlns="http://www.w3.org/2000/svg" xmlns:ev="http://www.w3.org/2001/xml-events" xmlns:xlink="http://www.w3.org/1999/xlink">
  <defs/>
  <g transform="translate(32,32)">
    <line stroke="rgb(30,30,30)" stroke-linecap="round" stroke-width="12" x1="1104.0" x2="976.0" y1="480.0" y2="480.0"/>
    <line stroke="rgb(30,30,30)" stroke-linecap="round" stroke-width="12" x1="1600" x2="1024.0" y1="1280" y2="1280.0"/>
    <line stroke="rgb(30,30,30)" stroke-linecap="round" stroke-width="12" x1="848.0" x2="848.0" y1="784.0" y2="480.0"/>
    <line stroke="rgb(30,30,30)" stroke-linecap="round" stroke-width="12" x1="1600.0" x2="1600.0" y1="1008.0" y2="1136.0"/>
    <line stroke="rgb(30,30,30)" stroke-linecap="round" stroke-width="12" x1="848.0" x2="0.0" y1="784.0" y2="784.0"/>
    <line stroke="rgb(30,30,30)" stroke-linecap="round" stroke-width="12" x1="0.0" x2="0.0" y1="1136.0" y2="1008.0"/>
    <line stroke="rgb(30,30,30)" stroke-linecap="round" stroke-width="12" x1="1024.0" x2="0.0" y1="1136.0" y2="1136.0"/>
    <line stroke="rgb(30,30,30)" stroke-linecap="round" stroke-width="12" x1="976.0" x2="848.0" y1="480.0" y2="480.0"/>
    <line stroke="rgb(30,30,30)" stroke-linecap="round" stroke-width="12" x1="0.0" x2="0" y1="480.0" y2="0"/>
    <line stroke="rgb(30,30,30)" stroke-linecap="round" stroke-width="12" x1="1600.0" x2="1024.0" y1="1136.0" y2="1136.0"/>
    <line stroke="rgb(30,30,30)" stroke-linecap="round" stroke-width="12" x1="1600.0" x2="1600.0" y1="784.0" y2="1008.0"/>
    <line stroke="rgb(30,30,30)" stroke-linecap="round" stroke-width="12" x1="0" x2="0.0" y1="1280" y2="1136.0"/>
    <line stroke="rgb(30,30,30)" stroke-linecap="round" stroke-width="12" x1="1136.0" x2="1136.0" y1="1008.0" y2="784.0"/>
    <line stroke="rgb(30,30,30)" stroke-linecap="round" stroke-width="12" x1="1024.0" x2="1024.0" y1="1280.0" y2="1136.0"/>
    <line stroke="rgb(30,30,30)" stroke-linecap="round" stroke-width="12" x1="848.0" x2="0.0" y1="480.0" y2="480.0"/>
    <line stroke="rgb(30,30,30)" stroke-linecap="round" stroke-width="12" x1="976.0" x2="976.0" y1="480.0" y2="0.0"/>
    <line stroke="rgb(30,30,30)" stroke-linecap="round" stroke-width="12" x1="1600.0" x2="1136.0" y1="784.0" y2="784.0"/>
    <line stroke="rgb(30,30,30)" stroke-linecap="round" stroke-width="12" x1="1104.0" x2="1600" y1="0.0" y2="0"/>
    <line stroke="rgb(30,30,30)" stroke-linecap="round" stroke-width="12" x1="1136.0" x2="0.0" y1="1008.0" y2="1008.0"/>
    <line stroke="rgb(30,30,30)" stroke-linecap="round" stroke-width="12" x1="0.0" x2="0.0" y1="784.0" y2="480.0"/>
    <line stroke="rgb(30,30,30)" stroke-linecap="round" stroke-width="12" x1="1600" x2="1600.0" y1="0" y2="480.0"/>
    <line stroke="rgb(30,30,30)" stroke-linecap="round" stroke-width="12" x1="1104.0" x2="1104.0" y1="480.0" y2="0.0"/>
    <line stroke="rgb(30,30,30)" stroke-linecap="round" stroke-width="12" x1="1600.0" x2="1600.0" y1="480.0" y2="784.0"/>
    <line stroke="rgb(30,30,30)" stroke-linecap="round" stroke-width="12" x1="1136.0" x2="848.0" y1="784.0" y2="784.0"/>
    <line stroke="rgb(30,30,30)" stroke-linecap="round" stroke-width="12" x1="976.0" x2="1104.0" y1="0.0" y2="0.0"/>
    <line stroke="rgb(30,30,30)" stroke-linecap="round" stroke-width="12" x1="1600.0" x2="1600" y1="1136.0" y2="1280"/>
    <line stroke="rgb(30,30,30)" stroke-linecap="round" stroke-width="12" x1="1600.0" x2="1104.0" y1="480.0" y2="480.0"/>
    <line stroke="rgb(30,30,30)" stroke-linecap="round" stroke-width="12" x1="1600.0" x2="1136.0" y1="1008.0" y2="1008.0"/>
    <line stroke="rgb(30,30,30)" stroke-linecap="round" stroke-width="12" x1="0.0" x2="0.0" y1="1008.0" y2="784.0"/>
    <line stroke="rgb(30,30,30)" stroke-linecap="round" stroke-width="12" x1="0" x2="976.0" y1="0" y2="0.0"/>
    <line stroke="rgb(30,30,30)" stroke-linecap="round" stroke-width="12" x1="1024.0" x2="0" y1="1280.0" y2="1280"/>
    <text style="font-family: sans-serif; font-size: 20pt" text-anchor="middle" x="800.0" y="1072.0">HALLWAY_946 800.0</text>
    <text style="font-family: sans-serif; font-size: 20pt" text-anchor="middle" x="512.0" y="1208.0">BEDROOM_49 576.0</text>
    <text style="font-family: sans-serif; font-size: 20pt" text-anchor="middle" x="1312.0" y="1208.0">BATH_757 324.0</text>
    <text style="font-family: sans-serif; font-size: 20pt" text-anchor="middle" x="568.0" y="896.0">DINING_980 994.0</text>
    <text style="font-family: sans-serif; font-size: 20pt" text-anchor="middle" x="1368.0" y="896.0">BATH_85 406.0</text>
    <text style="font-family: sans-serif; font-size: 20pt" text-anchor="middle" x="424.0" y="632.0">BEDROOM_942 1007.0</text>
    <text style="font-family: sans-serif; font-size: 20pt" text-anchor="middle" x="1224.0" y="632.0">BEDROOM_649 893.0</text>
    <text style="font-family: sans-serif; font-size: 20pt" text-anchor="middle" x="488.0" y="240.0">LIVING_11 1830.0</text>
    <text style="font-family: sans-serif; font-size: 20pt" text-anchor="middle" x="1352.0" y="240.0">KITCHEN_41 930.0</text>
    <text style="font-family: sans-serif; font-size: 20pt" text-anchor="middle" x="1040.0" y="240.0">HALLWAY_811 240.0</text>
  </g>
</svg>
