<?xml version="1.0" encoding="utf-8" ?>
<svg baseProfile="full" height="1344" version="1.1" width="1664" xmlns="http://www.w3.org/2000/svg" xmlns:ev="http://www.w3.org/2001/xml-events" xmlns:xlink="http://www.w3.org/1999/xlink">
  <defs/>
  <g transform="translate(32,32)">
    <line stroke="rgb(30,30,30)" stroke-linecap="round" stroke-width="12" x1="560.0" x2="0.0" y1="384.0" y2="384.0"/>
    <line stroke="rgb(30,30,30)" stroke-linecap="round" stroke-width="12" x1="560.0" x2="832.0" y1="0.0" y2="0.0"/>
    <line stroke="rgb(30,30,30)" stroke-linecap="round" stroke-width="12" x1="1104.0" x2="0" y1="1280.0" y2="1280"/>
    <line stroke="rgb(30,30,30)" stroke-linecap="round" stroke-width="12" x1="0" x2="0.0" y1="1280" y2="896.0"/>
    <line stroke="rgb(30,30,30)" stroke-linecap="round" stroke-width="12" x1="1600.0" x2="704.0" y1="768.0" y2="768.0"/>
    <line stroke="rgb(30,30,30)" stroke-linecap="round" stroke-width="12" x1="1600" x2="1104.0" y1="1280" y2="1280.0"/>
    <line stroke="rgb(30,30,30)" stroke-linecap="round" stroke-width="12" x1="1104.0" x2="0.0" y1="896.0" y2="896.0"/>
    <line stroke="rgb(30,30,30)" stroke-linecap="round" stroke-width="12" x1="1104.0" x2="1104.0" y1="1280.0" y2="896.0"/>
    <line stroke="rgb(30,30,30)" stroke-linecap="round" stroke-width="12" x1="1600.0" x2="1104.0" y1="896.0" y2="896.0"/>
    <line stroke="rgb(30,30,30)" stroke-linecap="round" stroke-width="12" x1="0.0" x2="0.0" y1="896.0" y2="768.0"/>
    <line stroke="rgb(30,30,30)" stroke-linecap="round" stroke-width="12" x1="704.0" x2="704.0" y1="768.0" y2="512.0"/>
    <line stroke="rgb(30,30,30)" stroke-linecap="round" stroke-width="12" x1="704.0" x2="0.0" y1="512.0" y2="512.0"/>
    <line stroke="rgb(30,30,30)" stroke-linecap="round" stroke-width="12" x1="1104.0" x2="1104.0" y1="384.0" y2="0.0"/>
    <line stroke="rgb(30,30,30)" stroke-linecap="round" stroke-width="12" x1="1600.0" x2="704.0" y1="512.0" y2="512.0"/>
    <line stroke="rgb(30,30,30)" stroke-linecap="round" stroke-width="12" x1="1600.0" x2="1600.0" y1="768.0" y2="896.0"/>
    <line stroke="rgb(30,30,30)" stroke-linecap="round" stroke-width="12" x1="832.0" x2="560.0" y1="384.0" y2="384.0"/>
    <line stroke="rgb(30,30,30)" stroke-linecap="round" stroke-width="12" x1="0.0" x2="0.0" y1="768.0" y2="512.0"/>
    <line stroke="rgb(30,30,30)" stroke-linecap="round" stroke-width="12" x1="1600.0" x2="1600.0" y1="384.0" y2="512.0"/>
    <line stroke="rgb(30,30,30)" stroke-linecap="round" stroke-width="12" x1="1600.0" x2="1600.0" y1="512.0" y2="768.0"/>
    <line stroke="rgb(30,30,30)" stroke-linecap="round" stroke-width="12" x1="0.0" x2="0" y1="384.0" y2="0"/>
    <line stroke="rgb(30,30,30)" stroke-linecap="round" stroke-width="12" x1="0.0" x2="0.0" y1="512.0" y2="384.0"/>
    <line stroke="rgb(30,30,30)" stroke-linecap="round" stroke-width="12" x1="704.0" x2="0.0" y1="768.0" y2="768.0"/>
    <line stroke="rgb(30,30,30)" stroke-linecap="round" stroke-width="12" x1="832.0" x2="832.0" y1="384.0" y2="0.0"/>
    <line stroke="rgb(30,30,30)" stroke-linecap="round" stroke-width="12" x1="1104.0" x2="832.0" y1="384.0" y2="384.0"/>
    <line stroke="rgb(30,30,30)" stroke-linecap="round" stroke-width="12" x1="1104.0" x2="1600" y1="0.0" y2="0"/>
    <line stroke="rgb(30,30,30)" stroke-linecap="round" stroke-width="12" x1="1600.0" x2="1104.0" y1="384.0" y2="384.0"/>
    <line stroke="rgb(30,30,30)" stroke-linecap="round" stroke-width="12" x1="1600.0" x2="1600" y1="896.0" y2="1280"/>
    <line stroke="rgb(30,30,30)" stroke-linecap="round" stroke-width="12" x1="560.0" x2="560.0" y1="384.0" y2="0.0"/>
    <line stroke="rgb(30,30,30)" stroke-linecap="round" stroke-width="12" x1="0" x2="560.0" y1="0" y2="0.0"/>
    <line stroke="rgb(30,30,30)" stroke-linecap="round" stroke-width="12" x1="832.0" x2="1104.0" y1="0.0" y2="0.0"/>
    <line stroke="rgb(30,30,30)" stroke-linecap="round" stroke-width="12" x1="1600" x2="1600.0" y1="0" y2="384.0"/>
    <text style="font-family: sans-serif; font-size: 20pt" text-anchor="middle" x="800.0" y="448.0">HALLWAY_950 800.0</text>
    <text style="font-family: sans-serif; font-size: 20pt" text-anchor="middle" x="800.0" y="832.0">HALLWAY_265 800.0</text>
    <text style="font-family: sans-serif; font-size: 20pt" text-anchor="middle" x="552.0" y="1088.0">LIVING_267 1656.0</text>
    <text style="font-family: sans-serif; font-size: 20pt" text-anchor="middle" x="1352.0" y="1088.0">BEDROOM_413 744.0</text>
    <text style="font-family: sans-serif; font-size: 20pt" text-anchor="middle" x="352.0" y="640.0">BEDROOM_983 704.0</text>
    <text style="font-family: sans-serif; font-size: 20pt" text-anchor="middle" x="1152.0" y="640.0">DINING_926 896.0</text>
    <text style="font-family: sans-serif; font-size: 20pt" text-anchor="middle" x="280.0" y="192.0">KITCHEN_366 840.0</text>
    <text style="font-family: sans-serif; font-size: 20pt" text-anchor="middle" x="696.0" y="192.0">BATH_348 408.0</text>
    <text style="font-family: sans-serif; font-size: 20pt" text-anchor="middle" x="968.0" y="192.0">BATH_552 408.0</text>
    <text style="font-family: sans-serif; font-size: 20pt" text-anchor="middle" x="1352.0" y="192.0">BEDROOM_802 744.0</text>
  </g>
</svg>
