<?xml version="1.0" encoding="utf-8" ?>
<svg baseProfile="full" height="1344" version="1.1" width="1664" xmlns="http://www.w3.org/2000/svg" xmlns:ev="http://www.w3.org/2001/xml-events" xmlns:xlink="http://www.w3.org/1999/xlink">
  <defs/>
  <g transform="translate(32,32)">
    <line stroke="rgb(30,30,30)" stroke-linecap="round" stroke-width="12" x1="288.0" x2="0" y1="1280.0" y2="1280"/>
    <line stroke="rgb(30,30,30)" stroke-linecap="round" stroke-width="12" x1="800.0" x2="416.0" y1="992.0" y2="992.0"/>
    <line stroke="rgb(30,30,30)" stroke-linecap="round" stroke-width="12" x1="928.0" x2="800.0" y1="1280.0" y2="1280.0"/>
    <line stroke="rgb(30,30,30)" stroke-linecap="round" stroke-width="12" x1="288.0" x2="288.0" y1="608.0" y2="0.0"/>
    <line stroke="rgb(30,30,30)" stroke-linecap="round" stroke-width="12" x1="288.0" x2="416.0" y1="0.0" y2="0.0"/>
    <line stroke="rgb(30,30,30)" stroke-linecap="round" stroke-width="12" x1="0" x2="0.0" y1="1280" y2="608.0"/>
    <line stroke="rgb(30,30,30)" stroke-linecap="round" stroke-width="12" x1="416.0" x2="416.0" y1="1120.0" y2="992.0"/>
    <line stroke="rgb(30,30,30)" stroke-linecap="round" stroke-width="12" x1="800.0" x2="928.0" y1="0.0" y2="0.0"/>
    <line stroke="rgb(30,30,30)" stroke-linecap="round" stroke-width="12" x1="800.0" x2="800.0" y1="992.0" y2="0.0"/>
    <line stroke="rgb(30,30,30)" stroke-linecap="round" stroke-width="12" x1="1440.0" x2="1600" y1="0.0" y2="0"/>
    <line stroke="rgb(30,30,30)" stroke-linecap="round" stroke-width="12" x1="416.0" x2="416.0" y1="992.0" y2="0.0"/>
    <line stroke="rgb(30,30,30)" stroke-linecap="round" stroke-width="12" x1="1312.0" x2="1312.0" y1="608.0" y2="0.0"/>
    <line stroke="rgb(30,30,30)" stroke-linecap="round" stroke-width="12" x1="416.0" x2="416.0" y1="1280.0" y2="1120.0"/>
    <line stroke="rgb(30,30,30)" stroke-linecap="round" stroke-width="12" x1="928.0" x2="928.0" y1="960.0" y2="608.0"/>
    <line stroke="rgb(30,30,30)" stroke-linecap="round" stroke-width="12" x1="1440.0" x2="1312.0" y1="608.0" y2="608.0"/>
    <line stroke="rgb(30,30,30)" stroke-linecap="round" stroke-width="12" x1="288.0" x2="288.0" y1="1280.0" y2="608.0"/>
    <line stroke="rgb(30,30,30)" stroke-linecap="round" stroke-width="12" x1="416.0" x2="800.0" y1="0.0" y2="0.0"/>
    <line stroke="rgb(30,30,30)" stroke-linecap="round" stroke-width="12" x1="928.0" x2="928.0" y1="1280.0" y2="960.0"/>
    <line stroke="rgb(30,30,30)" stroke-linecap="round" stroke-width="12" x1="1312.0" x2="1440.0" y1="0.0" y2="0.0"/>
    <line stroke="rgb(30,30,30)" stroke-linecap="round" stroke-width="12" x1="288.0" x2="0.0" y1="608.0" y2="608.0"/>
    <line stroke="rgb(30,30,30)" stroke-linecap="round" stroke-width="12" x1="800.0" x2="416.0" y1="1120.0" y2="1120.0"/>
    <line stroke="rgb(30,30,30)" stroke-linecap="round" stroke-width="12" x1="800.0" x2="800.0" y1="1120.0" y2="992.0"/>
    <line stroke="rgb(30,30,30)" stroke-linecap="round" stroke-width="12" x1="1440.0" x2="1440.0" y1="608.0" y2="0.0"/>
    <line stroke="rgb(30,30,30)" stroke-linecap="round" stroke-width="12" x1="1600.0" x2="1600" y1="960.0" y2="1280"/>
    <line stroke="rgb(30,30,30)" stroke-linecap="round" stroke-width="12" x1="928.0" x2="928.0" y1="608.0" y2="0.0"/>
    <line stroke="rgb(30,30,30)" stroke-linecap="round" stroke-width="12" x1="1600" x2="1600.0" y1="0" y2="608.0"/>
    <line stroke="rgb(30,30,30)" stroke-linecap="round" stroke-width="12" x1="1600.0" x2="1440.0" y1="608.0" y2="608.0"/>
    <line stroke="rgb(30,30,30)" stroke-linecap="round" stroke-width="12" x1="0" x2="288.0" y1="0" y2="0.0"/>
    <line stroke="rgb(30,30,30)" stroke-linecap="round" stroke-width="12" x1="928.0" x2="1312.0" y1="0.0" y2="0.0"/>
    <line stroke="rgb(30,30,30)" stroke-linecap="round" stroke-width="12" x1="800.0" x2="800.0" y1="1280.0" y2="1120.0"/>
    <line stroke="rgb(30,30,30)" stroke-linecap="round" stroke-width="12" x1="800.0" x2="416.0" y1="1280.0" y2="1280.0"/>
    <line stroke="rgb(30,30,30)" stroke-linecap="round" stroke-width="12" x1="1312.0" x2="928.0" y1="608.0" y2="608.0"/>
    <line stroke="rgb(30,30,30)" stroke-linecap="round" stroke-width="12" x1="1600.0" x2="928.0" y1="960.0" y2="960.0"/>
    <line stroke="rgb(30,30,30)" stroke-linecap="round" stroke-width="12" x1="1600.0" x2="1600.0" y1="608.0" y2="960.0"/>
    <line stroke="rgb(30,30,30)" stroke-linecap="round" stroke-width="12" x1="0.0" x2="0" y1="608.0" y2="0"/>
    <line stroke="rgb(30,30,30)" stroke-linecap="round" stroke-width="12" x1="416.0" x2="288.0" y1="1280.0" y2="1280.0"/>
    <line stroke="rgb(30,30,30)" stroke-linecap="round" stroke-width="12" x1="1600" x2="928.0" y1="1280" y2="1280.0"/>
    <text style="font-family: sans-serif; font-size: 20pt" text-anchor="middle" x="864.0" y="640.0">HALLWAY_703 640.0</text>
    <text style="font-family: sans-serif; font-size: 20pt" text-anchor="middle" x="352.0" y="640.0">HALLWAY_649 640.0</text>
    <text style="font-family: sans-serif; font-size: 20pt" text-anchor="middle" x="144.0" y="944.0">BEDROOM_734 756.0</text>
    <text style="font-family: sans-serif; font-size: 20pt" text-anchor="middle" x="144.0" y="304.0">BEDROOM_578 684.0</text>
    <text style="font-family: sans-serif; font-size: 20pt" text-anchor="middle" x="608.0" y="1200.0">BATH_457 240.0</text>
    <text style="font-family: sans-serif; font-size: 20pt" text-anchor="middle" x="608.0" y="496.0">LIVING_460 1488.0</text>
    <text style="font-family: sans-serif; font-size: 20pt" text-anchor="middle" x="608.0" y="1056.0">HALLWAY_773 192.0</text>
    <text style="font-family: sans-serif; font-size: 20pt" text-anchor="middle" x="1264.0" y="1120.0">BEDROOM_478 840.0</text>
    <text style="font-family: sans-serif; font-size: 20pt" text-anchor="middle" x="1264.0" y="784.0">KITCHEN_190 924.0</text>
    <text style="font-family: sans-serif; font-size: 20pt" text-anchor="middle" x="1120.0" y="304.0">DINING_310 912.0</text>
    <text style="font-family: sans-serif; font-size: 20pt" text-anchor="middle" x="1520.0" y="304.0">BATH_318 380.0</text>
    <text style="font-family: sans-serif; font-size: 20pt" text-anchor="middle" x="1376.0" y="304.0">HALLWAY_830 304.0</text>
  </g>
</svg>
