<?xml version="1.0" encoding="utf-8" ?>
<svg baseProfile="full" height="1344" version="1.1" width="1664" xmlns="http://www.w3.org/2000/svg" xmlns:ev="http://www.w3.org/2001/xml-events" xmlns:xlink="http://www.w3.org/1999/xlink">
  <defs/>
  <g transform="translate(32,32)">
    <line stroke="rgb(30,30,30)" stroke-linecap="round" stroke-width="12" x1="1376.0" x2="1600" y1="0.0" y2="0"/>
    <line stroke="rgb(30,30,30)" stroke-linecap="round" stroke-width="12" x1="1376.0" x2="1376.0" y1="352.0" y2="0.0"/>
    <line stroke="rgb(30,30,30)" stroke-linecap="round" stroke-width="12" x1="672.0" x2="416.0" y1="1280.0" y2="1280.0"/>
    <line stroke="rgb(30,30,30)" stroke-linecap="round" stroke-width="12" x1="1248.0" x2="1376.0" y1="0.0" y2="0.0"/>
    <line stroke="rgb(30,30,30)" stroke-linecap="round" stroke-width="12" x1="1600" x2="1600.0" y1="0" y2="352.0"/>
    <line stroke="rgb(30,30,30)" stroke-linecap="round" stroke-width="12" x1="800.0" x2="800.0" y1="480.0" y2="352.0"/>
    <line stroke="rgb(30,30,30)" stroke-linecap="round" stroke-width="12" x1="1376.0" x2="1248.0" y1="352.0" y2="352.0"/>
    <line stroke="rgb(30,30,30)" stroke-linecap="round" stroke-width="12" x1="672.0" x2="800.0" y1="0.0" y2="0.0"/>
    <line stroke="rgb(30,30,30)" stroke-linecap="round" stroke-width="12" x1="1600.0" x2="1376.0" y1="352.0" y2="352.0"/>
    <line stroke="rgb(30,30,30)" stroke-linecap="round" stroke-width="12" x1="1344.0" x2="800.0" y1="480.0" y2="480.0"/>
    <line stroke="rgb(30,30,30)" stroke-linecap="round" stroke-width="12" x1="1344.0" x2="1344.0" y1="1280.0" y2="480.0"/>
    <line stroke="rgb(30,30,30)" stroke-linecap="round" stroke-width="12" x1="416.0" x2="416.0" y1="1280.0" y2="368.0"/>
    <line stroke="rgb(30,30,30)" stroke-linecap="round" stroke-width="12" x1="672.0" x2="672.0" y1="1280.0" y2="368.0"/>
    <line stroke="rgb(30,30,30)" stroke-linecap="round" stroke-width="12" x1="288.0" x2="0" y1="1280.0" y2="1280"/>
    <line stroke="rgb(30,30,30)" stroke-linecap="round" stroke-width="12" x1="1344.0" x2="800.0" y1="1280.0" y2="1280.0"/>
    <line stroke="rgb(30,30,30)" stroke-linecap="round" stroke-width="12" x1="672.0" x2="672.0" y1="368.0" y2="0.0"/>
    <line stroke="rgb(30,30,30)" stroke-linecap="round" stroke-width="12" x1="800.0" x2="1248.0" y1="0.0" y2="0.0"/>
    <line stroke="rgb(30,30,30)" stroke-linecap="round" stroke-width="12" x1="672.0" x2="416.0" y1="368.0" y2="368.0"/>
    <line stroke="rgb(30,30,30)" stroke-linecap="round" stroke-width="12" x1="800.0" x2="800.0" y1="352.0" y2="0.0"/>
    <line stroke="rgb(30,30,30)" stroke-linecap="round" stroke-width="12" x1="0" x2="0.0" y1="1280" y2="608.0"/>
    <line stroke="rgb(30,30,30)" stroke-linecap="round" stroke-width="12" x1="288.0" x2="416.0" y1="0.0" y2="0.0"/>
    <line stroke="rgb(30,30,30)" stroke-linecap="round" stroke-width="12" x1="416.0" x2="288.0" y1="1280.0" y2="1280.0"/>
    <line stroke="rgb(30,30,30)" stroke-linecap="round" stroke-width="12" x1="288.0" x2="288.0" y1="608.0" y2="0.0"/>
    <line stroke="rgb(30,30,30)" stroke-linecap="round" stroke-width="12" x1="0" x2="288.0" y1="0" y2="0.0"/>
    <line stroke="rgb(30,30,30)" stroke-linecap="round" stroke-width="12" x1="288.0" x2="288.0" y1="1280.0" y2="608.0"/>
    <line stroke="rgb(30,30,30)" stroke-linecap="round" stroke-width="12" x1="416.0" x2="416.0" y1="368.0" y2="0.0"/>
    <line stroke="rgb(30,30,30)" stroke-linecap="round" stroke-width="12" x1="416.0" x2="672.0" y1="0.0" y2="0.0"/>
    <line stroke="rgb(30,30,30)" stroke-linecap="round" stroke-width="12" x1="800.0" x2="672.0" y1="1280.0" y2="1280.0"/>
    <line stroke="rgb(30,30,30)" stroke-linecap="round" stroke-width="12" x1="1600.0" x2="1600" y1="480.0" y2="1280"/>
    <line stroke="rgb(30,30,30)" stroke-linecap="round" stroke-width="12" x1="1600.0" x2="1344.0" y1="480.0" y2="480.0"/>
    <line stroke="rgb(30,30,30)" stroke-linecap="round" stroke-width="12" x1="1600" x2="1344.0" y1="1280" y2="1280.0"/>
    <line stroke="rgb(30,30,30)" stroke-linecap="round" stroke-width="12" x1="1248.0" x2="800.0" y1="352.0" y2="352.0"/>
    <line stroke="rgb(30,30,30)" stroke-linecap="round" stroke-width="12" x1="1248.0" x2="1248.0" y1="352.0" y2="0.0"/>
    <line stroke="rgb(30,30,30)" stroke-linecap="round" stroke-width="12" x1="1600.0" x2="1600.0" y1="352.0" y2="480.0"/>
    <line stroke="rgb(30,30,30)" stroke-linecap="round" stroke-width="12" x1="0.0" x2="0" y1="608.0" y2="0"/>
    <line stroke="rgb(30,30,30)" stroke-linecap="round" stroke-width="12" x1="800.0" x2="800.0" y1="1280.0" y2="480.0"/>
    <line stroke="rgb(30,30,30)" stroke-linecap="round" stroke-width="12" x1="288.0" x2="0.0" y1="608.0" y2="608.0"/>
    <text style="font-family: sans-serif; font-size: 20pt" text-anchor="middle" x="736.0" y="640.0">HALLWAY_277 640.0</text>
    <text style="font-family: sans-serif; font-size: 20pt" text-anchor="middle" x="352.0" y="640.0">HALLWAY_927 640.0</text>
    <text style="font-family: sans-serif; font-size: 20pt" text-anchor="middle" x="144.0" y="944.0">BEDROOM_284 756.0</text>
    <text style="font-family: sans-serif; font-size: 20pt" text-anchor="middle" x="144.0" y="304.0">BEDROOM_79 684.0</text>
    <text style="font-family: sans-serif; font-size: 20pt" text-anchor="middle" x="544.0" y="824.0">DINING_877 912.0</text>
    <text style="font-family: sans-serif; font-size: 20pt" text-anchor="middle" x="544.0" y="184.0">BATH_587 368.0</text>
    <text style="font-family: sans-serif; font-size: 20pt" text-anchor="middle" x="1200.0" y="416.0">HALLWAY_865 400.0</text>
    <text style="font-family: sans-serif; font-size: 20pt" text-anchor="middle" x="1072.0" y="880.0">LIVING_175 1700.0</text>
    <text style="font-family: sans-serif; font-size: 20pt" text-anchor="middle" x="1472.0" y="880.0">BEDROOM_743 800.0</text>
    <text style="font-family: sans-serif; font-size: 20pt" text-anchor="middle" x="1024.0" y="176.0">KITCHEN_7 616.0</text>
    <text style="font-family: sans-serif; font-size: 20pt" text-anchor="middle" x="1488.0" y="176.0">BATH_975 308.0</text>
    <text style="font-family: sans-serif; font-size: 20pt" text-anchor="middle" x="1312.0" y="176.0">HALLWAY_29 176.0</text>
  </g>
</svg>
