<?xml version="1.0" encoding="utf-8" ?>
<svg baseProfile="full" height="1344" version="1.1" width="1664" xmlns="http://www.w3.org/2000/svg" xmlns:ev="http://www.w3.org/2001/xml-events" xmlns:xlink="http://www.w3.org/1999/xlink">
  <defs/>
  <g transform="translate(32,32)">
    <line stroke="rgb(30,30,30)" stroke-linecap="round" stroke-width="12" x1="752.0" x2="416.0" y1="560.0" y2="560.0"/>
    <line stroke="rgb(30,30,30)" stroke-linecap="round" stroke-width="12" x1="416.0" x2="0.0" y1="560.0" y2="560.0"/>
    <line stroke="rgb(30,30,30)" stroke-linecap="round" stroke-width="12" x1="752.0" x2="416.0" y1="1280.0" y2="1280.0"/>
    <line stroke="rgb(30,30,30)" stroke-linecap="round" stroke-width="12" x1="1600" x2="1600.0" y1="0" y2="416.0"/>
    <line stroke="rgb(30,30,30)" stroke-linecap="round" stroke-width="12" x1="0.0" x2="0" y1="432.0" y2="0"/>
    <line stroke="rgb(30,30,30)" stroke-linecap="round" stroke-width="12" x1="752.0" x2="752.0" y1="1280.0" y2="688.0"/>
    <line stroke="rgb(30,30,30)" stroke-linecap="round" stroke-width="12" x1="496.0" x2="0.0" y1="432.0" y2="432.0"/>
    <line stroke="rgb(30,30,30)" stroke-linecap="round" stroke-width="12" x1="1296.0" x2="752.0" y1="416.0" y2="416.0"/>
    <line stroke="rgb(30,30,30)" stroke-linecap="round" stroke-width="12" x1="496.0" x2="752.0" y1="0.0" y2="0.0"/>
    <line stroke="rgb(30,30,30)" stroke-linecap="round" stroke-width="12" x1="752.0" x2="1296.0" y1="0.0" y2="0.0"/>
    <line stroke="rgb(30,30,30)" stroke-linecap="round" stroke-width="12" x1="0" x2="496.0" y1="0" y2="0.0"/>
    <line stroke="rgb(30,30,30)" stroke-linecap="round" stroke-width="12" x1="752.0" x2="752.0" y1="416.0" y2="0.0"/>
    <line stroke="rgb(30,30,30)" stroke-linecap="round" stroke-width="12" x1="752.0" x2="496.0" y1="432.0" y2="432.0"/>
    <line stroke="rgb(30,30,30)" stroke-linecap="round" stroke-width="12" x1="0" x2="0.0" y1="1280" y2="560.0"/>
    <line stroke="rgb(30,30,30)" stroke-linecap="round" stroke-width="12" x1="752.0" x2="752.0" y1="688.0" y2="560.0"/>
    <line stroke="rgb(30,30,30)" stroke-linecap="round" stroke-width="12" x1="1296.0" x2="1296.0" y1="416.0" y2="0.0"/>
    <line stroke="rgb(30,30,30)" stroke-linecap="round" stroke-width="12" x1="496.0" x2="496.0" y1="432.0" y2="0.0"/>
    <line stroke="rgb(30,30,30)" stroke-linecap="round" stroke-width="12" x1="416.0" x2="0" y1="1280.0" y2="1280"/>
    <line stroke="rgb(30,30,30)" stroke-linecap="round" stroke-width="12" x1="0.0" x2="0.0" y1="560.0" y2="432.0"/>
    <line stroke="rgb(30,30,30)" stroke-linecap="round" stroke-width="12" x1="1296.0" x2="1600" y1="0.0" y2="0"/>
    <line stroke="rgb(30,30,30)" stroke-linecap="round" stroke-width="12" x1="1600.0" x2="1600" y1="688.0" y2="1280"/>
    <line stroke="rgb(30,30,30)" stroke-linecap="round" stroke-width="12" x1="752.0" x2="752.0" y1="432.0" y2="416.0"/>
    <line stroke="rgb(30,30,30)" stroke-linecap="round" stroke-width="12" x1="752.0" x2="752.0" y1="560.0" y2="432.0"/>
    <line stroke="rgb(30,30,30)" stroke-linecap="round" stroke-width="12" x1="1600.0" x2="1600.0" y1="416.0" y2="688.0"/>
    <line stroke="rgb(30,30,30)" stroke-linecap="round" stroke-width="12" x1="416.0" x2="416.0" y1="1280.0" y2="560.0"/>
    <line stroke="rgb(30,30,30)" stroke-linecap="round" stroke-width="12" x1="1600" x2="752.0" y1="1280" y2="1280.0"/>
    <line stroke="rgb(30,30,30)" stroke-linecap="round" stroke-width="12" x1="1600.0" x2="752.0" y1="688.0" y2="688.0"/>
    <line stroke="rgb(30,30,30)" stroke-linecap="round" stroke-width="12" x1="1600.0" x2="1296.0" y1="416.0" y2="416.0"/>
    <text style="font-family: sans-serif; font-size: 20pt" text-anchor="middle" x="376.0" y="496.0">HALLWAY_150 376.0</text>
    <text style="font-family: sans-serif; font-size: 20pt" text-anchor="middle" x="208.0" y="920.0">DINING_25 1170.0</text>
    <text style="font-family: sans-serif; font-size: 20pt" text-anchor="middle" x="584.0" y="920.0">BEDROOM_479 945.0</text>
    <text style="font-family: sans-serif; font-size: 20pt" text-anchor="middle" x="248.0" y="216.0">KITCHEN_168 837.0</text>
    <text style="font-family: sans-serif; font-size: 20pt" text-anchor="middle" x="624.0" y="216.0">BATH_746 432.0</text>
    <text style="font-family: sans-serif; font-size: 20pt" text-anchor="middle" x="1176.0" y="984.0">LIVING_822 1961.0</text>
    <text style="font-family: sans-serif; font-size: 20pt" text-anchor="middle" x="1176.0" y="552.0">BEDROOM_613 901.0</text>
    <text style="font-family: sans-serif; font-size: 20pt" text-anchor="middle" x="1024.0" y="208.0">BEDROOM_930 884.0</text>
    <text style="font-family: sans-serif; font-size: 20pt" text-anchor="middle" x="1448.0" y="208.0">BATH_204 494.0</text>
  </g>
</svg>
