<?xml version="1.0" encoding="utf-8" ?>
<svg baseProfile="full" height="1344" version="1.1" width="1664" xmlns="http://www.w3.org/2000/svg" xmlns:ev="http://www.w3.org/2001/xml-events" xmlns:xlink="http://www.w3.org/1999/xlink">
  <defs/>
  <g transform="translate(32,32)">
    <line stroke="rgb(30,30,30)" stroke-linecap="round" stroke-width="12" x1="272.0" x2="528.0" y1="0.0" y2="0.0"/>
    <line stroke="rgb(30,30,30)" stroke-linecap="round" stroke-width="12" x1="0.0" x2="0" y1="688.0" y2="0"/>
    <line stroke="rgb(30,30,30)" stroke-linecap="round" stroke-width="12" x1="272.0" x2="272.0" y1="688.0" y2="0.0"/>
    <line stroke="rgb(30,30,30)" stroke-linecap="round" stroke-width="12" x1="592.0" x2="528.0" y1="688.0" y2="688.0"/>
    <line stroke="rgb(30,30,30)" stroke-linecap="round" stroke-width="12" x1="144.0" x2="0.0" y1="688.0" y2="688.0"/>
    <line stroke="rgb(30,30,30)" stroke-linecap="round" stroke-width="12" x1="720.0" x2="720.0" y1="1280.0" y2="944.0"/>
    <line stroke="rgb(30,30,30)" stroke-linecap="round" stroke-width="12" x1="720.0" x2="720.0" y1="944.0" y2="688.0"/>
    <line stroke="rgb(30,30,30)" stroke-linecap="round" stroke-width="12" x1="1600.0" x2="1600.0" y1="688.0" y2="944.0"/>
    <line stroke="rgb(30,30,30)" stroke-linecap="round" stroke-width="12" x1="720.0" x2="592.0" y1="1280.0" y2="1280.0"/>
    <line stroke="rgb(30,30,30)" stroke-linecap="round" stroke-width="12" x1="1600.0" x2="1600" y1="944.0" y2="1280"/>
    <line stroke="rgb(30,30,30)" stroke-linecap="round" stroke-width="12" x1="144.0" x2="144.0" y1="688.0" y2="0.0"/>
    <line stroke="rgb(30,30,30)" stroke-linecap="round" stroke-width="12" x1="0" x2="0.0" y1="1280" y2="688.0"/>
    <line stroke="rgb(30,30,30)" stroke-linecap="round" stroke-width="12" x1="528.0" x2="864.0" y1="0.0" y2="0.0"/>
    <line stroke="rgb(30,30,30)" stroke-linecap="round" stroke-width="12" x1="720.0" x2="592.0" y1="688.0" y2="688.0"/>
    <line stroke="rgb(30,30,30)" stroke-linecap="round" stroke-width="12" x1="144.0" x2="272.0" y1="0.0" y2="0.0"/>
    <line stroke="rgb(30,30,30)" stroke-linecap="round" stroke-width="12" x1="864.0" x2="720.0" y1="688.0" y2="688.0"/>
    <line stroke="rgb(30,30,30)" stroke-linecap="round" stroke-width="12" x1="1600.0" x2="720.0" y1="944.0" y2="944.0"/>
    <line stroke="rgb(30,30,30)" stroke-linecap="round" stroke-width="12" x1="400.0" x2="0" y1="1280.0" y2="1280"/>
    <line stroke="rgb(30,30,30)" stroke-linecap="round" stroke-width="12" x1="0" x2="144.0" y1="0" y2="0.0"/>
    <line stroke="rgb(30,30,30)" stroke-linecap="round" stroke-width="12" x1="1600" x2="720.0" y1="1280" y2="1280.0"/>
    <line stroke="rgb(30,30,30)" stroke-linecap="round" stroke-width="12" x1="400.0" x2="400.0" y1="1280.0" y2="688.0"/>
    <line stroke="rgb(30,30,30)" stroke-linecap="round" stroke-width="12" x1="272.0" x2="144.0" y1="688.0" y2="688.0"/>
    <line stroke="rgb(30,30,30)" stroke-linecap="round" stroke-width="12" x1="592.0" x2="400.0" y1="1280.0" y2="1280.0"/>
    <line stroke="rgb(30,30,30)" stroke-linecap="round" stroke-width="12" x1="528.0" x2="400.0" y1="688.0" y2="688.0"/>
    <line stroke="rgb(30,30,30)" stroke-linecap="round" stroke-width="12" x1="400.0" x2="272.0" y1="688.0" y2="688.0"/>
    <line stroke="rgb(30,30,30)" stroke-linecap="round" stroke-width="12" x1="864.0" x2="864.0" y1="688.0" y2="0.0"/>
    <line stroke="rgb(30,30,30)" stroke-linecap="round" stroke-width="12" x1="864.0" x2="1600" y1="0.0" y2="0"/>
    <line stroke="rgb(30,30,30)" stroke-linecap="round" stroke-width="12" x1="528.0" x2="528.0" y1="688.0" y2="0.0"/>
    <line stroke="rgb(30,30,30)" stroke-linecap="round" stroke-width="12" x1="592.0" x2="592.0" y1="1280.0" y2="688.0"/>
    <line stroke="rgb(30,30,30)" stroke-linecap="round" stroke-width="12" x1="1600.0" x2="864.0" y1="688.0" y2="688.0"/>
    <line stroke="rgb(30,30,30)" stroke-linecap="round" stroke-width="12" x1="1600" x2="1600.0" y1="0" y2="688.0"/>
    <text style="font-family: sans-serif; font-size: 20pt" text-anchor="middle" x="656.0" y="984.0">HALLWAY_208 296.0</text>
    <text style="font-family: sans-serif; font-size: 20pt" text-anchor="middle" x="200.0" y="984.0">KITCHEN_168 925.0</text>
    <text style="font-family: sans-serif; font-size: 20pt" text-anchor="middle" x="496.0" y="984.0">BATH_746 444.0</text>
    <text style="font-family: sans-serif; font-size: 20pt" text-anchor="middle" x="1160.0" y="1112.0">DINING_25 1155.0</text>
    <text style="font-family: sans-serif; font-size: 20pt" text-anchor="middle" x="1160.0" y="816.0">BEDROOM_479 880.0</text>
    <text style="font-family: sans-serif; font-size: 20pt" text-anchor="middle" x="72.0" y="344.0">BATH_204 387.0</text>
    <text style="font-family: sans-serif; font-size: 20pt" text-anchor="middle" x="400.0" y="344.0">BEDROOM_930 688.0</text>
    <text style="font-family: sans-serif; font-size: 20pt" text-anchor="middle" x="208.0" y="344.0">HALLWAY_762 344.0</text>
    <text style="font-family: sans-serif; font-size: 20pt" text-anchor="middle" x="696.0" y="344.0">BEDROOM_613 903.0</text>
    <text style="font-family: sans-serif; font-size: 20pt" text-anchor="middle" x="1232.0" y="344.0">LIVING_822 1978.0</text>
  </g>
</svg>
