<?xml version="1.0" encoding="utf-8" ?>
<svg baseProfile="full" height="1344" version="1.1" width="1664" xmlns="http://www.w3.org/2000/svg" xmlns:ev="http://www.w3.org/2001/xml-events" xmlns:xlink="http://www.w3.org/1999/xlink">
  <defs/>
  <g transform="translate(32,32)">
    <line stroke="rgb(30,30,30)" stroke-linecap="round" stroke-width="12" x1="1392.0" x2="1392.0" y1="1280.0" y2="656.0"/>
    <line stroke="rgb(30,30,30)" stroke-linecap="round" stroke-width="12" x1="304.0" x2="304.0" y1="432.0" y2="0.0"/>
    <line stroke="rgb(30,30,30)" stroke-linecap="round" stroke-width="12" x1="1392.0" x2="896.0" y1="656.0" y2="656.0"/>
    <line stroke="rgb(30,30,30)" stroke-linecap="round" stroke-width="12" x1="1600.0" x2="896.0" y1="320.0" y2="320.0"/>
    <line stroke="rgb(30,30,30)" stroke-linecap="round" stroke-width="12" x1="896.0" x2="304.0" y1="432.0" y2="432.0"/>
    <line stroke="rgb(30,30,30)" stroke-linecap="round" stroke-width="12" x1="0.0" x2="0.0" y1="992.0" y2="432.0"/>
    <line stroke="rgb(30,30,30)" stroke-linecap="round" stroke-width="12" x1="896.0" x2="896.0" y1="432.0" y2="320.0"/>
    <line stroke="rgb(30,30,30)" stroke-linecap="round" stroke-width="12" x1="0.0" x2="0" y1="432.0" y2="0"/>
    <line stroke="rgb(30,30,30)" stroke-linecap="round" stroke-width="12" x1="896.0" x2="1600" y1="0.0" y2="0"/>
    <line stroke="rgb(30,30,30)" stroke-linecap="round" stroke-width="12" x1="1600.0" x2="1600.0" y1="320.0" y2="656.0"/>
    <line stroke="rgb(30,30,30)" stroke-linecap="round" stroke-width="12" x1="0" x2="304.0" y1="0" y2="0.0"/>
    <line stroke="rgb(30,30,30)" stroke-linecap="round" stroke-width="12" x1="304.0" x2="896.0" y1="0.0" y2="0.0"/>
    <line stroke="rgb(30,30,30)" stroke-linecap="round" stroke-width="12" x1="1392.0" x2="896.0" y1="1280.0" y2="1280.0"/>
    <line stroke="rgb(30,30,30)" stroke-linecap="round" stroke-width="12" x1="1600.0" x2="1392.0" y1="656.0" y2="656.0"/>
    <line stroke="rgb(30,30,30)" stroke-linecap="round" stroke-width="12" x1="896.0" x2="896.0" y1="1280.0" y2="992.0"/>
    <line stroke="rgb(30,30,30)" stroke-linecap="round" stroke-width="12" x1="896.0" x2="896.0" y1="320.0" y2="0.0"/>
    <line stroke="rgb(30,30,30)" stroke-linecap="round" stroke-width="12" x1="896.0" x2="896.0" y1="656.0" y2="432.0"/>
    <line stroke="rgb(30,30,30)" stroke-linecap="round" stroke-width="12" x1="0" x2="0.0" y1="1280" y2="992.0"/>
    <line stroke="rgb(30,30,30)" stroke-linecap="round" stroke-width="12" x1="1600" x2="1392.0" y1="1280" y2="1280.0"/>
    <line stroke="rgb(30,30,30)" stroke-linecap="round" stroke-width="12" x1="1600.0" x2="1600" y1="656.0" y2="1280"/>
    <line stroke="rgb(30,30,30)" stroke-linecap="round" stroke-width="12" x1="304.0" x2="0.0" y1="432.0" y2="432.0"/>
    <line stroke="rgb(30,30,30)" stroke-linecap="round" stroke-width="12" x1="1600" x2="1600.0" y1="0" y2="320.0"/>
    <line stroke="rgb(30,30,30)" stroke-linecap="round" stroke-width="12" x1="896.0" x2="0" y1="1280.0" y2="1280"/>
    <line stroke="rgb(30,30,30)" stroke-linecap="round" stroke-width="12" x1="896.0" x2="0.0" y1="992.0" y2="992.0"/>
    <line stroke="rgb(30,30,30)" stroke-linecap="round" stroke-width="12" x1="896.0" x2="896.0" y1="992.0" y2="656.0"/>
    <text style="font-family: sans-serif; font-size: 20pt" text-anchor="middle" x="448.0" y="1136.0">BEDROOM_322 1008.0</text>
    <text style="font-family: sans-serif; font-size: 20pt" text-anchor="middle" x="448.0" y="712.0">LIVING_521 1960.0</text>
    <text style="font-family: sans-serif; font-size: 20pt" text-anchor="middle" x="152.0" y="216.0">BATH_125 513.0</text>
    <text style="font-family: sans-serif; font-size: 20pt" text-anchor="middle" x="600.0" y="216.0">KITCHEN_739 999.0</text>
    <text style="font-family: sans-serif; font-size: 20pt" text-anchor="middle" x="1144.0" y="968.0">DINING_656 1209.0</text>
    <text style="font-family: sans-serif; font-size: 20pt" text-anchor="middle" x="1496.0" y="968.0">BATH_896 507.0</text>
    <text style="font-family: sans-serif; font-size: 20pt" text-anchor="middle" x="1248.0" y="488.0">BEDROOM_301 924.0</text>
    <text style="font-family: sans-serif; font-size: 20pt" text-anchor="middle" x="1248.0" y="160.0">BEDROOM_467 880.0</text>
  </g>
</svg>
