<?xml version="1.0" encoding="utf-8" ?>
<svg baseProfile="full" height="1344" version="1.1" width="1664" xmlns="http://www.w3.org/2000/svg" xmlns:ev="http://www.w3.org/2001/xml-events" xmlns:xlink="http://www.w3.org/1999/xlink">
  <defs/>
  <g transform="translate(32,32)">
    <line stroke="rgb(30,30,30)" stroke-linecap="round" stroke-width="12" x1="1600.0" x2="1600" y1="912.0" y2="1280"/>
    <line stroke="rgb(30,30,30)" stroke-linecap="round" stroke-width="12" x1="0.0" x2="0.0" y1="448.0" y2="224.0"/>
    <line stroke="rgb(30,30,30)" stroke-linecap="round" stroke-width="12" x1="1200.0" x2="1072.0" y1="448.0" y2="448.0"/>
    <line stroke="rgb(30,30,30)" stroke-linecap="round" stroke-width="12" x1="1024.0" x2="1024.0" y1="1280.0" y2="912.0"/>
    <line stroke="rgb(30,30,30)" stroke-linecap="round" stroke-width="12" x1="896.0" x2="0.0" y1="576.0" y2="576.0"/>
    <line stroke="rgb(30,30,30)" stroke-linecap="round" stroke-width="12" x1="896.0" x2="0.0" y1="1056.0" y2="1056.0"/>
    <line stroke="rgb(30,30,30)" stroke-linecap="round" stroke-width="12" x1="1600.0" x2="1600.0" y1="576.0" y2="912.0"/>
    <line stroke="rgb(30,30,30)" stroke-linecap="round" stroke-width="12" x1="0.0" x2="0" y1="224.0" y2="0"/>
    <line stroke="rgb(30,30,30)" stroke-linecap="round" stroke-width="12" x1="896.0" x2="896.0" y1="1280.0" y2="1056.0"/>
    <line stroke="rgb(30,30,30)" stroke-linecap="round" stroke-width="12" x1="1600.0" x2="1024.0" y1="912.0" y2="912.0"/>
    <line stroke="rgb(30,30,30)" stroke-linecap="round" stroke-width="12" x1="576.0" x2="576.0" y1="448.0" y2="0.0"/>
    <line stroke="rgb(30,30,30)" stroke-linecap="round" stroke-width="12" x1="0.0" x2="0.0" y1="1056.0" y2="576.0"/>
    <line stroke="rgb(30,30,30)" stroke-linecap="round" stroke-width="12" x1="448.0" x2="576.0" y1="0.0" y2="0.0"/>
    <line stroke="rgb(30,30,30)" stroke-linecap="round" stroke-width="12" x1="448.0" x2="0.0" y1="224.0" y2="224.0"/>
    <line stroke="rgb(30,30,30)" stroke-linecap="round" stroke-width="12" x1="448.0" x2="0.0" y1="448.0" y2="448.0"/>
    <line stroke="rgb(30,30,30)" stroke-linecap="round" stroke-width="12" x1="1600" x2="1600.0" y1="0" y2="448.0"/>
    <line stroke="rgb(30,30,30)" stroke-linecap="round" stroke-width="12" x1="1600.0" x2="1600.0" y1="448.0" y2="576.0"/>
    <line stroke="rgb(30,30,30)" stroke-linecap="round" stroke-width="12" x1="0" x2="448.0" y1="0" y2="0.0"/>
    <line stroke="rgb(30,30,30)" stroke-linecap="round" stroke-width="12" x1="576.0" x2="448.0" y1="448.0" y2="448.0"/>
    <line stroke="rgb(30,30,30)" stroke-linecap="round" stroke-width="12" x1="448.0" x2="448.0" y1="224.0" y2="0.0"/>
    <line stroke="rgb(30,30,30)" stroke-linecap="round" stroke-width="12" x1="1024.0" x2="896.0" y1="576.0" y2="576.0"/>
    <line stroke="rgb(30,30,30)" stroke-linecap="round" stroke-width="12" x1="896.0" x2="896.0" y1="1056.0" y2="576.0"/>
    <line stroke="rgb(30,30,30)" stroke-linecap="round" stroke-width="12" x1="1600" x2="1024.0" y1="1280" y2="1280.0"/>
    <line stroke="rgb(30,30,30)" stroke-linecap="round" stroke-width="12" x1="1072.0" x2="1200.0" y1="0.0" y2="0.0"/>
    <line stroke="rgb(30,30,30)" stroke-linecap="round" stroke-width="12" x1="1024.0" x2="896.0" y1="1280.0" y2="1280.0"/>
    <line stroke="rgb(30,30,30)" stroke-linecap="round" stroke-width="12" x1="1600.0" x2="1200.0" y1="448.0" y2="448.0"/>
    <line stroke="rgb(30,30,30)" stroke-linecap="round" stroke-width="12" x1="1600.0" x2="1024.0" y1="576.0" y2="576.0"/>
    <line stroke="rgb(30,30,30)" stroke-linecap="round" stroke-width="12" x1="1200.0" x2="1600" y1="0.0" y2="0"/>
    <line stroke="rgb(30,30,30)" stroke-linecap="round" stroke-width="12" x1="896.0" x2="0" y1="1280.0" y2="1280"/>
    <line stroke="rgb(30,30,30)" stroke-linecap="round" stroke-width="12" x1="576.0" x2="1072.0" y1="0.0" y2="0.0"/>
    <line stroke="rgb(30,30,30)" stroke-linecap="round" stroke-width="12" x1="1024.0" x2="1024.0" y1="912.0" y2="576.0"/>
    <line stroke="rgb(30,30,30)" stroke-linecap="round" stroke-width="12" x1="448.0" x2="448.0" y1="448.0" y2="224.0"/>
    <line stroke="rgb(30,30,30)" stroke-linecap="round" stroke-width="12" x1="1072.0" x2="576.0" y1="448.0" y2="448.0"/>
    <line stroke="rgb(30,30,30)" stroke-linecap="round" stroke-width="12" x1="0.0" x2="0.0" y1="576.0" y2="448.0"/>
    <line stroke="rgb(30,30,30)" stroke-linecap="round" stroke-width="12" x1="1200.0" x2="1200.0" y1="448.0" y2="0.0"/>
    <line stroke="rgb(30,30,30)" stroke-linecap="round" stroke-width="12" x1="0" x2="0.0" y1="1280" y2="1056.0"/>
    <line stroke="rgb(30,30,30)" stroke-linecap="round" stroke-width="12" x1="1072.0" x2="1072.0" y1="448.0" y2="0.0"/>
    <text style="font-family: sans-serif; font-size: 20pt" text-anchor="middle" x="800.0" y="512.0">HALLWAY_553 800.0</text>
    <text style="font-family: sans-serif; font-size: 20pt" text-anchor="middle" x="960.0" y="928.0">HALLWAY_148 352.0</text>
    <text style="font-family: sans-serif; font-size: 20pt" text-anchor="middle" x="448.0" y="1168.0">BEDROOM_526 784.0</text>
    <text style="font-family: sans-serif; font-size: 20pt" text-anchor="middle" x="448.0" y="816.0">LIVING_970 1680.0</text>
    <text style="font-family: sans-serif; font-size: 20pt" text-anchor="middle" x="1312.0" y="1096.0">KITCHEN_887 828.0</text>
    <text style="font-family: sans-serif; font-size: 20pt" text-anchor="middle" x="1312.0" y="744.0">BEDROOM_968 756.0</text>
    <text style="font-family: sans-serif; font-size: 20pt" text-anchor="middle" x="512.0" y="224.0">HALLWAY_229 224.0</text>
    <text style="font-family: sans-serif; font-size: 20pt" text-anchor="middle" x="224.0" y="336.0">BATH_874 392.0</text>
    <text style="font-family: sans-serif; font-size: 20pt" text-anchor="middle" x="224.0" y="112.0">BATH_95 392.0</text>
    <text style="font-family: sans-serif; font-size: 20pt" text-anchor="middle" x="824.0" y="224.0">DINING_355 868.0</text>
    <text style="font-family: sans-serif; font-size: 20pt" text-anchor="middle" x="1400.0" y="224.0">BEDROOM_14 700.0</text>
    <text style="font-family: sans-serif; font-size: 20pt" text-anchor="middle" x="1136.0" y="224.0">HALLWAY_439 224.0</text>
  </g>
</svg>
