<?xml version="1.0" encoding="utf-8" ?>
<svg baseProfile="full" height="1344" version="1.1" width="1664" xmlns="http://www.w3.org/2000/svg" xmlns:ev="http://www.w3.org/2001/xml-events" xmlns:xlink="http://www.w3.org/1999/xlink">
  <defs/>
  <g transform="translate(32,32)">
    <line stroke="rgb(30,30,30)" stroke-linecap="round" stroke-width="12" x1="1328.0" x2="1328.0" y1="1280.0" y2="672.0"/>
    <line stroke="rgb(30,30,30)" stroke-linecap="round" stroke-width="12" x1="1328.0" x2="976.0" y1="1280.0" y2="1280.0"/>
    <line stroke="rgb(30,30,30)" stroke-linecap="round" stroke-width="12" x1="0" x2="0.0" y1="1280" y2="928.0"/>
    <line stroke="rgb(30,30,30)" stroke-linecap="round" stroke-width="12" x1="848.0" x2="848.0" y1="1280.0" y2="928.0"/>
    <line stroke="rgb(30,30,30)" stroke-linecap="round" stroke-width="12" x1="1600.0" x2="1328.0" y1="432.0" y2="432.0"/>
    <line stroke="rgb(30,30,30)" stroke-linecap="round" stroke-width="12" x1="1600" x2="1600.0" y1="0" y2="432.0"/>
    <line stroke="rgb(30,30,30)" stroke-linecap="round" stroke-width="12" x1="1328.0" x2="1600" y1="0.0" y2="0"/>
    <line stroke="rgb(30,30,30)" stroke-linecap="round" stroke-width="12" x1="0.0" x2="0" y1="384.0" y2="0"/>
    <line stroke="rgb(30,30,30)" stroke-linecap="round" stroke-width="12" x1="1328.0" x2="1328.0" y1="432.0" y2="0.0"/>
    <line stroke="rgb(30,30,30)" stroke-linecap="round" stroke-width="12" x1="0" x2="544.0" y1="0" y2="0.0"/>
    <line stroke="rgb(30,30,30)" stroke-linecap="round" stroke-width="12" x1="976.0" x2="976.0" y1="672.0" y2="0.0"/>
    <line stroke="rgb(30,30,30)" stroke-linecap="round" stroke-width="12" x1="1328.0" x2="1328.0" y1="672.0" y2="432.0"/>
    <line stroke="rgb(30,30,30)" stroke-linecap="round" stroke-width="12" x1="544.0" x2="544.0" y1="384.0" y2="0.0"/>
    <line stroke="rgb(30,30,30)" stroke-linecap="round" stroke-width="12" x1="1600.0" x2="1600" y1="432.0" y2="1280"/>
    <line stroke="rgb(30,30,30)" stroke-linecap="round" stroke-width="12" x1="976.0" x2="1328.0" y1="0.0" y2="0.0"/>
    <line stroke="rgb(30,30,30)" stroke-linecap="round" stroke-width="12" x1="1328.0" x2="976.0" y1="672.0" y2="672.0"/>
    <line stroke="rgb(30,30,30)" stroke-linecap="round" stroke-width="12" x1="848.0" x2="544.0" y1="384.0" y2="384.0"/>
    <line stroke="rgb(30,30,30)" stroke-linecap="round" stroke-width="12" x1="848.0" x2="848.0" y1="384.0" y2="0.0"/>
    <line stroke="rgb(30,30,30)" stroke-linecap="round" stroke-width="12" x1="976.0" x2="848.0" y1="1280.0" y2="1280.0"/>
    <line stroke="rgb(30,30,30)" stroke-linecap="round" stroke-width="12" x1="1600" x2="1328.0" y1="1280" y2="1280.0"/>
    <line stroke="rgb(30,30,30)" stroke-linecap="round" stroke-width="12" x1="848.0" x2="848.0" y1="928.0" y2="384.0"/>
    <line stroke="rgb(30,30,30)" stroke-linecap="round" stroke-width="12" x1="848.0" x2="0" y1="1280.0" y2="1280"/>
    <line stroke="rgb(30,30,30)" stroke-linecap="round" stroke-width="12" x1="848.0" x2="0.0" y1="928.0" y2="928.0"/>
    <line stroke="rgb(30,30,30)" stroke-linecap="round" stroke-width="12" x1="544.0" x2="0.0" y1="384.0" y2="384.0"/>
    <line stroke="rgb(30,30,30)" stroke-linecap="round" stroke-width="12" x1="0.0" x2="0.0" y1="928.0" y2="384.0"/>
    <line stroke="rgb(30,30,30)" stroke-linecap="round" stroke-width="12" x1="544.0" x2="848.0" y1="0.0" y2="0.0"/>
    <line stroke="rgb(30,30,30)" stroke-linecap="round" stroke-width="12" x1="848.0" x2="976.0" y1="0.0" y2="0.0"/>
    <line stroke="rgb(30,30,30)" stroke-linecap="round" stroke-width="12" x1="976.0" x2="976.0" y1="1280.0" y2="672.0"/>
    <text style="font-family: sans-serif; font-size: 20pt" text-anchor="middle" x="912.0" y="640.0">HALLWAY_864 640.0</text>
    <text style="font-family: sans-serif; font-size: 20pt" text-anchor="middle" x="424.0" y="1104.0">DINING_313 1166.0</text>
    <text style="font-family: sans-serif; font-size: 20pt" text-anchor="middle" x="424.0" y="656.0">LIVING_827 1802.0</text>
    <text style="font-family: sans-serif; font-size: 20pt" text-anchor="middle" x="272.0" y="192.0">BEDROOM_789 816.0</text>
    <text style="font-family: sans-serif; font-size: 20pt" text-anchor="middle" x="696.0" y="192.0">BATH_424 456.0</text>
    <text style="font-family: sans-serif; font-size: 20pt" text-anchor="middle" x="1152.0" y="976.0">BEDROOM_899 836.0</text>
    <text style="font-family: sans-serif; font-size: 20pt" text-anchor="middle" x="1152.0" y="336.0">BEDROOM_363 924.0</text>
    <text style="font-family: sans-serif; font-size: 20pt" text-anchor="middle" x="1464.0" y="856.0">KITCHEN_554 901.0</text>
    <text style="font-family: sans-serif; font-size: 20pt" text-anchor="middle" x="1464.0" y="216.0">BATH_845 459.0</text>
  </g>
</svg>
