<?xml version="1.0" encoding="utf-8" ?>
<svg baseProfile="full" height="1344" version="1.1" width="1664" xmlns="http://www.w3.org/2000/svg" xmlns:ev="http://www.w3.org/2001/xml-events" xmlns:xlink="http://www.w3.org/1999/xlink">
  <defs/>
  <g transform="translate(32,32)">
    <line stroke="rgb(30,30,30)" stroke-linecap="round" stroke-width="12" x1="512.0" x2="512.0" y1="1280.0" y2="848.0"/>
    <line stroke="rgb(30,30,30)" stroke-linecap="round" stroke-width="12" x1="512.0" x2="384.0" y1="1280.0" y2="1280.0"/>
    <line stroke="rgb(30,30,30)" stroke-linecap="round" stroke-width="12" x1="0.0" x2="0" y1="576.0" y2="0"/>
    <line stroke="rgb(30,30,30)" stroke-linecap="round" stroke-width="12" x1="384.0" x2="384.0" y1="576.0" y2="0.0"/>
    <line stroke="rgb(30,30,30)" stroke-linecap="round" stroke-width="12" x1="1600.0" x2="1376.0" y1="368.0" y2="368.0"/>
    <line stroke="rgb(30,30,30)" stroke-linecap="round" stroke-width="12" x1="1040.0" x2="512.0" y1="1280.0" y2="1280.0"/>
    <line stroke="rgb(30,30,30)" stroke-linecap="round" stroke-width="12" x1="1040.0" x2="1040.0" y1="848.0" y2="496.0"/>
    <line stroke="rgb(30,30,30)" stroke-linecap="round" stroke-width="12" x1="1600.0" x2="1600.0" y1="368.0" y2="496.0"/>
    <line stroke="rgb(30,30,30)" stroke-linecap="round" stroke-width="12" x1="1248.0" x2="1040.0" y1="368.0" y2="368.0"/>
    <line stroke="rgb(30,30,30)" stroke-linecap="round" stroke-width="12" x1="1376.0" x2="1376.0" y1="1280.0" y2="496.0"/>
    <line stroke="rgb(30,30,30)" stroke-linecap="round" stroke-width="12" x1="1600" x2="1376.0" y1="1280" y2="1280.0"/>
    <line stroke="rgb(30,30,30)" stroke-linecap="round" stroke-width="12" x1="1376.0" x2="1248.0" y1="496.0" y2="496.0"/>
    <line stroke="rgb(30,30,30)" stroke-linecap="round" stroke-width="12" x1="512.0" x2="512.0" y1="848.0" y2="0.0"/>
    <line stroke="rgb(30,30,30)" stroke-linecap="round" stroke-width="12" x1="1040.0" x2="1040.0" y1="496.0" y2="368.0"/>
    <line stroke="rgb(30,30,30)" stroke-linecap="round" stroke-width="12" x1="1600.0" x2="1600" y1="496.0" y2="1280"/>
    <line stroke="rgb(30,30,30)" stroke-linecap="round" stroke-width="12" x1="1600" x2="1600.0" y1="0" y2="368.0"/>
    <line stroke="rgb(30,30,30)" stroke-linecap="round" stroke-width="12" x1="384.0" x2="0" y1="1280.0" y2="1280"/>
    <line stroke="rgb(30,30,30)" stroke-linecap="round" stroke-width="12" x1="512.0" x2="1040.0" y1="0.0" y2="0.0"/>
    <line stroke="rgb(30,30,30)" stroke-linecap="round" stroke-width="12" x1="1376.0" x2="1248.0" y1="368.0" y2="368.0"/>
    <line stroke="rgb(30,30,30)" stroke-linecap="round" stroke-width="12" x1="1040.0" x2="1248.0" y1="0.0" y2="0.0"/>
    <line stroke="rgb(30,30,30)" stroke-linecap="round" stroke-width="12" x1="1248.0" x2="1248.0" y1="368.0" y2="0.0"/>
    <line stroke="rgb(30,30,30)" stroke-linecap="round" stroke-width="12" x1="1376.0" x2="1248.0" y1="1280.0" y2="1280.0"/>
    <line stroke="rgb(30,30,30)" stroke-linecap="round" stroke-width="12" x1="1600.0" x2="1376.0" y1="496.0" y2="496.0"/>
    <line stroke="rgb(30,30,30)" stroke-linecap="round" stroke-width="12" x1="1248.0" x2="1248.0" y1="1280.0" y2="496.0"/>
    <line stroke="rgb(30,30,30)" stroke-linecap="round" stroke-width="12" x1="1248.0" x2="1040.0" y1="1280.0" y2="1280.0"/>
    <line stroke="rgb(30,30,30)" stroke-linecap="round" stroke-width="12" x1="384.0" x2="512.0" y1="0.0" y2="0.0"/>
    <line stroke="rgb(30,30,30)" stroke-linecap="round" stroke-width="12" x1="1376.0" x2="1376.0" y1="368.0" y2="0.0"/>
    <line stroke="rgb(30,30,30)" stroke-linecap="round" stroke-width="12" x1="1040.0" x2="1040.0" y1="368.0" y2="0.0"/>
    <line stroke="rgb(30,30,30)" stroke-linecap="round" stroke-width="12" x1="1376.0" x2="1600" y1="0.0" y2="0"/>
    <line stroke="rgb(30,30,30)" stroke-linecap="round" stroke-width="12" x1="0" x2="384.0" y1="0" y2="0.0"/>
    <line stroke="rgb(30,30,30)" stroke-linecap="round" stroke-width="12" x1="1248.0" x2="1040.0" y1="496.0" y2="496.0"/>
    <line stroke="rgb(30,30,30)" stroke-linecap="round" stroke-width="12" x1="1040.0" x2="1040.0" y1="1280.0" y2="848.0"/>
    <line stroke="rgb(30,30,30)" stroke-linecap="round" stroke-width="12" x1="384.0" x2="0.0" y1="576.0" y2="576.0"/>
    <line stroke="rgb(30,30,30)" stroke-linecap="round" stroke-width="12" x1="1248.0" x2="1376.0" y1="0.0" y2="0.0"/>
    <line stroke="rgb(30,30,30)" stroke-linecap="round" stroke-width="12" x1="1040.0" x2="512.0" y1="848.0" y2="848.0"/>
    <line stroke="rgb(30,30,30)" stroke-linecap="round" stroke-width="12" x1="384.0" x2="384.0" y1="1280.0" y2="576.0"/>
    <line stroke="rgb(30,30,30)" stroke-linecap="round" stroke-width="12" x1="0" x2="0.0" y1="1280" y2="576.0"/>
    <text style="font-family: sans-serif; font-size: 20pt" text-anchor="middle" x="448.0" y="640.0">HALLWAY_7 640.0</text>
    <text style="font-family: sans-serif; font-size: 20pt" text-anchor="middle" x="192.0" y="928.0">DINING_617 1056.0</text>
    <text style="font-family: sans-serif; font-size: 20pt" text-anchor="middle" x="192.0" y="288.0">BEDROOM_442 864.0</text>
    <text style="font-family: sans-serif; font-size: 20pt" text-anchor="middle" x="776.0" y="1064.0">KITCHEN_531 891.0</text>
    <text style="font-family: sans-serif; font-size: 20pt" text-anchor="middle" x="776.0" y="424.0">LIVING_381 1749.0</text>
    <text style="font-family: sans-serif; font-size: 20pt" text-anchor="middle" x="1320.0" y="432.0">HALLWAY_699 280.0</text>
    <text style="font-family: sans-serif; font-size: 20pt" text-anchor="middle" x="1144.0" y="888.0">BEDROOM_615 637.0</text>
    <text style="font-family: sans-serif; font-size: 20pt" text-anchor="middle" x="1488.0" y="888.0">BEDROOM_987 686.0</text>
    <text style="font-family: sans-serif; font-size: 20pt" text-anchor="middle" x="1312.0" y="888.0">HALLWAY_224 392.0</text>
    <text style="font-family: sans-serif; font-size: 20pt" text-anchor="middle" x="1144.0" y="184.0">BATH_638 299.0</text>
    <text style="font-family: sans-serif; font-size: 20pt" text-anchor="middle" x="1488.0" y="184.0">BATH_165 322.0</text>
    <text style="font-family: sans-serif; font-size: 20pt" text-anchor="middle" x="1312.0" y="184.0">HALLWAY_23 184.0</text>
  </g>
</svg>
