<?xml version="1.0" encoding="utf-8" ?>
<svg baseProfile="full" height="1344" version="1.1" width="1664" xmlns="http://www.w3.org/2000/svg" xmlns:ev="http://www.w3.org/2001/xml-events" xmlns:xlink="http://www.w3.org/1999/xlink">
  <defs/>
  <g transform="translate(32,32)">
    <line stroke="rgb(30,30,30)" stroke-linecap="round" stroke-width="12" x1="1600.0" x2="1024.0" y1="1088.0" y2="1088.0"/>
    <line stroke="rgb(30,30,30)" stroke-linecap="round" stroke-width="12" x1="0.0" x2="0.0" y1="704.0" y2="400.0"/>
    <line stroke="rgb(30,30,30)" stroke-linecap="round" stroke-width="12" x1="752.0" x2="0.0" y1="1088.0" y2="1088.0"/>
    <line stroke="rgb(30,30,30)" stroke-linecap="round" stroke-width="12" x1="1024.0" x2="0" y1="1280.0" y2="1280"/>
    <line stroke="rgb(30,30,30)" stroke-linecap="round" stroke-width="12" x1="1600" x2="1600.0" y1="0" y2="272.0"/>
    <line stroke="rgb(30,30,30)" stroke-linecap="round" stroke-width="12" x1="1600.0" x2="1600" y1="1088.0" y2="1280"/>
    <line stroke="rgb(30,30,30)" stroke-linecap="round" stroke-width="12" x1="0" x2="0.0" y1="1280" y2="1088.0"/>
    <line stroke="rgb(30,30,30)" stroke-linecap="round" stroke-width="12" x1="1024.0" x2="1024.0" y1="1280.0" y2="1088.0"/>
    <line stroke="rgb(30,30,30)" stroke-linecap="round" stroke-width="12" x1="1600.0" x2="1600.0" y1="400.0" y2="704.0"/>
    <line stroke="rgb(30,30,30)" stroke-linecap="round" stroke-width="12" x1="0.0" x2="0" y1="272.0" y2="0"/>
    <line stroke="rgb(30,30,30)" stroke-linecap="round" stroke-width="12" x1="0.0" x2="0.0" y1="1088.0" y2="832.0"/>
    <line stroke="rgb(30,30,30)" stroke-linecap="round" stroke-width="12" x1="1600.0" x2="320.0" y1="704.0" y2="704.0"/>
    <line stroke="rgb(30,30,30)" stroke-linecap="round" stroke-width="12" x1="320.0" x2="0.0" y1="704.0" y2="704.0"/>
    <line stroke="rgb(30,30,30)" stroke-linecap="round" stroke-width="12" x1="0.0" x2="0.0" y1="400.0" y2="272.0"/>
    <line stroke="rgb(30,30,30)" stroke-linecap="round" stroke-width="12" x1="896.0" x2="0.0" y1="272.0" y2="272.0"/>
    <line stroke="rgb(30,30,30)" stroke-linecap="round" stroke-width="12" x1="1600.0" x2="752.0" y1="832.0" y2="832.0"/>
    <line stroke="rgb(30,30,30)" stroke-linecap="round" stroke-width="12" x1="1024.0" x2="752.0" y1="1088.0" y2="1088.0"/>
    <line stroke="rgb(30,30,30)" stroke-linecap="round" stroke-width="12" x1="320.0" x2="320.0" y1="704.0" y2="400.0"/>
    <line stroke="rgb(30,30,30)" stroke-linecap="round" stroke-width="12" x1="0.0" x2="0.0" y1="832.0" y2="704.0"/>
    <line stroke="rgb(30,30,30)" stroke-linecap="round" stroke-width="12" x1="896.0" x2="1600" y1="0.0" y2="0"/>
    <line stroke="rgb(30,30,30)" stroke-linecap="round" stroke-width="12" x1="1600.0" x2="1600.0" y1="704.0" y2="832.0"/>
    <line stroke="rgb(30,30,30)" stroke-linecap="round" stroke-width="12" x1="752.0" x2="752.0" y1="1088.0" y2="832.0"/>
    <line stroke="rgb(30,30,30)" stroke-linecap="round" stroke-width="12" x1="1600.0" x2="1600.0" y1="272.0" y2="400.0"/>
    <line stroke="rgb(30,30,30)" stroke-linecap="round" stroke-width="12" x1="896.0" x2="896.0" y1="272.0" y2="0.0"/>
    <line stroke="rgb(30,30,30)" stroke-linecap="round" stroke-width="12" x1="320.0" x2="0.0" y1="400.0" y2="400.0"/>
    <line stroke="rgb(30,30,30)" stroke-linecap="round" stroke-width="12" x1="1600.0" x2="320.0" y1="400.0" y2="400.0"/>
    <line stroke="rgb(30,30,30)" stroke-linecap="round" stroke-width="12" x1="752.0" x2="0.0" y1="832.0" y2="832.0"/>
    <line stroke="rgb(30,30,30)" stroke-linecap="round" stroke-width="12" x1="0" x2="896.0" y1="0" y2="0.0"/>
    <line stroke="rgb(30,30,30)" stroke-linecap="round" stroke-width="12" x1="1600.0" x2="896.0" y1="272.0" y2="272.0"/>
    <line stroke="rgb(30,30,30)" stroke-linecap="round" stroke-width="12" x1="1600" x2="1024.0" y1="1280" y2="1280.0"/>
    <line stroke="rgb(30,30,30)" stroke-linecap="round" stroke-width="12" x1="1600.0" x2="1600.0" y1="832.0" y2="1088.0"/>
    <text style="font-family: sans-serif; font-size: 20pt" text-anchor="middle" x="800.0" y="768.0">HALLWAY_352 800.0</text>
    <text style="font-family: sans-serif; font-size: 20pt" text-anchor="middle" x="512.0" y="1184.0">BEDROOM_143 768.0</text>
    <text style="font-family: sans-serif; font-size: 20pt" text-anchor="middle" x="1312.0" y="1184.0">BATH_160 432.0</text>
    <text style="font-family: sans-serif; font-size: 20pt" text-anchor="middle" x="376.0" y="960.0">BEDROOM_57 752.0</text>
    <text style="font-family: sans-serif; font-size: 20pt" text-anchor="middle" x="1176.0" y="960.0">KITCHEN_156 848.0</text>
    <text style="font-family: sans-serif; font-size: 20pt" text-anchor="middle" x="800.0" y="336.0">HALLWAY_63 800.0</text>
    <text style="font-family: sans-serif; font-size: 20pt" text-anchor="middle" x="160.0" y="552.0">BATH_34 380.0</text>
    <text style="font-family: sans-serif; font-size: 20pt" text-anchor="middle" x="960.0" y="552.0">LIVING_146 1520.0</text>
    <text style="font-family: sans-serif; font-size: 20pt" text-anchor="middle" x="448.0" y="136.0">DINING_135 952.0</text>
    <text style="font-family: sans-serif; font-size: 20pt" text-anchor="middle" x="1248.0" y="136.0">BEDROOM_899 748.0</text>
  </g>
</svg>
