<?xml version="1.0" encoding="utf-8" ?>
<svg baseProfile="full" height="1344" version="1.1" width="1664" xmlns="http://www.w3.org/2000/svg" xmlns:ev="http://www.w3.org/2001/xml-events" xmlns:xlink="http://www.w3.org/1999/xlink">
  <defs/>
  <g transform="translate(32,32)">
    <line stroke="rgb(30,30,30)" stroke-linecap="round" stroke-width="12" x1="0.0" x2="0.0" y1="512.0" y2="144.0"/>
    <line stroke="rgb(30,30,30)" stroke-linecap="round" stroke-width="12" x1="1600.0" x2="1104.0" y1="976.0" y2="976.0"/>
    <line stroke="rgb(30,30,30)" stroke-linecap="round" stroke-width="12" x1="848.0" x2="0" y1="1280.0" y2="1280"/>
    <line stroke="rgb(30,30,30)" stroke-linecap="round" stroke-width="12" x1="1600" x2="848.0" y1="1280" y2="1280.0"/>
    <line stroke="rgb(30,30,30)" stroke-linecap="round" stroke-width="12" x1="0" x2="800.0" y1="0" y2="0.0"/>
    <line stroke="rgb(30,30,30)" stroke-linecap="round" stroke-width="12" x1="848.0" x2="0.0" y1="976.0" y2="976.0"/>
    <line stroke="rgb(30,30,30)" stroke-linecap="round" stroke-width="12" x1="1376.0" x2="1376.0" y1="512.0" y2="0.0"/>
    <line stroke="rgb(30,30,30)" stroke-linecap="round" stroke-width="12" x1="1104.0" x2="848.0" y1="976.0" y2="976.0"/>
    <line stroke="rgb(30,30,30)" stroke-linecap="round" stroke-width="12" x1="928.0" x2="800.0" y1="512.0" y2="512.0"/>
    <line stroke="rgb(30,30,30)" stroke-linecap="round" stroke-width="12" x1="1600" x2="1600.0" y1="0" y2="512.0"/>
    <line stroke="rgb(30,30,30)" stroke-linecap="round" stroke-width="12" x1="800.0" x2="800.0" y1="512.0" y2="144.0"/>
    <line stroke="rgb(30,30,30)" stroke-linecap="round" stroke-width="12" x1="1104.0" x2="1104.0" y1="976.0" y2="512.0"/>
    <line stroke="rgb(30,30,30)" stroke-linecap="round" stroke-width="12" x1="1600.0" x2="1376.0" y1="512.0" y2="512.0"/>
    <line stroke="rgb(30,30,30)" stroke-linecap="round" stroke-width="12" x1="1600.0" x2="1600.0" y1="512.0" y2="976.0"/>
    <line stroke="rgb(30,30,30)" stroke-linecap="round" stroke-width="12" x1="848.0" x2="848.0" y1="1280.0" y2="976.0"/>
    <line stroke="rgb(30,30,30)" stroke-linecap="round" stroke-width="12" x1="0.0" x2="0.0" y1="976.0" y2="512.0"/>
    <line stroke="rgb(30,30,30)" stroke-linecap="round" stroke-width="12" x1="1104.0" x2="928.0" y1="512.0" y2="512.0"/>
    <line stroke="rgb(30,30,30)" stroke-linecap="round" stroke-width="12" x1="928.0" x2="1376.0" y1="0.0" y2="0.0"/>
    <line stroke="rgb(30,30,30)" stroke-linecap="round" stroke-width="12" x1="0" x2="0.0" y1="1280" y2="976.0"/>
    <line stroke="rgb(30,30,30)" stroke-linecap="round" stroke-width="12" x1="0.0" x2="0" y1="144.0" y2="0"/>
    <line stroke="rgb(30,30,30)" stroke-linecap="round" stroke-width="12" x1="928.0" x2="928.0" y1="512.0" y2="0.0"/>
    <line stroke="rgb(30,30,30)" stroke-linecap="round" stroke-width="12" x1="1376.0" x2="1104.0" y1="512.0" y2="512.0"/>
    <line stroke="rgb(30,30,30)" stroke-linecap="round" stroke-width="12" x1="800.0" x2="928.0" y1="0.0" y2="0.0"/>
    <line stroke="rgb(30,30,30)" stroke-linecap="round" stroke-width="12" x1="800.0" x2="0.0" y1="512.0" y2="512.0"/>
    <line stroke="rgb(30,30,30)" stroke-linecap="round" stroke-width="12" x1="800.0" x2="0.0" y1="144.0" y2="144.0"/>
    <line stroke="rgb(30,30,30)" stroke-linecap="round" stroke-width="12" x1="1376.0" x2="1600" y1="0.0" y2="0"/>
    <line stroke="rgb(30,30,30)" stroke-linecap="round" stroke-width="12" x1="1600.0" x2="1600" y1="976.0" y2="1280"/>
    <line stroke="rgb(30,30,30)" stroke-linecap="round" stroke-width="12" x1="800.0" x2="800.0" y1="144.0" y2="0.0"/>
    <text style="font-family: sans-serif; font-size: 20pt" text-anchor="middle" x="424.0" y="1128.0">KITCHEN_878 1007.0</text>
    <text style="font-family: sans-serif; font-size: 20pt" text-anchor="middle" x="1224.0" y="1128.0">BEDROOM_828 893.0</text>
    <text style="font-family: sans-serif; font-size: 20pt" text-anchor="middle" x="552.0" y="744.0">LIVING_977 2001.0</text>
    <text style="font-family: sans-serif; font-size: 20pt" text-anchor="middle" x="1352.0" y="744.0">BEDROOM_225 899.0</text>
    <text style="font-family: sans-serif; font-size: 20pt" text-anchor="middle" x="864.0" y="256.0">HALLWAY_917 256.0</text>
    <text style="font-family: sans-serif; font-size: 20pt" text-anchor="middle" x="400.0" y="328.0">DINING_815 1150.0</text>
    <text style="font-family: sans-serif; font-size: 20pt" text-anchor="middle" x="400.0" y="72.0">BATH_570 450.0</text>
    <text style="font-family: sans-serif; font-size: 20pt" text-anchor="middle" x="1152.0" y="256.0">BEDROOM_972 896.0</text>
    <text style="font-family: sans-serif; font-size: 20pt" text-anchor="middle" x="1488.0" y="256.0">BATH_319 448.0</text>
  </g>
</svg>
