<?xml version="1.0" encoding="utf-8" ?>
<svg baseProfile="full" height="1344" version="1.1" width="1664" xmlns="http://www.w3.org/2000/svg" xmlns:ev="http://www.w3.org/2001/xml-events" xmlns:xlink="http://www.w3.org/1999/xlink">
  <defs/>
  <g transform="translate(32,32)">
    <line stroke="rgb(30,30,30)" stroke-linecap="round" stroke-width="12" x1="1248.0" x2="1248.0" y1="1280.0" y2="848.0"/>
    <line stroke="rgb(30,30,30)" stroke-linecap="round" stroke-width="12" x1="640.0" x2="0" y1="1280.0" y2="1280"/>
    <line stroke="rgb(30,30,30)" stroke-linecap="round" stroke-width="12" x1="1600" x2="1376.0" y1="1280" y2="1280.0"/>
    <line stroke="rgb(30,30,30)" stroke-linecap="round" stroke-width="12" x1="1600.0" x2="1376.0" y1="464.0" y2="464.0"/>
    <line stroke="rgb(30,30,30)" stroke-linecap="round" stroke-width="12" x1="1376.0" x2="1248.0" y1="1280.0" y2="1280.0"/>
    <line stroke="rgb(30,30,30)" stroke-linecap="round" stroke-width="12" x1="1248.0" x2="1376.0" y1="0.0" y2="0.0"/>
    <line stroke="rgb(30,30,30)" stroke-linecap="round" stroke-width="12" x1="1376.0" x2="1600" y1="0.0" y2="0"/>
    <line stroke="rgb(30,30,30)" stroke-linecap="round" stroke-width="12" x1="1024.0" x2="1248.0" y1="0.0" y2="0.0"/>
    <line stroke="rgb(30,30,30)" stroke-linecap="round" stroke-width="12" x1="1248.0" x2="1024.0" y1="848.0" y2="848.0"/>
    <line stroke="rgb(30,30,30)" stroke-linecap="round" stroke-width="12" x1="1024.0" x2="1024.0" y1="672.0" y2="544.0"/>
    <line stroke="rgb(30,30,30)" stroke-linecap="round" stroke-width="12" x1="1600.0" x2="1600" y1="464.0" y2="1280"/>
    <line stroke="rgb(30,30,30)" stroke-linecap="round" stroke-width="12" x1="1248.0" x2="1024.0" y1="1280.0" y2="1280.0"/>
    <line stroke="rgb(30,30,30)" stroke-linecap="round" stroke-width="12" x1="1024.0" x2="1024.0" y1="1280.0" y2="848.0"/>
    <line stroke="rgb(30,30,30)" stroke-linecap="round" stroke-width="12" x1="1024.0" x2="1024.0" y1="848.0" y2="672.0"/>
    <line stroke="rgb(30,30,30)" stroke-linecap="round" stroke-width="12" x1="1600" x2="1600.0" y1="0" y2="464.0"/>
    <line stroke="rgb(30,30,30)" stroke-linecap="round" stroke-width="12" x1="640.0" x2="640.0" y1="496.0" y2="0.0"/>
    <line stroke="rgb(30,30,30)" stroke-linecap="round" stroke-width="12" x1="640.0" x2="640.0" y1="544.0" y2="496.0"/>
    <line stroke="rgb(30,30,30)" stroke-linecap="round" stroke-width="12" x1="640.0" x2="1024.0" y1="0.0" y2="0.0"/>
    <line stroke="rgb(30,30,30)" stroke-linecap="round" stroke-width="12" x1="0" x2="0.0" y1="1280" y2="496.0"/>
    <line stroke="rgb(30,30,30)" stroke-linecap="round" stroke-width="12" x1="0.0" x2="0" y1="496.0" y2="0"/>
    <line stroke="rgb(30,30,30)" stroke-linecap="round" stroke-width="12" x1="1376.0" x2="1376.0" y1="1280.0" y2="464.0"/>
    <line stroke="rgb(30,30,30)" stroke-linecap="round" stroke-width="12" x1="1024.0" x2="640.0" y1="544.0" y2="544.0"/>
    <line stroke="rgb(30,30,30)" stroke-linecap="round" stroke-width="12" x1="1248.0" x2="1248.0" y1="848.0" y2="0.0"/>
    <line stroke="rgb(30,30,30)" stroke-linecap="round" stroke-width="12" x1="640.0" x2="640.0" y1="672.0" y2="544.0"/>
    <line stroke="rgb(30,30,30)" stroke-linecap="round" stroke-width="12" x1="640.0" x2="0.0" y1="496.0" y2="496.0"/>
    <line stroke="rgb(30,30,30)" stroke-linecap="round" stroke-width="12" x1="0" x2="640.0" y1="0" y2="0.0"/>
    <line stroke="rgb(30,30,30)" stroke-linecap="round" stroke-width="12" x1="1376.0" x2="1376.0" y1="464.0" y2="0.0"/>
    <line stroke="rgb(30,30,30)" stroke-linecap="round" stroke-width="12" x1="640.0" x2="640.0" y1="1280.0" y2="672.0"/>
    <line stroke="rgb(30,30,30)" stroke-linecap="round" stroke-width="12" x1="1024.0" x2="640.0" y1="672.0" y2="672.0"/>
    <line stroke="rgb(30,30,30)" stroke-linecap="round" stroke-width="12" x1="1024.0" x2="1024.0" y1="544.0" y2="0.0"/>
    <line stroke="rgb(30,30,30)" stroke-linecap="round" stroke-width="12" x1="1024.0" x2="640.0" y1="1280.0" y2="1280.0"/>
    <text style="font-family: sans-serif; font-size: 20pt" text-anchor="middle" x="320.0" y="888.0">LIVING_177 1960.0</text>
    <text style="font-family: sans-serif; font-size: 20pt" text-anchor="middle" x="320.0" y="248.0">DINING_208 1240.0</text>
    <text style="font-family: sans-serif; font-size: 20pt" text-anchor="middle" x="832.0" y="976.0">KITCHEN_151 912.0</text>
    <text style="font-family: sans-serif; font-size: 20pt" text-anchor="middle" x="832.0" y="272.0">BEDROOM_178 816.0</text>
    <text style="font-family: sans-serif; font-size: 20pt" text-anchor="middle" x="832.0" y="608.0">HALLWAY_478 192.0</text>
    <text style="font-family: sans-serif; font-size: 20pt" text-anchor="middle" x="1312.0" y="640.0">HALLWAY_310 640.0</text>
    <text style="font-family: sans-serif; font-size: 20pt" text-anchor="middle" x="1136.0" y="1064.0">BATH_855 378.0</text>
    <text style="font-family: sans-serif; font-size: 20pt" text-anchor="middle" x="1136.0" y="424.0">BEDROOM_261 742.0</text>
    <text style="font-family: sans-serif; font-size: 20pt" text-anchor="middle" x="1488.0" y="872.0">BEDROOM_886 714.0</text>
    <text style="font-family: sans-serif; font-size: 20pt" text-anchor="middle" x="1488.0" y="232.0">BATH_825 406.0</text>
  </g>
</svg>
