<?xml version="1.0" encoding="utf-8" ?>
<svg baseProfile="full" height="1344" version="1.1" width="1664" xmlns="http://www.w3.org/2000/svg" xmlns:ev="http://www.w3.org/2001/xml-events" xmlns:xlink="http://www.w3.org/1999/xlink">
  <defs/>
  <g transform="translate(32,32)">
    <line stroke="rgb(30,30,30)" stroke-linecap="round" stroke-width="12" x1="608.0" x2="608.0" y1="1280.0" y2="768.0"/>
    <line stroke="rgb(30,30,30)" stroke-linecap="round" stroke-width="12" x1="0" x2="0.0" y1="1280" y2="768.0"/>
    <line stroke="rgb(30,30,30)" stroke-linecap="round" stroke-width="12" x1="0.0" x2="0.0" y1="768.0" y2="640.0"/>
    <line stroke="rgb(30,30,30)" stroke-linecap="round" stroke-width="12" x1="688.0" x2="864.0" y1="0.0" y2="0.0"/>
    <line stroke="rgb(30,30,30)" stroke-linecap="round" stroke-width="12" x1="688.0" x2="688.0" y1="640.0" y2="304.0"/>
    <line stroke="rgb(30,30,30)" stroke-linecap="round" stroke-width="12" x1="864.0" x2="688.0" y1="640.0" y2="640.0"/>
    <line stroke="rgb(30,30,30)" stroke-linecap="round" stroke-width="12" x1="1600.0" x2="1600" y1="768.0" y2="1280"/>
    <line stroke="rgb(30,30,30)" stroke-linecap="round" stroke-width="12" x1="864.0" x2="1600" y1="0.0" y2="0"/>
    <line stroke="rgb(30,30,30)" stroke-linecap="round" stroke-width="12" x1="688.0" x2="688.0" y1="304.0" y2="0.0"/>
    <line stroke="rgb(30,30,30)" stroke-linecap="round" stroke-width="12" x1="0.0" x2="0" y1="304.0" y2="0"/>
    <line stroke="rgb(30,30,30)" stroke-linecap="round" stroke-width="12" x1="1600.0" x2="1600.0" y1="640.0" y2="768.0"/>
    <line stroke="rgb(30,30,30)" stroke-linecap="round" stroke-width="12" x1="1600.0" x2="1056.0" y1="768.0" y2="768.0"/>
    <line stroke="rgb(30,30,30)" stroke-linecap="round" stroke-width="12" x1="688.0" x2="0.0" y1="640.0" y2="640.0"/>
    <line stroke="rgb(30,30,30)" stroke-linecap="round" stroke-width="12" x1="688.0" x2="0.0" y1="304.0" y2="304.0"/>
    <line stroke="rgb(30,30,30)" stroke-linecap="round" stroke-width="12" x1="1600" x2="1600.0" y1="0" y2="640.0"/>
    <line stroke="rgb(30,30,30)" stroke-linecap="round" stroke-width="12" x1="1600" x2="1056.0" y1="1280" y2="1280.0"/>
    <line stroke="rgb(30,30,30)" stroke-linecap="round" stroke-width="12" x1="1056.0" x2="608.0" y1="768.0" y2="768.0"/>
    <line stroke="rgb(30,30,30)" stroke-linecap="round" stroke-width="12" x1="0" x2="688.0" y1="0" y2="0.0"/>
    <line stroke="rgb(30,30,30)" stroke-linecap="round" stroke-width="12" x1="384.0" x2="384.0" y1="1280.0" y2="768.0"/>
    <line stroke="rgb(30,30,30)" stroke-linecap="round" stroke-width="12" x1="1056.0" x2="1056.0" y1="1280.0" y2="768.0"/>
    <line stroke="rgb(30,30,30)" stroke-linecap="round" stroke-width="12" x1="608.0" x2="384.0" y1="1280.0" y2="1280.0"/>
    <line stroke="rgb(30,30,30)" stroke-linecap="round" stroke-width="12" x1="1600.0" x2="864.0" y1="640.0" y2="640.0"/>
    <line stroke="rgb(30,30,30)" stroke-linecap="round" stroke-width="12" x1="384.0" x2="0" y1="1280.0" y2="1280"/>
    <line stroke="rgb(30,30,30)" stroke-linecap="round" stroke-width="12" x1="384.0" x2="0.0" y1="768.0" y2="768.0"/>
    <line stroke="rgb(30,30,30)" stroke-linecap="round" stroke-width="12" x1="864.0" x2="864.0" y1="640.0" y2="0.0"/>
    <line stroke="rgb(30,30,30)" stroke-linecap="round" stroke-width="12" x1="608.0" x2="384.0" y1="768.0" y2="768.0"/>
    <line stroke="rgb(30,30,30)" stroke-linecap="round" stroke-width="12" x1="0.0" x2="0.0" y1="640.0" y2="304.0"/>
    <line stroke="rgb(30,30,30)" stroke-linecap="round" stroke-width="12" x1="1056.0" x2="608.0" y1="1280.0" y2="1280.0"/>
    <text style="font-family: sans-serif; font-size: 20pt" text-anchor="middle" x="800.0" y="704.0">HALLWAY_891 800.0</text>
    <text style="font-family: sans-serif; font-size: 20pt" text-anchor="middle" x="192.0" y="1024.0">BEDROOM_884 768.0</text>
    <text style="font-family: sans-serif; font-size: 20pt" text-anchor="middle" x="496.0" y="1024.0">BATH_740 448.0</text>
    <text style="font-family: sans-serif; font-size: 20pt" text-anchor="middle" x="832.0" y="1024.0">KITCHEN_816 896.0</text>
    <text style="font-family: sans-serif; font-size: 20pt" text-anchor="middle" x="1328.0" y="1024.0">DINING_553 1088.0</text>
    <text style="font-family: sans-serif; font-size: 20pt" text-anchor="middle" x="344.0" y="472.0">BEDROOM_306 903.0</text>
    <text style="font-family: sans-serif; font-size: 20pt" text-anchor="middle" x="344.0" y="152.0">BEDROOM_663 817.0</text>
    <text style="font-family: sans-serif; font-size: 20pt" text-anchor="middle" x="776.0" y="320.0">BATH_270 440.0</text>
    <text style="font-family: sans-serif; font-size: 20pt" text-anchor="middle" x="1232.0" y="320.0">LIVING_356 1840.0</text>
  </g>
</svg>
