<?xml version="1.0" encoding="utf-8" ?>
<svg baseProfile="full" height="1344" version="1.1" width="1664" xmlns="http://www.w3.org/2000/svg" xmlns:ev="http://www.w3.org/2001/xml-events" xmlns:xlink="http://www.w3.org/1999/xlink">
  <defs/>
  <g transform="translate(32,32)">
    <line stroke="rgb(30,30,30)" stroke-linecap="round" stroke-width="12" x1="304.0" x2="304.0" y1="720.0" y2="0.0"/>
    <line stroke="rgb(30,30,30)" stroke-linecap="round" stroke-width="12" x1="1600.0" x2="1440.0" y1="528.0" y2="528.0"/>
    <line stroke="rgb(30,30,30)" stroke-linecap="round" stroke-width="12" x1="1600" x2="1440.0" y1="1280" y2="1280.0"/>
    <line stroke="rgb(30,30,30)" stroke-linecap="round" stroke-width="12" x1="688.0" x2="432.0" y1="720.0" y2="720.0"/>
    <line stroke="rgb(30,30,30)" stroke-linecap="round" stroke-width="12" x1="816.0" x2="1216.0" y1="0.0" y2="0.0"/>
    <line stroke="rgb(30,30,30)" stroke-linecap="round" stroke-width="12" x1="688.0" x2="688.0" y1="1280.0" y2="848.0"/>
    <line stroke="rgb(30,30,30)" stroke-linecap="round" stroke-width="12" x1="0.0" x2="0" y1="720.0" y2="0"/>
    <line stroke="rgb(30,30,30)" stroke-linecap="round" stroke-width="12" x1="688.0" x2="464.0" y1="1280.0" y2="1280.0"/>
    <line stroke="rgb(30,30,30)" stroke-linecap="round" stroke-width="12" x1="1440.0" x2="1216.0" y1="528.0" y2="528.0"/>
    <line stroke="rgb(30,30,30)" stroke-linecap="round" stroke-width="12" x1="1440.0" x2="816.0" y1="1280.0" y2="1280.0"/>
    <line stroke="rgb(30,30,30)" stroke-linecap="round" stroke-width="12" x1="1600.0" x2="1600" y1="528.0" y2="1280"/>
    <line stroke="rgb(30,30,30)" stroke-linecap="round" stroke-width="12" x1="464.0" x2="0.0" y1="848.0" y2="848.0"/>
    <line stroke="rgb(30,30,30)" stroke-linecap="round" stroke-width="12" x1="816.0" x2="816.0" y1="528.0" y2="0.0"/>
    <line stroke="rgb(30,30,30)" stroke-linecap="round" stroke-width="12" x1="0.0" x2="0.0" y1="848.0" y2="720.0"/>
    <line stroke="rgb(30,30,30)" stroke-linecap="round" stroke-width="12" x1="0" x2="304.0" y1="0" y2="0.0"/>
    <line stroke="rgb(30,30,30)" stroke-linecap="round" stroke-width="12" x1="1600" x2="1600.0" y1="0" y2="528.0"/>
    <line stroke="rgb(30,30,30)" stroke-linecap="round" stroke-width="12" x1="816.0" x2="816.0" y1="1280.0" y2="528.0"/>
    <line stroke="rgb(30,30,30)" stroke-linecap="round" stroke-width="12" x1="1216.0" x2="1600" y1="0.0" y2="0"/>
    <line stroke="rgb(30,30,30)" stroke-linecap="round" stroke-width="12" x1="464.0" x2="0" y1="1280.0" y2="1280"/>
    <line stroke="rgb(30,30,30)" stroke-linecap="round" stroke-width="12" x1="304.0" x2="432.0" y1="0.0" y2="0.0"/>
    <line stroke="rgb(30,30,30)" stroke-linecap="round" stroke-width="12" x1="816.0" x2="688.0" y1="1280.0" y2="1280.0"/>
    <line stroke="rgb(30,30,30)" stroke-linecap="round" stroke-width="12" x1="432.0" x2="304.0" y1="720.0" y2="720.0"/>
    <line stroke="rgb(30,30,30)" stroke-linecap="round" stroke-width="12" x1="1216.0" x2="816.0" y1="528.0" y2="528.0"/>
    <line stroke="rgb(30,30,30)" stroke-linecap="round" stroke-width="12" x1="0" x2="0.0" y1="1280" y2="848.0"/>
    <line stroke="rgb(30,30,30)" stroke-linecap="round" stroke-width="12" x1="688.0" x2="688.0" y1="848.0" y2="720.0"/>
    <line stroke="rgb(30,30,30)" stroke-linecap="round" stroke-width="12" x1="688.0" x2="464.0" y1="848.0" y2="848.0"/>
    <line stroke="rgb(30,30,30)" stroke-linecap="round" stroke-width="12" x1="688.0" x2="816.0" y1="0.0" y2="0.0"/>
    <line stroke="rgb(30,30,30)" stroke-linecap="round" stroke-width="12" x1="432.0" x2="688.0" y1="0.0" y2="0.0"/>
    <line stroke="rgb(30,30,30)" stroke-linecap="round" stroke-width="12" x1="432.0" x2="432.0" y1="720.0" y2="0.0"/>
    <line stroke="rgb(30,30,30)" stroke-linecap="round" stroke-width="12" x1="1216.0" x2="1216.0" y1="528.0" y2="0.0"/>
    <line stroke="rgb(30,30,30)" stroke-linecap="round" stroke-width="12" x1="304.0" x2="0.0" y1="720.0" y2="720.0"/>
    <line stroke="rgb(30,30,30)" stroke-linecap="round" stroke-width="12" x1="464.0" x2="464.0" y1="1280.0" y2="848.0"/>
    <line stroke="rgb(30,30,30)" stroke-linecap="round" stroke-width="12" x1="1440.0" x2="1440.0" y1="1280.0" y2="528.0"/>
    <line stroke="rgb(30,30,30)" stroke-linecap="round" stroke-width="12" x1="688.0" x2="688.0" y1="720.0" y2="0.0"/>
    <text style="font-family: sans-serif; font-size: 20pt" text-anchor="middle" x="752.0" y="640.0">HALLWAY_995 640.0</text>
    <text style="font-family: sans-serif; font-size: 20pt" text-anchor="middle" x="344.0" y="784.0">HALLWAY_209 344.0</text>
    <text style="font-family: sans-serif; font-size: 20pt" text-anchor="middle" x="232.0" y="1064.0">KITCHEN_124 783.0</text>
    <text style="font-family: sans-serif; font-size: 20pt" text-anchor="middle" x="576.0" y="1064.0">BATH_129 378.0</text>
    <text style="font-family: sans-serif; font-size: 20pt" text-anchor="middle" x="152.0" y="360.0">DINING_449 855.0</text>
    <text style="font-family: sans-serif; font-size: 20pt" text-anchor="middle" x="560.0" y="360.0">BEDROOM_489 720.0</text>
    <text style="font-family: sans-serif; font-size: 20pt" text-anchor="middle" x="368.0" y="360.0">HALLWAY_348 360.0</text>
    <text style="font-family: sans-serif; font-size: 20pt" text-anchor="middle" x="1128.0" y="904.0">LIVING_228 1833.0</text>
    <text style="font-family: sans-serif; font-size: 20pt" text-anchor="middle" x="1520.0" y="904.0">BATH_627 470.0</text>
    <text style="font-family: sans-serif; font-size: 20pt" text-anchor="middle" x="1016.0" y="264.0">BEDROOM_73 825.0</text>
    <text style="font-family: sans-serif; font-size: 20pt" text-anchor="middle" x="1408.0" y="264.0">BEDROOM_335 792.0</text>
  </g>
</svg>
