<?xml version="1.0" encoding="utf-8" ?>
<svg baseProfile="full" height="1344" version="1.1" width="1664" xmlns="http://www.w3.org/2000/svg" xmlns:ev="http://www.w3.org/2001/xml-events" xmlns:xlink="http://www.w3.org/1999/xlink">
  <defs/>
  <g transform="translate(32,32)">
    <line stroke="rgb(30,30,30)" stroke-linecap="round" stroke-width="12" x1="656.0" x2="528.0" y1="1280.0" y2="1280.0"/>
    <line stroke="rgb(30,30,30)" stroke-linecap="round" stroke-width="12" x1="0" x2="448.0" y1="0" y2="0.0"/>
    <line stroke="rgb(30,30,30)" stroke-linecap="round" stroke-width="12" x1="928.0" x2="880.0" y1="528.0" y2="528.0"/>
    <line stroke="rgb(30,30,30)" stroke-linecap="round" stroke-width="12" x1="880.0" x2="880.0" y1="528.0" y2="176.0"/>
    <line stroke="rgb(30,30,30)" stroke-linecap="round" stroke-width="12" x1="880.0" x2="1600" y1="0.0" y2="0"/>
    <line stroke="rgb(30,30,30)" stroke-linecap="round" stroke-width="12" x1="1056.0" x2="928.0" y1="1280.0" y2="1280.0"/>
    <line stroke="rgb(30,30,30)" stroke-linecap="round" stroke-width="12" x1="448.0" x2="448.0" y1="528.0" y2="0.0"/>
    <line stroke="rgb(30,30,30)" stroke-linecap="round" stroke-width="12" x1="1600.0" x2="880.0" y1="176.0" y2="176.0"/>
    <line stroke="rgb(30,30,30)" stroke-linecap="round" stroke-width="12" x1="0.0" x2="0" y1="528.0" y2="0"/>
    <line stroke="rgb(30,30,30)" stroke-linecap="round" stroke-width="12" x1="1600.0" x2="1056.0" y1="1152.0" y2="1152.0"/>
    <line stroke="rgb(30,30,30)" stroke-linecap="round" stroke-width="12" x1="448.0" x2="880.0" y1="0.0" y2="0.0"/>
    <line stroke="rgb(30,30,30)" stroke-linecap="round" stroke-width="12" x1="656.0" x2="656.0" y1="1280.0" y2="528.0"/>
    <line stroke="rgb(30,30,30)" stroke-linecap="round" stroke-width="12" x1="928.0" x2="928.0" y1="1280.0" y2="528.0"/>
    <line stroke="rgb(30,30,30)" stroke-linecap="round" stroke-width="12" x1="1600.0" x2="1056.0" y1="528.0" y2="528.0"/>
    <line stroke="rgb(30,30,30)" stroke-linecap="round" stroke-width="12" x1="1600.0" x2="1056.0" y1="1024.0" y2="1024.0"/>
    <line stroke="rgb(30,30,30)" stroke-linecap="round" stroke-width="12" x1="1056.0" x2="1056.0" y1="1280.0" y2="1152.0"/>
    <line stroke="rgb(30,30,30)" stroke-linecap="round" stroke-width="12" x1="448.0" x2="0.0" y1="528.0" y2="528.0"/>
    <line stroke="rgb(30,30,30)" stroke-linecap="round" stroke-width="12" x1="1600.0" x2="1600.0" y1="1024.0" y2="1152.0"/>
    <line stroke="rgb(30,30,30)" stroke-linecap="round" stroke-width="12" x1="1056.0" x2="1056.0" y1="1024.0" y2="528.0"/>
    <line stroke="rgb(30,30,30)" stroke-linecap="round" stroke-width="12" x1="1056.0" x2="928.0" y1="528.0" y2="528.0"/>
    <line stroke="rgb(30,30,30)" stroke-linecap="round" stroke-width="12" x1="1056.0" x2="1056.0" y1="1152.0" y2="1024.0"/>
    <line stroke="rgb(30,30,30)" stroke-linecap="round" stroke-width="12" x1="0" x2="0.0" y1="1280" y2="528.0"/>
    <line stroke="rgb(30,30,30)" stroke-linecap="round" stroke-width="12" x1="528.0" x2="448.0" y1="528.0" y2="528.0"/>
    <line stroke="rgb(30,30,30)" stroke-linecap="round" stroke-width="12" x1="1600.0" x2="1600.0" y1="176.0" y2="528.0"/>
    <line stroke="rgb(30,30,30)" stroke-linecap="round" stroke-width="12" x1="1600" x2="1600.0" y1="0" y2="176.0"/>
    <line stroke="rgb(30,30,30)" stroke-linecap="round" stroke-width="12" x1="1600.0" x2="1600.0" y1="528.0" y2="1024.0"/>
    <line stroke="rgb(30,30,30)" stroke-linecap="round" stroke-width="12" x1="880.0" x2="656.0" y1="528.0" y2="528.0"/>
    <line stroke="rgb(30,30,30)" stroke-linecap="round" stroke-width="12" x1="656.0" x2="528.0" y1="528.0" y2="528.0"/>
    <line stroke="rgb(30,30,30)" stroke-linecap="round" stroke-width="12" x1="528.0" x2="528.0" y1="1280.0" y2="528.0"/>
    <line stroke="rgb(30,30,30)" stroke-linecap="round" stroke-width="12" x1="528.0" x2="0" y1="1280.0" y2="1280"/>
    <line stroke="rgb(30,30,30)" stroke-linecap="round" stroke-width="12" x1="1600.0" x2="1600" y1="1152.0" y2="1280"/>
    <line stroke="rgb(30,30,30)" stroke-linecap="round" stroke-width="12" x1="928.0" x2="656.0" y1="1280.0" y2="1280.0"/>
    <line stroke="rgb(30,30,30)" stroke-linecap="round" stroke-width="12" x1="1600" x2="1056.0" y1="1280" y2="1280.0"/>
    <line stroke="rgb(30,30,30)" stroke-linecap="round" stroke-width="12" x1="880.0" x2="880.0" y1="176.0" y2="0.0"/>
    <text style="font-family: sans-serif; font-size: 20pt" text-anchor="middle" x="992.0" y="904.0">HALLWAY_773 376.0</text>
    <text style="font-family: sans-serif; font-size: 20pt" text-anchor="middle" x="264.0" y="904.0">LIVING_879 1551.0</text>
    <text style="font-family: sans-serif; font-size: 20pt" text-anchor="middle" x="792.0" y="904.0">KITCHEN_367 799.0</text>
    <text style="font-family: sans-serif; font-size: 20pt" text-anchor="middle" x="592.0" y="904.0">HALLWAY_244 376.0</text>
    <text style="font-family: sans-serif; font-size: 20pt" text-anchor="middle" x="1328.0" y="1216.0">BATH_931 272.0</text>
    <text style="font-family: sans-serif; font-size: 20pt" text-anchor="middle" x="1328.0" y="776.0">DINING_165 1054.0</text>
    <text style="font-family: sans-serif; font-size: 20pt" text-anchor="middle" x="1328.0" y="1088.0">HALLWAY_128 272.0</text>
    <text style="font-family: sans-serif; font-size: 20pt" text-anchor="middle" x="224.0" y="264.0">BEDROOM_139 924.0</text>
    <text style="font-family: sans-serif; font-size: 20pt" text-anchor="middle" x="664.0" y="264.0">BEDROOM_182 891.0</text>
    <text style="font-family: sans-serif; font-size: 20pt" text-anchor="middle" x="1240.0" y="352.0">BEDROOM_301 990.0</text>
    <text style="font-family: sans-serif; font-size: 20pt" text-anchor="middle" x="1240.0" y="88.0">BATH_913 495.0</text>
  </g>
</svg>
