<?xml version="1.0" encoding="utf-8" ?>
<svg baseProfile="full" height="1344" version="1.1" width="1664" xmlns="http://www.w3.org/2000/svg" xmlns:ev="http://www.w3.org/2001/xml-events" xmlns:xlink="http://www.w3.org/1999/xlink">
  <defs/>
  <g transform="translate(32,32)">
    <line stroke="rgb(30,30,30)" stroke-linecap="round" stroke-width="12" x1="976.0" x2="0.0" y1="288.0" y2="288.0"/>
    <line stroke="rgb(30,30,30)" stroke-linecap="round" stroke-width="12" x1="1216.0" x2="1216.0" y1="400.0" y2="0.0"/>
    <line stroke="rgb(30,30,30)" stroke-linecap="round" stroke-width="12" x1="1344.0" x2="1600" y1="0.0" y2="0"/>
    <line stroke="rgb(30,30,30)" stroke-linecap="round" stroke-width="12" x1="1344.0" x2="1344.0" y1="400.0" y2="0.0"/>
    <line stroke="rgb(30,30,30)" stroke-linecap="round" stroke-width="12" x1="976.0" x2="976.0" y1="288.0" y2="160.0"/>
    <line stroke="rgb(30,30,30)" stroke-linecap="round" stroke-width="12" x1="1216.0" x2="1344.0" y1="0.0" y2="0.0"/>
    <line stroke="rgb(30,30,30)" stroke-linecap="round" stroke-width="12" x1="976.0" x2="976.0" y1="160.0" y2="0.0"/>
    <line stroke="rgb(30,30,30)" stroke-linecap="round" stroke-width="12" x1="976.0" x2="0.0" y1="160.0" y2="160.0"/>
    <line stroke="rgb(30,30,30)" stroke-linecap="round" stroke-width="12" x1="0" x2="976.0" y1="0" y2="0.0"/>
    <line stroke="rgb(30,30,30)" stroke-linecap="round" stroke-width="12" x1="0.0" x2="0" y1="160.0" y2="0"/>
    <line stroke="rgb(30,30,30)" stroke-linecap="round" stroke-width="12" x1="0.0" x2="0.0" y1="864.0" y2="736.0"/>
    <line stroke="rgb(30,30,30)" stroke-linecap="round" stroke-width="12" x1="976.0" x2="976.0" y1="1280.0" y2="864.0"/>
    <line stroke="rgb(30,30,30)" stroke-linecap="round" stroke-width="12" x1="1600" x2="1600.0" y1="0" y2="400.0"/>
    <line stroke="rgb(30,30,30)" stroke-linecap="round" stroke-width="12" x1="976.0" x2="976.0" y1="736.0" y2="400.0"/>
    <line stroke="rgb(30,30,30)" stroke-linecap="round" stroke-width="12" x1="1344.0" x2="1344.0" y1="1280.0" y2="400.0"/>
    <line stroke="rgb(30,30,30)" stroke-linecap="round" stroke-width="12" x1="0" x2="0.0" y1="1280" y2="864.0"/>
    <line stroke="rgb(30,30,30)" stroke-linecap="round" stroke-width="12" x1="1600.0" x2="1600" y1="400.0" y2="1280"/>
    <line stroke="rgb(30,30,30)" stroke-linecap="round" stroke-width="12" x1="512.0" x2="0" y1="1280.0" y2="1280"/>
    <line stroke="rgb(30,30,30)" stroke-linecap="round" stroke-width="12" x1="512.0" x2="0.0" y1="864.0" y2="864.0"/>
    <line stroke="rgb(30,30,30)" stroke-linecap="round" stroke-width="12" x1="976.0" x2="512.0" y1="864.0" y2="864.0"/>
    <line stroke="rgb(30,30,30)" stroke-linecap="round" stroke-width="12" x1="976.0" x2="0.0" y1="736.0" y2="736.0"/>
    <line stroke="rgb(30,30,30)" stroke-linecap="round" stroke-width="12" x1="1600.0" x2="1344.0" y1="400.0" y2="400.0"/>
    <line stroke="rgb(30,30,30)" stroke-linecap="round" stroke-width="12" x1="512.0" x2="512.0" y1="1280.0" y2="864.0"/>
    <line stroke="rgb(30,30,30)" stroke-linecap="round" stroke-width="12" x1="976.0" x2="976.0" y1="864.0" y2="736.0"/>
    <line stroke="rgb(30,30,30)" stroke-linecap="round" stroke-width="12" x1="1344.0" x2="976.0" y1="1280.0" y2="1280.0"/>
    <line stroke="rgb(30,30,30)" stroke-linecap="round" stroke-width="12" x1="1600" x2="1344.0" y1="1280" y2="1280.0"/>
    <line stroke="rgb(30,30,30)" stroke-linecap="round" stroke-width="12" x1="1216.0" x2="976.0" y1="400.0" y2="400.0"/>
    <line stroke="rgb(30,30,30)" stroke-linecap="round" stroke-width="12" x1="0.0" x2="0.0" y1="736.0" y2="288.0"/>
    <line stroke="rgb(30,30,30)" stroke-linecap="round" stroke-width="12" x1="976.0" x2="512.0" y1="1280.0" y2="1280.0"/>
    <line stroke="rgb(30,30,30)" stroke-linecap="round" stroke-width="12" x1="976.0" x2="976.0" y1="400.0" y2="288.0"/>
    <line stroke="rgb(30,30,30)" stroke-linecap="round" stroke-width="12" x1="0.0" x2="0.0" y1="288.0" y2="160.0"/>
    <line stroke="rgb(30,30,30)" stroke-linecap="round" stroke-width="12" x1="976.0" x2="1216.0" y1="0.0" y2="0.0"/>
    <line stroke="rgb(30,30,30)" stroke-linecap="round" stroke-width="12" x1="1344.0" x2="1216.0" y1="400.0" y2="400.0"/>
    <text style="font-family: sans-serif; font-size: 20pt" text-anchor="middle" x="488.0" y="800.0">HALLWAY_44 488.0</text>
    <text style="font-family: sans-serif; font-size: 20pt" text-anchor="middle" x="256.0" y="1072.0">KITCHEN_474 832.0</text>
    <text style="font-family: sans-serif; font-size: 20pt" text-anchor="middle" x="744.0" y="1072.0">BEDROOM_727 754.0</text>
    <text style="font-family: sans-serif; font-size: 20pt" text-anchor="middle" x="488.0" y="512.0">LIVING_522 1708.0</text>
    <text style="font-family: sans-serif; font-size: 20pt" text-anchor="middle" x="488.0" y="80.0">BEDROOM_167 610.0</text>
    <text style="font-family: sans-serif; font-size: 20pt" text-anchor="middle" x="488.0" y="224.0">HALLWAY_551 488.0</text>
    <text style="font-family: sans-serif; font-size: 20pt" text-anchor="middle" x="1160.0" y="840.0">DINING_744 1265.0</text>
    <text style="font-family: sans-serif; font-size: 20pt" text-anchor="middle" x="1472.0" y="840.0">BEDROOM_588 880.0</text>
    <text style="font-family: sans-serif; font-size: 20pt" text-anchor="middle" x="1096.0" y="200.0">BATH_577 375.0</text>
    <text style="font-family: sans-serif; font-size: 20pt" text-anchor="middle" x="1472.0" y="200.0">BATH_593 400.0</text>
    <text style="font-family: sans-serif; font-size: 20pt" text-anchor="middle" x="1280.0" y="200.0">HALLWAY_521 200.0</text>
  </g>
</svg>
