<?xml version="1.0" encoding="utf-8" ?>
<svg baseProfile="full" height="1344" version="1.1" width="1664" xmlns="http://www.w3.org/2000/svg" xmlns:ev="http://www.w3.org/2001/xml-events" xmlns:xlink="http://www.w3.org/1999/xlink">
  <defs/>
  <g transform="translate(32,32)">
    <line stroke="rgb(30,30,30)" stroke-linecap="round" stroke-width="12" x1="1104.0" x2="1232.0" y1="0.0" y2="0.0"/>
    <line stroke="rgb(30,30,30)" stroke-linecap="round" stroke-width="12" x1="272.0" x2="768.0" y1="0.0" y2="0.0"/>
    <line stroke="rgb(30,30,30)" stroke-linecap="round" stroke-width="12" x1="1232.0" x2="1104.0" y1="1280.0" y2="1280.0"/>
    <line stroke="rgb(30,30,30)" stroke-linecap="round" stroke-width="12" x1="1104.0" x2="768.0" y1="1280.0" y2="1280.0"/>
    <line stroke="rgb(30,30,30)" stroke-linecap="round" stroke-width="12" x1="272.0" x2="272.0" y1="464.0" y2="288.0"/>
    <line stroke="rgb(30,30,30)" stroke-linecap="round" stroke-width="12" x1="768.0" x2="768.0" y1="704.0" y2="576.0"/>
    <line stroke="rgb(30,30,30)" stroke-linecap="round" stroke-width="12" x1="768.0" x2="768.0" y1="288.0" y2="160.0"/>
    <line stroke="rgb(30,30,30)" stroke-linecap="round" stroke-width="12" x1="0" x2="272.0" y1="0" y2="0.0"/>
    <line stroke="rgb(30,30,30)" stroke-linecap="round" stroke-width="12" x1="272.0" x2="0.0" y1="464.0" y2="464.0"/>
    <line stroke="rgb(30,30,30)" stroke-linecap="round" stroke-width="12" x1="1600.0" x2="1232.0" y1="528.0" y2="528.0"/>
    <line stroke="rgb(30,30,30)" stroke-linecap="round" stroke-width="12" x1="1104.0" x2="768.0" y1="576.0" y2="576.0"/>
    <line stroke="rgb(30,30,30)" stroke-linecap="round" stroke-width="12" x1="1600" x2="1600.0" y1="0" y2="528.0"/>
    <line stroke="rgb(30,30,30)" stroke-linecap="round" stroke-width="12" x1="272.0" x2="272.0" y1="1280.0" y2="464.0"/>
    <line stroke="rgb(30,30,30)" stroke-linecap="round" stroke-width="12" x1="1232.0" x2="1232.0" y1="1280.0" y2="528.0"/>
    <line stroke="rgb(30,30,30)" stroke-linecap="round" stroke-width="12" x1="768.0" x2="272.0" y1="160.0" y2="160.0"/>
    <line stroke="rgb(30,30,30)" stroke-linecap="round" stroke-width="12" x1="1232.0" x2="1232.0" y1="528.0" y2="0.0"/>
    <line stroke="rgb(30,30,30)" stroke-linecap="round" stroke-width="12" x1="1104.0" x2="1104.0" y1="1280.0" y2="704.0"/>
    <line stroke="rgb(30,30,30)" stroke-linecap="round" stroke-width="12" x1="272.0" x2="272.0" y1="288.0" y2="160.0"/>
    <line stroke="rgb(30,30,30)" stroke-linecap="round" stroke-width="12" x1="0.0" x2="0" y1="464.0" y2="0"/>
    <line stroke="rgb(30,30,30)" stroke-linecap="round" stroke-width="12" x1="768.0" x2="768.0" y1="160.0" y2="0.0"/>
    <line stroke="rgb(30,30,30)" stroke-linecap="round" stroke-width="12" x1="768.0" x2="768.0" y1="576.0" y2="288.0"/>
    <line stroke="rgb(30,30,30)" stroke-linecap="round" stroke-width="12" x1="768.0" x2="272.0" y1="288.0" y2="288.0"/>
    <line stroke="rgb(30,30,30)" stroke-linecap="round" stroke-width="12" x1="272.0" x2="272.0" y1="160.0" y2="0.0"/>
    <line stroke="rgb(30,30,30)" stroke-linecap="round" stroke-width="12" x1="0" x2="0.0" y1="1280" y2="464.0"/>
    <line stroke="rgb(30,30,30)" stroke-linecap="round" stroke-width="12" x1="1104.0" x2="1104.0" y1="704.0" y2="576.0"/>
    <line stroke="rgb(30,30,30)" stroke-linecap="round" stroke-width="12" x1="1104.0" x2="1104.0" y1="576.0" y2="0.0"/>
    <line stroke="rgb(30,30,30)" stroke-linecap="round" stroke-width="12" x1="768.0" x2="768.0" y1="1280.0" y2="704.0"/>
    <line stroke="rgb(30,30,30)" stroke-linecap="round" stroke-width="12" x1="768.0" x2="1104.0" y1="0.0" y2="0.0"/>
    <line stroke="rgb(30,30,30)" stroke-linecap="round" stroke-width="12" x1="1232.0" x2="1600" y1="0.0" y2="0"/>
    <line stroke="rgb(30,30,30)" stroke-linecap="round" stroke-width="12" x1="1600" x2="1232.0" y1="1280" y2="1280.0"/>
    <line stroke="rgb(30,30,30)" stroke-linecap="round" stroke-width="12" x1="272.0" x2="0" y1="1280.0" y2="1280"/>
    <line stroke="rgb(30,30,30)" stroke-linecap="round" stroke-width="12" x1="768.0" x2="272.0" y1="1280.0" y2="1280.0"/>
    <line stroke="rgb(30,30,30)" stroke-linecap="round" stroke-width="12" x1="1600.0" x2="1600" y1="528.0" y2="1280"/>
    <line stroke="rgb(30,30,30)" stroke-linecap="round" stroke-width="12" x1="1104.0" x2="768.0" y1="704.0" y2="704.0"/>
    <text style="font-family: sans-serif; font-size: 20pt" text-anchor="middle" x="136.0" y="872.0">BEDROOM_36 867.0</text>
    <text style="font-family: sans-serif; font-size: 20pt" text-anchor="middle" x="136.0" y="232.0">BATH_464 493.0</text>
    <text style="font-family: sans-serif; font-size: 20pt" text-anchor="middle" x="520.0" y="784.0">LIVING_637 1922.0</text>
    <text style="font-family: sans-serif; font-size: 20pt" text-anchor="middle" x="520.0" y="80.0">BATH_417 310.0</text>
    <text style="font-family: sans-serif; font-size: 20pt" text-anchor="middle" x="520.0" y="224.0">HALLWAY_413 248.0</text>
    <text style="font-family: sans-serif; font-size: 20pt" text-anchor="middle" x="1168.0" y="640.0">HALLWAY_509 640.0</text>
    <text style="font-family: sans-serif; font-size: 20pt" text-anchor="middle" x="936.0" y="992.0">BEDROOM_704 756.0</text>
    <text style="font-family: sans-serif; font-size: 20pt" text-anchor="middle" x="936.0" y="288.0">KITCHEN_570 756.0</text>
    <text style="font-family: sans-serif; font-size: 20pt" text-anchor="middle" x="936.0" y="640.0">HALLWAY_735 168.0</text>
    <text style="font-family: sans-serif; font-size: 20pt" text-anchor="middle" x="1416.0" y="904.0">DINING_753 1081.0</text>
    <text style="font-family: sans-serif; font-size: 20pt" text-anchor="middle" x="1416.0" y="264.0">BEDROOM_431 759.0</text>
  </g>
</svg>
