<?xml version="1.0" encoding="utf-8" ?>
<svg baseProfile="full" height="1344" version="1.1" width="1664" xmlns="http://www.w3.org/2000/svg" xmlns:ev="http://www.w3.org/2001/xml-events" xmlns:xlink="http://www.w3.org/1999/xlink">
  <defs/>
  <g transform="translate(32,32)">
    <line stroke="rgb(30,30,30)" stroke-linecap="round" stroke-width="12" x1="848.0" x2="976.0" y1="0.0" y2="0.0"/>
    <line stroke="rgb(30,30,30)" stroke-linecap="round" stroke-width="12" x1="848.0" x2="624.0" y1="1280.0" y2="1280.0"/>
    <line stroke="rgb(30,30,30)" stroke-linecap="round" stroke-width="12" x1="1184.0" x2="976.0" y1="784.0" y2="784.0"/>
    <line stroke="rgb(30,30,30)" stroke-linecap="round" stroke-width="12" x1="1600.0" x2="1184.0" y1="784.0" y2="784.0"/>
    <line stroke="rgb(30,30,30)" stroke-linecap="round" stroke-width="12" x1="0" x2="0.0" y1="1280" y2="528.0"/>
    <line stroke="rgb(30,30,30)" stroke-linecap="round" stroke-width="12" x1="1184.0" x2="976.0" y1="1280.0" y2="1280.0"/>
    <line stroke="rgb(30,30,30)" stroke-linecap="round" stroke-width="12" x1="240.0" x2="240.0" y1="400.0" y2="0.0"/>
    <line stroke="rgb(30,30,30)" stroke-linecap="round" stroke-width="12" x1="848.0" x2="848.0" y1="1280.0" y2="528.0"/>
    <line stroke="rgb(30,30,30)" stroke-linecap="round" stroke-width="12" x1="240.0" x2="848.0" y1="0.0" y2="0.0"/>
    <line stroke="rgb(30,30,30)" stroke-linecap="round" stroke-width="12" x1="848.0" x2="624.0" y1="528.0" y2="528.0"/>
    <line stroke="rgb(30,30,30)" stroke-linecap="round" stroke-width="12" x1="1184.0" x2="1184.0" y1="1280.0" y2="784.0"/>
    <line stroke="rgb(30,30,30)" stroke-linecap="round" stroke-width="12" x1="1600" x2="1184.0" y1="1280" y2="1280.0"/>
    <line stroke="rgb(30,30,30)" stroke-linecap="round" stroke-width="12" x1="848.0" x2="848.0" y1="400.0" y2="0.0"/>
    <line stroke="rgb(30,30,30)" stroke-linecap="round" stroke-width="12" x1="1264.0" x2="1600" y1="0.0" y2="0"/>
    <line stroke="rgb(30,30,30)" stroke-linecap="round" stroke-width="12" x1="624.0" x2="496.0" y1="1280.0" y2="1280.0"/>
    <line stroke="rgb(30,30,30)" stroke-linecap="round" stroke-width="12" x1="0.0" x2="0" y1="400.0" y2="0"/>
    <line stroke="rgb(30,30,30)" stroke-linecap="round" stroke-width="12" x1="1600.0" x2="1264.0" y1="656.0" y2="656.0"/>
    <line stroke="rgb(30,30,30)" stroke-linecap="round" stroke-width="12" x1="624.0" x2="496.0" y1="528.0" y2="528.0"/>
    <line stroke="rgb(30,30,30)" stroke-linecap="round" stroke-width="12" x1="1264.0" x2="976.0" y1="656.0" y2="656.0"/>
    <line stroke="rgb(30,30,30)" stroke-linecap="round" stroke-width="12" x1="1600.0" x2="1600.0" y1="656.0" y2="784.0"/>
    <line stroke="rgb(30,30,30)" stroke-linecap="round" stroke-width="12" x1="624.0" x2="624.0" y1="1280.0" y2="528.0"/>
    <line stroke="rgb(30,30,30)" stroke-linecap="round" stroke-width="12" x1="976.0" x2="1264.0" y1="0.0" y2="0.0"/>
    <line stroke="rgb(30,30,30)" stroke-linecap="round" stroke-width="12" x1="1264.0" x2="1264.0" y1="656.0" y2="0.0"/>
    <line stroke="rgb(30,30,30)" stroke-linecap="round" stroke-width="12" x1="976.0" x2="848.0" y1="1280.0" y2="1280.0"/>
    <line stroke="rgb(30,30,30)" stroke-linecap="round" stroke-width="12" x1="976.0" x2="976.0" y1="784.0" y2="656.0"/>
    <line stroke="rgb(30,30,30)" stroke-linecap="round" stroke-width="12" x1="976.0" x2="976.0" y1="656.0" y2="0.0"/>
    <line stroke="rgb(30,30,30)" stroke-linecap="round" stroke-width="12" x1="496.0" x2="0" y1="1280.0" y2="1280"/>
    <line stroke="rgb(30,30,30)" stroke-linecap="round" stroke-width="12" x1="0.0" x2="0.0" y1="528.0" y2="400.0"/>
    <line stroke="rgb(30,30,30)" stroke-linecap="round" stroke-width="12" x1="1600" x2="1600.0" y1="0" y2="656.0"/>
    <line stroke="rgb(30,30,30)" stroke-linecap="round" stroke-width="12" x1="496.0" x2="0.0" y1="528.0" y2="528.0"/>
    <line stroke="rgb(30,30,30)" stroke-linecap="round" stroke-width="12" x1="1600.0" x2="1600" y1="784.0" y2="1280"/>
    <line stroke="rgb(30,30,30)" stroke-linecap="round" stroke-width="12" x1="240.0" x2="0.0" y1="400.0" y2="400.0"/>
    <line stroke="rgb(30,30,30)" stroke-linecap="round" stroke-width="12" x1="848.0" x2="848.0" y1="528.0" y2="400.0"/>
    <line stroke="rgb(30,30,30)" stroke-linecap="round" stroke-width="12" x1="976.0" x2="976.0" y1="1280.0" y2="784.0"/>
    <line stroke="rgb(30,30,30)" stroke-linecap="round" stroke-width="12" x1="848.0" x2="240.0" y1="400.0" y2="400.0"/>
    <line stroke="rgb(30,30,30)" stroke-linecap="round" stroke-width="12" x1="0" x2="240.0" y1="0" y2="0.0"/>
    <line stroke="rgb(30,30,30)" stroke-linecap="round" stroke-width="12" x1="496.0" x2="496.0" y1="1280.0" y2="528.0"/>
    <text style="font-family: sans-serif; font-size: 20pt" text-anchor="middle" x="912.0" y="640.0">HALLWAY_66 640.0</text>
    <text style="font-family: sans-serif; font-size: 20pt" text-anchor="middle" x="424.0" y="464.0">HALLWAY_885 424.0</text>
    <text style="font-family: sans-serif; font-size: 20pt" text-anchor="middle" x="248.0" y="904.0">LIVING_23 1457.0</text>
    <text style="font-family: sans-serif; font-size: 20pt" text-anchor="middle" x="736.0" y="904.0">BEDROOM_470 658.0</text>
    <text style="font-family: sans-serif; font-size: 20pt" text-anchor="middle" x="560.0" y="904.0">HALLWAY_395 376.0</text>
    <text style="font-family: sans-serif; font-size: 20pt" text-anchor="middle" x="120.0" y="200.0">BATH_343 375.0</text>
    <text style="font-family: sans-serif; font-size: 20pt" text-anchor="middle" x="544.0" y="200.0">DINING_481 950.0</text>
    <text style="font-family: sans-serif; font-size: 20pt" text-anchor="middle" x="1288.0" y="720.0">HALLWAY_510 312.0</text>
    <text style="font-family: sans-serif; font-size: 20pt" text-anchor="middle" x="1080.0" y="1032.0">BATH_267 403.0</text>
    <text style="font-family: sans-serif; font-size: 20pt" text-anchor="middle" x="1392.0" y="1032.0">KITCHEN_222 806.0</text>
    <text style="font-family: sans-serif; font-size: 20pt" text-anchor="middle" x="1120.0" y="328.0">BEDROOM_95 738.0</text>
    <text style="font-family: sans-serif; font-size: 20pt" text-anchor="middle" x="1432.0" y="328.0">BEDROOM_252 861.0</text>
  </g>
</svg>
