<?xml version="1.0" encoding="utf-8" ?>
<svg baseProfile="full" height="1344" version="1.1" width="1664" xmlns="http://www.w3.org/2000/svg" xmlns:ev="http://www.w3.org/2001/xml-events" xmlns:xlink="http://www.w3.org/1999/xlink">
  <defs/>
  <g transform="translate(32,32)">
    <line stroke="rgb(30,30,30)" stroke-linecap="round" stroke-width="12" x1="672.0" x2="1088.0" y1="0.0" y2="0.0"/>
    <line stroke="rgb(30,30,30)" stroke-linecap="round" stroke-width="12" x1="1024.0" x2="752.0" y1="1024.0" y2="1024.0"/>
    <line stroke="rgb(30,30,30)" stroke-linecap="round" stroke-width="12" x1="1600.0" x2="1600" y1="1024.0" y2="1280"/>
    <line stroke="rgb(30,30,30)" stroke-linecap="round" stroke-width="12" x1="1424.0" x2="1600" y1="0.0" y2="0"/>
    <line stroke="rgb(30,30,30)" stroke-linecap="round" stroke-width="12" x1="0" x2="0.0" y1="1280" y2="1024.0"/>
    <line stroke="rgb(30,30,30)" stroke-linecap="round" stroke-width="12" x1="752.0" x2="0" y1="1280.0" y2="1280"/>
    <line stroke="rgb(30,30,30)" stroke-linecap="round" stroke-width="12" x1="752.0" x2="752.0" y1="1280.0" y2="1024.0"/>
    <line stroke="rgb(30,30,30)" stroke-linecap="round" stroke-width="12" x1="1600.0" x2="1024.0" y1="1024.0" y2="1024.0"/>
    <line stroke="rgb(30,30,30)" stroke-linecap="round" stroke-width="12" x1="1600.0" x2="1024.0" y1="832.0" y2="832.0"/>
    <line stroke="rgb(30,30,30)" stroke-linecap="round" stroke-width="12" x1="1088.0" x2="1424.0" y1="0.0" y2="0.0"/>
    <line stroke="rgb(30,30,30)" stroke-linecap="round" stroke-width="12" x1="1024.0" x2="1024.0" y1="1024.0" y2="832.0"/>
    <line stroke="rgb(30,30,30)" stroke-linecap="round" stroke-width="12" x1="0.0" x2="0.0" y1="832.0" y2="704.0"/>
    <line stroke="rgb(30,30,30)" stroke-linecap="round" stroke-width="12" x1="752.0" x2="0.0" y1="1024.0" y2="1024.0"/>
    <line stroke="rgb(30,30,30)" stroke-linecap="round" stroke-width="12" x1="1424.0" x2="1088.0" y1="704.0" y2="704.0"/>
    <line stroke="rgb(30,30,30)" stroke-linecap="round" stroke-width="12" x1="1600" x2="752.0" y1="1280" y2="1280.0"/>
    <line stroke="rgb(30,30,30)" stroke-linecap="round" stroke-width="12" x1="0.0" x2="0" y1="704.0" y2="0"/>
    <line stroke="rgb(30,30,30)" stroke-linecap="round" stroke-width="12" x1="1024.0" x2="0.0" y1="832.0" y2="832.0"/>
    <line stroke="rgb(30,30,30)" stroke-linecap="round" stroke-width="12" x1="1424.0" x2="1424.0" y1="704.0" y2="0.0"/>
    <line stroke="rgb(30,30,30)" stroke-linecap="round" stroke-width="12" x1="672.0" x2="0.0" y1="704.0" y2="704.0"/>
    <line stroke="rgb(30,30,30)" stroke-linecap="round" stroke-width="12" x1="672.0" x2="672.0" y1="704.0" y2="0.0"/>
    <line stroke="rgb(30,30,30)" stroke-linecap="round" stroke-width="12" x1="1600.0" x2="1424.0" y1="704.0" y2="704.0"/>
    <line stroke="rgb(30,30,30)" stroke-linecap="round" stroke-width="12" x1="1088.0" x2="672.0" y1="704.0" y2="704.0"/>
    <line stroke="rgb(30,30,30)" stroke-linecap="round" stroke-width="12" x1="1600.0" x2="1600.0" y1="832.0" y2="1024.0"/>
    <line stroke="rgb(30,30,30)" stroke-linecap="round" stroke-width="12" x1="0" x2="672.0" y1="0" y2="0.0"/>
    <line stroke="rgb(30,30,30)" stroke-linecap="round" stroke-width="12" x1="1600" x2="1600.0" y1="0" y2="704.0"/>
    <line stroke="rgb(30,30,30)" stroke-linecap="round" stroke-width="12" x1="0.0" x2="0.0" y1="1024.0" y2="832.0"/>
    <line stroke="rgb(30,30,30)" stroke-linecap="round" stroke-width="12" x1="1088.0" x2="1088.0" y1="704.0" y2="0.0"/>
    <line stroke="rgb(30,30,30)" stroke-linecap="round" stroke-width="12" x1="1600.0" x2="1600.0" y1="704.0" y2="832.0"/>
    <text style="font-family: sans-serif; font-size: 20pt" text-anchor="middle" x="800.0" y="768.0">HALLWAY_302 800.0</text>
    <text style="font-family: sans-serif; font-size: 20pt" text-anchor="middle" x="376.0" y="1152.0">BEDROOM_820 752.0</text>
    <text style="font-family: sans-serif; font-size: 20pt" text-anchor="middle" x="1176.0" y="1152.0">KITCHEN_128 848.0</text>
    <text style="font-family: sans-serif; font-size: 20pt" text-anchor="middle" x="512.0" y="928.0">BEDROOM_188 768.0</text>
    <text style="font-family: sans-serif; font-size: 20pt" text-anchor="middle" x="1312.0" y="928.0">BATH_161 432.0</text>
    <text style="font-family: sans-serif; font-size: 20pt" text-anchor="middle" x="336.0" y="352.0">LIVING_893 1848.0</text>
    <text style="font-family: sans-serif; font-size: 20pt" text-anchor="middle" x="880.0" y="352.0">DINING_120 1144.0</text>
    <text style="font-family: sans-serif; font-size: 20pt" text-anchor="middle" x="1256.0" y="352.0">BEDROOM_639 924.0</text>
    <text style="font-family: sans-serif; font-size: 20pt" text-anchor="middle" x="1512.0" y="352.0">BATH_140 484.0</text>
  </g>
</svg>
