<?xml version="1.0" encoding="utf-8" ?>
<svg baseProfile="full" height="1344" version="1.1" width="1664" xmlns="http://www.w3.org/2000/svg" xmlns:ev="http://www.w3.org/2001/xml-events" xmlns:xlink="http://www.w3.org/1999/xlink">
  <defs/>
  <g transform="translate(32,32)">
    <line stroke="rgb(30,30,30)" stroke-linecap="round" stroke-width="12" x1="720.0" x2="720.0" y1="1280.0" y2="1104.0"/>
    <line stroke="rgb(30,30,30)" stroke-linecap="round" stroke-width="12" x1="528.0" x2="0.0" y1="480.0" y2="480.0"/>
    <line stroke="rgb(30,30,30)" stroke-linecap="round" stroke-width="12" x1="0" x2="528.0" y1="0" y2="0.0"/>
    <line stroke="rgb(30,30,30)" stroke-linecap="round" stroke-width="12" x1="528.0" x2="1600" y1="0.0" y2="0"/>
    <line stroke="rgb(30,30,30)" stroke-linecap="round" stroke-width="12" x1="528.0" x2="528.0" y1="480.0" y2="0.0"/>
    <line stroke="rgb(30,30,30)" stroke-linecap="round" stroke-width="12" x1="720.0" x2="720.0" y1="1104.0" y2="752.0"/>
    <line stroke="rgb(30,30,30)" stroke-linecap="round" stroke-width="12" x1="0" x2="0.0" y1="1280" y2="1104.0"/>
    <line stroke="rgb(30,30,30)" stroke-linecap="round" stroke-width="12" x1="0.0" x2="0.0" y1="1104.0" y2="752.0"/>
    <line stroke="rgb(30,30,30)" stroke-linecap="round" stroke-width="12" x1="720.0" x2="0.0" y1="1104.0" y2="1104.0"/>
    <line stroke="rgb(30,30,30)" stroke-linecap="round" stroke-width="12" x1="1152.0" x2="720.0" y1="1280.0" y2="1280.0"/>
    <line stroke="rgb(30,30,30)" stroke-linecap="round" stroke-width="12" x1="1600.0" x2="1152.0" y1="752.0" y2="752.0"/>
    <line stroke="rgb(30,30,30)" stroke-linecap="round" stroke-width="12" x1="1152.0" x2="1152.0" y1="1280.0" y2="752.0"/>
    <line stroke="rgb(30,30,30)" stroke-linecap="round" stroke-width="12" x1="1600" x2="1600.0" y1="0" y2="480.0"/>
    <line stroke="rgb(30,30,30)" stroke-linecap="round" stroke-width="12" x1="1600.0" x2="1600.0" y1="480.0" y2="752.0"/>
    <line stroke="rgb(30,30,30)" stroke-linecap="round" stroke-width="12" x1="1600" x2="1152.0" y1="1280" y2="1280.0"/>
    <line stroke="rgb(30,30,30)" stroke-linecap="round" stroke-width="12" x1="1136.0" x2="528.0" y1="480.0" y2="480.0"/>
    <line stroke="rgb(30,30,30)" stroke-linecap="round" stroke-width="12" x1="0.0" x2="0.0" y1="752.0" y2="480.0"/>
    <line stroke="rgb(30,30,30)" stroke-linecap="round" stroke-width="12" x1="0.0" x2="0" y1="480.0" y2="0"/>
    <line stroke="rgb(30,30,30)" stroke-linecap="round" stroke-width="12" x1="720.0" x2="0" y1="1280.0" y2="1280"/>
    <line stroke="rgb(30,30,30)" stroke-linecap="round" stroke-width="12" x1="720.0" x2="0.0" y1="752.0" y2="752.0"/>
    <line stroke="rgb(30,30,30)" stroke-linecap="round" stroke-width="12" x1="1152.0" x2="1136.0" y1="752.0" y2="752.0"/>
    <line stroke="rgb(30,30,30)" stroke-linecap="round" stroke-width="12" x1="1136.0" x2="720.0" y1="752.0" y2="752.0"/>
    <line stroke="rgb(30,30,30)" stroke-linecap="round" stroke-width="12" x1="1136.0" x2="1136.0" y1="752.0" y2="480.0"/>
    <line stroke="rgb(30,30,30)" stroke-linecap="round" stroke-width="12" x1="1600.0" x2="1136.0" y1="480.0" y2="480.0"/>
    <line stroke="rgb(30,30,30)" stroke-linecap="round" stroke-width="12" x1="1600.0" x2="1600" y1="752.0" y2="1280"/>
    <text style="font-family: sans-serif; font-size: 20pt" text-anchor="middle" x="360.0" y="1192.0">BATH_309 495.0</text>
    <text style="font-family: sans-serif; font-size: 20pt" text-anchor="middle" x="360.0" y="928.0">KITCHEN_148 990.0</text>
    <text style="font-family: sans-serif; font-size: 20pt" text-anchor="middle" x="936.0" y="1016.0">BEDROOM_159 891.0</text>
    <text style="font-family: sans-serif; font-size: 20pt" text-anchor="middle" x="1376.0" y="1016.0">BEDROOM_476 924.0</text>
    <text style="font-family: sans-serif; font-size: 20pt" text-anchor="middle" x="568.0" y="616.0">DINING_283 1207.0</text>
    <text style="font-family: sans-serif; font-size: 20pt" text-anchor="middle" x="1368.0" y="616.0">BATH_55 493.0</text>
    <text style="font-family: sans-serif; font-size: 20pt" text-anchor="middle" x="264.0" y="240.0">BEDROOM_15 990.0</text>
    <text style="font-family: sans-serif; font-size: 20pt" text-anchor="middle" x="1064.0" y="240.0">LIVING_604 2010.0</text>
  </g>
</svg>
