<?xml version="1.0" encoding="utf-8" ?>
<svg baseProfile="full" height="1344" version="1.1" width="1664" xmlns="http://www.w3.org/2000/svg" xmlns:ev="http://www.w3.org/2001/xml-events" xmlns:xlink="http://www.w3.org/1999/xlink">
  <defs/>
  <g transform="translate(32,32)">
    <line stroke="rgb(30,30,30)" stroke-linecap="round" stroke-width="12" x1="528.0" x2="528.0" y1="1280.0" y2="736.0"/>
    <line stroke="rgb(30,30,30)" stroke-linecap="round" stroke-width="12" x1="1312.0" x2="656.0" y1="608.0" y2="608.0"/>
    <line stroke="rgb(30,30,30)" stroke-linecap="round" stroke-width="12" x1="1600.0" x2="1312.0" y1="608.0" y2="608.0"/>
    <line stroke="rgb(30,30,30)" stroke-linecap="round" stroke-width="12" x1="1312.0" x2="1312.0" y1="1280.0" y2="608.0"/>
    <line stroke="rgb(30,30,30)" stroke-linecap="round" stroke-width="12" x1="656.0" x2="656.0" y1="608.0" y2="480.0"/>
    <line stroke="rgb(30,30,30)" stroke-linecap="round" stroke-width="12" x1="256.0" x2="0.0" y1="736.0" y2="736.0"/>
    <line stroke="rgb(30,30,30)" stroke-linecap="round" stroke-width="12" x1="384.0" x2="256.0" y1="736.0" y2="736.0"/>
    <line stroke="rgb(30,30,30)" stroke-linecap="round" stroke-width="12" x1="528.0" x2="656.0" y1="0.0" y2="0.0"/>
    <line stroke="rgb(30,30,30)" stroke-linecap="round" stroke-width="12" x1="528.0" x2="352.0" y1="608.0" y2="608.0"/>
    <line stroke="rgb(30,30,30)" stroke-linecap="round" stroke-width="12" x1="656.0" x2="656.0" y1="480.0" y2="0.0"/>
    <line stroke="rgb(30,30,30)" stroke-linecap="round" stroke-width="12" x1="256.0" x2="256.0" y1="1280.0" y2="736.0"/>
    <line stroke="rgb(30,30,30)" stroke-linecap="round" stroke-width="12" x1="1600" x2="1600.0" y1="0" y2="480.0"/>
    <line stroke="rgb(30,30,30)" stroke-linecap="round" stroke-width="12" x1="656.0" x2="656.0" y1="1280.0" y2="608.0"/>
    <line stroke="rgb(30,30,30)" stroke-linecap="round" stroke-width="12" x1="0" x2="352.0" y1="0" y2="0.0"/>
    <line stroke="rgb(30,30,30)" stroke-linecap="round" stroke-width="12" x1="656.0" x2="528.0" y1="1280.0" y2="1280.0"/>
    <line stroke="rgb(30,30,30)" stroke-linecap="round" stroke-width="12" x1="352.0" x2="0.0" y1="608.0" y2="608.0"/>
    <line stroke="rgb(30,30,30)" stroke-linecap="round" stroke-width="12" x1="352.0" x2="528.0" y1="0.0" y2="0.0"/>
    <line stroke="rgb(30,30,30)" stroke-linecap="round" stroke-width="12" x1="1312.0" x2="656.0" y1="1280.0" y2="1280.0"/>
    <line stroke="rgb(30,30,30)" stroke-linecap="round" stroke-width="12" x1="528.0" x2="384.0" y1="736.0" y2="736.0"/>
    <line stroke="rgb(30,30,30)" stroke-linecap="round" stroke-width="12" x1="1184.0" x2="1184.0" y1="480.0" y2="0.0"/>
    <line stroke="rgb(30,30,30)" stroke-linecap="round" stroke-width="12" x1="352.0" x2="352.0" y1="608.0" y2="0.0"/>
    <line stroke="rgb(30,30,30)" stroke-linecap="round" stroke-width="12" x1="0.0" x2="0.0" y1="736.0" y2="608.0"/>
    <line stroke="rgb(30,30,30)" stroke-linecap="round" stroke-width="12" x1="256.0" x2="0" y1="1280.0" y2="1280"/>
    <line stroke="rgb(30,30,30)" stroke-linecap="round" stroke-width="12" x1="528.0" x2="384.0" y1="1280.0" y2="1280.0"/>
    <line stroke="rgb(30,30,30)" stroke-linecap="round" stroke-width="12" x1="1600.0" x2="1600" y1="608.0" y2="1280"/>
    <line stroke="rgb(30,30,30)" stroke-linecap="round" stroke-width="12" x1="1184.0" x2="1600" y1="0.0" y2="0"/>
    <line stroke="rgb(30,30,30)" stroke-linecap="round" stroke-width="12" x1="384.0" x2="256.0" y1="1280.0" y2="1280.0"/>
    <line stroke="rgb(30,30,30)" stroke-linecap="round" stroke-width="12" x1="384.0" x2="384.0" y1="1280.0" y2="736.0"/>
    <line stroke="rgb(30,30,30)" stroke-linecap="round" stroke-width="12" x1="528.0" x2="528.0" y1="736.0" y2="608.0"/>
    <line stroke="rgb(30,30,30)" stroke-linecap="round" stroke-width="12" x1="528.0" x2="528.0" y1="608.0" y2="0.0"/>
    <line stroke="rgb(30,30,30)" stroke-linecap="round" stroke-width="12" x1="1600" x2="1312.0" y1="1280" y2="1280.0"/>
    <line stroke="rgb(30,30,30)" stroke-linecap="round" stroke-width="12" x1="0.0" x2="0" y1="608.0" y2="0"/>
    <line stroke="rgb(30,30,30)" stroke-linecap="round" stroke-width="12" x1="1600.0" x2="1600.0" y1="480.0" y2="608.0"/>
    <line stroke="rgb(30,30,30)" stroke-linecap="round" stroke-width="12" x1="1600.0" x2="1184.0" y1="480.0" y2="480.0"/>
    <line stroke="rgb(30,30,30)" stroke-linecap="round" stroke-width="12" x1="0" x2="0.0" y1="1280" y2="736.0"/>
    <line stroke="rgb(30,30,30)" stroke-linecap="round" stroke-width="12" x1="1184.0" x2="656.0" y1="480.0" y2="480.0"/>
    <line stroke="rgb(30,30,30)" stroke-linecap="round" stroke-width="12" x1="656.0" x2="1184.0" y1="0.0" y2="0.0"/>
    <text style="font-family: sans-serif; font-size: 20pt" text-anchor="middle" x="592.0" y="640.0">HALLWAY_819 640.0</text>
    <text style="font-family: sans-serif; font-size: 20pt" text-anchor="middle" x="264.0" y="672.0">HALLWAY_757 264.0</text>
    <text style="font-family: sans-serif; font-size: 20pt" text-anchor="middle" x="128.0" y="1008.0">BEDROOM_802 544.0</text>
    <text style="font-family: sans-serif; font-size: 20pt" text-anchor="middle" x="456.0" y="1008.0">BATH_552 306.0</text>
    <text style="font-family: sans-serif; font-size: 20pt" text-anchor="middle" x="320.0" y="1008.0">HALLWAY_320 272.0</text>
    <text style="font-family: sans-serif; font-size: 20pt" text-anchor="middle" x="176.0" y="304.0">KITCHEN_366 836.0</text>
    <text style="font-family: sans-serif; font-size: 20pt" text-anchor="middle" x="440.0" y="304.0">BATH_348 418.0</text>
    <text style="font-family: sans-serif; font-size: 20pt" text-anchor="middle" x="1128.0" y="544.0">HALLWAY_462 472.0</text>
    <text style="font-family: sans-serif; font-size: 20pt" text-anchor="middle" x="984.0" y="944.0">LIVING_267 1722.0</text>
    <text style="font-family: sans-serif; font-size: 20pt" text-anchor="middle" x="1456.0" y="944.0">BEDROOM_413 756.0</text>
    <text style="font-family: sans-serif; font-size: 20pt" text-anchor="middle" x="920.0" y="240.0">DINING_926 990.0</text>
    <text style="font-family: sans-serif; font-size: 20pt" text-anchor="middle" x="1392.0" y="240.0">BEDROOM_983 780.0</text>
  </g>
</svg>
