<?xml version="1.0" encoding="utf-8" ?>
<svg baseProfile="full" height="1344" version="1.1" width="1664" xmlns="http://www.w3.org/2000/svg" xmlns:ev="http://www.w3.org/2001/xml-events" xmlns:xlink="http://www.w3.org/1999/xlink">
  <defs/>
  <g transform="translate(32,32)">
    <line stroke="rgb(30,30,30)" stroke-linecap="round" stroke-width="12" x1="1600" x2="1008.0" y1="1280" y2="1280.0"/>
    <line stroke="rgb(30,30,30)" stroke-linecap="round" stroke-width="12" x1="1008.0" x2="752.0" y1="1280.0" y2="1280.0"/>
    <line stroke="rgb(30,30,30)" stroke-linecap="round" stroke-width="12" x1="800.0" x2="0.0" y1="160.0" y2="160.0"/>
    <line stroke="rgb(30,30,30)" stroke-linecap="round" stroke-width="12" x1="800.0" x2="800.0" y1="480.0" y2="160.0"/>
    <line stroke="rgb(30,30,30)" stroke-linecap="round" stroke-width="12" x1="1600.0" x2="1600" y1="480.0" y2="1280"/>
    <line stroke="rgb(30,30,30)" stroke-linecap="round" stroke-width="12" x1="1600.0" x2="800.0" y1="160.0" y2="160.0"/>
    <line stroke="rgb(30,30,30)" stroke-linecap="round" stroke-width="12" x1="1008.0" x2="800.0" y1="480.0" y2="480.0"/>
    <line stroke="rgb(30,30,30)" stroke-linecap="round" stroke-width="12" x1="800.0" x2="752.0" y1="480.0" y2="480.0"/>
    <line stroke="rgb(30,30,30)" stroke-linecap="round" stroke-width="12" x1="624.0" x2="0.0" y1="480.0" y2="480.0"/>
    <line stroke="rgb(30,30,30)" stroke-linecap="round" stroke-width="12" x1="0" x2="800.0" y1="0" y2="0.0"/>
    <line stroke="rgb(30,30,30)" stroke-linecap="round" stroke-width="12" x1="624.0" x2="0" y1="1280.0" y2="1280"/>
    <line stroke="rgb(30,30,30)" stroke-linecap="round" stroke-width="12" x1="0.0" x2="0" y1="160.0" y2="0"/>
    <line stroke="rgb(30,30,30)" stroke-linecap="round" stroke-width="12" x1="752.0" x2="624.0" y1="1280.0" y2="1280.0"/>
    <line stroke="rgb(30,30,30)" stroke-linecap="round" stroke-width="12" x1="0.0" x2="0.0" y1="816.0" y2="480.0"/>
    <line stroke="rgb(30,30,30)" stroke-linecap="round" stroke-width="12" x1="624.0" x2="0.0" y1="816.0" y2="816.0"/>
    <line stroke="rgb(30,30,30)" stroke-linecap="round" stroke-width="12" x1="0" x2="0.0" y1="1280" y2="816.0"/>
    <line stroke="rgb(30,30,30)" stroke-linecap="round" stroke-width="12" x1="1008.0" x2="1008.0" y1="1280.0" y2="480.0"/>
    <line stroke="rgb(30,30,30)" stroke-linecap="round" stroke-width="12" x1="624.0" x2="624.0" y1="816.0" y2="480.0"/>
    <line stroke="rgb(30,30,30)" stroke-linecap="round" stroke-width="12" x1="752.0" x2="752.0" y1="1280.0" y2="480.0"/>
    <line stroke="rgb(30,30,30)" stroke-linecap="round" stroke-width="12" x1="624.0" x2="624.0" y1="1280.0" y2="816.0"/>
    <line stroke="rgb(30,30,30)" stroke-linecap="round" stroke-width="12" x1="1600.0" x2="1600.0" y1="160.0" y2="480.0"/>
    <line stroke="rgb(30,30,30)" stroke-linecap="round" stroke-width="12" x1="800.0" x2="1600" y1="0.0" y2="0"/>
    <line stroke="rgb(30,30,30)" stroke-linecap="round" stroke-width="12" x1="0.0" x2="0.0" y1="480.0" y2="160.0"/>
    <line stroke="rgb(30,30,30)" stroke-linecap="round" stroke-width="12" x1="1600" x2="1600.0" y1="0" y2="160.0"/>
    <line stroke="rgb(30,30,30)" stroke-linecap="round" stroke-width="12" x1="800.0" x2="800.0" y1="160.0" y2="0.0"/>
    <line stroke="rgb(30,30,30)" stroke-linecap="round" stroke-width="12" x1="1600.0" x2="1008.0" y1="480.0" y2="480.0"/>
    <line stroke="rgb(30,30,30)" stroke-linecap="round" stroke-width="12" x1="752.0" x2="624.0" y1="480.0" y2="480.0"/>
    <text style="font-family: sans-serif; font-size: 20pt" text-anchor="middle" x="688.0" y="880.0">HALLWAY_966 400.0</text>
    <text style="font-family: sans-serif; font-size: 20pt" text-anchor="middle" x="312.0" y="1048.0">DINING_462 1131.0</text>
    <text style="font-family: sans-serif; font-size: 20pt" text-anchor="middle" x="312.0" y="648.0">BEDROOM_789 819.0</text>
    <text style="font-family: sans-serif; font-size: 20pt" text-anchor="middle" x="880.0" y="880.0">BEDROOM_958 800.0</text>
    <text style="font-family: sans-serif; font-size: 20pt" text-anchor="middle" x="1304.0" y="880.0">LIVING_614 1850.0</text>
    <text style="font-family: sans-serif; font-size: 20pt" text-anchor="middle" x="400.0" y="320.0">KITCHEN_393 1000.0</text>
    <text style="font-family: sans-serif; font-size: 20pt" text-anchor="middle" x="1200.0" y="320.0">BEDROOM_300 1000.0</text>
    <text style="font-family: sans-serif; font-size: 20pt" text-anchor="middle" x="400.0" y="80.0">BATH_574 500.0</text>
    <text style="font-family: sans-serif; font-size: 20pt" text-anchor="middle" x="1200.0" y="80.0">BATH_523 500.0</text>
  </g>
</svg>
