<?xml version="1.0" encoding="utf-8" ?>
<svg baseProfile="full" height="1344" version="1.1" width="1664" xmlns="http://www.w3.org/2000/svg" xmlns:ev="http://www.w3.org/2001/xml-events" xmlns:xlink="http://www.w3.org/1999/xlink">
  <defs/>
  <g transform="translate(32,32)">
    <line stroke="rgb(30,30,30)" stroke-linecap="round" stroke-width="12" x1="304.0" x2="304.0" y1="880.0" y2="848.0"/>
    <line stroke="rgb(30,30,30)" stroke-linecap="round" stroke-width="12" x1="880.0" x2="880.0" y1="432.0" y2="0.0"/>
    <line stroke="rgb(30,30,30)" stroke-linecap="round" stroke-width="12" x1="304.0" x2="304.0" y1="848.0" y2="0.0"/>
    <line stroke="rgb(30,30,30)" stroke-linecap="round" stroke-width="12" x1="304.0" x2="304.0" y1="1280.0" y2="880.0"/>
    <line stroke="rgb(30,30,30)" stroke-linecap="round" stroke-width="12" x1="1600" x2="1344.0" y1="1280" y2="1280.0"/>
    <line stroke="rgb(30,30,30)" stroke-linecap="round" stroke-width="12" x1="304.0" x2="880.0" y1="0.0" y2="0.0"/>
    <line stroke="rgb(30,30,30)" stroke-linecap="round" stroke-width="12" x1="1600.0" x2="880.0" y1="432.0" y2="432.0"/>
    <line stroke="rgb(30,30,30)" stroke-linecap="round" stroke-width="12" x1="0" x2="0.0" y1="1280" y2="848.0"/>
    <line stroke="rgb(30,30,30)" stroke-linecap="round" stroke-width="12" x1="1344.0" x2="880.0" y1="784.0" y2="784.0"/>
    <line stroke="rgb(30,30,30)" stroke-linecap="round" stroke-width="12" x1="880.0" x2="1600" y1="0.0" y2="0"/>
    <line stroke="rgb(30,30,30)" stroke-linecap="round" stroke-width="12" x1="1600.0" x2="1344.0" y1="784.0" y2="784.0"/>
    <line stroke="rgb(30,30,30)" stroke-linecap="round" stroke-width="12" x1="1600.0" x2="1600.0" y1="432.0" y2="784.0"/>
    <line stroke="rgb(30,30,30)" stroke-linecap="round" stroke-width="12" x1="0.0" x2="0" y1="848.0" y2="0"/>
    <line stroke="rgb(30,30,30)" stroke-linecap="round" stroke-width="12" x1="880.0" x2="304.0" y1="1280.0" y2="1280.0"/>
    <line stroke="rgb(30,30,30)" stroke-linecap="round" stroke-width="12" x1="1600" x2="1600.0" y1="0" y2="432.0"/>
    <line stroke="rgb(30,30,30)" stroke-linecap="round" stroke-width="12" x1="304.0" x2="0" y1="1280.0" y2="1280"/>
    <line stroke="rgb(30,30,30)" stroke-linecap="round" stroke-width="12" x1="304.0" x2="0.0" y1="848.0" y2="848.0"/>
    <line stroke="rgb(30,30,30)" stroke-linecap="round" stroke-width="12" x1="880.0" x2="880.0" y1="784.0" y2="432.0"/>
    <line stroke="rgb(30,30,30)" stroke-linecap="round" stroke-width="12" x1="1344.0" x2="880.0" y1="1280.0" y2="1280.0"/>
    <line stroke="rgb(30,30,30)" stroke-linecap="round" stroke-width="12" x1="880.0" x2="880.0" y1="1280.0" y2="880.0"/>
    <line stroke="rgb(30,30,30)" stroke-linecap="round" stroke-width="12" x1="880.0" x2="880.0" y1="880.0" y2="784.0"/>
    <line stroke="rgb(30,30,30)" stroke-linecap="round" stroke-width="12" x1="1344.0" x2="1344.0" y1="1280.0" y2="784.0"/>
    <line stroke="rgb(30,30,30)" stroke-linecap="round" stroke-width="12" x1="1600.0" x2="1600" y1="784.0" y2="1280"/>
    <line stroke="rgb(30,30,30)" stroke-linecap="round" stroke-width="12" x1="0" x2="304.0" y1="0" y2="0.0"/>
    <line stroke="rgb(30,30,30)" stroke-linecap="round" stroke-width="12" x1="880.0" x2="304.0" y1="880.0" y2="880.0"/>
    <text style="font-family: sans-serif; font-size: 20pt" text-anchor="middle" x="152.0" y="1064.0">BATH_68 513.0</text>
    <text style="font-family: sans-serif; font-size: 20pt" text-anchor="middle" x="152.0" y="424.0">KITCHEN_936 1007.0</text>
    <text style="font-family: sans-serif; font-size: 20pt" text-anchor="middle" x="592.0" y="1080.0">BEDROOM_897 900.0</text>
    <text style="font-family: sans-serif; font-size: 20pt" text-anchor="middle" x="592.0" y="440.0">LIVING_268 1980.0</text>
    <text style="font-family: sans-serif; font-size: 20pt" text-anchor="middle" x="1112.0" y="1032.0">BEDROOM_823 899.0</text>
    <text style="font-family: sans-serif; font-size: 20pt" text-anchor="middle" x="1472.0" y="1032.0">BATH_108 496.0</text>
    <text style="font-family: sans-serif; font-size: 20pt" text-anchor="middle" x="1240.0" y="608.0">BEDROOM_804 990.0</text>
    <text style="font-family: sans-serif; font-size: 20pt" text-anchor="middle" x="1240.0" y="216.0">DINING_811 1215.0</text>
  </g>
</svg>
