<?xml version="1.0" encoding="utf-8" ?>
<svg baseProfile="full" height="1344" version="1.1" width="1664" xmlns="http://www.w3.org/2000/svg" xmlns:ev="http://www.w3.org/2001/xml-events" xmlns:xlink="http://www.w3.org/1999/xlink">
  <defs/>
  <g transform="translate(32,32)">
    <line stroke="rgb(30,30,30)" stroke-linecap="round" stroke-width="12" x1="1600" x2="1248.0" y1="1280" y2="1280.0"/>
    <line stroke="rgb(30,30,30)" stroke-linecap="round" stroke-width="12" x1="1248.0" x2="672.0" y1="880.0" y2="880.0"/>
    <line stroke="rgb(30,30,30)" stroke-linecap="round" stroke-width="12" x1="400.0" x2="672.0" y1="0.0" y2="0.0"/>
    <line stroke="rgb(30,30,30)" stroke-linecap="round" stroke-width="12" x1="400.0" x2="400.0" y1="704.0" y2="0.0"/>
    <line stroke="rgb(30,30,30)" stroke-linecap="round" stroke-width="12" x1="400.0" x2="272.0" y1="704.0" y2="704.0"/>
    <line stroke="rgb(30,30,30)" stroke-linecap="round" stroke-width="12" x1="272.0" x2="400.0" y1="0.0" y2="0.0"/>
    <line stroke="rgb(30,30,30)" stroke-linecap="round" stroke-width="12" x1="1600.0" x2="1248.0" y1="368.0" y2="368.0"/>
    <line stroke="rgb(30,30,30)" stroke-linecap="round" stroke-width="12" x1="1248.0" x2="672.0" y1="1280.0" y2="1280.0"/>
    <line stroke="rgb(30,30,30)" stroke-linecap="round" stroke-width="12" x1="672.0" x2="400.0" y1="704.0" y2="704.0"/>
    <line stroke="rgb(30,30,30)" stroke-linecap="round" stroke-width="12" x1="0.0" x2="0" y1="704.0" y2="0"/>
    <line stroke="rgb(30,30,30)" stroke-linecap="round" stroke-width="12" x1="1600.0" x2="1600" y1="368.0" y2="1280"/>
    <line stroke="rgb(30,30,30)" stroke-linecap="round" stroke-width="12" x1="672.0" x2="672.0" y1="704.0" y2="0.0"/>
    <line stroke="rgb(30,30,30)" stroke-linecap="round" stroke-width="12" x1="672.0" x2="240.0" y1="1280.0" y2="1280.0"/>
    <line stroke="rgb(30,30,30)" stroke-linecap="round" stroke-width="12" x1="1248.0" x2="1248.0" y1="1280.0" y2="880.0"/>
    <line stroke="rgb(30,30,30)" stroke-linecap="round" stroke-width="12" x1="272.0" x2="0.0" y1="704.0" y2="704.0"/>
    <line stroke="rgb(30,30,30)" stroke-linecap="round" stroke-width="12" x1="672.0" x2="672.0" y1="880.0" y2="832.0"/>
    <line stroke="rgb(30,30,30)" stroke-linecap="round" stroke-width="12" x1="1248.0" x2="1248.0" y1="880.0" y2="368.0"/>
    <line stroke="rgb(30,30,30)" stroke-linecap="round" stroke-width="12" x1="1248.0" x2="1248.0" y1="368.0" y2="0.0"/>
    <line stroke="rgb(30,30,30)" stroke-linecap="round" stroke-width="12" x1="672.0" x2="1248.0" y1="0.0" y2="0.0"/>
    <line stroke="rgb(30,30,30)" stroke-linecap="round" stroke-width="12" x1="0.0" x2="0.0" y1="832.0" y2="704.0"/>
    <line stroke="rgb(30,30,30)" stroke-linecap="round" stroke-width="12" x1="0" x2="272.0" y1="0" y2="0.0"/>
    <line stroke="rgb(30,30,30)" stroke-linecap="round" stroke-width="12" x1="672.0" x2="672.0" y1="832.0" y2="704.0"/>
    <line stroke="rgb(30,30,30)" stroke-linecap="round" stroke-width="12" x1="1248.0" x2="1600" y1="0.0" y2="0"/>
    <line stroke="rgb(30,30,30)" stroke-linecap="round" stroke-width="12" x1="672.0" x2="240.0" y1="832.0" y2="832.0"/>
    <line stroke="rgb(30,30,30)" stroke-linecap="round" stroke-width="12" x1="0" x2="0.0" y1="1280" y2="832.0"/>
    <line stroke="rgb(30,30,30)" stroke-linecap="round" stroke-width="12" x1="240.0" x2="0" y1="1280.0" y2="1280"/>
    <line stroke="rgb(30,30,30)" stroke-linecap="round" stroke-width="12" x1="1600" x2="1600.0" y1="0" y2="368.0"/>
    <line stroke="rgb(30,30,30)" stroke-linecap="round" stroke-width="12" x1="272.0" x2="272.0" y1="704.0" y2="0.0"/>
    <line stroke="rgb(30,30,30)" stroke-linecap="round" stroke-width="12" x1="240.0" x2="240.0" y1="1280.0" y2="832.0"/>
    <line stroke="rgb(30,30,30)" stroke-linecap="round" stroke-width="12" x1="240.0" x2="0.0" y1="832.0" y2="832.0"/>
    <line stroke="rgb(30,30,30)" stroke-linecap="round" stroke-width="12" x1="672.0" x2="672.0" y1="1280.0" y2="880.0"/>
    <text style="font-family: sans-serif; font-size: 20pt" text-anchor="middle" x="336.0" y="768.0">HALLWAY_508 336.0</text>
    <text style="font-family: sans-serif; font-size: 20pt" text-anchor="middle" x="120.0" y="1056.0">BATH_55 420.0</text>
    <text style="font-family: sans-serif; font-size: 20pt" text-anchor="middle" x="456.0" y="1056.0">BEDROOM_200 756.0</text>
    <text style="font-family: sans-serif; font-size: 20pt" text-anchor="middle" x="136.0" y="352.0">KITCHEN_536 748.0</text>
    <text style="font-family: sans-serif; font-size: 20pt" text-anchor="middle" x="536.0" y="352.0">BEDROOM_146 748.0</text>
    <text style="font-family: sans-serif; font-size: 20pt" text-anchor="middle" x="336.0" y="352.0">HALLWAY_462 352.0</text>
    <text style="font-family: sans-serif; font-size: 20pt" text-anchor="middle" x="960.0" y="1080.0">BEDROOM_54 900.0</text>
    <text style="font-family: sans-serif; font-size: 20pt" text-anchor="middle" x="960.0" y="440.0">LIVING_402 1980.0</text>
    <text style="font-family: sans-serif; font-size: 20pt" text-anchor="middle" x="1424.0" y="824.0">DINING_284 1254.0</text>
    <text style="font-family: sans-serif; font-size: 20pt" text-anchor="middle" x="1424.0" y="184.0">BATH_734 506.0</text>
  </g>
</svg>
