<?xml version="1.0" encoding="utf-8" ?>
<svg baseProfile="full" height="1344" version="1.1" width="1664" xmlns="http://www.w3.org/2000/svg" xmlns:ev="http://www.w3.org/2001/xml-events" xmlns:xlink="http://www.w3.org/1999/xlink">
  <defs/>
  <g transform="translate(32,32)">
    <line stroke="rgb(30,30,30)" stroke-linecap="round" stroke-width="12" x1="944.0" x2="944.0" y1="896.0" y2="768.0"/>
    <line stroke="rgb(30,30,30)" stroke-linecap="round" stroke-width="12" x1="0.0" x2="0" y1="768.0" y2="0"/>
    <line stroke="rgb(30,30,30)" stroke-linecap="round" stroke-width="12" x1="944.0" x2="944.0" y1="768.0" y2="736.0"/>
    <line stroke="rgb(30,30,30)" stroke-linecap="round" stroke-width="12" x1="1600.0" x2="944.0" y1="1088.0" y2="1088.0"/>
    <line stroke="rgb(30,30,30)" stroke-linecap="round" stroke-width="12" x1="1600" x2="944.0" y1="1280" y2="1280.0"/>
    <line stroke="rgb(30,30,30)" stroke-linecap="round" stroke-width="12" x1="1600.0" x2="1600" y1="1088.0" y2="1280"/>
    <line stroke="rgb(30,30,30)" stroke-linecap="round" stroke-width="12" x1="320.0" x2="320.0" y1="768.0" y2="0.0"/>
    <line stroke="rgb(30,30,30)" stroke-linecap="round" stroke-width="12" x1="944.0" x2="1600" y1="0.0" y2="0"/>
    <line stroke="rgb(30,30,30)" stroke-linecap="round" stroke-width="12" x1="1600.0" x2="944.0" y1="384.0" y2="384.0"/>
    <line stroke="rgb(30,30,30)" stroke-linecap="round" stroke-width="12" x1="944.0" x2="272.0" y1="896.0" y2="896.0"/>
    <line stroke="rgb(30,30,30)" stroke-linecap="round" stroke-width="12" x1="0" x2="320.0" y1="0" y2="0.0"/>
    <line stroke="rgb(30,30,30)" stroke-linecap="round" stroke-width="12" x1="944.0" x2="944.0" y1="1088.0" y2="896.0"/>
    <line stroke="rgb(30,30,30)" stroke-linecap="round" stroke-width="12" x1="1600.0" x2="1600.0" y1="736.0" y2="1088.0"/>
    <line stroke="rgb(30,30,30)" stroke-linecap="round" stroke-width="12" x1="944.0" x2="320.0" y1="768.0" y2="768.0"/>
    <line stroke="rgb(30,30,30)" stroke-linecap="round" stroke-width="12" x1="272.0" x2="0" y1="1280.0" y2="1280"/>
    <line stroke="rgb(30,30,30)" stroke-linecap="round" stroke-width="12" x1="0" x2="0.0" y1="1280" y2="896.0"/>
    <line stroke="rgb(30,30,30)" stroke-linecap="round" stroke-width="12" x1="0.0" x2="0.0" y1="896.0" y2="768.0"/>
    <line stroke="rgb(30,30,30)" stroke-linecap="round" stroke-width="12" x1="272.0" x2="272.0" y1="1280.0" y2="896.0"/>
    <line stroke="rgb(30,30,30)" stroke-linecap="round" stroke-width="12" x1="944.0" x2="944.0" y1="1280.0" y2="1088.0"/>
    <line stroke="rgb(30,30,30)" stroke-linecap="round" stroke-width="12" x1="944.0" x2="272.0" y1="1280.0" y2="1280.0"/>
    <line stroke="rgb(30,30,30)" stroke-linecap="round" stroke-width="12" x1="1600.0" x2="944.0" y1="736.0" y2="736.0"/>
    <line stroke="rgb(30,30,30)" stroke-linecap="round" stroke-width="12" x1="320.0" x2="944.0" y1="0.0" y2="0.0"/>
    <line stroke="rgb(30,30,30)" stroke-linecap="round" stroke-width="12" x1="320.0" x2="0.0" y1="768.0" y2="768.0"/>
    <line stroke="rgb(30,30,30)" stroke-linecap="round" stroke-width="12" x1="944.0" x2="944.0" y1="384.0" y2="0.0"/>
    <line stroke="rgb(30,30,30)" stroke-linecap="round" stroke-width="12" x1="1600" x2="1600.0" y1="0" y2="384.0"/>
    <line stroke="rgb(30,30,30)" stroke-linecap="round" stroke-width="12" x1="272.0" x2="0.0" y1="896.0" y2="896.0"/>
    <line stroke="rgb(30,30,30)" stroke-linecap="round" stroke-width="12" x1="944.0" x2="944.0" y1="736.0" y2="384.0"/>
    <line stroke="rgb(30,30,30)" stroke-linecap="round" stroke-width="12" x1="1600.0" x2="1600.0" y1="384.0" y2="736.0"/>
    <text style="font-family: sans-serif; font-size: 20pt" text-anchor="middle" x="472.0" y="832.0">HALLWAY_353 472.0</text>
    <text style="font-family: sans-serif; font-size: 20pt" text-anchor="middle" x="136.0" y="1088.0">BATH_552 408.0</text>
    <text style="font-family: sans-serif; font-size: 20pt" text-anchor="middle" x="608.0" y="1088.0">DINING_784 1008.0</text>
    <text style="font-family: sans-serif; font-size: 20pt" text-anchor="middle" x="160.0" y="384.0">BEDROOM_951 960.0</text>
    <text style="font-family: sans-serif; font-size: 20pt" text-anchor="middle" x="632.0" y="384.0">LIVING_997 1872.0</text>
    <text style="font-family: sans-serif; font-size: 20pt" text-anchor="middle" x="1272.0" y="1184.0">BATH_169 492.0</text>
    <text style="font-family: sans-serif; font-size: 20pt" text-anchor="middle" x="1272.0" y="912.0">BEDROOM_918 902.0</text>
    <text style="font-family: sans-serif; font-size: 20pt" text-anchor="middle" x="1272.0" y="560.0">BEDROOM_967 902.0</text>
    <text style="font-family: sans-serif; font-size: 20pt" text-anchor="middle" x="1272.0" y="192.0">KITCHEN_717 984.0</text>
  </g>
</svg>
