<?xml version="1.0" encoding="utf-8" ?>
<svg baseProfile="full" height="1344" version="1.1" width="1664" xmlns="http://www.w3.org/2000/svg" xmlns:ev="http://www.w3.org/2001/xml-events" xmlns:xlink="http://www.w3.org/1999/xlink">
  <defs/>
  <g transform="translate(32,32)">
    <line stroke="rgb(30,30,30)" stroke-linecap="round" stroke-width="12" x1="1600.0" x2="1024.0" y1="896.0" y2="896.0"/>
    <line stroke="rgb(30,30,30)" stroke-linecap="round" stroke-width="12" x1="1600.0" x2="1600.0" y1="224.0" y2="448.0"/>
    <line stroke="rgb(30,30,30)" stroke-linecap="round" stroke-width="12" x1="1024.0" x2="1024.0" y1="1280.0" y2="896.0"/>
    <line stroke="rgb(30,30,30)" stroke-linecap="round" stroke-width="12" x1="352.0" x2="352.0" y1="768.0" y2="0.0"/>
    <line stroke="rgb(30,30,30)" stroke-linecap="round" stroke-width="12" x1="1024.0" x2="1600" y1="0.0" y2="0"/>
    <line stroke="rgb(30,30,30)" stroke-linecap="round" stroke-width="12" x1="1024.0" x2="1024.0" y1="896.0" y2="768.0"/>
    <line stroke="rgb(30,30,30)" stroke-linecap="round" stroke-width="12" x1="544.0" x2="0.0" y1="896.0" y2="896.0"/>
    <line stroke="rgb(30,30,30)" stroke-linecap="round" stroke-width="12" x1="544.0" x2="0" y1="1280.0" y2="1280"/>
    <line stroke="rgb(30,30,30)" stroke-linecap="round" stroke-width="12" x1="1600.0" x2="1024.0" y1="448.0" y2="448.0"/>
    <line stroke="rgb(30,30,30)" stroke-linecap="round" stroke-width="12" x1="1024.0" x2="544.0" y1="896.0" y2="896.0"/>
    <line stroke="rgb(30,30,30)" stroke-linecap="round" stroke-width="12" x1="480.0" x2="352.0" y1="768.0" y2="768.0"/>
    <line stroke="rgb(30,30,30)" stroke-linecap="round" stroke-width="12" x1="544.0" x2="544.0" y1="1280.0" y2="896.0"/>
    <line stroke="rgb(30,30,30)" stroke-linecap="round" stroke-width="12" x1="0" x2="0.0" y1="1280" y2="896.0"/>
    <line stroke="rgb(30,30,30)" stroke-linecap="round" stroke-width="12" x1="0.0" x2="0" y1="768.0" y2="0"/>
    <line stroke="rgb(30,30,30)" stroke-linecap="round" stroke-width="12" x1="1024.0" x2="544.0" y1="1280.0" y2="1280.0"/>
    <line stroke="rgb(30,30,30)" stroke-linecap="round" stroke-width="12" x1="1024.0" x2="1024.0" y1="768.0" y2="448.0"/>
    <line stroke="rgb(30,30,30)" stroke-linecap="round" stroke-width="12" x1="1600.0" x2="1600.0" y1="768.0" y2="896.0"/>
    <line stroke="rgb(30,30,30)" stroke-linecap="round" stroke-width="12" x1="1600.0" x2="1024.0" y1="768.0" y2="768.0"/>
    <line stroke="rgb(30,30,30)" stroke-linecap="round" stroke-width="12" x1="480.0" x2="480.0" y1="768.0" y2="0.0"/>
    <line stroke="rgb(30,30,30)" stroke-linecap="round" stroke-width="12" x1="1600" x2="1024.0" y1="1280" y2="1280.0"/>
    <line stroke="rgb(30,30,30)" stroke-linecap="round" stroke-width="12" x1="1600" x2="1600.0" y1="0" y2="224.0"/>
    <line stroke="rgb(30,30,30)" stroke-linecap="round" stroke-width="12" x1="352.0" x2="0.0" y1="768.0" y2="768.0"/>
    <line stroke="rgb(30,30,30)" stroke-linecap="round" stroke-width="12" x1="1600.0" x2="1024.0" y1="224.0" y2="224.0"/>
    <line stroke="rgb(30,30,30)" stroke-linecap="round" stroke-width="12" x1="0" x2="352.0" y1="0" y2="0.0"/>
    <line stroke="rgb(30,30,30)" stroke-linecap="round" stroke-width="12" x1="0.0" x2="0.0" y1="896.0" y2="768.0"/>
    <line stroke="rgb(30,30,30)" stroke-linecap="round" stroke-width="12" x1="480.0" x2="1024.0" y1="0.0" y2="0.0"/>
    <line stroke="rgb(30,30,30)" stroke-linecap="round" stroke-width="12" x1="1600.0" x2="1600.0" y1="448.0" y2="768.0"/>
    <line stroke="rgb(30,30,30)" stroke-linecap="round" stroke-width="12" x1="1024.0" x2="1024.0" y1="448.0" y2="224.0"/>
    <line stroke="rgb(30,30,30)" stroke-linecap="round" stroke-width="12" x1="1024.0" x2="480.0" y1="768.0" y2="768.0"/>
    <line stroke="rgb(30,30,30)" stroke-linecap="round" stroke-width="12" x1="1600.0" x2="1600" y1="896.0" y2="1280"/>
    <line stroke="rgb(30,30,30)" stroke-linecap="round" stroke-width="12" x1="1024.0" x2="1024.0" y1="224.0" y2="0.0"/>
    <line stroke="rgb(30,30,30)" stroke-linecap="round" stroke-width="12" x1="352.0" x2="480.0" y1="0.0" y2="0.0"/>
    <text style="font-family: sans-serif; font-size: 20pt" text-anchor="middle" x="512.0" y="832.0">HALLWAY_659 512.0</text>
    <text style="font-family: sans-serif; font-size: 20pt" text-anchor="middle" x="272.0" y="1088.0">KITCHEN_858 816.0</text>
    <text style="font-family: sans-serif; font-size: 20pt" text-anchor="middle" x="784.0" y="1088.0">BEDROOM_715 720.0</text>
    <text style="font-family: sans-serif; font-size: 20pt" text-anchor="middle" x="176.0" y="384.0">DINING_383 1056.0</text>
    <text style="font-family: sans-serif; font-size: 20pt" text-anchor="middle" x="752.0" y="384.0">LIVING_834 1632.0</text>
    <text style="font-family: sans-serif; font-size: 20pt" text-anchor="middle" x="416.0" y="384.0">HALLWAY_626 384.0</text>
    <text style="font-family: sans-serif; font-size: 20pt" text-anchor="middle" x="1312.0" y="1088.0">BEDROOM_575 864.0</text>
    <text style="font-family: sans-serif; font-size: 20pt" text-anchor="middle" x="1312.0" y="608.0">BEDROOM_279 720.0</text>
    <text style="font-family: sans-serif; font-size: 20pt" text-anchor="middle" x="1312.0" y="832.0">HALLWAY_642 288.0</text>
    <text style="font-family: sans-serif; font-size: 20pt" text-anchor="middle" x="1312.0" y="336.0">BATH_52 504.0</text>
    <text style="font-family: sans-serif; font-size: 20pt" text-anchor="middle" x="1312.0" y="112.0">BATH_907 504.0</text>
  </g>
</svg>
