<?xml version="1.0" encoding="utf-8" ?>
<svg baseProfile="full" height="1344" version="1.1" width="1664" xmlns="http://www.w3.org/2000/svg" xmlns:ev="http://www.w3.org/2001/xml-events" xmlns:xlink="http://www.w3.org/1999/xlink">
  <defs/>
  <g transform="translate(32,32)">
    <line stroke="rgb(30,30,30)" stroke-linecap="round" stroke-width="12" x1="1600.0" x2="1600.0" y1="240.0" y2="464.0"/>
    <line stroke="rgb(30,30,30)" stroke-linecap="round" stroke-width="12" x1="0.0" x2="0.0" y1="592.0" y2="464.0"/>
    <line stroke="rgb(30,30,30)" stroke-linecap="round" stroke-width="12" x1="912.0" x2="0.0" y1="800.0" y2="800.0"/>
    <line stroke="rgb(30,30,30)" stroke-linecap="round" stroke-width="12" x1="1600.0" x2="1600.0" y1="592.0" y2="1088.0"/>
    <line stroke="rgb(30,30,30)" stroke-linecap="round" stroke-width="12" x1="1040.0" x2="1040.0" y1="1088.0" y2="592.0"/>
    <line stroke="rgb(30,30,30)" stroke-linecap="round" stroke-width="12" x1="656.0" x2="0.0" y1="464.0" y2="464.0"/>
    <line stroke="rgb(30,30,30)" stroke-linecap="round" stroke-width="12" x1="784.0" x2="656.0" y1="464.0" y2="464.0"/>
    <line stroke="rgb(30,30,30)" stroke-linecap="round" stroke-width="12" x1="1600.0" x2="784.0" y1="464.0" y2="464.0"/>
    <line stroke="rgb(30,30,30)" stroke-linecap="round" stroke-width="12" x1="0.0" x2="0.0" y1="464.0" y2="304.0"/>
    <line stroke="rgb(30,30,30)" stroke-linecap="round" stroke-width="12" x1="1600.0" x2="1600" y1="1088.0" y2="1280"/>
    <line stroke="rgb(30,30,30)" stroke-linecap="round" stroke-width="12" x1="784.0" x2="1600" y1="0.0" y2="0"/>
    <line stroke="rgb(30,30,30)" stroke-linecap="round" stroke-width="12" x1="1600.0" x2="1040.0" y1="1088.0" y2="1088.0"/>
    <line stroke="rgb(30,30,30)" stroke-linecap="round" stroke-width="12" x1="1040.0" x2="1040.0" y1="1280.0" y2="1088.0"/>
    <line stroke="rgb(30,30,30)" stroke-linecap="round" stroke-width="12" x1="0.0" x2="0.0" y1="800.0" y2="592.0"/>
    <line stroke="rgb(30,30,30)" stroke-linecap="round" stroke-width="12" x1="0" x2="0.0" y1="1280" y2="800.0"/>
    <line stroke="rgb(30,30,30)" stroke-linecap="round" stroke-width="12" x1="912.0" x2="912.0" y1="800.0" y2="592.0"/>
    <line stroke="rgb(30,30,30)" stroke-linecap="round" stroke-width="12" x1="784.0" x2="784.0" y1="464.0" y2="240.0"/>
    <line stroke="rgb(30,30,30)" stroke-linecap="round" stroke-width="12" x1="912.0" x2="912.0" y1="1280.0" y2="800.0"/>
    <line stroke="rgb(30,30,30)" stroke-linecap="round" stroke-width="12" x1="0.0" x2="0" y1="304.0" y2="0"/>
    <line stroke="rgb(30,30,30)" stroke-linecap="round" stroke-width="12" x1="1600.0" x2="784.0" y1="240.0" y2="240.0"/>
    <line stroke="rgb(30,30,30)" stroke-linecap="round" stroke-width="12" x1="1600" x2="1600.0" y1="0" y2="240.0"/>
    <line stroke="rgb(30,30,30)" stroke-linecap="round" stroke-width="12" x1="656.0" x2="0.0" y1="304.0" y2="304.0"/>
    <line stroke="rgb(30,30,30)" stroke-linecap="round" stroke-width="12" x1="1040.0" x2="912.0" y1="592.0" y2="592.0"/>
    <line stroke="rgb(30,30,30)" stroke-linecap="round" stroke-width="12" x1="784.0" x2="784.0" y1="240.0" y2="0.0"/>
    <line stroke="rgb(30,30,30)" stroke-linecap="round" stroke-width="12" x1="1600.0" x2="1040.0" y1="592.0" y2="592.0"/>
    <line stroke="rgb(30,30,30)" stroke-linecap="round" stroke-width="12" x1="656.0" x2="784.0" y1="0.0" y2="0.0"/>
    <line stroke="rgb(30,30,30)" stroke-linecap="round" stroke-width="12" x1="1040.0" x2="912.0" y1="1280.0" y2="1280.0"/>
    <line stroke="rgb(30,30,30)" stroke-linecap="round" stroke-width="12" x1="656.0" x2="656.0" y1="304.0" y2="0.0"/>
    <line stroke="rgb(30,30,30)" stroke-linecap="round" stroke-width="12" x1="1600" x2="1040.0" y1="1280" y2="1280.0"/>
    <line stroke="rgb(30,30,30)" stroke-linecap="round" stroke-width="12" x1="656.0" x2="656.0" y1="464.0" y2="304.0"/>
    <line stroke="rgb(30,30,30)" stroke-linecap="round" stroke-width="12" x1="0" x2="656.0" y1="0" y2="0.0"/>
    <line stroke="rgb(30,30,30)" stroke-linecap="round" stroke-width="12" x1="912.0" x2="0.0" y1="592.0" y2="592.0"/>
    <line stroke="rgb(30,30,30)" stroke-linecap="round" stroke-width="12" x1="912.0" x2="0" y1="1280.0" y2="1280"/>
    <line stroke="rgb(30,30,30)" stroke-linecap="round" stroke-width="12" x1="1600.0" x2="1600.0" y1="464.0" y2="592.0"/>
    <text style="font-family: sans-serif; font-size: 20pt" text-anchor="middle" x="800.0" y="528.0">HALLWAY_882 800.0</text>
    <text style="font-family: sans-serif; font-size: 20pt" text-anchor="middle" x="976.0" y="936.0">HALLWAY_777 344.0</text>
    <text style="font-family: sans-serif; font-size: 20pt" text-anchor="middle" x="456.0" y="1040.0">LIVING_23 1710.0</text>
    <text style="font-family: sans-serif; font-size: 20pt" text-anchor="middle" x="456.0" y="696.0">BEDROOM_470 741.0</text>
    <text style="font-family: sans-serif; font-size: 20pt" text-anchor="middle" x="1320.0" y="1184.0">BATH_343 420.0</text>
    <text style="font-family: sans-serif; font-size: 20pt" text-anchor="middle" x="1320.0" y="840.0">DINING_481 1085.0</text>
    <text style="font-family: sans-serif; font-size: 20pt" text-anchor="middle" x="720.0" y="232.0">HALLWAY_905 232.0</text>
    <text style="font-family: sans-serif; font-size: 20pt" text-anchor="middle" x="328.0" y="384.0">BATH_267 410.0</text>
    <text style="font-family: sans-serif; font-size: 20pt" text-anchor="middle" x="328.0" y="152.0">KITCHEN_222 779.0</text>
    <text style="font-family: sans-serif; font-size: 20pt" text-anchor="middle" x="1192.0" y="352.0">BEDROOM_95 714.0</text>
    <text style="font-family: sans-serif; font-size: 20pt" text-anchor="middle" x="1192.0" y="120.0">BEDROOM_252 765.0</text>
  </g>
</svg>
