<?xml version="1.0" encoding="utf-8" ?>
<svg baseProfile="full" height="1344" version="1.1" width="1664" xmlns="http://www.w3.org/2000/svg" xmlns:ev="http://www.w3.org/2001/xml-events" xmlns:xlink="http://www.w3.org/1999/xlink">
  <defs/>
  <g transform="translate(32,32)">
    <line stroke="rgb(30,30,30)" stroke-linecap="round" stroke-width="12" x1="1152.0" x2="1152.0" y1="1280.0" y2="864.0"/>
    <line stroke="rgb(30,30,30)" stroke-linecap="round" stroke-width="12" x1="0" x2="288.0" y1="0" y2="0.0"/>
    <line stroke="rgb(30,30,30)" stroke-linecap="round" stroke-width="12" x1="896.0" x2="896.0" y1="1280.0" y2="864.0"/>
    <line stroke="rgb(30,30,30)" stroke-linecap="round" stroke-width="12" x1="288.0" x2="288.0" y1="736.0" y2="0.0"/>
    <line stroke="rgb(30,30,30)" stroke-linecap="round" stroke-width="12" x1="1600.0" x2="1152.0" y1="864.0" y2="864.0"/>
    <line stroke="rgb(30,30,30)" stroke-linecap="round" stroke-width="12" x1="1152.0" x2="896.0" y1="864.0" y2="864.0"/>
    <line stroke="rgb(30,30,30)" stroke-linecap="round" stroke-width="12" x1="0" x2="0.0" y1="1280" y2="864.0"/>
    <line stroke="rgb(30,30,30)" stroke-linecap="round" stroke-width="12" x1="0.0" x2="0" y1="736.0" y2="0"/>
    <line stroke="rgb(30,30,30)" stroke-linecap="round" stroke-width="12" x1="624.0" x2="288.0" y1="736.0" y2="736.0"/>
    <line stroke="rgb(30,30,30)" stroke-linecap="round" stroke-width="12" x1="624.0" x2="944.0" y1="0.0" y2="0.0"/>
    <line stroke="rgb(30,30,30)" stroke-linecap="round" stroke-width="12" x1="1152.0" x2="896.0" y1="1280.0" y2="1280.0"/>
    <line stroke="rgb(30,30,30)" stroke-linecap="round" stroke-width="12" x1="1600" x2="1600.0" y1="0" y2="736.0"/>
    <line stroke="rgb(30,30,30)" stroke-linecap="round" stroke-width="12" x1="256.0" x2="0" y1="1280.0" y2="1280"/>
    <line stroke="rgb(30,30,30)" stroke-linecap="round" stroke-width="12" x1="944.0" x2="624.0" y1="736.0" y2="736.0"/>
    <line stroke="rgb(30,30,30)" stroke-linecap="round" stroke-width="12" x1="896.0" x2="256.0" y1="1280.0" y2="1280.0"/>
    <line stroke="rgb(30,30,30)" stroke-linecap="round" stroke-width="12" x1="944.0" x2="1600" y1="0.0" y2="0"/>
    <line stroke="rgb(30,30,30)" stroke-linecap="round" stroke-width="12" x1="1600.0" x2="1600.0" y1="736.0" y2="864.0"/>
    <line stroke="rgb(30,30,30)" stroke-linecap="round" stroke-width="12" x1="256.0" x2="0.0" y1="864.0" y2="864.0"/>
    <line stroke="rgb(30,30,30)" stroke-linecap="round" stroke-width="12" x1="1600" x2="1152.0" y1="1280" y2="1280.0"/>
    <line stroke="rgb(30,30,30)" stroke-linecap="round" stroke-width="12" x1="0.0" x2="0.0" y1="864.0" y2="736.0"/>
    <line stroke="rgb(30,30,30)" stroke-linecap="round" stroke-width="12" x1="288.0" x2="624.0" y1="0.0" y2="0.0"/>
    <line stroke="rgb(30,30,30)" stroke-linecap="round" stroke-width="12" x1="624.0" x2="624.0" y1="736.0" y2="0.0"/>
    <line stroke="rgb(30,30,30)" stroke-linecap="round" stroke-width="12" x1="1600.0" x2="944.0" y1="736.0" y2="736.0"/>
    <line stroke="rgb(30,30,30)" stroke-linecap="round" stroke-width="12" x1="896.0" x2="256.0" y1="864.0" y2="864.0"/>
    <line stroke="rgb(30,30,30)" stroke-linecap="round" stroke-width="12" x1="288.0" x2="0.0" y1="736.0" y2="736.0"/>
    <line stroke="rgb(30,30,30)" stroke-linecap="round" stroke-width="12" x1="1600.0" x2="1600" y1="864.0" y2="1280"/>
    <line stroke="rgb(30,30,30)" stroke-linecap="round" stroke-width="12" x1="944.0" x2="944.0" y1="736.0" y2="0.0"/>
    <line stroke="rgb(30,30,30)" stroke-linecap="round" stroke-width="12" x1="256.0" x2="256.0" y1="1280.0" y2="864.0"/>
    <text style="font-family: sans-serif; font-size: 20pt" text-anchor="middle" x="800.0" y="800.0">HALLWAY_679 800.0</text>
    <text style="font-family: sans-serif; font-size: 20pt" text-anchor="middle" x="128.0" y="1072.0">BATH_634 416.0</text>
    <text style="font-family: sans-serif; font-size: 20pt" text-anchor="middle" x="576.0" y="1072.0">DINING_26 1040.0</text>
    <text style="font-family: sans-serif; font-size: 20pt" text-anchor="middle" x="1024.0" y="1072.0">BATH_322 416.0</text>
    <text style="font-family: sans-serif; font-size: 20pt" text-anchor="middle" x="1376.0" y="1072.0">BEDROOM_436 728.0</text>
    <text style="font-family: sans-serif; font-size: 20pt" text-anchor="middle" x="144.0" y="368.0">BEDROOM_352 828.0</text>
    <text style="font-family: sans-serif; font-size: 20pt" text-anchor="middle" x="456.0" y="368.0">BEDROOM_805 966.0</text>
    <text style="font-family: sans-serif; font-size: 20pt" text-anchor="middle" x="784.0" y="368.0">KITCHEN_678 920.0</text>
    <text style="font-family: sans-serif; font-size: 20pt" text-anchor="middle" x="1272.0" y="368.0">LIVING_765 1886.0</text>
  </g>
</svg>
