<?xml version="1.0" encoding="utf-8" ?>
<svg baseProfile="full" height="1344" version="1.1" width="1664" xmlns="http://www.w3.org/2000/svg" xmlns:ev="http://www.w3.org/2001/xml-events" xmlns:xlink="http://www.w3.org/1999/xlink">
  <defs/>
  <g transform="translate(32,32)">
    <line stroke="rgb(30,30,30)" stroke-linecap="round" stroke-width="12" x1="0.0" x2="0" y1="320.0" y2="0"/>
    <line stroke="rgb(30,30,30)" stroke-linecap="round" stroke-width="12" x1="1600.0" x2="1600.0" y1="656.0" y2="784.0"/>
    <line stroke="rgb(30,30,30)" stroke-linecap="round" stroke-width="12" x1="784.0" x2="656.0" y1="656.0" y2="656.0"/>
    <line stroke="rgb(30,30,30)" stroke-linecap="round" stroke-width="12" x1="656.0" x2="0.0" y1="320.0" y2="320.0"/>
    <line stroke="rgb(30,30,30)" stroke-linecap="round" stroke-width="12" x1="1600.0" x2="1600.0" y1="128.0" y2="656.0"/>
    <line stroke="rgb(30,30,30)" stroke-linecap="round" stroke-width="12" x1="1600" x2="1600.0" y1="0" y2="128.0"/>
    <line stroke="rgb(30,30,30)" stroke-linecap="round" stroke-width="12" x1="784.0" x2="784.0" y1="656.0" y2="128.0"/>
    <line stroke="rgb(30,30,30)" stroke-linecap="round" stroke-width="12" x1="416.0" x2="416.0" y1="1280.0" y2="784.0"/>
    <line stroke="rgb(30,30,30)" stroke-linecap="round" stroke-width="12" x1="784.0" x2="784.0" y1="128.0" y2="0.0"/>
    <line stroke="rgb(30,30,30)" stroke-linecap="round" stroke-width="12" x1="416.0" x2="0.0" y1="784.0" y2="784.0"/>
    <line stroke="rgb(30,30,30)" stroke-linecap="round" stroke-width="12" x1="1600.0" x2="784.0" y1="128.0" y2="128.0"/>
    <line stroke="rgb(30,30,30)" stroke-linecap="round" stroke-width="12" x1="416.0" x2="0" y1="1280.0" y2="1280"/>
    <line stroke="rgb(30,30,30)" stroke-linecap="round" stroke-width="12" x1="976.0" x2="416.0" y1="784.0" y2="784.0"/>
    <line stroke="rgb(30,30,30)" stroke-linecap="round" stroke-width="12" x1="976.0" x2="416.0" y1="1280.0" y2="1280.0"/>
    <line stroke="rgb(30,30,30)" stroke-linecap="round" stroke-width="12" x1="1600.0" x2="1600" y1="784.0" y2="1280"/>
    <line stroke="rgb(30,30,30)" stroke-linecap="round" stroke-width="12" x1="1600.0" x2="784.0" y1="656.0" y2="656.0"/>
    <line stroke="rgb(30,30,30)" stroke-linecap="round" stroke-width="12" x1="0" x2="0.0" y1="1280" y2="784.0"/>
    <line stroke="rgb(30,30,30)" stroke-linecap="round" stroke-width="12" x1="0" x2="656.0" y1="0" y2="0.0"/>
    <line stroke="rgb(30,30,30)" stroke-linecap="round" stroke-width="12" x1="1200.0" x2="976.0" y1="784.0" y2="784.0"/>
    <line stroke="rgb(30,30,30)" stroke-linecap="round" stroke-width="12" x1="656.0" x2="0.0" y1="656.0" y2="656.0"/>
    <line stroke="rgb(30,30,30)" stroke-linecap="round" stroke-width="12" x1="1200.0" x2="1200.0" y1="1280.0" y2="784.0"/>
    <line stroke="rgb(30,30,30)" stroke-linecap="round" stroke-width="12" x1="1600.0" x2="1200.0" y1="784.0" y2="784.0"/>
    <line stroke="rgb(30,30,30)" stroke-linecap="round" stroke-width="12" x1="656.0" x2="656.0" y1="656.0" y2="320.0"/>
    <line stroke="rgb(30,30,30)" stroke-linecap="round" stroke-width="12" x1="1200.0" x2="976.0" y1="1280.0" y2="1280.0"/>
    <line stroke="rgb(30,30,30)" stroke-linecap="round" stroke-width="12" x1="656.0" x2="656.0" y1="320.0" y2="0.0"/>
    <line stroke="rgb(30,30,30)" stroke-linecap="round" stroke-width="12" x1="1600" x2="1200.0" y1="1280" y2="1280.0"/>
    <line stroke="rgb(30,30,30)" stroke-linecap="round" stroke-width="12" x1="0.0" x2="0.0" y1="656.0" y2="320.0"/>
    <line stroke="rgb(30,30,30)" stroke-linecap="round" stroke-width="12" x1="0.0" x2="0.0" y1="784.0" y2="656.0"/>
    <line stroke="rgb(30,30,30)" stroke-linecap="round" stroke-width="12" x1="656.0" x2="784.0" y1="0.0" y2="0.0"/>
    <line stroke="rgb(30,30,30)" stroke-linecap="round" stroke-width="12" x1="976.0" x2="976.0" y1="1280.0" y2="784.0"/>
    <line stroke="rgb(30,30,30)" stroke-linecap="round" stroke-width="12" x1="784.0" x2="1600" y1="0.0" y2="0"/>
    <text style="font-family: sans-serif; font-size: 20pt" text-anchor="middle" x="800.0" y="720.0">HALLWAY_300 800.0</text>
    <text style="font-family: sans-serif; font-size: 20pt" text-anchor="middle" x="208.0" y="1032.0">BEDROOM_942 806.0</text>
    <text style="font-family: sans-serif; font-size: 20pt" text-anchor="middle" x="696.0" y="1032.0">DINING_338 1085.0</text>
    <text style="font-family: sans-serif; font-size: 20pt" text-anchor="middle" x="1088.0" y="1032.0">BATH_75 434.0</text>
    <text style="font-family: sans-serif; font-size: 20pt" text-anchor="middle" x="1400.0" y="1032.0">BEDROOM_749 775.0</text>
    <text style="font-family: sans-serif; font-size: 20pt" text-anchor="middle" x="720.0" y="328.0">HALLWAY_184 328.0</text>
    <text style="font-family: sans-serif; font-size: 20pt" text-anchor="middle" x="328.0" y="488.0">BEDROOM_57 861.0</text>
    <text style="font-family: sans-serif; font-size: 20pt" text-anchor="middle" x="328.0" y="160.0">KITCHEN_711 820.0</text>
    <text style="font-family: sans-serif; font-size: 20pt" text-anchor="middle" x="1192.0" y="392.0">LIVING_510 1683.0</text>
    <text style="font-family: sans-serif; font-size: 20pt" text-anchor="middle" x="1192.0" y="64.0">BATH_420 408.0</text>
  </g>
</svg>
