<?xml version="1.0" encoding="utf-8" ?>
<svg baseProfile="full" height="1344" version="1.1" width="1664" xmlns="http://www.w3.org/2000/svg" xmlns:ev="http://www.w3.org/2001/xml-events" xmlns:xlink="http://www.w3.org/1999/xlink">
  <defs/>
  <g transform="translate(32,32)">
    <line stroke="rgb(30,30,30)" stroke-linecap="round" stroke-width="12" x1="736.0" x2="0.0" y1="320.0" y2="320.0"/>
    <line stroke="rgb(30,30,30)" stroke-linecap="round" stroke-width="12" x1="1200.0" x2="1200.0" y1="1280.0" y2="576.0"/>
    <line stroke="rgb(30,30,30)" stroke-linecap="round" stroke-width="12" x1="1328.0" x2="1600" y1="0.0" y2="0"/>
    <line stroke="rgb(30,30,30)" stroke-linecap="round" stroke-width="12" x1="736.0" x2="736.0" y1="320.0" y2="0.0"/>
    <line stroke="rgb(30,30,30)" stroke-linecap="round" stroke-width="12" x1="0" x2="736.0" y1="0" y2="0.0"/>
    <line stroke="rgb(30,30,30)" stroke-linecap="round" stroke-width="12" x1="1600" x2="1328.0" y1="1280" y2="1280.0"/>
    <line stroke="rgb(30,30,30)" stroke-linecap="round" stroke-width="12" x1="736.0" x2="608.0" y1="1280.0" y2="1280.0"/>
    <line stroke="rgb(30,30,30)" stroke-linecap="round" stroke-width="12" x1="736.0" x2="736.0" y1="480.0" y2="320.0"/>
    <line stroke="rgb(30,30,30)" stroke-linecap="round" stroke-width="12" x1="864.0" x2="1200.0" y1="0.0" y2="0.0"/>
    <line stroke="rgb(30,30,30)" stroke-linecap="round" stroke-width="12" x1="736.0" x2="736.0" y1="1280.0" y2="480.0"/>
    <line stroke="rgb(30,30,30)" stroke-linecap="round" stroke-width="12" x1="1600.0" x2="1328.0" y1="640.0" y2="640.0"/>
    <line stroke="rgb(30,30,30)" stroke-linecap="round" stroke-width="12" x1="864.0" x2="864.0" y1="1280.0" y2="576.0"/>
    <line stroke="rgb(30,30,30)" stroke-linecap="round" stroke-width="12" x1="608.0" x2="608.0" y1="1280.0" y2="480.0"/>
    <line stroke="rgb(30,30,30)" stroke-linecap="round" stroke-width="12" x1="1200.0" x2="1200.0" y1="576.0" y2="0.0"/>
    <line stroke="rgb(30,30,30)" stroke-linecap="round" stroke-width="12" x1="736.0" x2="608.0" y1="480.0" y2="480.0"/>
    <line stroke="rgb(30,30,30)" stroke-linecap="round" stroke-width="12" x1="480.0" x2="0.0" y1="480.0" y2="480.0"/>
    <line stroke="rgb(30,30,30)" stroke-linecap="round" stroke-width="12" x1="864.0" x2="864.0" y1="576.0" y2="0.0"/>
    <line stroke="rgb(30,30,30)" stroke-linecap="round" stroke-width="12" x1="1328.0" x2="1328.0" y1="640.0" y2="0.0"/>
    <line stroke="rgb(30,30,30)" stroke-linecap="round" stroke-width="12" x1="1200.0" x2="864.0" y1="1280.0" y2="1280.0"/>
    <line stroke="rgb(30,30,30)" stroke-linecap="round" stroke-width="12" x1="1200.0" x2="864.0" y1="576.0" y2="576.0"/>
    <line stroke="rgb(30,30,30)" stroke-linecap="round" stroke-width="12" x1="0" x2="0.0" y1="1280" y2="480.0"/>
    <line stroke="rgb(30,30,30)" stroke-linecap="round" stroke-width="12" x1="1328.0" x2="1328.0" y1="1280.0" y2="640.0"/>
    <line stroke="rgb(30,30,30)" stroke-linecap="round" stroke-width="12" x1="608.0" x2="480.0" y1="480.0" y2="480.0"/>
    <line stroke="rgb(30,30,30)" stroke-linecap="round" stroke-width="12" x1="1600.0" x2="1600" y1="640.0" y2="1280"/>
    <line stroke="rgb(30,30,30)" stroke-linecap="round" stroke-width="12" x1="608.0" x2="480.0" y1="1280.0" y2="1280.0"/>
    <line stroke="rgb(30,30,30)" stroke-linecap="round" stroke-width="12" x1="0.0" x2="0" y1="320.0" y2="0"/>
    <line stroke="rgb(30,30,30)" stroke-linecap="round" stroke-width="12" x1="1200.0" x2="1328.0" y1="0.0" y2="0.0"/>
    <line stroke="rgb(30,30,30)" stroke-linecap="round" stroke-width="12" x1="1328.0" x2="1200.0" y1="1280.0" y2="1280.0"/>
    <line stroke="rgb(30,30,30)" stroke-linecap="round" stroke-width="12" x1="1600" x2="1600.0" y1="0" y2="640.0"/>
    <line stroke="rgb(30,30,30)" stroke-linecap="round" stroke-width="12" x1="480.0" x2="0" y1="1280.0" y2="1280"/>
    <line stroke="rgb(30,30,30)" stroke-linecap="round" stroke-width="12" x1="736.0" x2="864.0" y1="0.0" y2="0.0"/>
    <line stroke="rgb(30,30,30)" stroke-linecap="round" stroke-width="12" x1="864.0" x2="736.0" y1="1280.0" y2="1280.0"/>
    <line stroke="rgb(30,30,30)" stroke-linecap="round" stroke-width="12" x1="0.0" x2="0.0" y1="480.0" y2="320.0"/>
    <line stroke="rgb(30,30,30)" stroke-linecap="round" stroke-width="12" x1="480.0" x2="480.0" y1="1280.0" y2="480.0"/>
    <text style="font-family: sans-serif; font-size: 20pt" text-anchor="middle" x="800.0" y="640.0">HALLWAY_291 640.0</text>
    <text style="font-family: sans-serif; font-size: 20pt" text-anchor="middle" x="240.0" y="880.0">LIVING_465 1500.0</text>
    <text style="font-family: sans-serif; font-size: 20pt" text-anchor="middle" x="672.0" y="880.0">BATH_668 400.0</text>
    <text style="font-family: sans-serif; font-size: 20pt" text-anchor="middle" x="544.0" y="880.0">HALLWAY_963 400.0</text>
    <text style="font-family: sans-serif; font-size: 20pt" text-anchor="middle" x="368.0" y="400.0">BATH_399 460.0</text>
    <text style="font-family: sans-serif; font-size: 20pt" text-anchor="middle" x="368.0" y="160.0">KITCHEN_646 920.0</text>
    <text style="font-family: sans-serif; font-size: 20pt" text-anchor="middle" x="1264.0" y="640.0">HALLWAY_833 640.0</text>
    <text style="font-family: sans-serif; font-size: 20pt" text-anchor="middle" x="1032.0" y="928.0">DINING_669 924.0</text>
    <text style="font-family: sans-serif; font-size: 20pt" text-anchor="middle" x="1032.0" y="288.0">BEDROOM_257 756.0</text>
    <text style="font-family: sans-serif; font-size: 20pt" text-anchor="middle" x="1464.0" y="960.0">BEDROOM_959 680.0</text>
    <text style="font-family: sans-serif; font-size: 20pt" text-anchor="middle" x="1464.0" y="320.0">BEDROOM_178 680.0</text>
  </g>
</svg>
