<?xml version="1.0" encoding="utf-8" ?>
<svg baseProfile="full" height="1344" version="1.1" width="1664" xmlns="http://www.w3.org/2000/svg" xmlns:ev="http://www.w3.org/2001/xml-events" xmlns:xlink="http://www.w3.org/1999/xlink">
  <defs/>
  <g transform="translate(32,32)">
    <line stroke="rgb(30,30,30)" stroke-linecap="round" stroke-width="12" x1="944.0" x2="352.0" y1="1280.0" y2="1280.0"/>
    <line stroke="rgb(30,30,30)" stroke-linecap="round" stroke-width="12" x1="0" x2="352.0" y1="0" y2="0.0"/>
    <line stroke="rgb(30,30,30)" stroke-linecap="round" stroke-width="12" x1="352.0" x2="0.0" y1="272.0" y2="272.0"/>
    <line stroke="rgb(30,30,30)" stroke-linecap="round" stroke-width="12" x1="352.0" x2="0" y1="1280.0" y2="1280"/>
    <line stroke="rgb(30,30,30)" stroke-linecap="round" stroke-width="12" x1="1600.0" x2="1216.0" y1="608.0" y2="608.0"/>
    <line stroke="rgb(30,30,30)" stroke-linecap="round" stroke-width="12" x1="0" x2="0.0" y1="1280" y2="400.0"/>
    <line stroke="rgb(30,30,30)" stroke-linecap="round" stroke-width="12" x1="1216.0" x2="1216.0" y1="1280.0" y2="608.0"/>
    <line stroke="rgb(30,30,30)" stroke-linecap="round" stroke-width="12" x1="352.0" x2="944.0" y1="0.0" y2="0.0"/>
    <line stroke="rgb(30,30,30)" stroke-linecap="round" stroke-width="12" x1="1216.0" x2="1216.0" y1="608.0" y2="464.0"/>
    <line stroke="rgb(30,30,30)" stroke-linecap="round" stroke-width="12" x1="1216.0" x2="1600" y1="0.0" y2="0"/>
    <line stroke="rgb(30,30,30)" stroke-linecap="round" stroke-width="12" x1="1216.0" x2="944.0" y1="1280.0" y2="1280.0"/>
    <line stroke="rgb(30,30,30)" stroke-linecap="round" stroke-width="12" x1="1600.0" x2="1600" y1="608.0" y2="1280"/>
    <line stroke="rgb(30,30,30)" stroke-linecap="round" stroke-width="12" x1="352.0" x2="0.0" y1="400.0" y2="400.0"/>
    <line stroke="rgb(30,30,30)" stroke-linecap="round" stroke-width="12" x1="352.0" x2="352.0" y1="400.0" y2="272.0"/>
    <line stroke="rgb(30,30,30)" stroke-linecap="round" stroke-width="12" x1="352.0" x2="352.0" y1="848.0" y2="400.0"/>
    <line stroke="rgb(30,30,30)" stroke-linecap="round" stroke-width="12" x1="0.0" x2="0.0" y1="400.0" y2="272.0"/>
    <line stroke="rgb(30,30,30)" stroke-linecap="round" stroke-width="12" x1="944.0" x2="944.0" y1="848.0" y2="464.0"/>
    <line stroke="rgb(30,30,30)" stroke-linecap="round" stroke-width="12" x1="944.0" x2="1216.0" y1="0.0" y2="0.0"/>
    <line stroke="rgb(30,30,30)" stroke-linecap="round" stroke-width="12" x1="1216.0" x2="1216.0" y1="464.0" y2="0.0"/>
    <line stroke="rgb(30,30,30)" stroke-linecap="round" stroke-width="12" x1="944.0" x2="944.0" y1="464.0" y2="0.0"/>
    <line stroke="rgb(30,30,30)" stroke-linecap="round" stroke-width="12" x1="352.0" x2="352.0" y1="1280.0" y2="848.0"/>
    <line stroke="rgb(30,30,30)" stroke-linecap="round" stroke-width="12" x1="1600" x2="1216.0" y1="1280" y2="1280.0"/>
    <line stroke="rgb(30,30,30)" stroke-linecap="round" stroke-width="12" x1="0.0" x2="0" y1="272.0" y2="0"/>
    <line stroke="rgb(30,30,30)" stroke-linecap="round" stroke-width="12" x1="352.0" x2="352.0" y1="272.0" y2="0.0"/>
    <line stroke="rgb(30,30,30)" stroke-linecap="round" stroke-width="12" x1="944.0" x2="944.0" y1="1280.0" y2="848.0"/>
    <line stroke="rgb(30,30,30)" stroke-linecap="round" stroke-width="12" x1="1600" x2="1600.0" y1="0" y2="608.0"/>
    <line stroke="rgb(30,30,30)" stroke-linecap="round" stroke-width="12" x1="944.0" x2="352.0" y1="848.0" y2="848.0"/>
    <line stroke="rgb(30,30,30)" stroke-linecap="round" stroke-width="12" x1="1216.0" x2="944.0" y1="464.0" y2="464.0"/>
    <text style="font-family: sans-serif; font-size: 20pt" text-anchor="middle" x="176.0" y="840.0">DINING_223 1210.0</text>
    <text style="font-family: sans-serif; font-size: 20pt" text-anchor="middle" x="176.0" y="136.0">BATH_815 374.0</text>
    <text style="font-family: sans-serif; font-size: 20pt" text-anchor="middle" x="176.0" y="336.0">HALLWAY_108 176.0</text>
    <text style="font-family: sans-serif; font-size: 20pt" text-anchor="middle" x="648.0" y="1064.0">BEDROOM_869 999.0</text>
    <text style="font-family: sans-serif; font-size: 20pt" text-anchor="middle" x="648.0" y="424.0">LIVING_462 1961.0</text>
    <text style="font-family: sans-serif; font-size: 20pt" text-anchor="middle" x="1080.0" y="872.0">BEDROOM_691 867.0</text>
    <text style="font-family: sans-serif; font-size: 20pt" text-anchor="middle" x="1080.0" y="232.0">BATH_787 493.0</text>
    <text style="font-family: sans-serif; font-size: 20pt" text-anchor="middle" x="1408.0" y="944.0">KITCHEN_107 1008.0</text>
    <text style="font-family: sans-serif; font-size: 20pt" text-anchor="middle" x="1408.0" y="304.0">BEDROOM_660 912.0</text>
  </g>
</svg>
