<?xml version="1.0" encoding="utf-8" ?>
<svg baseProfile="full" height="1344" version="1.1" width="1664" xmlns="http://www.w3.org/2000/svg" xmlns:ev="http://www.w3.org/2001/xml-events" xmlns:xlink="http://www.w3.org/1999/xlink">
  <defs/>
  <g transform="translate(32,32)">
    <line stroke="rgb(30,30,30)" stroke-linecap="round" stroke-width="12" x1="464.0" x2="464.0" y1="464.0" y2="0.0"/>
    <line stroke="rgb(30,30,30)" stroke-linecap="round" stroke-width="12" x1="0" x2="464.0" y1="0" y2="0.0"/>
    <line stroke="rgb(30,30,30)" stroke-linecap="round" stroke-width="12" x1="1600" x2="1600.0" y1="0" y2="592.0"/>
    <line stroke="rgb(30,30,30)" stroke-linecap="round" stroke-width="12" x1="848.0" x2="848.0" y1="592.0" y2="0.0"/>
    <line stroke="rgb(30,30,30)" stroke-linecap="round" stroke-width="12" x1="720.0" x2="720.0" y1="464.0" y2="0.0"/>
    <line stroke="rgb(30,30,30)" stroke-linecap="round" stroke-width="12" x1="464.0" x2="720.0" y1="0.0" y2="0.0"/>
    <line stroke="rgb(30,30,30)" stroke-linecap="round" stroke-width="12" x1="720.0" x2="464.0" y1="464.0" y2="464.0"/>
    <line stroke="rgb(30,30,30)" stroke-linecap="round" stroke-width="12" x1="848.0" x2="848.0" y1="1280.0" y2="592.0"/>
    <line stroke="rgb(30,30,30)" stroke-linecap="round" stroke-width="12" x1="720.0" x2="0" y1="1280.0" y2="1280"/>
    <line stroke="rgb(30,30,30)" stroke-linecap="round" stroke-width="12" x1="1600.0" x2="1600" y1="592.0" y2="1280"/>
    <line stroke="rgb(30,30,30)" stroke-linecap="round" stroke-width="12" x1="1600" x2="1264.0" y1="1280" y2="1280.0"/>
    <line stroke="rgb(30,30,30)" stroke-linecap="round" stroke-width="12" x1="1200.0" x2="1600" y1="0.0" y2="0"/>
    <line stroke="rgb(30,30,30)" stroke-linecap="round" stroke-width="12" x1="1264.0" x2="848.0" y1="1280.0" y2="1280.0"/>
    <line stroke="rgb(30,30,30)" stroke-linecap="round" stroke-width="12" x1="0.0" x2="0.0" y1="1120.0" y2="464.0"/>
    <line stroke="rgb(30,30,30)" stroke-linecap="round" stroke-width="12" x1="720.0" x2="720.0" y1="1120.0" y2="464.0"/>
    <line stroke="rgb(30,30,30)" stroke-linecap="round" stroke-width="12" x1="0.0" x2="0" y1="464.0" y2="0"/>
    <line stroke="rgb(30,30,30)" stroke-linecap="round" stroke-width="12" x1="1264.0" x2="1264.0" y1="1280.0" y2="592.0"/>
    <line stroke="rgb(30,30,30)" stroke-linecap="round" stroke-width="12" x1="720.0" x2="720.0" y1="1280.0" y2="1120.0"/>
    <line stroke="rgb(30,30,30)" stroke-linecap="round" stroke-width="12" x1="1600.0" x2="1264.0" y1="592.0" y2="592.0"/>
    <line stroke="rgb(30,30,30)" stroke-linecap="round" stroke-width="12" x1="1264.0" x2="1200.0" y1="592.0" y2="592.0"/>
    <line stroke="rgb(30,30,30)" stroke-linecap="round" stroke-width="12" x1="848.0" x2="720.0" y1="1280.0" y2="1280.0"/>
    <line stroke="rgb(30,30,30)" stroke-linecap="round" stroke-width="12" x1="464.0" x2="0.0" y1="464.0" y2="464.0"/>
    <line stroke="rgb(30,30,30)" stroke-linecap="round" stroke-width="12" x1="1200.0" x2="1200.0" y1="592.0" y2="0.0"/>
    <line stroke="rgb(30,30,30)" stroke-linecap="round" stroke-width="12" x1="848.0" x2="1200.0" y1="0.0" y2="0.0"/>
    <line stroke="rgb(30,30,30)" stroke-linecap="round" stroke-width="12" x1="720.0" x2="848.0" y1="0.0" y2="0.0"/>
    <line stroke="rgb(30,30,30)" stroke-linecap="round" stroke-width="12" x1="720.0" x2="0.0" y1="1120.0" y2="1120.0"/>
    <line stroke="rgb(30,30,30)" stroke-linecap="round" stroke-width="12" x1="1200.0" x2="848.0" y1="592.0" y2="592.0"/>
    <line stroke="rgb(30,30,30)" stroke-linecap="round" stroke-width="12" x1="0" x2="0.0" y1="1280" y2="1120.0"/>
    <text style="font-family: sans-serif; font-size: 20pt" text-anchor="middle" x="784.0" y="640.0">HALLWAY_877 640.0</text>
    <text style="font-family: sans-serif; font-size: 20pt" text-anchor="middle" x="360.0" y="1200.0">BATH_35 450.0</text>
    <text style="font-family: sans-serif; font-size: 20pt" text-anchor="middle" x="360.0" y="792.0">LIVING_142 1845.0</text>
    <text style="font-family: sans-serif; font-size: 20pt" text-anchor="middle" x="232.0" y="232.0">BEDROOM_577 841.0</text>
    <text style="font-family: sans-serif; font-size: 20pt" text-anchor="middle" x="592.0" y="232.0">BATH_717 464.0</text>
    <text style="font-family: sans-serif; font-size: 20pt" text-anchor="middle" x="1056.0" y="936.0">DINING_423 1118.0</text>
    <text style="font-family: sans-serif; font-size: 20pt" text-anchor="middle" x="1432.0" y="936.0">BEDROOM_432 903.0</text>
    <text style="font-family: sans-serif; font-size: 20pt" text-anchor="middle" x="1024.0" y="296.0">BEDROOM_397 814.0</text>
    <text style="font-family: sans-serif; font-size: 20pt" text-anchor="middle" x="1400.0" y="296.0">KITCHEN_327 925.0</text>
  </g>
</svg>
