<?xml version="1.0" encoding="utf-8" ?>
<svg baseProfile="full" height="1344" version="1.1" width="1664" xmlns="http://www.w3.org/2000/svg" xmlns:ev="http://www.w3.org/2001/xml-events" xmlns:xlink="http://www.w3.org/1999/xlink">
  <defs/>
  <g transform="translate(32,32)">
    <line stroke="rgb(30,30,30)" stroke-linecap="round" stroke-width="12" x1="1216.0" x2="1216.0" y1="1280.0" y2="672.0"/>
    <line stroke="rgb(30,30,30)" stroke-linecap="round" stroke-width="12" x1="736.0" x2="0.0" y1="320.0" y2="320.0"/>
    <line stroke="rgb(30,30,30)" stroke-linecap="round" stroke-width="12" x1="0.0" x2="0" y1="320.0" y2="0"/>
    <line stroke="rgb(30,30,30)" stroke-linecap="round" stroke-width="12" x1="1216.0" x2="864.0" y1="672.0" y2="672.0"/>
    <line stroke="rgb(30,30,30)" stroke-linecap="round" stroke-width="12" x1="1600" x2="1600.0" y1="0" y2="672.0"/>
    <line stroke="rgb(30,30,30)" stroke-linecap="round" stroke-width="12" x1="368.0" x2="368.0" y1="1280.0" y2="960.0"/>
    <line stroke="rgb(30,30,30)" stroke-linecap="round" stroke-width="12" x1="1296.0" x2="1600" y1="0.0" y2="0"/>
    <line stroke="rgb(30,30,30)" stroke-linecap="round" stroke-width="12" x1="0" x2="736.0" y1="0" y2="0.0"/>
    <line stroke="rgb(30,30,30)" stroke-linecap="round" stroke-width="12" x1="368.0" x2="0" y1="1280.0" y2="1280"/>
    <line stroke="rgb(30,30,30)" stroke-linecap="round" stroke-width="12" x1="736.0" x2="736.0" y1="1280.0" y2="960.0"/>
    <line stroke="rgb(30,30,30)" stroke-linecap="round" stroke-width="12" x1="1600" x2="1216.0" y1="1280" y2="1280.0"/>
    <line stroke="rgb(30,30,30)" stroke-linecap="round" stroke-width="12" x1="1216.0" x2="864.0" y1="1280.0" y2="1280.0"/>
    <line stroke="rgb(30,30,30)" stroke-linecap="round" stroke-width="12" x1="864.0" x2="1296.0" y1="0.0" y2="0.0"/>
    <line stroke="rgb(30,30,30)" stroke-linecap="round" stroke-width="12" x1="1296.0" x2="1216.0" y1="672.0" y2="672.0"/>
    <line stroke="rgb(30,30,30)" stroke-linecap="round" stroke-width="12" x1="0" x2="0.0" y1="1280" y2="960.0"/>
    <line stroke="rgb(30,30,30)" stroke-linecap="round" stroke-width="12" x1="736.0" x2="736.0" y1="960.0" y2="320.0"/>
    <line stroke="rgb(30,30,30)" stroke-linecap="round" stroke-width="12" x1="368.0" x2="0.0" y1="960.0" y2="960.0"/>
    <line stroke="rgb(30,30,30)" stroke-linecap="round" stroke-width="12" x1="864.0" x2="736.0" y1="1280.0" y2="1280.0"/>
    <line stroke="rgb(30,30,30)" stroke-linecap="round" stroke-width="12" x1="736.0" x2="864.0" y1="0.0" y2="0.0"/>
    <line stroke="rgb(30,30,30)" stroke-linecap="round" stroke-width="12" x1="0.0" x2="0.0" y1="960.0" y2="320.0"/>
    <line stroke="rgb(30,30,30)" stroke-linecap="round" stroke-width="12" x1="736.0" x2="368.0" y1="1280.0" y2="1280.0"/>
    <line stroke="rgb(30,30,30)" stroke-linecap="round" stroke-width="12" x1="736.0" x2="368.0" y1="960.0" y2="960.0"/>
    <line stroke="rgb(30,30,30)" stroke-linecap="round" stroke-width="12" x1="736.0" x2="736.0" y1="320.0" y2="0.0"/>
    <line stroke="rgb(30,30,30)" stroke-linecap="round" stroke-width="12" x1="864.0" x2="864.0" y1="672.0" y2="0.0"/>
    <line stroke="rgb(30,30,30)" stroke-linecap="round" stroke-width="12" x1="864.0" x2="864.0" y1="1280.0" y2="672.0"/>
    <line stroke="rgb(30,30,30)" stroke-linecap="round" stroke-width="12" x1="1296.0" x2="1296.0" y1="672.0" y2="0.0"/>
    <line stroke="rgb(30,30,30)" stroke-linecap="round" stroke-width="12" x1="1600.0" x2="1296.0" y1="672.0" y2="672.0"/>
    <line stroke="rgb(30,30,30)" stroke-linecap="round" stroke-width="12" x1="1600.0" x2="1600" y1="672.0" y2="1280"/>
    <text style="font-family: sans-serif; font-size: 20pt" text-anchor="middle" x="800.0" y="640.0">HALLWAY_700 640.0</text>
    <text style="font-family: sans-serif; font-size: 20pt" text-anchor="middle" x="184.0" y="1120.0">BATH_920 460.0</text>
    <text style="font-family: sans-serif; font-size: 20pt" text-anchor="middle" x="552.0" y="1120.0">BATH_965 460.0</text>
    <text style="font-family: sans-serif; font-size: 20pt" text-anchor="middle" x="368.0" y="640.0">LIVING_306 1840.0</text>
    <text style="font-family: sans-serif; font-size: 20pt" text-anchor="middle" x="368.0" y="160.0">KITCHEN_932 920.0</text>
    <text style="font-family: sans-serif; font-size: 20pt" text-anchor="middle" x="1040.0" y="976.0">BEDROOM_179 836.0</text>
    <text style="font-family: sans-serif; font-size: 20pt" text-anchor="middle" x="1408.0" y="976.0">BEDROOM_184 912.0</text>
    <text style="font-family: sans-serif; font-size: 20pt" text-anchor="middle" x="1080.0" y="336.0">DINING_94 1134.0</text>
    <text style="font-family: sans-serif; font-size: 20pt" text-anchor="middle" x="1448.0" y="336.0">BEDROOM_326 798.0</text>
  </g>
</svg>
