<?xml version="1.0" encoding="utf-8" ?>
<svg baseProfile="full" height="1344" version="1.1" width="1664" xmlns="http://www.w3.org/2000/svg" xmlns:ev="http://www.w3.org/2001/xml-events" xmlns:xlink="http://www.w3.org/1999/xlink">
  <defs/>
  <g transform="translate(32,32)">
    <line stroke="rgb(30,30,30)" stroke-linecap="round" stroke-width="12" x1="768.0" x2="768.0" y1="1120.0" y2="816.0"/>
    <line stroke="rgb(30,30,30)" stroke-linecap="round" stroke-width="12" x1="1600.0" x2="1600" y1="816.0" y2="1280"/>
    <line stroke="rgb(30,30,30)" stroke-linecap="round" stroke-width="12" x1="0" x2="0.0" y1="1280" y2="1120.0"/>
    <line stroke="rgb(30,30,30)" stroke-linecap="round" stroke-width="12" x1="0.0" x2="0.0" y1="1120.0" y2="816.0"/>
    <line stroke="rgb(30,30,30)" stroke-linecap="round" stroke-width="12" x1="1328.0" x2="768.0" y1="1280.0" y2="1280.0"/>
    <line stroke="rgb(30,30,30)" stroke-linecap="round" stroke-width="12" x1="768.0" x2="0.0" y1="1120.0" y2="1120.0"/>
    <line stroke="rgb(30,30,30)" stroke-linecap="round" stroke-width="12" x1="768.0" x2="768.0" y1="1280.0" y2="1120.0"/>
    <line stroke="rgb(30,30,30)" stroke-linecap="round" stroke-width="12" x1="1600.0" x2="1328.0" y1="816.0" y2="816.0"/>
    <line stroke="rgb(30,30,30)" stroke-linecap="round" stroke-width="12" x1="768.0" x2="736.0" y1="816.0" y2="816.0"/>
    <line stroke="rgb(30,30,30)" stroke-linecap="round" stroke-width="12" x1="1600" x2="1328.0" y1="1280" y2="1280.0"/>
    <line stroke="rgb(30,30,30)" stroke-linecap="round" stroke-width="12" x1="1328.0" x2="1328.0" y1="1280.0" y2="816.0"/>
    <line stroke="rgb(30,30,30)" stroke-linecap="round" stroke-width="12" x1="768.0" x2="0" y1="1280.0" y2="1280"/>
    <line stroke="rgb(30,30,30)" stroke-linecap="round" stroke-width="12" x1="608.0" x2="608.0" y1="480.0" y2="0.0"/>
    <line stroke="rgb(30,30,30)" stroke-linecap="round" stroke-width="12" x1="736.0" x2="608.0" y1="816.0" y2="816.0"/>
    <line stroke="rgb(30,30,30)" stroke-linecap="round" stroke-width="12" x1="0.0" x2="0.0" y1="816.0" y2="480.0"/>
    <line stroke="rgb(30,30,30)" stroke-linecap="round" stroke-width="12" x1="736.0" x2="736.0" y1="816.0" y2="0.0"/>
    <line stroke="rgb(30,30,30)" stroke-linecap="round" stroke-width="12" x1="0.0" x2="0" y1="480.0" y2="0"/>
    <line stroke="rgb(30,30,30)" stroke-linecap="round" stroke-width="12" x1="608.0" x2="736.0" y1="0.0" y2="0.0"/>
    <line stroke="rgb(30,30,30)" stroke-linecap="round" stroke-width="12" x1="608.0" x2="0.0" y1="480.0" y2="480.0"/>
    <line stroke="rgb(30,30,30)" stroke-linecap="round" stroke-width="12" x1="1328.0" x2="1024.0" y1="816.0" y2="816.0"/>
    <line stroke="rgb(30,30,30)" stroke-linecap="round" stroke-width="12" x1="608.0" x2="608.0" y1="816.0" y2="480.0"/>
    <line stroke="rgb(30,30,30)" stroke-linecap="round" stroke-width="12" x1="1024.0" x2="768.0" y1="816.0" y2="816.0"/>
    <line stroke="rgb(30,30,30)" stroke-linecap="round" stroke-width="12" x1="1024.0" x2="1024.0" y1="816.0" y2="0.0"/>
    <line stroke="rgb(30,30,30)" stroke-linecap="round" stroke-width="12" x1="736.0" x2="1024.0" y1="0.0" y2="0.0"/>
    <line stroke="rgb(30,30,30)" stroke-linecap="round" stroke-width="12" x1="1024.0" x2="1600" y1="0.0" y2="0"/>
    <line stroke="rgb(30,30,30)" stroke-linecap="round" stroke-width="12" x1="1600" x2="1600.0" y1="0" y2="816.0"/>
    <line stroke="rgb(30,30,30)" stroke-linecap="round" stroke-width="12" x1="608.0" x2="0.0" y1="816.0" y2="816.0"/>
    <line stroke="rgb(30,30,30)" stroke-linecap="round" stroke-width="12" x1="0" x2="608.0" y1="0" y2="0.0"/>
    <text style="font-family: sans-serif; font-size: 20pt" text-anchor="middle" x="384.0" y="1200.0">BATH_473 480.0</text>
    <text style="font-family: sans-serif; font-size: 20pt" text-anchor="middle" x="384.0" y="968.0">BEDROOM_255 912.0</text>
    <text style="font-family: sans-serif; font-size: 20pt" text-anchor="middle" x="1048.0" y="1048.0">BEDROOM_377 1015.0</text>
    <text style="font-family: sans-serif; font-size: 20pt" text-anchor="middle" x="1464.0" y="1048.0">BATH_817 493.0</text>
    <text style="font-family: sans-serif; font-size: 20pt" text-anchor="middle" x="672.0" y="408.0">HALLWAY_68 408.0</text>
    <text style="font-family: sans-serif; font-size: 20pt" text-anchor="middle" x="304.0" y="648.0">BEDROOM_104 798.0</text>
    <text style="font-family: sans-serif; font-size: 20pt" text-anchor="middle" x="304.0" y="240.0">DINING_703 1140.0</text>
    <text style="font-family: sans-serif; font-size: 20pt" text-anchor="middle" x="880.0" y="408.0">KITCHEN_205 918.0</text>
    <text style="font-family: sans-serif; font-size: 20pt" text-anchor="middle" x="1312.0" y="408.0">LIVING_438 1836.0</text>
  </g>
</svg>
