<?xml version="1.0" encoding="utf-8" ?>
<svg baseProfile="full" height="1344" version="1.1" width="1664" xmlns="http://www.w3.org/2000/svg" xmlns:ev="http://www.w3.org/2001/xml-events" xmlns:xlink="http://www.w3.org/1999/xlink">
  <defs/>
  <g transform="translate(32,32)">
    <line stroke="rgb(30,30,30)" stroke-linecap="round" stroke-width="12" x1="1248.0" x2="976.0" y1="608.0" y2="608.0"/>
    <line stroke="rgb(30,30,30)" stroke-linecap="round" stroke-width="12" x1="0" x2="0" y1="1280" y2="0"/>
    <line stroke="rgb(30,30,30)" stroke-linecap="round" stroke-width="12" x1="848.0" x2="848.0" y1="528.0" y2="0.0"/>
    <line stroke="rgb(30,30,30)" stroke-linecap="round" stroke-width="12" x1="352.0" x2="352.0" y1="1280.0" y2="0.0"/>
    <line stroke="rgb(30,30,30)" stroke-linecap="round" stroke-width="12" x1="448.0" x2="448.0" y1="1280.0" y2="528.0"/>
    <line stroke="rgb(30,30,30)" stroke-linecap="round" stroke-width="12" x1="448.0" x2="448.0" y1="528.0" y2="0.0"/>
    <line stroke="rgb(30,30,30)" stroke-linecap="round" stroke-width="12" x1="848.0" x2="448.0" y1="528.0" y2="528.0"/>
    <line stroke="rgb(30,30,30)" stroke-linecap="round" stroke-width="12" x1="1600" x2="1600.0" y1="0" y2="848.0"/>
    <line stroke="rgb(30,30,30)" stroke-linecap="round" stroke-width="12" x1="352.0" x2="448.0" y1="0.0" y2="0.0"/>
    <line stroke="rgb(30,30,30)" stroke-linecap="round" stroke-width="12" x1="1248.0" x2="1248.0" y1="1280.0" y2="608.0"/>
    <line stroke="rgb(30,30,30)" stroke-linecap="round" stroke-width="12" x1="1600" x2="1376.0" y1="1280" y2="1280.0"/>
    <line stroke="rgb(30,30,30)" stroke-linecap="round" stroke-width="12" x1="352.0" x2="0" y1="1280.0" y2="1280"/>
    <line stroke="rgb(30,30,30)" stroke-linecap="round" stroke-width="12" x1="1248.0" x2="976.0" y1="1280.0" y2="1280.0"/>
    <line stroke="rgb(30,30,30)" stroke-linecap="round" stroke-width="12" x1="448.0" x2="352.0" y1="1280.0" y2="1280.0"/>
    <line stroke="rgb(30,30,30)" stroke-linecap="round" stroke-width="12" x1="1376.0" x2="1248.0" y1="1280.0" y2="1280.0"/>
    <line stroke="rgb(30,30,30)" stroke-linecap="round" stroke-width="12" x1="0" x2="352.0" y1="0" y2="0.0"/>
    <line stroke="rgb(30,30,30)" stroke-linecap="round" stroke-width="12" x1="976.0" x2="976.0" y1="1280.0" y2="608.0"/>
    <line stroke="rgb(30,30,30)" stroke-linecap="round" stroke-width="12" x1="848.0" x2="448.0" y1="1280.0" y2="1280.0"/>
    <line stroke="rgb(30,30,30)" stroke-linecap="round" stroke-width="12" x1="976.0" x2="1248.0" y1="0.0" y2="0.0"/>
    <line stroke="rgb(30,30,30)" stroke-linecap="round" stroke-width="12" x1="1248.0" x2="1376.0" y1="0.0" y2="0.0"/>
    <line stroke="rgb(30,30,30)" stroke-linecap="round" stroke-width="12" x1="1376.0" x2="1600" y1="0.0" y2="0"/>
    <line stroke="rgb(30,30,30)" stroke-linecap="round" stroke-width="12" x1="976.0" x2="848.0" y1="1280.0" y2="1280.0"/>
    <line stroke="rgb(30,30,30)" stroke-linecap="round" stroke-width="12" x1="848.0" x2="848.0" y1="1280.0" y2="528.0"/>
    <line stroke="rgb(30,30,30)" stroke-linecap="round" stroke-width="12" x1="848.0" x2="976.0" y1="0.0" y2="0.0"/>
    <line stroke="rgb(30,30,30)" stroke-linecap="round" stroke-width="12" x1="1600.0" x2="1600" y1="848.0" y2="1280"/>
    <line stroke="rgb(30,30,30)" stroke-linecap="round" stroke-width="12" x1="1248.0" x2="1248.0" y1="608.0" y2="0.0"/>
    <line stroke="rgb(30,30,30)" stroke-linecap="round" stroke-width="12" x1="1376.0" x2="1376.0" y1="1280.0" y2="848.0"/>
    <line stroke="rgb(30,30,30)" stroke-linecap="round" stroke-width="12" x1="448.0" x2="848.0" y1="0.0" y2="0.0"/>
    <line stroke="rgb(30,30,30)" stroke-linecap="round" stroke-width="12" x1="1376.0" x2="1376.0" y1="848.0" y2="0.0"/>
    <line stroke="rgb(30,30,30)" stroke-linecap="round" stroke-width="12" x1="976.0" x2="976.0" y1="608.0" y2="0.0"/>
    <line stroke="rgb(30,30,30)" stroke-linecap="round" stroke-width="12" x1="1600.0" x2="1376.0" y1="848.0" y2="848.0"/>
    <text style="font-family: sans-serif; font-size: 20pt" text-anchor="middle" x="912.0" y="640.0">HALLWAY_500 640.0</text>
    <text style="font-family: sans-serif; font-size: 20pt" text-anchor="middle" x="176.0" y="640.0">LIVING_878 1760.0</text>
    <text style="font-family: sans-serif; font-size: 20pt" text-anchor="middle" x="400.0" y="640.0">BATH_579 480.0</text>
    <text style="font-family: sans-serif; font-size: 20pt" text-anchor="middle" x="648.0" y="904.0">DINING_103 1175.0</text>
    <text style="font-family: sans-serif; font-size: 20pt" text-anchor="middle" x="648.0" y="264.0">BEDROOM_569 825.0</text>
    <text style="font-family: sans-serif; font-size: 20pt" text-anchor="middle" x="1312.0" y="640.0">HALLWAY_110 640.0</text>
    <text style="font-family: sans-serif; font-size: 20pt" text-anchor="middle" x="1112.0" y="944.0">BEDROOM_384 714.0</text>
    <text style="font-family: sans-serif; font-size: 20pt" text-anchor="middle" x="1112.0" y="304.0">BEDROOM_751 646.0</text>
    <text style="font-family: sans-serif; font-size: 20pt" text-anchor="middle" x="1488.0" y="1064.0">BATH_523 378.0</text>
    <text style="font-family: sans-serif; font-size: 20pt" text-anchor="middle" x="1488.0" y="424.0">KITCHEN_514 742.0</text>
  </g>
</svg>
