<?xml version="1.0" encoding="utf-8" ?>
<svg baseProfile="full" height="1344" version="1.1" width="1664" xmlns="http://www.w3.org/2000/svg" xmlns:ev="http://www.w3.org/2001/xml-events" xmlns:xlink="http://www.w3.org/1999/xlink">
  <defs/>
  <g transform="translate(32,32)">
    <line stroke="rgb(30,30,30)" stroke-linecap="round" stroke-width="12" x1="0.0" x2="0" y1="848.0" y2="0"/>
    <line stroke="rgb(30,30,30)" stroke-linecap="round" stroke-width="12" x1="624.0" x2="752.0" y1="0.0" y2="0.0"/>
    <line stroke="rgb(30,30,30)" stroke-linecap="round" stroke-width="12" x1="0" x2="272.0" y1="0" y2="0.0"/>
    <line stroke="rgb(30,30,30)" stroke-linecap="round" stroke-width="12" x1="752.0" x2="752.0" y1="384.0" y2="0.0"/>
    <line stroke="rgb(30,30,30)" stroke-linecap="round" stroke-width="12" x1="752.0" x2="752.0" y1="1280.0" y2="384.0"/>
    <line stroke="rgb(30,30,30)" stroke-linecap="round" stroke-width="12" x1="1296.0" x2="1280.0" y1="384.0" y2="384.0"/>
    <line stroke="rgb(30,30,30)" stroke-linecap="round" stroke-width="12" x1="272.0" x2="272.0" y1="848.0" y2="608.0"/>
    <line stroke="rgb(30,30,30)" stroke-linecap="round" stroke-width="12" x1="1280.0" x2="752.0" y1="384.0" y2="384.0"/>
    <line stroke="rgb(30,30,30)" stroke-linecap="round" stroke-width="12" x1="272.0" x2="624.0" y1="0.0" y2="0.0"/>
    <line stroke="rgb(30,30,30)" stroke-linecap="round" stroke-width="12" x1="1296.0" x2="1600" y1="0.0" y2="0"/>
    <line stroke="rgb(30,30,30)" stroke-linecap="round" stroke-width="12" x1="624.0" x2="272.0" y1="608.0" y2="608.0"/>
    <line stroke="rgb(30,30,30)" stroke-linecap="round" stroke-width="12" x1="272.0" x2="272.0" y1="608.0" y2="0.0"/>
    <line stroke="rgb(30,30,30)" stroke-linecap="round" stroke-width="12" x1="1600" x2="1600.0" y1="0" y2="384.0"/>
    <line stroke="rgb(30,30,30)" stroke-linecap="round" stroke-width="12" x1="1280.0" x2="752.0" y1="1280.0" y2="1280.0"/>
    <line stroke="rgb(30,30,30)" stroke-linecap="round" stroke-width="12" x1="1600.0" x2="1296.0" y1="384.0" y2="384.0"/>
    <line stroke="rgb(30,30,30)" stroke-linecap="round" stroke-width="12" x1="752.0" x2="624.0" y1="1280.0" y2="1280.0"/>
    <line stroke="rgb(30,30,30)" stroke-linecap="round" stroke-width="12" x1="272.0" x2="0.0" y1="848.0" y2="848.0"/>
    <line stroke="rgb(30,30,30)" stroke-linecap="round" stroke-width="12" x1="624.0" x2="624.0" y1="608.0" y2="0.0"/>
    <line stroke="rgb(30,30,30)" stroke-linecap="round" stroke-width="12" x1="1280.0" x2="1280.0" y1="1280.0" y2="384.0"/>
    <line stroke="rgb(30,30,30)" stroke-linecap="round" stroke-width="12" x1="624.0" x2="272.0" y1="1280.0" y2="1280.0"/>
    <line stroke="rgb(30,30,30)" stroke-linecap="round" stroke-width="12" x1="752.0" x2="1296.0" y1="0.0" y2="0.0"/>
    <line stroke="rgb(30,30,30)" stroke-linecap="round" stroke-width="12" x1="1296.0" x2="1296.0" y1="384.0" y2="0.0"/>
    <line stroke="rgb(30,30,30)" stroke-linecap="round" stroke-width="12" x1="1600" x2="1280.0" y1="1280" y2="1280.0"/>
    <line stroke="rgb(30,30,30)" stroke-linecap="round" stroke-width="12" x1="624.0" x2="624.0" y1="1280.0" y2="608.0"/>
    <line stroke="rgb(30,30,30)" stroke-linecap="round" stroke-width="12" x1="272.0" x2="272.0" y1="1280.0" y2="848.0"/>
    <line stroke="rgb(30,30,30)" stroke-linecap="round" stroke-width="12" x1="0" x2="0.0" y1="1280" y2="848.0"/>
    <line stroke="rgb(30,30,30)" stroke-linecap="round" stroke-width="12" x1="272.0" x2="0" y1="1280.0" y2="1280"/>
    <line stroke="rgb(30,30,30)" stroke-linecap="round" stroke-width="12" x1="1600.0" x2="1600" y1="384.0" y2="1280"/>
    <text style="font-family: sans-serif; font-size: 20pt" text-anchor="middle" x="688.0" y="640.0">HALLWAY_557 640.0</text>
    <text style="font-family: sans-serif; font-size: 20pt" text-anchor="middle" x="136.0" y="1064.0">BATH_165 459.0</text>
    <text style="font-family: sans-serif; font-size: 20pt" text-anchor="middle" x="136.0" y="424.0">KITCHEN_200 901.0</text>
    <text style="font-family: sans-serif; font-size: 20pt" text-anchor="middle" x="448.0" y="944.0">BEDROOM_41 924.0</text>
    <text style="font-family: sans-serif; font-size: 20pt" text-anchor="middle" x="448.0" y="304.0">BEDROOM_963 836.0</text>
    <text style="font-family: sans-serif; font-size: 20pt" text-anchor="middle" x="1016.0" y="832.0">LIVING_56 1848.0</text>
    <text style="font-family: sans-serif; font-size: 20pt" text-anchor="middle" x="1440.0" y="832.0">DINING_305 1120.0</text>
    <text style="font-family: sans-serif; font-size: 20pt" text-anchor="middle" x="1024.0" y="192.0">BEDROOM_36 816.0</text>
    <text style="font-family: sans-serif; font-size: 20pt" text-anchor="middle" x="1448.0" y="192.0">BATH_487 456.0</text>
  </g>
</svg>
