<?xml version="1.0" encoding="utf-8" ?>
<svg baseProfile="full" height="1344" version="1.1" width="1664" xmlns="http://www.w3.org/2000/svg" xmlns:ev="http://www.w3.org/2001/xml-events" xmlns:xlink="http://www.w3.org/1999/xlink">
  <defs/>
  <g transform="translate(32,32)">
    <line stroke="rgb(30,30,30)" stroke-linecap="round" stroke-width="12" x1="592.0" x2="0.0" y1="400.0" y2="400.0"/>
    <line stroke="rgb(30,30,30)" stroke-linecap="round" stroke-width="12" x1="0.0" x2="0" y1="400.0" y2="0"/>
    <line stroke="rgb(30,30,30)" stroke-linecap="round" stroke-width="12" x1="1600.0" x2="1600" y1="832.0" y2="1280"/>
    <line stroke="rgb(30,30,30)" stroke-linecap="round" stroke-width="12" x1="720.0" x2="720.0" y1="592.0" y2="0.0"/>
    <line stroke="rgb(30,30,30)" stroke-linecap="round" stroke-width="12" x1="336.0" x2="336.0" y1="1280.0" y2="592.0"/>
    <line stroke="rgb(30,30,30)" stroke-linecap="round" stroke-width="12" x1="1600" x2="1072.0" y1="1280" y2="1280.0"/>
    <line stroke="rgb(30,30,30)" stroke-linecap="round" stroke-width="12" x1="1216.0" x2="1216.0" y1="592.0" y2="0.0"/>
    <line stroke="rgb(30,30,30)" stroke-linecap="round" stroke-width="12" x1="1600" x2="1600.0" y1="0" y2="592.0"/>
    <line stroke="rgb(30,30,30)" stroke-linecap="round" stroke-width="12" x1="1600.0" x2="1216.0" y1="592.0" y2="592.0"/>
    <line stroke="rgb(30,30,30)" stroke-linecap="round" stroke-width="12" x1="1600.0" x2="1600.0" y1="592.0" y2="832.0"/>
    <line stroke="rgb(30,30,30)" stroke-linecap="round" stroke-width="12" x1="336.0" x2="0.0" y1="592.0" y2="592.0"/>
    <line stroke="rgb(30,30,30)" stroke-linecap="round" stroke-width="12" x1="592.0" x2="592.0" y1="400.0" y2="0.0"/>
    <line stroke="rgb(30,30,30)" stroke-linecap="round" stroke-width="12" x1="720.0" x2="592.0" y1="592.0" y2="592.0"/>
    <line stroke="rgb(30,30,30)" stroke-linecap="round" stroke-width="12" x1="720.0" x2="1216.0" y1="0.0" y2="0.0"/>
    <line stroke="rgb(30,30,30)" stroke-linecap="round" stroke-width="12" x1="592.0" x2="720.0" y1="0.0" y2="0.0"/>
    <line stroke="rgb(30,30,30)" stroke-linecap="round" stroke-width="12" x1="1072.0" x2="1072.0" y1="832.0" y2="592.0"/>
    <line stroke="rgb(30,30,30)" stroke-linecap="round" stroke-width="12" x1="0.0" x2="0.0" y1="592.0" y2="400.0"/>
    <line stroke="rgb(30,30,30)" stroke-linecap="round" stroke-width="12" x1="0" x2="0.0" y1="1280" y2="592.0"/>
    <line stroke="rgb(30,30,30)" stroke-linecap="round" stroke-width="12" x1="1216.0" x2="1072.0" y1="592.0" y2="592.0"/>
    <line stroke="rgb(30,30,30)" stroke-linecap="round" stroke-width="12" x1="1072.0" x2="720.0" y1="592.0" y2="592.0"/>
    <line stroke="rgb(30,30,30)" stroke-linecap="round" stroke-width="12" x1="1216.0" x2="1600" y1="0.0" y2="0"/>
    <line stroke="rgb(30,30,30)" stroke-linecap="round" stroke-width="12" x1="0" x2="592.0" y1="0" y2="0.0"/>
    <line stroke="rgb(30,30,30)" stroke-linecap="round" stroke-width="12" x1="1600.0" x2="1072.0" y1="832.0" y2="832.0"/>
    <line stroke="rgb(30,30,30)" stroke-linecap="round" stroke-width="12" x1="336.0" x2="0" y1="1280.0" y2="1280"/>
    <line stroke="rgb(30,30,30)" stroke-linecap="round" stroke-width="12" x1="1072.0" x2="1072.0" y1="1280.0" y2="832.0"/>
    <line stroke="rgb(30,30,30)" stroke-linecap="round" stroke-width="12" x1="1072.0" x2="336.0" y1="1280.0" y2="1280.0"/>
    <line stroke="rgb(30,30,30)" stroke-linecap="round" stroke-width="12" x1="592.0" x2="592.0" y1="592.0" y2="400.0"/>
    <line stroke="rgb(30,30,30)" stroke-linecap="round" stroke-width="12" x1="592.0" x2="336.0" y1="592.0" y2="592.0"/>
    <text style="font-family: sans-serif; font-size: 20pt" text-anchor="middle" x="168.0" y="936.0">BEDROOM_604 903.0</text>
    <text style="font-family: sans-serif; font-size: 20pt" text-anchor="middle" x="704.0" y="936.0">LIVING_97 1978.0</text>
    <text style="font-family: sans-serif; font-size: 20pt" text-anchor="middle" x="1336.0" y="1056.0">BEDROOM_775 924.0</text>
    <text style="font-family: sans-serif; font-size: 20pt" text-anchor="middle" x="1336.0" y="712.0">BATH_368 495.0</text>
    <text style="font-family: sans-serif; font-size: 20pt" text-anchor="middle" x="656.0" y="296.0">HALLWAY_877 296.0</text>
    <text style="font-family: sans-serif; font-size: 20pt" text-anchor="middle" x="296.0" y="496.0">BATH_543 444.0</text>
    <text style="font-family: sans-serif; font-size: 20pt" text-anchor="middle" x="296.0" y="200.0">KITCHEN_226 925.0</text>
    <text style="font-family: sans-serif; font-size: 20pt" text-anchor="middle" x="968.0" y="296.0">DINING_699 1147.0</text>
    <text style="font-family: sans-serif; font-size: 20pt" text-anchor="middle" x="1408.0" y="296.0">BEDROOM_943 888.0</text>
  </g>
</svg>
