<?xml version="1.0" encoding="utf-8" ?>
<svg baseProfile="full" height="1344" version="1.1" width="1664" xmlns="http://www.w3.org/2000/svg" xmlns:ev="http://www.w3.org/2001/xml-events" xmlns:xlink="http://www.w3.org/1999/xlink">
  <defs/>
  <g transform="translate(32,32)">
    <line stroke="rgb(30,30,30)" stroke-linecap="round" stroke-width="12" x1="0.0" x2="0.0" y1="544.0" y2="240.0"/>
    <line stroke="rgb(30,30,30)" stroke-linecap="round" stroke-width="12" x1="1232.0" x2="1232.0" y1="1280.0" y2="896.0"/>
    <line stroke="rgb(30,30,30)" stroke-linecap="round" stroke-width="12" x1="1232.0" x2="656.0" y1="896.0" y2="896.0"/>
    <line stroke="rgb(30,30,30)" stroke-linecap="round" stroke-width="12" x1="0" x2="0.0" y1="1280" y2="896.0"/>
    <line stroke="rgb(30,30,30)" stroke-linecap="round" stroke-width="12" x1="1328.0" x2="1200.0" y1="768.0" y2="768.0"/>
    <line stroke="rgb(30,30,30)" stroke-linecap="round" stroke-width="12" x1="0.0" x2="0.0" y1="896.0" y2="544.0"/>
    <line stroke="rgb(30,30,30)" stroke-linecap="round" stroke-width="12" x1="1200.0" x2="1200.0" y1="768.0" y2="0.0"/>
    <line stroke="rgb(30,30,30)" stroke-linecap="round" stroke-width="12" x1="1232.0" x2="656.0" y1="1280.0" y2="1280.0"/>
    <line stroke="rgb(30,30,30)" stroke-linecap="round" stroke-width="12" x1="656.0" x2="0.0" y1="240.0" y2="240.0"/>
    <line stroke="rgb(30,30,30)" stroke-linecap="round" stroke-width="12" x1="656.0" x2="656.0" y1="240.0" y2="112.0"/>
    <line stroke="rgb(30,30,30)" stroke-linecap="round" stroke-width="12" x1="0" x2="656.0" y1="0" y2="0.0"/>
    <line stroke="rgb(30,30,30)" stroke-linecap="round" stroke-width="12" x1="1600" x2="1600.0" y1="0" y2="768.0"/>
    <line stroke="rgb(30,30,30)" stroke-linecap="round" stroke-width="12" x1="0.0" x2="0" y1="112.0" y2="0"/>
    <line stroke="rgb(30,30,30)" stroke-linecap="round" stroke-width="12" x1="1360.0" x2="1360.0" y1="1280.0" y2="896.0"/>
    <line stroke="rgb(30,30,30)" stroke-linecap="round" stroke-width="12" x1="0.0" x2="0.0" y1="240.0" y2="112.0"/>
    <line stroke="rgb(30,30,30)" stroke-linecap="round" stroke-width="12" x1="656.0" x2="1200.0" y1="0.0" y2="0.0"/>
    <line stroke="rgb(30,30,30)" stroke-linecap="round" stroke-width="12" x1="1600.0" x2="1600.0" y1="768.0" y2="896.0"/>
    <line stroke="rgb(30,30,30)" stroke-linecap="round" stroke-width="12" x1="656.0" x2="656.0" y1="1280.0" y2="896.0"/>
    <line stroke="rgb(30,30,30)" stroke-linecap="round" stroke-width="12" x1="656.0" x2="656.0" y1="544.0" y2="240.0"/>
    <line stroke="rgb(30,30,30)" stroke-linecap="round" stroke-width="12" x1="1600" x2="1360.0" y1="1280" y2="1280.0"/>
    <line stroke="rgb(30,30,30)" stroke-linecap="round" stroke-width="12" x1="656.0" x2="0" y1="1280.0" y2="1280"/>
    <line stroke="rgb(30,30,30)" stroke-linecap="round" stroke-width="12" x1="656.0" x2="656.0" y1="112.0" y2="0.0"/>
    <line stroke="rgb(30,30,30)" stroke-linecap="round" stroke-width="12" x1="1328.0" x2="1600" y1="0.0" y2="0"/>
    <line stroke="rgb(30,30,30)" stroke-linecap="round" stroke-width="12" x1="656.0" x2="0.0" y1="112.0" y2="112.0"/>
    <line stroke="rgb(30,30,30)" stroke-linecap="round" stroke-width="12" x1="1200.0" x2="656.0" y1="768.0" y2="768.0"/>
    <line stroke="rgb(30,30,30)" stroke-linecap="round" stroke-width="12" x1="1600.0" x2="1360.0" y1="896.0" y2="896.0"/>
    <line stroke="rgb(30,30,30)" stroke-linecap="round" stroke-width="12" x1="1360.0" x2="1232.0" y1="1280.0" y2="1280.0"/>
    <line stroke="rgb(30,30,30)" stroke-linecap="round" stroke-width="12" x1="1328.0" x2="1328.0" y1="768.0" y2="0.0"/>
    <line stroke="rgb(30,30,30)" stroke-linecap="round" stroke-width="12" x1="1200.0" x2="1328.0" y1="0.0" y2="0.0"/>
    <line stroke="rgb(30,30,30)" stroke-linecap="round" stroke-width="12" x1="656.0" x2="656.0" y1="896.0" y2="768.0"/>
    <line stroke="rgb(30,30,30)" stroke-linecap="round" stroke-width="12" x1="1600.0" x2="1328.0" y1="768.0" y2="768.0"/>
    <line stroke="rgb(30,30,30)" stroke-linecap="round" stroke-width="12" x1="656.0" x2="0.0" y1="896.0" y2="896.0"/>
    <line stroke="rgb(30,30,30)" stroke-linecap="round" stroke-width="12" x1="656.0" x2="0.0" y1="544.0" y2="544.0"/>
    <line stroke="rgb(30,30,30)" stroke-linecap="round" stroke-width="12" x1="1600.0" x2="1600" y1="896.0" y2="1280"/>
    <line stroke="rgb(30,30,30)" stroke-linecap="round" stroke-width="12" x1="656.0" x2="656.0" y1="768.0" y2="544.0"/>
    <line stroke="rgb(30,30,30)" stroke-linecap="round" stroke-width="12" x1="1360.0" x2="1232.0" y1="896.0" y2="896.0"/>
    <text style="font-family: sans-serif; font-size: 20pt" text-anchor="middle" x="328.0" y="1088.0">KITCHEN_580 984.0</text>
    <text style="font-family: sans-serif; font-size: 20pt" text-anchor="middle" x="328.0" y="720.0">BEDROOM_457 902.0</text>
    <text style="font-family: sans-serif; font-size: 20pt" text-anchor="middle" x="328.0" y="392.0">BEDROOM_607 779.0</text>
    <text style="font-family: sans-serif; font-size: 20pt" text-anchor="middle" x="328.0" y="56.0">BATH_249 287.0</text>
    <text style="font-family: sans-serif; font-size: 20pt" text-anchor="middle" x="328.0" y="176.0">HALLWAY_109 328.0</text>
    <text style="font-family: sans-serif; font-size: 20pt" text-anchor="middle" x="1128.0" y="832.0">HALLWAY_699 472.0</text>
    <text style="font-family: sans-serif; font-size: 20pt" text-anchor="middle" x="944.0" y="1088.0">DINING_543 864.0</text>
    <text style="font-family: sans-serif; font-size: 20pt" text-anchor="middle" x="1480.0" y="1088.0">BATH_366 360.0</text>
    <text style="font-family: sans-serif; font-size: 20pt" text-anchor="middle" x="1296.0" y="1088.0">HALLWAY_806 192.0</text>
    <text style="font-family: sans-serif; font-size: 20pt" text-anchor="middle" x="928.0" y="384.0">LIVING_267 1632.0</text>
    <text style="font-family: sans-serif; font-size: 20pt" text-anchor="middle" x="1464.0" y="384.0">BEDROOM_547 816.0</text>
    <text style="font-family: sans-serif; font-size: 20pt" text-anchor="middle" x="1264.0" y="384.0">HALLWAY_803 384.0</text>
  </g>
</svg>
