<?xml version="1.0" encoding="utf-8" ?>
<svg baseProfile="full" height="1344" version="1.1" width="1664" xmlns="http://www.w3.org/2000/svg" xmlns:ev="http://www.w3.org/2001/xml-events" xmlns:xlink="http://www.w3.org/1999/xlink">
  <defs/>
  <g transform="translate(32,32)">
    <line stroke="rgb(30,30,30)" stroke-linecap="round" stroke-width="12" x1="256.0" x2="848.0" y1="0.0" y2="0.0"/>
    <line stroke="rgb(30,30,30)" stroke-linecap="round" stroke-width="12" x1="1600.0" x2="1600.0" y1="864.0" y2="992.0"/>
    <line stroke="rgb(30,30,30)" stroke-linecap="round" stroke-width="12" x1="848.0" x2="336.0" y1="800.0" y2="800.0"/>
    <line stroke="rgb(30,30,30)" stroke-linecap="round" stroke-width="12" x1="1600.0" x2="976.0" y1="864.0" y2="864.0"/>
    <line stroke="rgb(30,30,30)" stroke-linecap="round" stroke-width="12" x1="848.0" x2="848.0" y1="800.0" y2="0.0"/>
    <line stroke="rgb(30,30,30)" stroke-linecap="round" stroke-width="12" x1="208.0" x2="0.0" y1="800.0" y2="800.0"/>
    <line stroke="rgb(30,30,30)" stroke-linecap="round" stroke-width="12" x1="1600" x2="1600.0" y1="0" y2="752.0"/>
    <line stroke="rgb(30,30,30)" stroke-linecap="round" stroke-width="12" x1="1280.0" x2="1280.0" y1="752.0" y2="0.0"/>
    <line stroke="rgb(30,30,30)" stroke-linecap="round" stroke-width="12" x1="208.0" x2="208.0" y1="1280.0" y2="800.0"/>
    <line stroke="rgb(30,30,30)" stroke-linecap="round" stroke-width="12" x1="0" x2="0.0" y1="1280" y2="800.0"/>
    <line stroke="rgb(30,30,30)" stroke-linecap="round" stroke-width="12" x1="976.0" x2="976.0" y1="752.0" y2="0.0"/>
    <line stroke="rgb(30,30,30)" stroke-linecap="round" stroke-width="12" x1="1600.0" x2="1600" y1="992.0" y2="1280"/>
    <line stroke="rgb(30,30,30)" stroke-linecap="round" stroke-width="12" x1="848.0" x2="336.0" y1="1280.0" y2="1280.0"/>
    <line stroke="rgb(30,30,30)" stroke-linecap="round" stroke-width="12" x1="1600.0" x2="1600.0" y1="752.0" y2="864.0"/>
    <line stroke="rgb(30,30,30)" stroke-linecap="round" stroke-width="12" x1="976.0" x2="976.0" y1="1280.0" y2="992.0"/>
    <line stroke="rgb(30,30,30)" stroke-linecap="round" stroke-width="12" x1="1280.0" x2="976.0" y1="752.0" y2="752.0"/>
    <line stroke="rgb(30,30,30)" stroke-linecap="round" stroke-width="12" x1="976.0" x2="1280.0" y1="0.0" y2="0.0"/>
    <line stroke="rgb(30,30,30)" stroke-linecap="round" stroke-width="12" x1="1600" x2="976.0" y1="1280" y2="1280.0"/>
    <line stroke="rgb(30,30,30)" stroke-linecap="round" stroke-width="12" x1="976.0" x2="976.0" y1="992.0" y2="864.0"/>
    <line stroke="rgb(30,30,30)" stroke-linecap="round" stroke-width="12" x1="208.0" x2="0" y1="1280.0" y2="1280"/>
    <line stroke="rgb(30,30,30)" stroke-linecap="round" stroke-width="12" x1="0" x2="256.0" y1="0" y2="0.0"/>
    <line stroke="rgb(30,30,30)" stroke-linecap="round" stroke-width="12" x1="336.0" x2="256.0" y1="800.0" y2="800.0"/>
    <line stroke="rgb(30,30,30)" stroke-linecap="round" stroke-width="12" x1="1600.0" x2="976.0" y1="992.0" y2="992.0"/>
    <line stroke="rgb(30,30,30)" stroke-linecap="round" stroke-width="12" x1="976.0" x2="976.0" y1="864.0" y2="752.0"/>
    <line stroke="rgb(30,30,30)" stroke-linecap="round" stroke-width="12" x1="0.0" x2="0" y1="800.0" y2="0"/>
    <line stroke="rgb(30,30,30)" stroke-linecap="round" stroke-width="12" x1="256.0" x2="256.0" y1="800.0" y2="0.0"/>
    <line stroke="rgb(30,30,30)" stroke-linecap="round" stroke-width="12" x1="848.0" x2="848.0" y1="1280.0" y2="800.0"/>
    <line stroke="rgb(30,30,30)" stroke-linecap="round" stroke-width="12" x1="1600.0" x2="1280.0" y1="752.0" y2="752.0"/>
    <line stroke="rgb(30,30,30)" stroke-linecap="round" stroke-width="12" x1="256.0" x2="208.0" y1="800.0" y2="800.0"/>
    <line stroke="rgb(30,30,30)" stroke-linecap="round" stroke-width="12" x1="336.0" x2="336.0" y1="1280.0" y2="800.0"/>
    <line stroke="rgb(30,30,30)" stroke-linecap="round" stroke-width="12" x1="1280.0" x2="1600" y1="0.0" y2="0"/>
    <line stroke="rgb(30,30,30)" stroke-linecap="round" stroke-width="12" x1="976.0" x2="848.0" y1="1280.0" y2="1280.0"/>
    <line stroke="rgb(30,30,30)" stroke-linecap="round" stroke-width="12" x1="848.0" x2="976.0" y1="0.0" y2="0.0"/>
    <line stroke="rgb(30,30,30)" stroke-linecap="round" stroke-width="12" x1="336.0" x2="208.0" y1="1280.0" y2="1280.0"/>
    <text style="font-family: sans-serif; font-size: 20pt" text-anchor="middle" x="912.0" y="640.0">HALLWAY_78 640.0</text>
    <text style="font-family: sans-serif; font-size: 20pt" text-anchor="middle" x="104.0" y="1040.0">BATH_519 390.0</text>
    <text style="font-family: sans-serif; font-size: 20pt" text-anchor="middle" x="592.0" y="1040.0">DINING_14 960.0</text>
    <text style="font-family: sans-serif; font-size: 20pt" text-anchor="middle" x="272.0" y="1040.0">HALLWAY_764 240.0</text>
    <text style="font-family: sans-serif; font-size: 20pt" text-anchor="middle" x="128.0" y="400.0">BEDROOM_839 800.0</text>
    <text style="font-family: sans-serif; font-size: 20pt" text-anchor="middle" x="552.0" y="400.0">LIVING_466 1850.0</text>
    <text style="font-family: sans-serif; font-size: 20pt" text-anchor="middle" x="1288.0" y="1136.0">BEDROOM_45 702.0</text>
    <text style="font-family: sans-serif; font-size: 20pt" text-anchor="middle" x="1288.0" y="808.0">BATH_5 273.0</text>
    <text style="font-family: sans-serif; font-size: 20pt" text-anchor="middle" x="1288.0" y="928.0">HALLWAY_412 312.0</text>
    <text style="font-family: sans-serif; font-size: 20pt" text-anchor="middle" x="1128.0" y="376.0">BEDROOM_442 893.0</text>
    <text style="font-family: sans-serif; font-size: 20pt" text-anchor="middle" x="1440.0" y="376.0">KITCHEN_653 940.0</text>
  </g>
</svg>
