<?xml version="1.0" encoding="utf-8" ?>
<svg baseProfile="full" height="1344" version="1.1" width="1664" xmlns="http://www.w3.org/2000/svg" xmlns:ev="http://www.w3.org/2001/xml-events" xmlns:xlink="http://www.w3.org/1999/xlink">
  <defs/>
  <g transform="translate(32,32)">
    <line stroke="rgb(30,30,30)" stroke-linecap="round" stroke-width="12" x1="880.0" x2="880.0" y1="688.0" y2="432.0"/>
    <line stroke="rgb(30,30,30)" stroke-linecap="round" stroke-width="12" x1="272.0" x2="0.0" y1="432.0" y2="432.0"/>
    <line stroke="rgb(30,30,30)" stroke-linecap="round" stroke-width="12" x1="880.0" x2="880.0" y1="432.0" y2="288.0"/>
    <line stroke="rgb(30,30,30)" stroke-linecap="round" stroke-width="12" x1="880.0" x2="0.0" y1="288.0" y2="288.0"/>
    <line stroke="rgb(30,30,30)" stroke-linecap="round" stroke-width="12" x1="1312.0" x2="1312.0" y1="816.0" y2="688.0"/>
    <line stroke="rgb(30,30,30)" stroke-linecap="round" stroke-width="12" x1="880.0" x2="880.0" y1="288.0" y2="0.0"/>
    <line stroke="rgb(30,30,30)" stroke-linecap="round" stroke-width="12" x1="880.0" x2="272.0" y1="1280.0" y2="1280.0"/>
    <line stroke="rgb(30,30,30)" stroke-linecap="round" stroke-width="12" x1="880.0" x2="272.0" y1="432.0" y2="432.0"/>
    <line stroke="rgb(30,30,30)" stroke-linecap="round" stroke-width="12" x1="880.0" x2="880.0" y1="1280.0" y2="816.0"/>
    <line stroke="rgb(30,30,30)" stroke-linecap="round" stroke-width="12" x1="880.0" x2="1312.0" y1="0.0" y2="0.0"/>
    <line stroke="rgb(30,30,30)" stroke-linecap="round" stroke-width="12" x1="0.0" x2="0" y1="288.0" y2="0"/>
    <line stroke="rgb(30,30,30)" stroke-linecap="round" stroke-width="12" x1="272.0" x2="272.0" y1="1280.0" y2="432.0"/>
    <line stroke="rgb(30,30,30)" stroke-linecap="round" stroke-width="12" x1="0" x2="880.0" y1="0" y2="0.0"/>
    <line stroke="rgb(30,30,30)" stroke-linecap="round" stroke-width="12" x1="1600" x2="1600.0" y1="0" y2="432.0"/>
    <line stroke="rgb(30,30,30)" stroke-linecap="round" stroke-width="12" x1="1312.0" x2="880.0" y1="688.0" y2="688.0"/>
    <line stroke="rgb(30,30,30)" stroke-linecap="round" stroke-width="12" x1="1600.0" x2="1312.0" y1="432.0" y2="432.0"/>
    <line stroke="rgb(30,30,30)" stroke-linecap="round" stroke-width="12" x1="1312.0" x2="1312.0" y1="432.0" y2="0.0"/>
    <line stroke="rgb(30,30,30)" stroke-linecap="round" stroke-width="12" x1="1312.0" x2="880.0" y1="816.0" y2="816.0"/>
    <line stroke="rgb(30,30,30)" stroke-linecap="round" stroke-width="12" x1="1600.0" x2="1600" y1="432.0" y2="1280"/>
    <line stroke="rgb(30,30,30)" stroke-linecap="round" stroke-width="12" x1="1312.0" x2="1600" y1="0.0" y2="0"/>
    <line stroke="rgb(30,30,30)" stroke-linecap="round" stroke-width="12" x1="1312.0" x2="880.0" y1="1280.0" y2="1280.0"/>
    <line stroke="rgb(30,30,30)" stroke-linecap="round" stroke-width="12" x1="0.0" x2="0.0" y1="432.0" y2="288.0"/>
    <line stroke="rgb(30,30,30)" stroke-linecap="round" stroke-width="12" x1="0" x2="0.0" y1="1280" y2="432.0"/>
    <line stroke="rgb(30,30,30)" stroke-linecap="round" stroke-width="12" x1="1312.0" x2="1312.0" y1="688.0" y2="432.0"/>
    <line stroke="rgb(30,30,30)" stroke-linecap="round" stroke-width="12" x1="1312.0" x2="1312.0" y1="1280.0" y2="816.0"/>
    <line stroke="rgb(30,30,30)" stroke-linecap="round" stroke-width="12" x1="1600" x2="1312.0" y1="1280" y2="1280.0"/>
    <line stroke="rgb(30,30,30)" stroke-linecap="round" stroke-width="12" x1="880.0" x2="880.0" y1="816.0" y2="688.0"/>
    <line stroke="rgb(30,30,30)" stroke-linecap="round" stroke-width="12" x1="272.0" x2="0" y1="1280.0" y2="1280"/>
    <text style="font-family: sans-serif; font-size: 20pt" text-anchor="middle" x="136.0" y="856.0">BEDROOM_931 901.0</text>
    <text style="font-family: sans-serif; font-size: 20pt" text-anchor="middle" x="576.0" y="856.0">LIVING_586 2014.0</text>
    <text style="font-family: sans-serif; font-size: 20pt" text-anchor="middle" x="440.0" y="360.0">BATH_991 495.0</text>
    <text style="font-family: sans-serif; font-size: 20pt" text-anchor="middle" x="440.0" y="144.0">KITCHEN_543 990.0</text>
    <text style="font-family: sans-serif; font-size: 20pt" text-anchor="middle" x="1096.0" y="1048.0">BEDROOM_688 783.0</text>
    <text style="font-family: sans-serif; font-size: 20pt" text-anchor="middle" x="1096.0" y="344.0">DINING_376 1161.0</text>
    <text style="font-family: sans-serif; font-size: 20pt" text-anchor="middle" x="1096.0" y="752.0">HALLWAY_607 216.0</text>
    <text style="font-family: sans-serif; font-size: 20pt" text-anchor="middle" x="1456.0" y="856.0">BEDROOM_976 954.0</text>
    <text style="font-family: sans-serif; font-size: 20pt" text-anchor="middle" x="1456.0" y="216.0">BATH_94 486.0</text>
  </g>
</svg>
