<?xml version="1.0" encoding="utf-8" ?>
<svg baseProfile="full" height="1344" version="1.1" width="1664" xmlns="http://www.w3.org/2000/svg" xmlns:ev="http://www.w3.org/2001/xml-events" xmlns:xlink="http://www.w3.org/1999/xlink">
  <defs/>
  <g transform="translate(32,32)">
    <line stroke="rgb(30,30,30)" stroke-linecap="round" stroke-width="12" x1="240.0" x2="240.0" y1="544.0" y2="0.0"/>
    <line stroke="rgb(30,30,30)" stroke-linecap="round" stroke-width="12" x1="0" x2="0.0" y1="1280" y2="544.0"/>
    <line stroke="rgb(30,30,30)" stroke-linecap="round" stroke-width="12" x1="0" x2="240.0" y1="0" y2="0.0"/>
    <line stroke="rgb(30,30,30)" stroke-linecap="round" stroke-width="12" x1="240.0" x2="0.0" y1="544.0" y2="544.0"/>
    <line stroke="rgb(30,30,30)" stroke-linecap="round" stroke-width="12" x1="912.0" x2="912.0" y1="1280.0" y2="544.0"/>
    <line stroke="rgb(30,30,30)" stroke-linecap="round" stroke-width="12" x1="624.0" x2="0" y1="1280.0" y2="1280"/>
    <line stroke="rgb(30,30,30)" stroke-linecap="round" stroke-width="12" x1="624.0" x2="624.0" y1="1280.0" y2="544.0"/>
    <line stroke="rgb(30,30,30)" stroke-linecap="round" stroke-width="12" x1="1184.0" x2="1600" y1="0.0" y2="0"/>
    <line stroke="rgb(30,30,30)" stroke-linecap="round" stroke-width="12" x1="912.0" x2="656.0" y1="544.0" y2="544.0"/>
    <line stroke="rgb(30,30,30)" stroke-linecap="round" stroke-width="12" x1="912.0" x2="624.0" y1="1280.0" y2="1280.0"/>
    <line stroke="rgb(30,30,30)" stroke-linecap="round" stroke-width="12" x1="624.0" x2="240.0" y1="544.0" y2="544.0"/>
    <line stroke="rgb(30,30,30)" stroke-linecap="round" stroke-width="12" x1="656.0" x2="656.0" y1="544.0" y2="0.0"/>
    <line stroke="rgb(30,30,30)" stroke-linecap="round" stroke-width="12" x1="1040.0" x2="1040.0" y1="752.0" y2="544.0"/>
    <line stroke="rgb(30,30,30)" stroke-linecap="round" stroke-width="12" x1="240.0" x2="656.0" y1="0.0" y2="0.0"/>
    <line stroke="rgb(30,30,30)" stroke-linecap="round" stroke-width="12" x1="1600.0" x2="1184.0" y1="544.0" y2="544.0"/>
    <line stroke="rgb(30,30,30)" stroke-linecap="round" stroke-width="12" x1="1040.0" x2="912.0" y1="1280.0" y2="1280.0"/>
    <line stroke="rgb(30,30,30)" stroke-linecap="round" stroke-width="12" x1="1056.0" x2="1040.0" y1="544.0" y2="544.0"/>
    <line stroke="rgb(30,30,30)" stroke-linecap="round" stroke-width="12" x1="1184.0" x2="1056.0" y1="544.0" y2="544.0"/>
    <line stroke="rgb(30,30,30)" stroke-linecap="round" stroke-width="12" x1="1600.0" x2="1600.0" y1="544.0" y2="752.0"/>
    <line stroke="rgb(30,30,30)" stroke-linecap="round" stroke-width="12" x1="1184.0" x2="1184.0" y1="544.0" y2="0.0"/>
    <line stroke="rgb(30,30,30)" stroke-linecap="round" stroke-width="12" x1="1056.0" x2="1056.0" y1="544.0" y2="0.0"/>
    <line stroke="rgb(30,30,30)" stroke-linecap="round" stroke-width="12" x1="1040.0" x2="1040.0" y1="1280.0" y2="752.0"/>
    <line stroke="rgb(30,30,30)" stroke-linecap="round" stroke-width="12" x1="1600.0" x2="1040.0" y1="752.0" y2="752.0"/>
    <line stroke="rgb(30,30,30)" stroke-linecap="round" stroke-width="12" x1="1600" x2="1600.0" y1="0" y2="544.0"/>
    <line stroke="rgb(30,30,30)" stroke-linecap="round" stroke-width="12" x1="1040.0" x2="912.0" y1="544.0" y2="544.0"/>
    <line stroke="rgb(30,30,30)" stroke-linecap="round" stroke-width="12" x1="656.0" x2="1056.0" y1="0.0" y2="0.0"/>
    <line stroke="rgb(30,30,30)" stroke-linecap="round" stroke-width="12" x1="1600.0" x2="1600" y1="752.0" y2="1280"/>
    <line stroke="rgb(30,30,30)" stroke-linecap="round" stroke-width="12" x1="1056.0" x2="1184.0" y1="0.0" y2="0.0"/>
    <line stroke="rgb(30,30,30)" stroke-linecap="round" stroke-width="12" x1="1600" x2="1040.0" y1="1280" y2="1280.0"/>
    <line stroke="rgb(30,30,30)" stroke-linecap="round" stroke-width="12" x1="0.0" x2="0" y1="544.0" y2="0"/>
    <line stroke="rgb(30,30,30)" stroke-linecap="round" stroke-width="12" x1="656.0" x2="624.0" y1="544.0" y2="544.0"/>
    <text style="font-family: sans-serif; font-size: 20pt" text-anchor="middle" x="976.0" y="912.0">HALLWAY_67 368.0</text>
    <text style="font-family: sans-serif; font-size: 20pt" text-anchor="middle" x="312.0" y="912.0">LIVING_427 1794.0</text>
    <text style="font-family: sans-serif; font-size: 20pt" text-anchor="middle" x="768.0" y="912.0">BEDROOM_72 828.0</text>
    <text style="font-family: sans-serif; font-size: 20pt" text-anchor="middle" x="1320.0" y="1016.0">DINING_247 1155.0</text>
    <text style="font-family: sans-serif; font-size: 20pt" text-anchor="middle" x="1320.0" y="648.0">BATH_633 455.0</text>
    <text style="font-family: sans-serif; font-size: 20pt" text-anchor="middle" x="120.0" y="272.0">BATH_770 510.0</text>
    <text style="font-family: sans-serif; font-size: 20pt" text-anchor="middle" x="448.0" y="272.0">BEDROOM_383 884.0</text>
    <text style="font-family: sans-serif; font-size: 20pt" text-anchor="middle" x="856.0" y="272.0">BEDROOM_610 850.0</text>
    <text style="font-family: sans-serif; font-size: 20pt" text-anchor="middle" x="1392.0" y="272.0">KITCHEN_366 884.0</text>
    <text style="font-family: sans-serif; font-size: 20pt" text-anchor="middle" x="1120.0" y="272.0">HALLWAY_468 272.0</text>
  </g>
</svg>
