<?xml version="1.0" encoding="utf-8" ?>
<svg baseProfile="full" height="1344" version="1.1" width="1664" xmlns="http://www.w3.org/2000/svg" xmlns:ev="http://www.w3.org/2001/xml-events" xmlns:xlink="http://www.w3.org/1999/xlink">
  <defs/>
  <g transform="translate(32,32)">
    <line stroke="rgb(30,30,30)" stroke-linecap="round" stroke-width="12" x1="1232.0" x2="1360.0" y1="0.0" y2="0.0"/>
    <line stroke="rgb(30,30,30)" stroke-linecap="round" stroke-width="12" x1="720.0" x2="0.0" y1="576.0" y2="576.0"/>
    <line stroke="rgb(30,30,30)" stroke-linecap="round" stroke-width="12" x1="1040.0" x2="1168.0" y1="0.0" y2="0.0"/>
    <line stroke="rgb(30,30,30)" stroke-linecap="round" stroke-width="12" x1="720.0" x2="720.0" y1="672.0" y2="576.0"/>
    <line stroke="rgb(30,30,30)" stroke-linecap="round" stroke-width="12" x1="0.0" x2="0.0" y1="800.0" y2="576.0"/>
    <line stroke="rgb(30,30,30)" stroke-linecap="round" stroke-width="12" x1="720.0" x2="0.0" y1="800.0" y2="800.0"/>
    <line stroke="rgb(30,30,30)" stroke-linecap="round" stroke-width="12" x1="1360.0" x2="1600" y1="0.0" y2="0"/>
    <line stroke="rgb(30,30,30)" stroke-linecap="round" stroke-width="12" x1="720.0" x2="0" y1="1280.0" y2="1280"/>
    <line stroke="rgb(30,30,30)" stroke-linecap="round" stroke-width="12" x1="1168.0" x2="1040.0" y1="1280.0" y2="1280.0"/>
    <line stroke="rgb(30,30,30)" stroke-linecap="round" stroke-width="12" x1="0.0" x2="0.0" y1="448.0" y2="192.0"/>
    <line stroke="rgb(30,30,30)" stroke-linecap="round" stroke-width="12" x1="1360.0" x2="1232.0" y1="1280.0" y2="1280.0"/>
    <line stroke="rgb(30,30,30)" stroke-linecap="round" stroke-width="12" x1="1168.0" x2="1232.0" y1="0.0" y2="0.0"/>
    <line stroke="rgb(30,30,30)" stroke-linecap="round" stroke-width="12" x1="0.0" x2="0.0" y1="928.0" y2="800.0"/>
    <line stroke="rgb(30,30,30)" stroke-linecap="round" stroke-width="12" x1="720.0" x2="720.0" y1="64.0" y2="0.0"/>
    <line stroke="rgb(30,30,30)" stroke-linecap="round" stroke-width="12" x1="0.0" x2="0.0" y1="192.0" y2="64.0"/>
    <line stroke="rgb(30,30,30)" stroke-linecap="round" stroke-width="12" x1="720.0" x2="1040.0" y1="0.0" y2="0.0"/>
    <line stroke="rgb(30,30,30)" stroke-linecap="round" stroke-width="12" x1="1232.0" x2="1232.0" y1="1280.0" y2="0.0"/>
    <line stroke="rgb(30,30,30)" stroke-linecap="round" stroke-width="12" x1="0.0" x2="0" y1="64.0" y2="0"/>
    <line stroke="rgb(30,30,30)" stroke-linecap="round" stroke-width="12" x1="1040.0" x2="1040.0" y1="672.0" y2="0.0"/>
    <line stroke="rgb(30,30,30)" stroke-linecap="round" stroke-width="12" x1="1040.0" x2="720.0" y1="672.0" y2="672.0"/>
    <line stroke="rgb(30,30,30)" stroke-linecap="round" stroke-width="12" x1="0" x2="720.0" y1="0" y2="0.0"/>
    <line stroke="rgb(30,30,30)" stroke-linecap="round" stroke-width="12" x1="1232.0" x2="1168.0" y1="1280.0" y2="1280.0"/>
    <line stroke="rgb(30,30,30)" stroke-linecap="round" stroke-width="12" x1="1168.0" x2="1168.0" y1="1280.0" y2="0.0"/>
    <line stroke="rgb(30,30,30)" stroke-linecap="round" stroke-width="12" x1="720.0" x2="0.0" y1="64.0" y2="64.0"/>
    <line stroke="rgb(30,30,30)" stroke-linecap="round" stroke-width="12" x1="1600" x2="1600" y1="0" y2="1280"/>
    <line stroke="rgb(30,30,30)" stroke-linecap="round" stroke-width="12" x1="720.0" x2="720.0" y1="576.0" y2="448.0"/>
    <line stroke="rgb(30,30,30)" stroke-linecap="round" stroke-width="12" x1="0.0" x2="0.0" y1="576.0" y2="448.0"/>
    <line stroke="rgb(30,30,30)" stroke-linecap="round" stroke-width="12" x1="720.0" x2="720.0" y1="800.0" y2="672.0"/>
    <line stroke="rgb(30,30,30)" stroke-linecap="round" stroke-width="12" x1="720.0" x2="720.0" y1="928.0" y2="800.0"/>
    <line stroke="rgb(30,30,30)" stroke-linecap="round" stroke-width="12" x1="720.0" x2="720.0" y1="448.0" y2="192.0"/>
    <line stroke="rgb(30,30,30)" stroke-linecap="round" stroke-width="12" x1="1040.0" x2="1040.0" y1="1280.0" y2="672.0"/>
    <line stroke="rgb(30,30,30)" stroke-linecap="round" stroke-width="12" x1="1600" x2="1360.0" y1="1280" y2="1280.0"/>
    <line stroke="rgb(30,30,30)" stroke-linecap="round" stroke-width="12" x1="720.0" x2="0.0" y1="448.0" y2="448.0"/>
    <line stroke="rgb(30,30,30)" stroke-linecap="round" stroke-width="12" x1="720.0" x2="0.0" y1="192.0" y2="192.0"/>
    <line stroke="rgb(30,30,30)" stroke-linecap="round" stroke-width="12" x1="720.0" x2="720.0" y1="1280.0" y2="928.0"/>
    <line stroke="rgb(30,30,30)" stroke-linecap="round" stroke-width="12" x1="0" x2="0.0" y1="1280" y2="928.0"/>
    <line stroke="rgb(30,30,30)" stroke-linecap="round" stroke-width="12" x1="720.0" x2="0.0" y1="928.0" y2="928.0"/>
    <line stroke="rgb(30,30,30)" stroke-linecap="round" stroke-width="12" x1="1040.0" x2="720.0" y1="1280.0" y2="1280.0"/>
    <line stroke="rgb(30,30,30)" stroke-linecap="round" stroke-width="12" x1="720.0" x2="720.0" y1="192.0" y2="64.0"/>
    <line stroke="rgb(30,30,30)" stroke-linecap="round" stroke-width="12" x1="1360.0" x2="1360.0" y1="1280.0" y2="0.0"/>
    <text style="font-family: sans-serif; font-size: 20pt" text-anchor="middle" x="360.0" y="512.0">HALLWAY_29 360.0</text>
    <text style="font-family: sans-serif; font-size: 20pt" text-anchor="middle" x="360.0" y="1104.0">DINING_299 990.0</text>
    <text style="font-family: sans-serif; font-size: 20pt" text-anchor="middle" x="360.0" y="688.0">BEDROOM_364 630.0</text>
    <text style="font-family: sans-serif; font-size: 20pt" text-anchor="middle" x="360.0" y="864.0">HALLWAY_214 360.0</text>
    <text style="font-family: sans-serif; font-size: 20pt" text-anchor="middle" x="360.0" y="320.0">KITCHEN_555 720.0</text>
    <text style="font-family: sans-serif; font-size: 20pt" text-anchor="middle" x="360.0" y="32.0">BATH_81 180.0</text>
    <text style="font-family: sans-serif; font-size: 20pt" text-anchor="middle" x="360.0" y="128.0">HALLWAY_686 360.0</text>
    <text style="font-family: sans-serif; font-size: 20pt" text-anchor="middle" x="1104.0" y="640.0">HALLWAY_683 640.0</text>
    <text style="font-family: sans-serif; font-size: 20pt" text-anchor="middle" x="880.0" y="976.0">BEDROOM_660 760.0</text>
    <text style="font-family: sans-serif; font-size: 20pt" text-anchor="middle" x="880.0" y="336.0">BEDROOM_660 840.0</text>
    <text style="font-family: sans-serif; font-size: 20pt" text-anchor="middle" x="1200.0" y="640.0">BATH_549 320.0</text>
    <text style="font-family: sans-serif; font-size: 20pt" text-anchor="middle" x="1480.0" y="640.0">LIVING_189 1200.0</text>
    <text style="font-family: sans-serif; font-size: 20pt" text-anchor="middle" x="1296.0" y="640.0">HALLWAY_602 640.0</text>
  </g>
</svg>
