<?xml version="1.0" encoding="utf-8" ?>
<svg baseProfile="full" height="1344" version="1.1" width="1664" xmlns="http://www.w3.org/2000/svg" xmlns:ev="http://www.w3.org/2001/xml-events" xmlns:xlink="http://www.w3.org/1999/xlink">
  <defs/>
  <g transform="translate(32,32)">
    <line stroke="rgb(30,30,30)" stroke-linecap="round" stroke-width="12" x1="656.0" x2="656.0" y1="1280.0" y2="896.0"/>
    <line stroke="rgb(30,30,30)" stroke-linecap="round" stroke-width="12" x1="1600" x2="1600.0" y1="0" y2="288.0"/>
    <line stroke="rgb(30,30,30)" stroke-linecap="round" stroke-width="12" x1="0.0" x2="0.0" y1="896.0" y2="704.0"/>
    <line stroke="rgb(30,30,30)" stroke-linecap="round" stroke-width="12" x1="1600.0" x2="656.0" y1="608.0" y2="608.0"/>
    <line stroke="rgb(30,30,30)" stroke-linecap="round" stroke-width="12" x1="656.0" x2="656.0" y1="416.0" y2="288.0"/>
    <line stroke="rgb(30,30,30)" stroke-linecap="round" stroke-width="12" x1="1600.0" x2="1600.0" y1="288.0" y2="416.0"/>
    <line stroke="rgb(30,30,30)" stroke-linecap="round" stroke-width="12" x1="256.0" x2="256.0" y1="704.0" y2="0.0"/>
    <line stroke="rgb(30,30,30)" stroke-linecap="round" stroke-width="12" x1="0" x2="256.0" y1="0" y2="0.0"/>
    <line stroke="rgb(30,30,30)" stroke-linecap="round" stroke-width="12" x1="656.0" x2="384.0" y1="704.0" y2="704.0"/>
    <line stroke="rgb(30,30,30)" stroke-linecap="round" stroke-width="12" x1="1600" x2="656.0" y1="1280" y2="1280.0"/>
    <line stroke="rgb(30,30,30)" stroke-linecap="round" stroke-width="12" x1="1600.0" x2="656.0" y1="416.0" y2="416.0"/>
    <line stroke="rgb(30,30,30)" stroke-linecap="round" stroke-width="12" x1="0.0" x2="0" y1="704.0" y2="0"/>
    <line stroke="rgb(30,30,30)" stroke-linecap="round" stroke-width="12" x1="1600.0" x2="1600.0" y1="416.0" y2="608.0"/>
    <line stroke="rgb(30,30,30)" stroke-linecap="round" stroke-width="12" x1="656.0" x2="0" y1="1280.0" y2="1280"/>
    <line stroke="rgb(30,30,30)" stroke-linecap="round" stroke-width="12" x1="256.0" x2="0.0" y1="704.0" y2="704.0"/>
    <line stroke="rgb(30,30,30)" stroke-linecap="round" stroke-width="12" x1="656.0" x2="0.0" y1="896.0" y2="896.0"/>
    <line stroke="rgb(30,30,30)" stroke-linecap="round" stroke-width="12" x1="656.0" x2="656.0" y1="608.0" y2="416.0"/>
    <line stroke="rgb(30,30,30)" stroke-linecap="round" stroke-width="12" x1="1600.0" x2="656.0" y1="736.0" y2="736.0"/>
    <line stroke="rgb(30,30,30)" stroke-linecap="round" stroke-width="12" x1="1600.0" x2="656.0" y1="288.0" y2="288.0"/>
    <line stroke="rgb(30,30,30)" stroke-linecap="round" stroke-width="12" x1="656.0" x2="656.0" y1="896.0" y2="736.0"/>
    <line stroke="rgb(30,30,30)" stroke-linecap="round" stroke-width="12" x1="384.0" x2="656.0" y1="0.0" y2="0.0"/>
    <line stroke="rgb(30,30,30)" stroke-linecap="round" stroke-width="12" x1="0" x2="0.0" y1="1280" y2="896.0"/>
    <line stroke="rgb(30,30,30)" stroke-linecap="round" stroke-width="12" x1="1600.0" x2="1600" y1="736.0" y2="1280"/>
    <line stroke="rgb(30,30,30)" stroke-linecap="round" stroke-width="12" x1="1600.0" x2="1600.0" y1="608.0" y2="736.0"/>
    <line stroke="rgb(30,30,30)" stroke-linecap="round" stroke-width="12" x1="656.0" x2="656.0" y1="736.0" y2="704.0"/>
    <line stroke="rgb(30,30,30)" stroke-linecap="round" stroke-width="12" x1="656.0" x2="656.0" y1="288.0" y2="0.0"/>
    <line stroke="rgb(30,30,30)" stroke-linecap="round" stroke-width="12" x1="384.0" x2="384.0" y1="704.0" y2="0.0"/>
    <line stroke="rgb(30,30,30)" stroke-linecap="round" stroke-width="12" x1="656.0" x2="1600" y1="0.0" y2="0"/>
    <line stroke="rgb(30,30,30)" stroke-linecap="round" stroke-width="12" x1="256.0" x2="384.0" y1="0.0" y2="0.0"/>
    <line stroke="rgb(30,30,30)" stroke-linecap="round" stroke-width="12" x1="656.0" x2="656.0" y1="704.0" y2="608.0"/>
    <line stroke="rgb(30,30,30)" stroke-linecap="round" stroke-width="12" x1="384.0" x2="256.0" y1="704.0" y2="704.0"/>
    <text style="font-family: sans-serif; font-size: 20pt" text-anchor="middle" x="328.0" y="1088.0">BEDROOM_769 984.0</text>
    <text style="font-family: sans-serif; font-size: 20pt" text-anchor="middle" x="328.0" y="800.0">BATH_45 492.0</text>
    <text style="font-family: sans-serif; font-size: 20pt" text-anchor="middle" x="128.0" y="352.0">BEDROOM_571 704.0</text>
    <text style="font-family: sans-serif; font-size: 20pt" text-anchor="middle" x="520.0" y="352.0">BEDROOM_47 748.0</text>
    <text style="font-family: sans-serif; font-size: 20pt" text-anchor="middle" x="320.0" y="352.0">HALLWAY_972 352.0</text>
    <text style="font-family: sans-serif; font-size: 20pt" text-anchor="middle" x="1128.0" y="1008.0">LIVING_629 2006.0</text>
    <text style="font-family: sans-serif; font-size: 20pt" text-anchor="middle" x="1128.0" y="672.0">BATH_861 472.0</text>
    <text style="font-family: sans-serif; font-size: 20pt" text-anchor="middle" x="1128.0" y="512.0">KITCHEN_748 708.0</text>
    <text style="font-family: sans-serif; font-size: 20pt" text-anchor="middle" x="1128.0" y="144.0">DINING_101 1062.0</text>
    <text style="font-family: sans-serif; font-size: 20pt" text-anchor="middle" x="1128.0" y="352.0">HALLWAY_867 472.0</text>
  </g>
</svg>
