<?xml version="1.0" encoding="utf-8" ?>
<svg baseProfile="full" height="1344" version="1.1" width="1664" xmlns="http://www.w3.org/2000/svg" xmlns:ev="http://www.w3.org/2001/xml-events" xmlns:xlink="http://www.w3.org/1999/xlink">
  <defs/>
  <g transform="translate(32,32)">
    <line stroke="rgb(30,30,30)" stroke-linecap="round" stroke-width="12" x1="688.0" x2="0.0" y1="752.0" y2="752.0"/>
    <line stroke="rgb(30,30,30)" stroke-linecap="round" stroke-width="12" x1="1600.0" x2="1600" y1="1024.0" y2="1280"/>
    <line stroke="rgb(30,30,30)" stroke-linecap="round" stroke-width="12" x1="0.0" x2="0.0" y1="1136.0" y2="752.0"/>
    <line stroke="rgb(30,30,30)" stroke-linecap="round" stroke-width="12" x1="1600.0" x2="1600.0" y1="752.0" y2="1024.0"/>
    <line stroke="rgb(30,30,30)" stroke-linecap="round" stroke-width="12" x1="336.0" x2="672.0" y1="0.0" y2="0.0"/>
    <line stroke="rgb(30,30,30)" stroke-linecap="round" stroke-width="12" x1="688.0" x2="0.0" y1="1136.0" y2="1136.0"/>
    <line stroke="rgb(30,30,30)" stroke-linecap="round" stroke-width="12" x1="1600.0" x2="816.0" y1="752.0" y2="752.0"/>
    <line stroke="rgb(30,30,30)" stroke-linecap="round" stroke-width="12" x1="688.0" x2="688.0" y1="1280.0" y2="1136.0"/>
    <line stroke="rgb(30,30,30)" stroke-linecap="round" stroke-width="12" x1="1408.0" x2="672.0" y1="624.0" y2="624.0"/>
    <line stroke="rgb(30,30,30)" stroke-linecap="round" stroke-width="12" x1="688.0" x2="0" y1="1280.0" y2="1280"/>
    <line stroke="rgb(30,30,30)" stroke-linecap="round" stroke-width="12" x1="672.0" x2="1408.0" y1="0.0" y2="0.0"/>
    <line stroke="rgb(30,30,30)" stroke-linecap="round" stroke-width="12" x1="816.0" x2="688.0" y1="752.0" y2="752.0"/>
    <line stroke="rgb(30,30,30)" stroke-linecap="round" stroke-width="12" x1="336.0" x2="336.0" y1="624.0" y2="0.0"/>
    <line stroke="rgb(30,30,30)" stroke-linecap="round" stroke-width="12" x1="0.0" x2="0.0" y1="752.0" y2="624.0"/>
    <line stroke="rgb(30,30,30)" stroke-linecap="round" stroke-width="12" x1="672.0" x2="336.0" y1="624.0" y2="624.0"/>
    <line stroke="rgb(30,30,30)" stroke-linecap="round" stroke-width="12" x1="0" x2="0.0" y1="1280" y2="1136.0"/>
    <line stroke="rgb(30,30,30)" stroke-linecap="round" stroke-width="12" x1="1600.0" x2="816.0" y1="1024.0" y2="1024.0"/>
    <line stroke="rgb(30,30,30)" stroke-linecap="round" stroke-width="12" x1="1600.0" x2="1408.0" y1="624.0" y2="624.0"/>
    <line stroke="rgb(30,30,30)" stroke-linecap="round" stroke-width="12" x1="1600" x2="1600.0" y1="0" y2="624.0"/>
    <line stroke="rgb(30,30,30)" stroke-linecap="round" stroke-width="12" x1="1600" x2="816.0" y1="1280" y2="1280.0"/>
    <line stroke="rgb(30,30,30)" stroke-linecap="round" stroke-width="12" x1="672.0" x2="672.0" y1="624.0" y2="0.0"/>
    <line stroke="rgb(30,30,30)" stroke-linecap="round" stroke-width="12" x1="816.0" x2="688.0" y1="1280.0" y2="1280.0"/>
    <line stroke="rgb(30,30,30)" stroke-linecap="round" stroke-width="12" x1="816.0" x2="816.0" y1="1024.0" y2="752.0"/>
    <line stroke="rgb(30,30,30)" stroke-linecap="round" stroke-width="12" x1="1600.0" x2="1600.0" y1="624.0" y2="752.0"/>
    <line stroke="rgb(30,30,30)" stroke-linecap="round" stroke-width="12" x1="0.0" x2="0" y1="624.0" y2="0"/>
    <line stroke="rgb(30,30,30)" stroke-linecap="round" stroke-width="12" x1="1408.0" x2="1408.0" y1="624.0" y2="0.0"/>
    <line stroke="rgb(30,30,30)" stroke-linecap="round" stroke-width="12" x1="816.0" x2="816.0" y1="1280.0" y2="1024.0"/>
    <line stroke="rgb(30,30,30)" stroke-linecap="round" stroke-width="12" x1="688.0" x2="688.0" y1="1136.0" y2="752.0"/>
    <line stroke="rgb(30,30,30)" stroke-linecap="round" stroke-width="12" x1="1408.0" x2="1600" y1="0.0" y2="0"/>
    <line stroke="rgb(30,30,30)" stroke-linecap="round" stroke-width="12" x1="336.0" x2="0.0" y1="624.0" y2="624.0"/>
    <line stroke="rgb(30,30,30)" stroke-linecap="round" stroke-width="12" x1="0" x2="336.0" y1="0" y2="0.0"/>
    <text style="font-family: sans-serif; font-size: 20pt" text-anchor="middle" x="800.0" y="688.0">HALLWAY_749 800.0</text>
    <text style="font-family: sans-serif; font-size: 20pt" text-anchor="middle" x="752.0" y="1016.0">HALLWAY_920 264.0</text>
    <text style="font-family: sans-serif; font-size: 20pt" text-anchor="middle" x="344.0" y="1208.0">BATH_603 387.0</text>
    <text style="font-family: sans-serif; font-size: 20pt" text-anchor="middle" x="344.0" y="944.0">DINING_250 1032.0</text>
    <text style="font-family: sans-serif; font-size: 20pt" text-anchor="middle" x="1208.0" y="1152.0">KITCHEN_441 784.0</text>
    <text style="font-family: sans-serif; font-size: 20pt" text-anchor="middle" x="1208.0" y="888.0">BEDROOM_165 833.0</text>
    <text style="font-family: sans-serif; font-size: 20pt" text-anchor="middle" x="168.0" y="312.0">BEDROOM_334 819.0</text>
    <text style="font-family: sans-serif; font-size: 20pt" text-anchor="middle" x="504.0" y="312.0">BEDROOM_36 819.0</text>
    <text style="font-family: sans-serif; font-size: 20pt" text-anchor="middle" x="1040.0" y="312.0">LIVING_88 1794.0</text>
    <text style="font-family: sans-serif; font-size: 20pt" text-anchor="middle" x="1504.0" y="312.0">BATH_386 468.0</text>
  </g>
</svg>
