<?xml version="1.0" encoding="utf-8" ?>
<svg baseProfile="full" height="1344" version="1.1" width="1664" xmlns="http://www.w3.org/2000/svg" xmlns:ev="http://www.w3.org/2001/xml-events" xmlns:xlink="http://www.w3.org/1999/xlink">
  <defs/>
  <g transform="translate(32,32)">
    <line stroke="rgb(30,30,30)" stroke-linecap="round" stroke-width="12" x1="1600.0" x2="1296.0" y1="672.0" y2="672.0"/>
    <line stroke="rgb(30,30,30)" stroke-linecap="round" stroke-width="12" x1="1168.0" x2="1296.0" y1="0.0" y2="0.0"/>
    <line stroke="rgb(30,30,30)" stroke-linecap="round" stroke-width="12" x1="288.0" x2="288.0" y1="352.0" y2="0.0"/>
    <line stroke="rgb(30,30,30)" stroke-linecap="round" stroke-width="12" x1="1296.0" x2="1296.0" y1="672.0" y2="0.0"/>
    <line stroke="rgb(30,30,30)" stroke-linecap="round" stroke-width="12" x1="288.0" x2="880.0" y1="0.0" y2="0.0"/>
    <line stroke="rgb(30,30,30)" stroke-linecap="round" stroke-width="12" x1="1296.0" x2="1168.0" y1="1280.0" y2="1280.0"/>
    <line stroke="rgb(30,30,30)" stroke-linecap="round" stroke-width="12" x1="288.0" x2="0.0" y1="352.0" y2="352.0"/>
    <line stroke="rgb(30,30,30)" stroke-linecap="round" stroke-width="12" x1="1296.0" x2="1600" y1="0.0" y2="0"/>
    <line stroke="rgb(30,30,30)" stroke-linecap="round" stroke-width="12" x1="880.0" x2="288.0" y1="352.0" y2="352.0"/>
    <line stroke="rgb(30,30,30)" stroke-linecap="round" stroke-width="12" x1="880.0" x2="368.0" y1="480.0" y2="480.0"/>
    <line stroke="rgb(30,30,30)" stroke-linecap="round" stroke-width="12" x1="1168.0" x2="880.0" y1="912.0" y2="912.0"/>
    <line stroke="rgb(30,30,30)" stroke-linecap="round" stroke-width="12" x1="880.0" x2="1168.0" y1="0.0" y2="0.0"/>
    <line stroke="rgb(30,30,30)" stroke-linecap="round" stroke-width="12" x1="1296.0" x2="1296.0" y1="1280.0" y2="672.0"/>
    <line stroke="rgb(30,30,30)" stroke-linecap="round" stroke-width="12" x1="1168.0" x2="880.0" y1="1280.0" y2="1280.0"/>
    <line stroke="rgb(30,30,30)" stroke-linecap="round" stroke-width="12" x1="880.0" x2="368.0" y1="1280.0" y2="1280.0"/>
    <line stroke="rgb(30,30,30)" stroke-linecap="round" stroke-width="12" x1="880.0" x2="880.0" y1="480.0" y2="352.0"/>
    <line stroke="rgb(30,30,30)" stroke-linecap="round" stroke-width="12" x1="368.0" x2="240.0" y1="480.0" y2="480.0"/>
    <line stroke="rgb(30,30,30)" stroke-linecap="round" stroke-width="12" x1="240.0" x2="240.0" y1="1280.0" y2="480.0"/>
    <line stroke="rgb(30,30,30)" stroke-linecap="round" stroke-width="12" x1="240.0" x2="0.0" y1="480.0" y2="480.0"/>
    <line stroke="rgb(30,30,30)" stroke-linecap="round" stroke-width="12" x1="1600.0" x2="1600" y1="672.0" y2="1280"/>
    <line stroke="rgb(30,30,30)" stroke-linecap="round" stroke-width="12" x1="1168.0" x2="1168.0" y1="1280.0" y2="912.0"/>
    <line stroke="rgb(30,30,30)" stroke-linecap="round" stroke-width="12" x1="1600" x2="1296.0" y1="1280" y2="1280.0"/>
    <line stroke="rgb(30,30,30)" stroke-linecap="round" stroke-width="12" x1="880.0" x2="880.0" y1="912.0" y2="480.0"/>
    <line stroke="rgb(30,30,30)" stroke-linecap="round" stroke-width="12" x1="880.0" x2="880.0" y1="1280.0" y2="912.0"/>
    <line stroke="rgb(30,30,30)" stroke-linecap="round" stroke-width="12" x1="368.0" x2="240.0" y1="1280.0" y2="1280.0"/>
    <line stroke="rgb(30,30,30)" stroke-linecap="round" stroke-width="12" x1="0" x2="288.0" y1="0" y2="0.0"/>
    <line stroke="rgb(30,30,30)" stroke-linecap="round" stroke-width="12" x1="880.0" x2="880.0" y1="352.0" y2="0.0"/>
    <line stroke="rgb(30,30,30)" stroke-linecap="round" stroke-width="12" x1="1168.0" x2="1168.0" y1="912.0" y2="0.0"/>
    <line stroke="rgb(30,30,30)" stroke-linecap="round" stroke-width="12" x1="0.0" x2="0.0" y1="480.0" y2="352.0"/>
    <line stroke="rgb(30,30,30)" stroke-linecap="round" stroke-width="12" x1="1600" x2="1600.0" y1="0" y2="672.0"/>
    <line stroke="rgb(30,30,30)" stroke-linecap="round" stroke-width="12" x1="368.0" x2="368.0" y1="1280.0" y2="480.0"/>
    <line stroke="rgb(30,30,30)" stroke-linecap="round" stroke-width="12" x1="0" x2="0.0" y1="1280" y2="480.0"/>
    <line stroke="rgb(30,30,30)" stroke-linecap="round" stroke-width="12" x1="240.0" x2="0" y1="1280.0" y2="1280"/>
    <line stroke="rgb(30,30,30)" stroke-linecap="round" stroke-width="12" x1="0.0" x2="0" y1="352.0" y2="0"/>
    <text style="font-family: sans-serif; font-size: 20pt" text-anchor="middle" x="440.0" y="416.0">HALLWAY_107 440.0</text>
    <text style="font-family: sans-serif; font-size: 20pt" text-anchor="middle" x="120.0" y="880.0">BEDROOM_944 750.0</text>
    <text style="font-family: sans-serif; font-size: 20pt" text-anchor="middle" x="624.0" y="880.0">LIVING_319 1600.0</text>
    <text style="font-family: sans-serif; font-size: 20pt" text-anchor="middle" x="304.0" y="880.0">HALLWAY_552 400.0</text>
    <text style="font-family: sans-serif; font-size: 20pt" text-anchor="middle" x="144.0" y="176.0">BATH_960 396.0</text>
    <text style="font-family: sans-serif; font-size: 20pt" text-anchor="middle" x="584.0" y="176.0">BEDROOM_388 814.0</text>
    <text style="font-family: sans-serif; font-size: 20pt" text-anchor="middle" x="1232.0" y="640.0">HALLWAY_483 640.0</text>
    <text style="font-family: sans-serif; font-size: 20pt" text-anchor="middle" x="1024.0" y="1096.0">BATH_498 414.0</text>
    <text style="font-family: sans-serif; font-size: 20pt" text-anchor="middle" x="1024.0" y="456.0">DINING_925 1026.0</text>
    <text style="font-family: sans-serif; font-size: 20pt" text-anchor="middle" x="1448.0" y="976.0">BEDROOM_267 722.0</text>
    <text style="font-family: sans-serif; font-size: 20pt" text-anchor="middle" x="1448.0" y="336.0">KITCHEN_728 798.0</text>
  </g>
</svg>
