<?xml version="1.0" encoding="utf-8" ?>
<svg baseProfile="full" height="1344" version="1.1" width="1664" xmlns="http://www.w3.org/2000/svg" xmlns:ev="http://www.w3.org/2001/xml-events" xmlns:xlink="http://www.w3.org/1999/xlink">
  <defs/>
  <g transform="translate(32,32)">
    <line stroke="rgb(30,30,30)" stroke-linecap="round" stroke-width="12" x1="448.0" x2="800.0" y1="0.0" y2="0.0"/>
    <line stroke="rgb(30,30,30)" stroke-linecap="round" stroke-width="12" x1="0" x2="0" y1="1280" y2="0"/>
    <line stroke="rgb(30,30,30)" stroke-linecap="round" stroke-width="12" x1="1248.0" x2="1248.0" y1="608.0" y2="0.0"/>
    <line stroke="rgb(30,30,30)" stroke-linecap="round" stroke-width="12" x1="1408.0" x2="1408.0" y1="1280.0" y2="736.0"/>
    <line stroke="rgb(30,30,30)" stroke-linecap="round" stroke-width="12" x1="1600.0" x2="1600" y1="736.0" y2="1280"/>
    <line stroke="rgb(30,30,30)" stroke-linecap="round" stroke-width="12" x1="1600" x2="1408.0" y1="1280" y2="1280.0"/>
    <line stroke="rgb(30,30,30)" stroke-linecap="round" stroke-width="12" x1="448.0" x2="448.0" y1="1280.0" y2="736.0"/>
    <line stroke="rgb(30,30,30)" stroke-linecap="round" stroke-width="12" x1="1248.0" x2="928.0" y1="608.0" y2="608.0"/>
    <line stroke="rgb(30,30,30)" stroke-linecap="round" stroke-width="12" x1="800.0" x2="448.0" y1="1280.0" y2="1280.0"/>
    <line stroke="rgb(30,30,30)" stroke-linecap="round" stroke-width="12" x1="1408.0" x2="928.0" y1="736.0" y2="736.0"/>
    <line stroke="rgb(30,30,30)" stroke-linecap="round" stroke-width="12" x1="800.0" x2="800.0" y1="608.0" y2="0.0"/>
    <line stroke="rgb(30,30,30)" stroke-linecap="round" stroke-width="12" x1="928.0" x2="1248.0" y1="0.0" y2="0.0"/>
    <line stroke="rgb(30,30,30)" stroke-linecap="round" stroke-width="12" x1="1600.0" x2="1248.0" y1="608.0" y2="608.0"/>
    <line stroke="rgb(30,30,30)" stroke-linecap="round" stroke-width="12" x1="256.0" x2="0" y1="1280.0" y2="1280"/>
    <line stroke="rgb(30,30,30)" stroke-linecap="round" stroke-width="12" x1="256.0" x2="384.0" y1="0.0" y2="0.0"/>
    <line stroke="rgb(30,30,30)" stroke-linecap="round" stroke-width="12" x1="384.0" x2="256.0" y1="1280.0" y2="1280.0"/>
    <line stroke="rgb(30,30,30)" stroke-linecap="round" stroke-width="12" x1="448.0" x2="384.0" y1="1280.0" y2="1280.0"/>
    <line stroke="rgb(30,30,30)" stroke-linecap="round" stroke-width="12" x1="800.0" x2="800.0" y1="1280.0" y2="736.0"/>
    <line stroke="rgb(30,30,30)" stroke-linecap="round" stroke-width="12" x1="800.0" x2="928.0" y1="0.0" y2="0.0"/>
    <line stroke="rgb(30,30,30)" stroke-linecap="round" stroke-width="12" x1="928.0" x2="928.0" y1="1280.0" y2="736.0"/>
    <line stroke="rgb(30,30,30)" stroke-linecap="round" stroke-width="12" x1="448.0" x2="448.0" y1="608.0" y2="0.0"/>
    <line stroke="rgb(30,30,30)" stroke-linecap="round" stroke-width="12" x1="928.0" x2="928.0" y1="736.0" y2="608.0"/>
    <line stroke="rgb(30,30,30)" stroke-linecap="round" stroke-width="12" x1="800.0" x2="800.0" y1="736.0" y2="608.0"/>
    <line stroke="rgb(30,30,30)" stroke-linecap="round" stroke-width="12" x1="256.0" x2="256.0" y1="1280.0" y2="0.0"/>
    <line stroke="rgb(30,30,30)" stroke-linecap="round" stroke-width="12" x1="448.0" x2="448.0" y1="736.0" y2="608.0"/>
    <line stroke="rgb(30,30,30)" stroke-linecap="round" stroke-width="12" x1="0" x2="256.0" y1="0" y2="0.0"/>
    <line stroke="rgb(30,30,30)" stroke-linecap="round" stroke-width="12" x1="1600.0" x2="1600.0" y1="608.0" y2="736.0"/>
    <line stroke="rgb(30,30,30)" stroke-linecap="round" stroke-width="12" x1="800.0" x2="448.0" y1="736.0" y2="736.0"/>
    <line stroke="rgb(30,30,30)" stroke-linecap="round" stroke-width="12" x1="384.0" x2="384.0" y1="1280.0" y2="0.0"/>
    <line stroke="rgb(30,30,30)" stroke-linecap="round" stroke-width="12" x1="1600" x2="1600.0" y1="0" y2="608.0"/>
    <line stroke="rgb(30,30,30)" stroke-linecap="round" stroke-width="12" x1="928.0" x2="928.0" y1="608.0" y2="0.0"/>
    <line stroke="rgb(30,30,30)" stroke-linecap="round" stroke-width="12" x1="384.0" x2="448.0" y1="0.0" y2="0.0"/>
    <line stroke="rgb(30,30,30)" stroke-linecap="round" stroke-width="12" x1="1408.0" x2="928.0" y1="1280.0" y2="1280.0"/>
    <line stroke="rgb(30,30,30)" stroke-linecap="round" stroke-width="12" x1="1248.0" x2="1600" y1="0.0" y2="0"/>
    <line stroke="rgb(30,30,30)" stroke-linecap="round" stroke-width="12" x1="800.0" x2="448.0" y1="608.0" y2="608.0"/>
    <line stroke="rgb(30,30,30)" stroke-linecap="round" stroke-width="12" x1="1600.0" x2="1408.0" y1="736.0" y2="736.0"/>
    <line stroke="rgb(30,30,30)" stroke-linecap="round" stroke-width="12" x1="928.0" x2="800.0" y1="1280.0" y2="1280.0"/>
    <text style="font-family: sans-serif; font-size: 20pt" text-anchor="middle" x="864.0" y="640.0">HALLWAY_523 640.0</text>
    <text style="font-family: sans-serif; font-size: 20pt" text-anchor="middle" x="128.0" y="640.0">LIVING_330 1280.0</text>
    <text style="font-family: sans-serif; font-size: 20pt" text-anchor="middle" x="416.0" y="640.0">BATH_860 320.0</text>
    <text style="font-family: sans-serif; font-size: 20pt" text-anchor="middle" x="320.0" y="640.0">HALLWAY_680 640.0</text>
    <text style="font-family: sans-serif; font-size: 20pt" text-anchor="middle" x="624.0" y="1008.0">BEDROOM_69 748.0</text>
    <text style="font-family: sans-serif; font-size: 20pt" text-anchor="middle" x="624.0" y="304.0">BEDROOM_941 836.0</text>
    <text style="font-family: sans-serif; font-size: 20pt" text-anchor="middle" x="624.0" y="672.0">HALLWAY_199 176.0</text>
    <text style="font-family: sans-serif; font-size: 20pt" text-anchor="middle" x="1264.0" y="672.0">HALLWAY_124 336.0</text>
    <text style="font-family: sans-serif; font-size: 20pt" text-anchor="middle" x="1168.0" y="1008.0">DINING_98 1020.0</text>
    <text style="font-family: sans-serif; font-size: 20pt" text-anchor="middle" x="1504.0" y="1008.0">BATH_729 408.0</text>
    <text style="font-family: sans-serif; font-size: 20pt" text-anchor="middle" x="1088.0" y="304.0">BEDROOM_378 760.0</text>
    <text style="font-family: sans-serif; font-size: 20pt" text-anchor="middle" x="1424.0" y="304.0">KITCHEN_551 836.0</text>
  </g>
</svg>
