<?xml version="1.0" encoding="utf-8" ?>
<svg baseProfile="full" height="1344" version="1.1" width="1664" xmlns="http://www.w3.org/2000/svg" xmlns:ev="http://www.w3.org/2001/xml-events" xmlns:xlink="http://www.w3.org/1999/xlink">
  <defs/>
  <g transform="translate(32,32)">
    <line stroke="rgb(30,30,30)" stroke-linecap="round" stroke-width="12" x1="0.0" x2="0.0" y1="976.0" y2="768.0"/>
    <line stroke="rgb(30,30,30)" stroke-linecap="round" stroke-width="12" x1="1600.0" x2="1600.0" y1="224.0" y2="640.0"/>
    <line stroke="rgb(30,30,30)" stroke-linecap="round" stroke-width="12" x1="0" x2="0.0" y1="1280" y2="976.0"/>
    <line stroke="rgb(30,30,30)" stroke-linecap="round" stroke-width="12" x1="672.0" x2="0" y1="1280.0" y2="1280"/>
    <line stroke="rgb(30,30,30)" stroke-linecap="round" stroke-width="12" x1="1600" x2="1600.0" y1="0" y2="224.0"/>
    <line stroke="rgb(30,30,30)" stroke-linecap="round" stroke-width="12" x1="528.0" x2="528.0" y1="976.0" y2="768.0"/>
    <line stroke="rgb(30,30,30)" stroke-linecap="round" stroke-width="12" x1="1600.0" x2="1088.0" y1="640.0" y2="640.0"/>
    <line stroke="rgb(30,30,30)" stroke-linecap="round" stroke-width="12" x1="1600.0" x2="1088.0" y1="224.0" y2="224.0"/>
    <line stroke="rgb(30,30,30)" stroke-linecap="round" stroke-width="12" x1="1088.0" x2="1088.0" y1="640.0" y2="224.0"/>
    <line stroke="rgb(30,30,30)" stroke-linecap="round" stroke-width="12" x1="720.0" x2="1088.0" y1="0.0" y2="0.0"/>
    <line stroke="rgb(30,30,30)" stroke-linecap="round" stroke-width="12" x1="720.0" x2="720.0" y1="640.0" y2="0.0"/>
    <line stroke="rgb(30,30,30)" stroke-linecap="round" stroke-width="12" x1="1600.0" x2="672.0" y1="976.0" y2="976.0"/>
    <line stroke="rgb(30,30,30)" stroke-linecap="round" stroke-width="12" x1="720.0" x2="0.0" y1="640.0" y2="640.0"/>
    <line stroke="rgb(30,30,30)" stroke-linecap="round" stroke-width="12" x1="528.0" x2="0.0" y1="976.0" y2="976.0"/>
    <line stroke="rgb(30,30,30)" stroke-linecap="round" stroke-width="12" x1="1600.0" x2="1600.0" y1="640.0" y2="768.0"/>
    <line stroke="rgb(30,30,30)" stroke-linecap="round" stroke-width="12" x1="528.0" x2="0.0" y1="768.0" y2="768.0"/>
    <line stroke="rgb(30,30,30)" stroke-linecap="round" stroke-width="12" x1="1088.0" x2="1600" y1="0.0" y2="0"/>
    <line stroke="rgb(30,30,30)" stroke-linecap="round" stroke-width="12" x1="1600.0" x2="1600" y1="976.0" y2="1280"/>
    <line stroke="rgb(30,30,30)" stroke-linecap="round" stroke-width="12" x1="672.0" x2="672.0" y1="1280.0" y2="976.0"/>
    <line stroke="rgb(30,30,30)" stroke-linecap="round" stroke-width="12" x1="1088.0" x2="720.0" y1="640.0" y2="640.0"/>
    <line stroke="rgb(30,30,30)" stroke-linecap="round" stroke-width="12" x1="1600.0" x2="1600.0" y1="768.0" y2="976.0"/>
    <line stroke="rgb(30,30,30)" stroke-linecap="round" stroke-width="12" x1="1600.0" x2="528.0" y1="768.0" y2="768.0"/>
    <line stroke="rgb(30,30,30)" stroke-linecap="round" stroke-width="12" x1="0" x2="720.0" y1="0" y2="0.0"/>
    <line stroke="rgb(30,30,30)" stroke-linecap="round" stroke-width="12" x1="0.0" x2="0.0" y1="768.0" y2="640.0"/>
    <line stroke="rgb(30,30,30)" stroke-linecap="round" stroke-width="12" x1="1600" x2="672.0" y1="1280" y2="1280.0"/>
    <line stroke="rgb(30,30,30)" stroke-linecap="round" stroke-width="12" x1="1088.0" x2="1088.0" y1="224.0" y2="0.0"/>
    <line stroke="rgb(30,30,30)" stroke-linecap="round" stroke-width="12" x1="672.0" x2="528.0" y1="976.0" y2="976.0"/>
    <line stroke="rgb(30,30,30)" stroke-linecap="round" stroke-width="12" x1="0.0" x2="0" y1="640.0" y2="0"/>
    <text style="font-family: sans-serif; font-size: 20pt" text-anchor="middle" x="800.0" y="704.0">HALLWAY_165 800.0</text>
    <text style="font-family: sans-serif; font-size: 20pt" text-anchor="middle" x="336.0" y="1128.0">BEDROOM_721 798.0</text>
    <text style="font-family: sans-serif; font-size: 20pt" text-anchor="middle" x="1136.0" y="1128.0">DINING_85 1102.0</text>
    <text style="font-family: sans-serif; font-size: 20pt" text-anchor="middle" x="264.0" y="872.0">BATH_729 429.0</text>
    <text style="font-family: sans-serif; font-size: 20pt" text-anchor="middle" x="1064.0" y="872.0">KITCHEN_82 871.0</text>
    <text style="font-family: sans-serif; font-size: 20pt" text-anchor="middle" x="360.0" y="320.0">LIVING_530 1800.0</text>
    <text style="font-family: sans-serif; font-size: 20pt" text-anchor="middle" x="904.0" y="320.0">BEDROOM_216 920.0</text>
    <text style="font-family: sans-serif; font-size: 20pt" text-anchor="middle" x="1344.0" y="432.0">BEDROOM_803 832.0</text>
    <text style="font-family: sans-serif; font-size: 20pt" text-anchor="middle" x="1344.0" y="112.0">BATH_345 448.0</text>
  </g>
</svg>
