<?xml version="1.0" encoding="utf-8" ?>
<svg baseProfile="full" height="100%" version="1.1" width="100%" xmlns="http://www.w3.org/2000/svg" xmlns:ev="http://www.w3.org/2001/xml-events" xmlns:xlink="http://www.w3.org/1999/xlink"><defs /><g transform="translate(32,32), scale(3)"><line stroke="rgb(0,0,0)" x1="0" x2="0.0" y1="120" y2="40.0" /><line stroke="rgb(0,0,0)" x1="100.0" x2="100" y1="40.0" y2="120" /><line stroke="rgb(0,0,0)" x1="100" x2="20.0" y1="120" y2="120.0" /><line stroke="rgb(0,0,0)" x1="20.0" x2="0" y1="120.0" y2="120" /><line stroke="rgb(0,0,0)" x1="100.0" x2="20.0" y1="40.0" y2="40.0" /><line stroke="rgb(0,0,0)" x1="0" x2="100" y1="0" y2="0" /><line stroke="rgb(0,0,0)" x1="20.0" x2="20.0" y1="120.0" y2="40.0" /><line stroke="rgb(0,0,0)" x1="100" x2="100.0" y1="0" y2="40.0" /><line stroke="rgb(0,0,0)" x1="0.0" x2="0" y1="40.0" y2="0" /><line stroke="rgb(0,0,0)" x1="100.0" x2="0.0" y1="40.0" y2="40.0" /><line stroke="rgb(0,0,0)" x1="20.0" x2="0.0" y1="40.0" y2="40.0" /><circle cx="50.0" cy="20.0" fill="green" r="5" stroke="blue" stroke-width="1" /><line stroke="rgb(0,255,0)" x1="50.0" x2="50.0" y1="20.0" y2="0.0" /><line stroke="rgb(0,255,0)" x1="50.0" x2="100.0" y1="20.0" y2="20.0" /><line stroke="rgb(0,255,0)" x1="50.0" x2="50.0" y1="20.0" y2="40.0" /><line stroke="rgb(0,255,0)" x1="50.0" x2="0.0" y1="20.0" y2="20.0" /><circle cx="10.0" cy="80.0" fill="green" r="5" stroke="blue" stroke-width="1" /><line stroke="rgb(0,255,0)" x1="10.0" x2="10.0" y1="80.0" y2="40.0" /><line stroke="rgb(0,255,0)" x1="10.0" x2="20.0" y1="80.0" y2="80.0" /><line stroke="rgb(0,255,0)" x1="10.0" x2="10.0" y1="80.0" y2="120.0" /><line stroke="rgb(0,255,0)" x1="10.0" x2="0.0" y1="80.0" y2="80.0" /><circle cx="60.0" cy="80.0" fill="green" r="5" stroke="blue" stroke-width="1" /><line stroke="rgb(0,255,0)" x1="60.0" x2="60.0" y1="80.0" y2="40.0" /><line stroke="rgb(0,255,0)" x1="60.0" x2="100.0" y1="80.0" y2="80.0" /><line stroke="rgb(0,255,0)" x1="60.0" x2="60.0" y1="80.0" y2="120.0" /><line stroke="rgb(0,255,0)" x1="60.0" x2="20.0" y1="80.0" y2="80.0" /><text text-anchor="middle" x="50.0" y="20.0" /><text text-anchor="middle" x="10.0" y="80.0" /><text text-anchor="middle" x="60.0" y="80.0" /></g></svg>