<?xml version="1.0" encoding="utf-8" ?>
<svg baseProfile="full" height="100%" version="1.1" width="100%" xmlns="http://www.w3.org/2000/svg" xmlns:ev="http://www.w3.org/2001/xml-events" xmlns:xlink="http://www.w3.org/1999/xlink">
  <defs/>
  <g transform="translate(32,32)">
    <line stroke="rgb(0,255,0)" stroke-width="4" x1="224.0" x2="224.0" y1="1032.0" y2="784.0"/>
    <line stroke="rgb(0,255,0)" stroke-width="4" x1="224.0" x2="448.0" y1="1032.0" y2="1056.0"/>
    <line stroke="rgb(0,255,0)" stroke-width="4" x1="624.0" x2="448.0" y1="296.0" y2="424.0"/>
    <line stroke="rgb(0,255,0)" stroke-width="4" x1="224.0" x2="224.0" y1="520.0" y2="256.0"/>
    <line stroke="rgb(0,255,0)" stroke-width="4" x1="224.0" x2="448.0" y1="520.0" y2="424.0"/>
    <line stroke="rgb(0,255,0)" stroke-width="4" x1="224.0" x2="448.0" y1="520.0" y2="688.0"/>
    <line stroke="rgb(0,255,0)" stroke-width="4" x1="224.0" x2="224.0" y1="520.0" y2="784.0"/>
    <line stroke="rgb(0,255,0)" stroke-width="4" x1="224.0" x2="224.0" y1="128.0" y2="256.0"/>
    <line stroke="rgb(0,255,0)" stroke-width="4" x1="624.0" x2="448.0" y1="1056.0" y2="1056.0"/>
    <line stroke="rgb(0,255,0)" stroke-width="4" x1="624.0" x2="448.0" y1="712.0" y2="688.0"/>
    <line stroke="rgb(30,30,30)" stroke-linecap="round" stroke-width="12" x1="448.0" x2="0" y1="1280.0" y2="1280"/>
    <line stroke="rgb(30,30,30)" stroke-linecap="round" stroke-width="12" x1="448.0" x2="448.0" y1="256.0" y2="0.0"/>
    <line stroke="rgb(30,30,30)" stroke-linecap="round" stroke-width="12" x1="448.0" x2="0.0" y1="784.0" y2="784.0"/>
    <line stroke="white" stroke-width="12" x1="174.19749450683594" x2="270.197509765625" y1="784.0" y2="784.0"/>
    <line stroke="rgb(0,0,0)" stroke-width="4" x1="174.19749450683594" x2="174.19749450683594" y1="784.0" y2="688.0"/>
    <path d="M270.197509765625 784.0 A 96 96 -1 0,0 174.19749450683594 688.0" fill="none" stroke="black" stroke-width="2"/>
    <line stroke="rgb(30,30,30)" stroke-linecap="round" stroke-width="12" x1="0" x2="448.0" y1="0" y2="0.0"/>
    <line stroke="rgb(30,30,30)" stroke-linecap="round" stroke-width="12" x1="0.0" x2="0.0" y1="784.0" y2="256.0"/>
    <line stroke="rgb(30,30,30)" stroke-linecap="round" stroke-width="12" x1="448.0" x2="800" y1="0.0" y2="0"/>
    <line stroke="rgb(30,30,30)" stroke-linecap="round" stroke-width="12" x1="448.0" x2="448.0" y1="1280.0" y2="832.0"/>
    <line stroke="white" stroke-width="12" x1="447.9999694824219" x2="447.9999694824219" y1="1108.7078857421875" y2="1204.7078857421875"/>
    <line stroke="rgb(0,0,0)" stroke-width="4" x1="447.9999694824219" x2="544.0" y1="1108.7078857421875" y2="1108.7078857421875"/>
    <path d="M447.9999694824219 1204.7078857421875 A 96 96 -1 0,0 544.0 1108.7078857421875" fill="none" stroke="black" stroke-width="2"/>
    <line stroke="rgb(30,30,30)" stroke-linecap="round" stroke-width="12" x1="0.0" x2="0" y1="256.0" y2="0"/>
    <line stroke="rgb(30,30,30)" stroke-linecap="round" stroke-width="12" x1="800.0" x2="800" y1="832.0" y2="1280"/>
    <line stroke="rgb(30,30,30)" stroke-linecap="round" stroke-width="12" x1="448.0" x2="448.0" y1="832.0" y2="784.0"/>
    <line stroke="rgb(30,30,30)" stroke-linecap="round" stroke-width="12" x1="800.0" x2="800.0" y1="592.0" y2="832.0"/>
    <line stroke="rgb(30,30,30)" stroke-linecap="round" stroke-width="12" x1="448.0" x2="0.0" y1="256.0" y2="256.0"/>
    <line stroke="white" stroke-width="12" x1="251.38766479492188" x2="347.3876647949219" y1="256.0" y2="256.0"/>
    <line stroke="rgb(0,0,0)" stroke-width="4" x1="251.38766479492188" x2="251.38766479492188" y1="256.0" y2="160.0"/>
    <path d="M347.3876647949219 256.0 A 96 96 -1 0,0 251.38766479492188 160.0" fill="none" stroke="black" stroke-width="2"/>
    <line stroke="rgb(30,30,30)" stroke-linecap="round" stroke-width="12" x1="800" x2="448.0" y1="1280" y2="1280.0"/>
    <line stroke="rgb(30,30,30)" stroke-linecap="round" stroke-width="12" x1="800.0" x2="448.0" y1="832.0" y2="832.0"/>
    <line stroke="rgb(30,30,30)" stroke-linecap="round" stroke-width="12" x1="800" x2="800.0" y1="0" y2="592.0"/>
    <line stroke="rgb(30,30,30)" stroke-linecap="round" stroke-width="12" x1="448.0" x2="448.0" y1="784.0" y2="592.0"/>
    <line stroke="white" stroke-width="12" x1="448.0" x2="448.0" y1="745.900390625" y2="649.900390625"/>
    <line stroke="rgb(0,0,0)" stroke-width="4" x1="448.0" x2="544.0" y1="745.900390625" y2="745.900390625"/>
    <path d="M448.0 649.900390625 A 96 96 -1 0,1 544.0 745.900390625" fill="none" stroke="black" stroke-width="2"/>
    <line stroke="rgb(30,30,30)" stroke-linecap="round" stroke-width="12" x1="448.0" x2="448.0" y1="592.0" y2="256.0"/>
    <line stroke="white" stroke-width="12" x1="448.0" x2="448.0" y1="384.3533020019531" y2="480.3533020019531"/>
    <line stroke="rgb(0,0,0)" stroke-width="4" x1="448.0" x2="544.0" y1="384.3533020019531" y2="384.3533020019531"/>
    <path d="M448.0 480.3533020019531 A 96 96 -1 0,0 544.0 384.3533020019531" fill="none" stroke="black" stroke-width="2"/>
    <line stroke="rgb(30,30,30)" stroke-linecap="round" stroke-width="12" x1="800.0" x2="448.0" y1="592.0" y2="592.0"/>
    <line stroke="rgb(30,30,30)" stroke-linecap="round" stroke-width="12" x1="0" x2="0.0" y1="1280" y2="784.0"/>
    <text style="font-family: sans-serif; font-size: 20pt" text-anchor="middle" x="224.0" y="1032.0">868.0</text>
    <text style="font-family: sans-serif; font-size: 20pt" text-anchor="middle" x="624.0" y="296.0">814.0</text>
    <text style="font-family: sans-serif; font-size: 20pt" text-anchor="middle" x="224.0" y="520.0">924.0</text>
    <text style="font-family: sans-serif; font-size: 20pt" text-anchor="middle" x="224.0" y="128.0">448.0</text>
    <text style="font-family: sans-serif; font-size: 20pt" text-anchor="middle" x="624.0" y="1056.0">616.0</text>
    <text style="font-family: sans-serif; font-size: 20pt" text-anchor="middle" x="624.0" y="712.0">330.0</text>
  </g>
</svg>
