<?xml version="1.0" encoding="utf-8" ?>
<svg baseProfile="full" height="100%" version="1.1" width="100%" xmlns="http://www.w3.org/2000/svg" xmlns:ev="http://www.w3.org/2001/xml-events" xmlns:xlink="http://www.w3.org/1999/xlink">
  <defs/>
  <g transform="translate(32,32)">
    <line stroke="rgb(0,255,0)" stroke-width="4" x1="880.0" x2="880.0" y1="1152.0" y2="864.0"/>
    <line stroke="rgb(0,255,0)" stroke-width="4" x1="880.0" x2="1152.0" y1="1152.0" y2="1152.0"/>
    <line stroke="rgb(0,255,0)" stroke-width="4" x1="880.0" x2="608.0" y1="1152.0" y2="1152.0"/>
    <line stroke="rgb(0,255,0)" stroke-width="4" x1="1344.0" x2="1344.0" y1="1032.0" y2="624.0"/>
    <line stroke="rgb(0,255,0)" stroke-width="4" x1="1344.0" x2="1536.0" y1="1032.0" y2="1088.0"/>
    <line stroke="rgb(0,255,0)" stroke-width="4" x1="1344.0" x2="1152.0" y1="1032.0" y2="1152.0"/>
    <line stroke="rgb(0,255,0)" stroke-width="4" x1="1344.0" x2="1536.0" y1="312.0" y2="312.0"/>
    <line stroke="rgb(0,255,0)" stroke-width="4" x1="1344.0" x2="1344.0" y1="312.0" y2="624.0"/>
    <line stroke="rgb(0,255,0)" stroke-width="4" x1="1728.0" x2="1536.0" y1="1088.0" y2="1088.0"/>
    <line stroke="rgb(0,255,0)" stroke-width="4" x1="1728.0" x2="1536.0" y1="368.0" y2="312.0"/>
    <line stroke="rgb(0,255,0)" stroke-width="4" x1="856.0" x2="856.0" y1="160.0" y2="320.0"/>
    <line stroke="rgb(0,255,0)" stroke-width="4" x1="144.0" x2="288.0" y1="432.0" y2="432.0"/>
    <line stroke="rgb(0,255,0)" stroke-width="4" x1="424.0" x2="560.0" y1="432.0" y2="728.0"/>
    <line stroke="rgb(0,255,0)" stroke-width="4" x1="424.0" x2="288.0" y1="432.0" y2="432.0"/>
    <line stroke="rgb(0,255,0)" stroke-width="4" x1="176.0" x2="352.0" y1="1152.0" y2="1152.0"/>
    <line stroke="rgb(0,255,0)" stroke-width="4" x1="480.0" x2="608.0" y1="1152.0" y2="1152.0"/>
    <line stroke="rgb(0,255,0)" stroke-width="4" x1="480.0" x2="352.0" y1="1152.0" y2="1152.0"/>
    <line stroke="rgb(0,255,0)" stroke-width="4" x1="856.0" x2="856.0" y1="728.0" y2="592.0"/>
    <line stroke="rgb(0,255,0)" stroke-width="4" x1="856.0" x2="880.0" y1="728.0" y2="864.0"/>
    <line stroke="rgb(0,255,0)" stroke-width="4" x1="856.0" x2="560.0" y1="728.0" y2="728.0"/>
    <line stroke="rgb(0,255,0)" stroke-width="4" x1="856.0" x2="856.0" y1="456.0" y2="320.0"/>
    <line stroke="rgb(0,255,0)" stroke-width="4" x1="856.0" x2="856.0" y1="456.0" y2="592.0"/>
    <line stroke="rgb(30,30,30)" stroke-linecap="round" stroke-width="12" x1="0" x2="0.0" y1="1440" y2="864.0"/>
    <line stroke="rgb(30,30,30)" stroke-linecap="round" stroke-width="12" x1="288.0" x2="560.0" y1="0.0" y2="0.0"/>
    <line stroke="rgb(30,30,30)" stroke-linecap="round" stroke-width="12" x1="608.0" x2="352.0" y1="1440.0" y2="1440.0"/>
    <line stroke="rgb(30,30,30)" stroke-linecap="round" stroke-width="12" x1="1920.0" x2="1920" y1="736.0" y2="1440"/>
    <line stroke="rgb(30,30,30)" stroke-linecap="round" stroke-width="12" x1="608.0" x2="608.0" y1="1440.0" y2="864.0"/>
    <line stroke="white" stroke-width="12" x1="608.0" x2="608.0" y1="880.0" y2="976.0"/>
    <line stroke="rgb(0,0,0)" stroke-width="4" x1="608.0" x2="704.0" y1="880.0" y2="880.0"/>
    <path d="M608.0 976.0 A 96 96 -1 0,0 704.0 880.0" fill="none" stroke="black" stroke-width="2"/>
    <line stroke="rgb(30,30,30)" stroke-linecap="round" stroke-width="12" x1="1536.0" x2="1920" y1="0.0" y2="0"/>
    <line stroke="rgb(30,30,30)" stroke-linecap="round" stroke-width="12" x1="560.0" x2="352.0" y1="864.0" y2="864.0"/>
    <line stroke="rgb(30,30,30)" stroke-linecap="round" stroke-width="12" x1="1536.0" x2="1536.0" y1="736.0" y2="624.0"/>
    <line stroke="rgb(30,30,30)" stroke-linecap="round" stroke-width="12" x1="608.0" x2="560.0" y1="864.0" y2="864.0"/>
    <line stroke="rgb(30,30,30)" stroke-linecap="round" stroke-width="12" x1="1152.0" x2="608.0" y1="864.0" y2="864.0"/>
    <line stroke="white" stroke-width="12" x1="1136.0" x2="1040.0" y1="864.0" y2="864.0"/>
    <line stroke="rgb(0,0,0)" stroke-width="4" x1="1136.0" x2="1136.0" y1="864.0" y2="768.0"/>
    <path d="M1040.0 864.0 A 96 96 -1 0,1 1136.0 768.0" fill="none" stroke="black" stroke-width="2"/>
    <line stroke="rgb(30,30,30)" stroke-linecap="round" stroke-width="12" x1="560.0" x2="560.0" y1="864.0" y2="592.0"/>
    <line stroke="white" stroke-width="12" x1="560.0" x2="560.0" y1="608.0" y2="704.0"/>
    <line stroke="rgb(0,0,0)" stroke-width="4" x1="560.0" x2="656.0" y1="608.0" y2="608.0"/>
    <path d="M560.0 704.0 A 96 96 -1 0,0 656.0 608.0" fill="none" stroke="black" stroke-width="2"/>
    <line stroke="rgb(30,30,30)" stroke-linecap="round" stroke-width="12" x1="352.0" x2="288.0" y1="864.0" y2="864.0"/>
    <line stroke="rgb(30,30,30)" stroke-linecap="round" stroke-width="12" x1="1152.0" x2="1152.0" y1="624.0" y2="592.0"/>
    <line stroke="rgb(30,30,30)" stroke-linecap="round" stroke-width="12" x1="1920.0" x2="1536.0" y1="736.0" y2="736.0"/>
    <line stroke="rgb(30,30,30)" stroke-linecap="round" stroke-width="12" x1="560.0" x2="560.0" y1="592.0" y2="320.0"/>
    <line stroke="rgb(30,30,30)" stroke-linecap="round" stroke-width="12" x1="1536.0" x2="1152.0" y1="624.0" y2="624.0"/>
    <line stroke="white" stroke-width="12" x1="1168.0" x2="1264.0" y1="624.0" y2="624.0"/>
    <line stroke="rgb(0,0,0)" stroke-width="4" x1="1168.0" x2="1168.0" y1="624.0" y2="528.0"/>
    <path d="M1264.0 624.0 A 96 96 -1 0,0 1168.0 528.0" fill="none" stroke="black" stroke-width="2"/>
    <line stroke="rgb(30,30,30)" stroke-linecap="round" stroke-width="12" x1="0" x2="288.0" y1="0" y2="0.0"/>
    <line stroke="rgb(30,30,30)" stroke-linecap="round" stroke-width="12" x1="1536.0" x2="1536.0" y1="1440.0" y2="736.0"/>
    <line stroke="white" stroke-width="12" x1="1536.0" x2="1536.0" y1="1424.0" y2="1328.0"/>
    <line stroke="rgb(0,0,0)" stroke-width="4" x1="1536.0" x2="1632.0" y1="1424.0" y2="1424.0"/>
    <path d="M1536.0 1328.0 A 96 96 -1 0,1 1632.0 1424.0" fill="none" stroke="black" stroke-width="2"/>
    <line stroke="rgb(30,30,30)" stroke-linecap="round" stroke-width="12" x1="352.0" x2="352.0" y1="1440.0" y2="864.0"/>
    <line stroke="white" stroke-width="12" x1="352.0" x2="352.0" y1="880.0" y2="976.0"/>
    <line stroke="rgb(0,0,0)" stroke-width="4" x1="352.0" x2="448.0" y1="880.0" y2="880.0"/>
    <path d="M352.0 976.0 A 96 96 -1 0,0 448.0 880.0" fill="none" stroke="black" stroke-width="2"/>
    <line stroke="rgb(30,30,30)" stroke-linecap="round" stroke-width="12" x1="352.0" x2="0" y1="1440.0" y2="1440"/>
    <line stroke="rgb(30,30,30)" stroke-linecap="round" stroke-width="12" x1="288.0" x2="288.0" y1="864.0" y2="0.0"/>
    <line stroke="white" stroke-width="12" x1="288.0" x2="288.0" y1="848.0" y2="752.0"/>
    <line stroke="rgb(0,0,0)" stroke-width="4" x1="288.0" x2="384.0" y1="848.0" y2="848.0"/>
    <path d="M288.0 752.0 A 96 96 -1 0,1 384.0 848.0" fill="none" stroke="black" stroke-width="2"/>
    <line stroke="rgb(30,30,30)" stroke-linecap="round" stroke-width="12" x1="0.0" x2="0" y1="864.0" y2="0"/>
    <line stroke="rgb(30,30,30)" stroke-linecap="round" stroke-width="12" x1="1152.0" x2="1152.0" y1="1440.0" y2="864.0"/>
    <line stroke="white" stroke-width="12" x1="1152.0" x2="1152.0" y1="880.0" y2="976.0"/>
    <line stroke="rgb(0,0,0)" stroke-width="4" x1="1152.0" x2="1248.0" y1="880.0" y2="880.0"/>
    <path d="M1152.0 976.0 A 96 96 -1 0,0 1248.0 880.0" fill="none" stroke="black" stroke-width="2"/>
    <line stroke="rgb(30,30,30)" stroke-linecap="round" stroke-width="12" x1="1152.0" x2="560.0" y1="592.0" y2="592.0"/>
    <line stroke="white" stroke-width="12" x1="1136.0" x2="1040.0" y1="592.0" y2="592.0"/>
    <line stroke="rgb(0,0,0)" stroke-width="4" x1="1136.0" x2="1136.0" y1="592.0" y2="496.0"/>
    <path d="M1040.0 592.0 A 96 96 -1 0,1 1136.0 496.0" fill="none" stroke="black" stroke-width="2"/>
    <line stroke="rgb(30,30,30)" stroke-linecap="round" stroke-width="12" x1="1920" x2="1920.0" y1="0" y2="736.0"/>
    <line stroke="rgb(30,30,30)" stroke-linecap="round" stroke-width="12" x1="560.0" x2="560.0" y1="320.0" y2="0.0"/>
    <line stroke="rgb(30,30,30)" stroke-linecap="round" stroke-width="12" x1="1536.0" x2="1152.0" y1="1440.0" y2="1440.0"/>
    <line stroke="rgb(30,30,30)" stroke-linecap="round" stroke-width="12" x1="1920" x2="1536.0" y1="1440" y2="1440.0"/>
    <line stroke="rgb(30,30,30)" stroke-linecap="round" stroke-width="12" x1="288.0" x2="0.0" y1="864.0" y2="864.0"/>
    <line stroke="rgb(30,30,30)" stroke-linecap="round" stroke-width="12" x1="1152.0" x2="560.0" y1="320.0" y2="320.0"/>
    <line stroke="white" stroke-width="12" x1="1136.0" x2="1040.0" y1="320.0" y2="320.0"/>
    <line stroke="rgb(0,0,0)" stroke-width="4" x1="1136.0" x2="1136.0" y1="320.0" y2="224.0"/>
    <path d="M1040.0 320.0 A 96 96 -1 0,1 1136.0 224.0" fill="none" stroke="black" stroke-width="2"/>
    <line stroke="rgb(30,30,30)" stroke-linecap="round" stroke-width="12" x1="1536.0" x2="1536.0" y1="624.0" y2="0.0"/>
    <line stroke="white" stroke-width="12" x1="1536.0" x2="1536.0" y1="16.0" y2="112.0"/>
    <line stroke="rgb(0,0,0)" stroke-width="4" x1="1536.0" x2="1632.0" y1="16.0" y2="16.0"/>
    <path d="M1536.0 112.0 A 96 96 -1 0,0 1632.0 16.0" fill="none" stroke="black" stroke-width="2"/>
    <line stroke="rgb(30,30,30)" stroke-linecap="round" stroke-width="12" x1="1152.0" x2="1152.0" y1="320.0" y2="0.0"/>
    <line stroke="rgb(30,30,30)" stroke-linecap="round" stroke-width="12" x1="560.0" x2="1152.0" y1="0.0" y2="0.0"/>
    <line stroke="rgb(30,30,30)" stroke-linecap="round" stroke-width="12" x1="1152.0" x2="1152.0" y1="864.0" y2="624.0"/>
    <line stroke="rgb(30,30,30)" stroke-linecap="round" stroke-width="12" x1="1152.0" x2="1536.0" y1="0.0" y2="0.0"/>
    <line stroke="rgb(30,30,30)" stroke-linecap="round" stroke-width="12" x1="1152.0" x2="1152.0" y1="592.0" y2="320.0"/>
    <line stroke="rgb(30,30,30)" stroke-linecap="round" stroke-width="12" x1="1152.0" x2="608.0" y1="1440.0" y2="1440.0"/>
    <text style="font-family: sans-serif; font-size: 20pt" text-anchor="middle" x="880.0" y="1152.0">1224.0</text>
    <text style="font-family: sans-serif; font-size: 20pt" text-anchor="middle" x="1344.0" y="1032.0">1224.0</text>
    <text style="font-family: sans-serif; font-size: 20pt" text-anchor="middle" x="1344.0" y="312.0">936.0</text>
    <text style="font-family: sans-serif; font-size: 20pt" text-anchor="middle" x="1728.0" y="1088.0">1056.0</text>
    <text style="font-family: sans-serif; font-size: 20pt" text-anchor="middle" x="1728.0" y="368.0">1104.0</text>
    <text style="font-family: sans-serif; font-size: 20pt" text-anchor="middle" x="856.0" y="160.0">740.0</text>
    <text style="font-family: sans-serif; font-size: 20pt" text-anchor="middle" x="144.0" y="432.0">972.0</text>
    <text style="font-family: sans-serif; font-size: 20pt" text-anchor="middle" x="424.0" y="432.0">918.0</text>
    <text style="font-family: sans-serif; font-size: 20pt" text-anchor="middle" x="176.0" y="1152.0">792.0</text>
    <text style="font-family: sans-serif; font-size: 20pt" text-anchor="middle" x="480.0" y="1152.0">576.0</text>
    <text style="font-family: sans-serif; font-size: 20pt" text-anchor="middle" x="856.0" y="728.0">629.0</text>
    <text style="font-family: sans-serif; font-size: 20pt" text-anchor="middle" x="856.0" y="456.0">629.0</text>
  </g>
</svg>
