<?xml version="1.0" encoding="utf-8" ?>
<svg baseProfile="full" height="100%" version="1.1" width="100%" xmlns="http://www.w3.org/2000/svg" xmlns:ev="http://www.w3.org/2001/xml-events" xmlns:xlink="http://www.w3.org/1999/xlink">
  <defs/>
  <g transform="translate(32,32)">
    <line stroke="rgb(0,255,0)" stroke-width="4" x1="248.0" x2="168.0" y1="688.0" y2="416.0"/>
    <line stroke="rgb(0,255,0)" stroke-width="4" x1="248.0" x2="416.0" y1="688.0" y2="416.0"/>
    <line stroke="rgb(0,255,0)" stroke-width="4" x1="248.0" x2="496.0" y1="688.0" y2="688.0"/>
    <line stroke="rgb(0,255,0)" stroke-width="4" x1="248.0" x2="248.0" y1="688.0" y2="960.0"/>
    <line stroke="rgb(0,255,0)" stroke-width="4" x1="248.0" x2="0.0" y1="688.0" y2="688.0"/>
    <line stroke="rgb(0,255,0)" stroke-width="4" x1="744.0" x2="832.0" y1="688.0" y2="416.0"/>
    <line stroke="rgb(0,255,0)" stroke-width="4" x1="744.0" x2="992.0" y1="688.0" y2="568.0"/>
    <line stroke="rgb(0,255,0)" stroke-width="4" x1="744.0" x2="992.0" y1="688.0" y2="840.0"/>
    <line stroke="rgb(0,255,0)" stroke-width="4" x1="744.0" x2="744.0" y1="688.0" y2="960.0"/>
    <line stroke="rgb(0,255,0)" stroke-width="4" x1="744.0" x2="496.0" y1="688.0" y2="688.0"/>
    <line stroke="rgb(0,255,0)" stroke-width="4" x1="168.0" x2="168.0" y1="208.0" y2="416.0"/>
    <line stroke="rgb(0,255,0)" stroke-width="4" x1="504.0" x2="416.0" y1="208.0" y2="416.0"/>
    <line stroke="rgb(0,255,0)" stroke-width="4" x1="832.0" x2="832.0" y1="208.0" y2="0.0"/>
    <line stroke="rgb(0,255,0)" stroke-width="4" x1="832.0" x2="992.0" y1="208.0" y2="120.0"/>
    <line stroke="rgb(0,255,0)" stroke-width="4" x1="832.0" x2="832.0" y1="208.0" y2="416.0"/>
    <line stroke="rgb(0,255,0)" stroke-width="4" x1="1136.0" x2="992.0" y1="120.0" y2="120.0"/>
    <line stroke="rgb(0,255,0)" stroke-width="4" x1="1136.0" x2="992.0" y1="840.0" y2="840.0"/>
    <line stroke="rgb(0,255,0)" stroke-width="4" x1="1136.0" x2="992.0" y1="480.0" y2="568.0"/>
    <line stroke="rgb(30,30,30)" stroke-linecap="round" stroke-width="12" x1="336.0" x2="672.0" y1="0.0" y2="0.0"/>
    <line stroke="rgb(30,30,30)" stroke-linecap="round" stroke-width="12" x1="992.0" x2="992.0" y1="720.0" y2="416.0"/>
    <line stroke="white" stroke-width="12" x1="992.0" x2="992.0" y1="704.0" y2="608.0"/>
    <line stroke="rgb(0,0,0)" stroke-width="4" x1="992.0" x2="1088.0" y1="704.0" y2="704.0"/>
    <path d="M992.0 608.0 A 96 96 -1 0,1 1088.0 704.0" fill="none" stroke="black" stroke-width="2"/>
    <line stroke="rgb(30,30,30)" stroke-linecap="round" stroke-width="12" x1="1280.0" x2="992.0" y1="240.0" y2="240.0"/>
    <line stroke="rgb(30,30,30)" stroke-linecap="round" stroke-width="12" x1="1280.0" x2="1280.0" y1="240.0" y2="720.0"/>
    <line stroke="rgb(30,30,30)" stroke-linecap="round" stroke-width="12" x1="672.0" x2="496.0" y1="416.0" y2="416.0"/>
    <line stroke="rgb(30,30,30)" stroke-linecap="round" stroke-width="12" x1="992.0" x2="496.0" y1="960.0" y2="960.0"/>
    <line stroke="white" stroke-width="12" x1="512.0" x2="608.0" y1="960.0" y2="960.0"/>
    <line stroke="rgb(0,0,0)" stroke-width="4" x1="512.0" x2="512.0" y1="960.0" y2="864.0"/>
    <path d="M608.0 960.0 A 96 96 -1 0,0 512.0 864.0" fill="none" stroke="black" stroke-width="2"/>
    <line stroke="rgb(30,30,30)" stroke-linecap="round" stroke-width="12" x1="496.0" x2="336.0" y1="416.0" y2="416.0"/>
    <line stroke="white" stroke-width="12" x1="352.0" x2="448.0" y1="416.0" y2="416.0"/>
    <line stroke="rgb(0,0,0)" stroke-width="4" x1="352.0" x2="352.0" y1="416.0" y2="320.0"/>
    <path d="M448.0 416.0 A 96 96 -1 0,0 352.0 320.0" fill="none" stroke="black" stroke-width="2"/>
    <line stroke="rgb(30,30,30)" stroke-linecap="round" stroke-width="12" x1="336.0" x2="336.0" y1="416.0" y2="0.0"/>
    <line stroke="rgb(30,30,30)" stroke-linecap="round" stroke-width="12" x1="0.0" x2="0" y1="416.0" y2="0"/>
    <line stroke="rgb(30,30,30)" stroke-linecap="round" stroke-width="12" x1="672.0" x2="672.0" y1="416.0" y2="0.0"/>
    <line stroke="rgb(30,30,30)" stroke-linecap="round" stroke-width="12" x1="336.0" x2="0.0" y1="416.0" y2="416.0"/>
    <line stroke="white" stroke-width="12" x1="16.0" x2="112.0" y1="416.0" y2="416.0"/>
    <line stroke="rgb(0,0,0)" stroke-width="4" x1="16.0" x2="16.0" y1="416.0" y2="320.0"/>
    <path d="M112.0 416.0 A 96 96 -1 0,0 16.0 320.0" fill="none" stroke="black" stroke-width="2"/>
    <line stroke="rgb(30,30,30)" stroke-linecap="round" stroke-width="12" x1="496.0" x2="496.0" y1="960.0" y2="416.0"/>
    <line stroke="white" stroke-width="12" x1="496.0" x2="496.0" y1="432.0" y2="528.0"/>
    <line stroke="rgb(0,0,0)" stroke-width="4" x1="496.0" x2="592.0" y1="432.0" y2="432.0"/>
    <path d="M496.0 528.0 A 96 96 -1 0,0 592.0 432.0" fill="none" stroke="black" stroke-width="2"/>
    <line stroke="rgb(30,30,30)" stroke-linecap="round" stroke-width="12" x1="1280" x2="992.0" y1="960" y2="960.0"/>
    <line stroke="rgb(30,30,30)" stroke-linecap="round" stroke-width="12" x1="0" x2="336.0" y1="0" y2="0.0"/>
    <line stroke="rgb(30,30,30)" stroke-linecap="round" stroke-width="12" x1="992.0" x2="1280" y1="0.0" y2="0"/>
    <line stroke="rgb(30,30,30)" stroke-linecap="round" stroke-width="12" x1="1280.0" x2="992.0" y1="720.0" y2="720.0"/>
    <line stroke="rgb(30,30,30)" stroke-linecap="round" stroke-width="12" x1="1280.0" x2="1280" y1="720.0" y2="960"/>
    <line stroke="rgb(30,30,30)" stroke-linecap="round" stroke-width="12" x1="992.0" x2="672.0" y1="416.0" y2="416.0"/>
    <line stroke="white" stroke-width="12" x1="976.0000610351562" x2="880.0000610351562" y1="416.0000305175781" y2="416.0000305175781"/>
    <line stroke="rgb(0,0,0)" stroke-width="4" x1="976.0000610351562" x2="976.0000610351562" y1="416.0000305175781" y2="320.0000305175781"/>
    <path d="M880.0000610351562 416.0000305175781 A 96 96 -1 0,1 976.0000610351562 320.0000305175781" fill="none" stroke="black" stroke-width="2"/>
    <line stroke="rgb(30,30,30)" stroke-linecap="round" stroke-width="12" x1="1280" x2="1280.0" y1="0" y2="240.0"/>
    <line stroke="rgb(30,30,30)" stroke-linecap="round" stroke-width="12" x1="496.0" x2="0" y1="960.0" y2="960"/>
    <line stroke="white" stroke-width="12" x1="480.0" x2="384.0" y1="959.999996062248" y2="959.999996062248"/>
    <line stroke="rgb(0,0,0)" stroke-width="4" x1="480.0" x2="480.0" y1="959.999996062248" y2="863.999996062248"/>
    <path d="M384.0 959.999996062248 A 96 96 -1 0,1 480.0 863.999996062248" fill="none" stroke="black" stroke-width="2"/>
    <line stroke="rgb(30,30,30)" stroke-linecap="round" stroke-width="12" x1="992.0" x2="992.0" y1="960.0" y2="720.0"/>
    <line stroke="white" stroke-width="12" x1="992.0" x2="992.0" y1="736.0" y2="832.0"/>
    <line stroke="rgb(0,0,0)" stroke-width="4" x1="992.0" x2="1088.0" y1="736.0" y2="736.0"/>
    <path d="M992.0 832.0 A 96 96 -1 0,0 1088.0 736.0" fill="none" stroke="black" stroke-width="2"/>
    <line stroke="rgb(30,30,30)" stroke-linecap="round" stroke-width="12" x1="0" x2="0.0" y1="960" y2="416.0"/>
    <line stroke="white" stroke-width="12" x1="0.0" x2="0.0" y1="432.0000143612133" y2="528.0000143612133"/>
    <line stroke="rgb(0,0,0)" stroke-width="4" x1="0.0" x2="96.0" y1="432.0000143612133" y2="432.0000143612133"/>
    <path d="M0.0 528.0000143612133 A 96 96 -1 0,0 96.0 432.0000143612133" fill="none" stroke="black" stroke-width="2"/>
    <line stroke="rgb(30,30,30)" stroke-linecap="round" stroke-width="12" x1="992.0" x2="992.0" y1="416.0" y2="240.0"/>
    <line stroke="rgb(30,30,30)" stroke-linecap="round" stroke-width="12" x1="672.0" x2="992.0" y1="0.0" y2="0.0"/>
    <line stroke="white" stroke-width="12" x1="688.0000610351562" x2="784.0000610351562" y1="0.0" y2="0.0"/>
    <line stroke="rgb(0,0,0)" stroke-width="4" x1="688.0000610351562" x2="688.0000610351562" y1="0.0" y2="96.0"/>
    <path d="M784.0000610351562 0.0 A 96 96 -1 0,1 688.0000610351562 96.0" fill="none" stroke="black" stroke-width="2"/>
    <line stroke="rgb(30,30,30)" stroke-linecap="round" stroke-width="12" x1="992.0" x2="992.0" y1="240.0" y2="0.0"/>
    <line stroke="white" stroke-width="12" x1="992.0" x2="992.0" y1="224.0" y2="128.0"/>
    <line stroke="rgb(0,0,0)" stroke-width="4" x1="992.0" x2="1088.0" y1="224.0" y2="224.0"/>
    <path d="M992.0 128.0 A 96 96 -1 0,1 1088.0 224.0" fill="none" stroke="black" stroke-width="2"/>
    <text style="font-family: sans-serif; font-size: 20pt" text-anchor="middle" x="248.0" y="688.0">LIVING_522 1054.0</text>
    <text style="font-family: sans-serif; font-size: 20pt" text-anchor="middle" x="744.0" y="688.0">LIVING_377 1054.0</text>
    <text style="font-family: sans-serif; font-size: 20pt" text-anchor="middle" x="168.0" y="208.0">BEDROOM_626 546.0</text>
    <text style="font-family: sans-serif; font-size: 20pt" text-anchor="middle" x="504.0" y="208.0">BEDROOM_444 546.0</text>
    <text style="font-family: sans-serif; font-size: 20pt" text-anchor="middle" x="832.0" y="208.0">BEDROOM_929 520.0</text>
    <text style="font-family: sans-serif; font-size: 20pt" text-anchor="middle" x="1136.0" y="120.0">BATH_726 270.0</text>
    <text style="font-family: sans-serif; font-size: 20pt" text-anchor="middle" x="1136.0" y="840.0">BATH_425 270.0</text>
    <text style="font-family: sans-serif; font-size: 20pt" text-anchor="middle" x="1136.0" y="480.0">BEDROOM_556 540.0</text>
  </g>
</svg>
