<?xml version="1.0" encoding="utf-8" ?>
<svg baseProfile="full" height="100%" version="1.1" width="100%" xmlns="http://www.w3.org/2000/svg" xmlns:ev="http://www.w3.org/2001/xml-events" xmlns:xlink="http://www.w3.org/1999/xlink">
  <defs/>
  <g transform="translate(32,32)">
    <line stroke="rgb(0,255,0)" stroke-width="4" x1="112.0" x2="112.0" y1="1024.0" y2="608.0"/>
    <line stroke="rgb(0,255,0)" stroke-width="4" x1="112.0" x2="224.0" y1="1024.0" y2="1024.0"/>
    <line stroke="rgb(0,255,0)" stroke-width="4" x1="1376.0" x2="1264.0" y1="912.0" y2="1168.0"/>
    <line stroke="rgb(0,255,0)" stroke-width="4" x1="376.0" x2="224.0" y1="1024.0" y2="1024.0"/>
    <line stroke="rgb(0,255,0)" stroke-width="4" x1="696.0" x2="864.0" y1="1024.0" y2="1168.0"/>
    <line stroke="rgb(0,255,0)" stroke-width="4" x1="432.0" x2="864.0" y1="496.0" y2="496.0"/>
    <line stroke="rgb(0,255,0)" stroke-width="4" x1="432.0" x2="112.0" y1="496.0" y2="608.0"/>
    <line stroke="rgb(0,255,0)" stroke-width="4" x1="432.0" x2="864.0" y1="192.0" y2="192.0"/>
    <line stroke="rgb(0,255,0)" stroke-width="4" x1="1568.0" x2="1568.0" y1="912.0" y2="384.0"/>
    <line stroke="rgb(0,255,0)" stroke-width="4" x1="1568.0" x2="1648.0" y1="912.0" y2="912.0"/>
    <line stroke="rgb(0,255,0)" stroke-width="4" x1="1784.0" x2="1648.0" y1="912.0" y2="912.0"/>
    <line stroke="rgb(0,255,0)" stroke-width="4" x1="1064.0" x2="1064.0" y1="1168.0" y2="896.0"/>
    <line stroke="rgb(0,255,0)" stroke-width="4" x1="1064.0" x2="1264.0" y1="1168.0" y2="1168.0"/>
    <line stroke="rgb(0,255,0)" stroke-width="4" x1="1064.0" x2="864.0" y1="1168.0" y2="1168.0"/>
    <line stroke="rgb(0,255,0)" stroke-width="4" x1="1064.0" x2="1064.0" y1="640.0" y2="384.0"/>
    <line stroke="rgb(0,255,0)" stroke-width="4" x1="1064.0" x2="1064.0" y1="640.0" y2="896.0"/>
    <line stroke="rgb(0,255,0)" stroke-width="4" x1="1064.0" x2="864.0" y1="640.0" y2="496.0"/>
    <line stroke="rgb(0,255,0)" stroke-width="4" x1="1120.0" x2="1376.0" y1="192.0" y2="192.0"/>
    <line stroke="rgb(0,255,0)" stroke-width="4" x1="1120.0" x2="1064.0" y1="192.0" y2="384.0"/>
    <line stroke="rgb(0,255,0)" stroke-width="4" x1="1120.0" x2="864.0" y1="192.0" y2="192.0"/>
    <line stroke="rgb(0,255,0)" stroke-width="4" x1="1648.0" x2="1568.0" y1="192.0" y2="384.0"/>
    <line stroke="rgb(0,255,0)" stroke-width="4" x1="1648.0" x2="1376.0" y1="192.0" y2="192.0"/>
    <line stroke="rgb(30,30,30)" stroke-linecap="round" stroke-width="12" x1="224.0" x2="0" y1="1440.0" y2="1440"/>
    <line stroke="rgb(30,30,30)" stroke-linecap="round" stroke-width="12" x1="528.0" x2="224.0" y1="1440.0" y2="1440.0"/>
    <line stroke="rgb(30,30,30)" stroke-linecap="round" stroke-width="12" x1="864.0" x2="528.0" y1="608.0" y2="608.0"/>
    <line stroke="rgb(30,30,30)" stroke-linecap="round" stroke-width="12" x1="1376.0" x2="1264.0" y1="384.0" y2="384.0"/>
    <line stroke="rgb(30,30,30)" stroke-linecap="round" stroke-width="12" x1="224.0" x2="0.0" y1="608.0" y2="608.0"/>
    <line stroke="white" stroke-width="12" x1="208.0" x2="112.0" y1="608.0" y2="608.0"/>
    <line stroke="rgb(0,0,0)" stroke-width="4" x1="208.0" x2="208.0" y1="608.0" y2="512.0"/>
    <path d="M112.0 608.0 A 96 96 -1 0,1 208.0 512.0" fill="none" stroke="black" stroke-width="2"/>
    <line stroke="rgb(30,30,30)" stroke-linecap="round" stroke-width="12" x1="528.0" x2="224.0" y1="608.0" y2="608.0"/>
    <line stroke="rgb(30,30,30)" stroke-linecap="round" stroke-width="12" x1="224.0" x2="224.0" y1="1440.0" y2="608.0"/>
    <line stroke="white" stroke-width="12" x1="224.0" x2="224.0" y1="624.0" y2="720.0"/>
    <line stroke="rgb(0,0,0)" stroke-width="4" x1="224.0" x2="320.0" y1="624.0" y2="624.0"/>
    <path d="M224.0 720.0 A 96 96 -1 0,0 320.0 624.0" fill="none" stroke="black" stroke-width="2"/>
    <line stroke="rgb(30,30,30)" stroke-linecap="round" stroke-width="12" x1="864.0" x2="0.0" y1="384.0" y2="384.0"/>
    <line stroke="rgb(30,30,30)" stroke-linecap="round" stroke-width="12" x1="1376.0" x2="1920" y1="0.0" y2="0"/>
    <line stroke="rgb(30,30,30)" stroke-linecap="round" stroke-width="12" x1="528.0" x2="528.0" y1="1440.0" y2="608.0"/>
    <line stroke="rgb(30,30,30)" stroke-linecap="round" stroke-width="12" x1="1376.0" x2="1376.0" y1="384.0" y2="0.0"/>
    <line stroke="white" stroke-width="12" x1="1376.0" x2="1376.0" y1="368.0" y2="272.0"/>
    <line stroke="rgb(0,0,0)" stroke-width="4" x1="1376.0" x2="1472.0" y1="368.0" y2="368.0"/>
    <path d="M1376.0 272.0 A 96 96 -1 0,1 1472.0 368.0" fill="none" stroke="black" stroke-width="2"/>
    <line stroke="rgb(30,30,30)" stroke-linecap="round" stroke-width="12" x1="864.0" x2="864.0" y1="608.0" y2="384.0"/>
    <line stroke="white" stroke-width="12" x1="864.0" x2="864.0" y1="400.0" y2="496.0"/>
    <line stroke="rgb(0,0,0)" stroke-width="4" x1="864.0" x2="960.0" y1="400.0" y2="400.0"/>
    <path d="M864.0 496.0 A 96 96 -1 0,0 960.0 400.0" fill="none" stroke="black" stroke-width="2"/>
    <line stroke="rgb(30,30,30)" stroke-linecap="round" stroke-width="12" x1="0" x2="0.0" y1="1440" y2="608.0"/>
    <line stroke="rgb(30,30,30)" stroke-linecap="round" stroke-width="12" x1="1264.0" x2="1264.0" y1="1440.0" y2="896.0"/>
    <line stroke="white" stroke-width="12" x1="1264.0" x2="1264.0" y1="1424.0" y2="1328.0"/>
    <line stroke="rgb(0,0,0)" stroke-width="4" x1="1264.0" x2="1360.0" y1="1424.0" y2="1424.0"/>
    <path d="M1264.0 1328.0 A 96 96 -1 0,1 1360.0 1424.0" fill="none" stroke="black" stroke-width="2"/>
    <line stroke="rgb(30,30,30)" stroke-linecap="round" stroke-width="12" x1="1264.0" x2="1264.0" y1="896.0" y2="384.0"/>
    <line stroke="rgb(30,30,30)" stroke-linecap="round" stroke-width="12" x1="864.0" x2="864.0" y1="1440.0" y2="896.0"/>
    <line stroke="white" stroke-width="12" x1="864.0" x2="864.0" y1="912.0" y2="1008.0"/>
    <line stroke="rgb(0,0,0)" stroke-width="4" x1="864.0" x2="960.0" y1="912.0" y2="912.0"/>
    <path d="M864.0 1008.0 A 96 96 -1 0,0 960.0 912.0" fill="none" stroke="black" stroke-width="2"/>
    <line stroke="rgb(30,30,30)" stroke-linecap="round" stroke-width="12" x1="864.0" x2="864.0" y1="896.0" y2="608.0"/>
    <line stroke="rgb(30,30,30)" stroke-linecap="round" stroke-width="12" x1="1920" x2="1920.0" y1="0" y2="384.0"/>
    <line stroke="rgb(30,30,30)" stroke-linecap="round" stroke-width="12" x1="1648.0" x2="1488.0" y1="1440.0" y2="1440.0"/>
    <line stroke="rgb(30,30,30)" stroke-linecap="round" stroke-width="12" x1="1920.0" x2="1648.0" y1="384.0" y2="384.0"/>
    <line stroke="rgb(30,30,30)" stroke-linecap="round" stroke-width="12" x1="1264.0" x2="864.0" y1="896.0" y2="896.0"/>
    <line stroke="white" stroke-width="12" x1="1248.0" x2="1152.0" y1="895.9999389648438" y2="895.9999389648438"/>
    <line stroke="rgb(0,0,0)" stroke-width="4" x1="1248.0" x2="1248.0" y1="895.9999389648438" y2="799.9999389648438"/>
    <path d="M1152.0 895.9999389648438 A 96 96 -1 0,1 1248.0 799.9999389648438" fill="none" stroke="black" stroke-width="2"/>
    <line stroke="rgb(30,30,30)" stroke-linecap="round" stroke-width="12" x1="864.0" x2="528.0" y1="1440.0" y2="1440.0"/>
    <line stroke="rgb(30,30,30)" stroke-linecap="round" stroke-width="12" x1="1648.0" x2="1488.0" y1="384.0" y2="384.0"/>
    <line stroke="white" stroke-width="12" x1="1632.0" x2="1536.0" y1="384.0" y2="384.0"/>
    <line stroke="rgb(0,0,0)" stroke-width="4" x1="1632.0" x2="1632.0" y1="384.0" y2="288.0"/>
    <path d="M1536.0 384.0 A 96 96 -1 0,1 1632.0 288.0" fill="none" stroke="black" stroke-width="2"/>
    <line stroke="rgb(30,30,30)" stroke-linecap="round" stroke-width="12" x1="864.0" x2="1376.0" y1="0.0" y2="0.0"/>
    <line stroke="rgb(30,30,30)" stroke-linecap="round" stroke-width="12" x1="1648.0" x2="1648.0" y1="1440.0" y2="384.0"/>
    <line stroke="white" stroke-width="12" x1="1648.0" x2="1648.0" y1="1424.0" y2="1328.0"/>
    <line stroke="rgb(0,0,0)" stroke-width="4" x1="1648.0" x2="1744.0" y1="1424.0" y2="1424.0"/>
    <path d="M1648.0 1328.0 A 96 96 -1 0,1 1744.0 1424.0" fill="none" stroke="black" stroke-width="2"/>
    <line stroke="rgb(30,30,30)" stroke-linecap="round" stroke-width="12" x1="0.0" x2="0.0" y1="608.0" y2="384.0"/>
    <line stroke="rgb(30,30,30)" stroke-linecap="round" stroke-width="12" x1="0" x2="864.0" y1="0" y2="0.0"/>
    <line stroke="rgb(30,30,30)" stroke-linecap="round" stroke-width="12" x1="1488.0" x2="1488.0" y1="1440.0" y2="384.0"/>
    <line stroke="rgb(30,30,30)" stroke-linecap="round" stroke-width="12" x1="1920.0" x2="1920" y1="384.0" y2="1440"/>
    <line stroke="rgb(30,30,30)" stroke-linecap="round" stroke-width="12" x1="0.0" x2="0" y1="384.0" y2="0"/>
    <line stroke="rgb(30,30,30)" stroke-linecap="round" stroke-width="12" x1="864.0" x2="864.0" y1="384.0" y2="0.0"/>
    <line stroke="white" stroke-width="12" x1="864.0" x2="864.0" y1="368.0" y2="272.0"/>
    <line stroke="rgb(0,0,0)" stroke-width="4" x1="864.0" x2="960.0" y1="368.0" y2="368.0"/>
    <path d="M864.0 272.0 A 96 96 -1 0,1 960.0 368.0" fill="none" stroke="black" stroke-width="2"/>
    <line stroke="rgb(30,30,30)" stroke-linecap="round" stroke-width="12" x1="1264.0" x2="864.0" y1="1440.0" y2="1440.0"/>
    <line stroke="rgb(30,30,30)" stroke-linecap="round" stroke-width="12" x1="1264.0" x2="864.0" y1="384.0" y2="384.0"/>
    <line stroke="white" stroke-width="12" x1="1248.0" x2="1152.0" y1="384.0" y2="384.0"/>
    <line stroke="rgb(0,0,0)" stroke-width="4" x1="1248.0" x2="1248.0" y1="384.0" y2="288.0"/>
    <path d="M1152.0 384.0 A 96 96 -1 0,1 1248.0 288.0" fill="none" stroke="black" stroke-width="2"/>
    <line stroke="rgb(30,30,30)" stroke-linecap="round" stroke-width="12" x1="1920" x2="1648.0" y1="1440" y2="1440.0"/>
    <line stroke="rgb(30,30,30)" stroke-linecap="round" stroke-width="12" x1="1488.0" x2="1376.0" y1="384.0" y2="384.0"/>
    <line stroke="rgb(30,30,30)" stroke-linecap="round" stroke-width="12" x1="1488.0" x2="1264.0" y1="1440.0" y2="1440.0"/>
    <text style="font-family: sans-serif; font-size: 20pt" text-anchor="middle" x="112.0" y="1024.0">728.0</text>
    <text style="font-family: sans-serif; font-size: 20pt" text-anchor="middle" x="1376.0" y="912.0">924.0</text>
    <text style="font-family: sans-serif; font-size: 20pt" text-anchor="middle" x="376.0" y="1024.0">988.0</text>
    <text style="font-family: sans-serif; font-size: 20pt" text-anchor="middle" x="696.0" y="1024.0">1092.0</text>
    <text style="font-family: sans-serif; font-size: 20pt" text-anchor="middle" x="432.0" y="496.0">756.0</text>
    <text style="font-family: sans-serif; font-size: 20pt" text-anchor="middle" x="432.0" y="192.0">1296.0</text>
    <text style="font-family: sans-serif; font-size: 20pt" text-anchor="middle" x="1568.0" y="912.0">660.0</text>
    <text style="font-family: sans-serif; font-size: 20pt" text-anchor="middle" x="1784.0" y="912.0">1122.0</text>
    <text style="font-family: sans-serif; font-size: 20pt" text-anchor="middle" x="1064.0" y="1168.0">850.0</text>
    <text style="font-family: sans-serif; font-size: 20pt" text-anchor="middle" x="1064.0" y="640.0">800.0</text>
    <text style="font-family: sans-serif; font-size: 20pt" text-anchor="middle" x="1120.0" y="192.0">768.0</text>
    <text style="font-family: sans-serif; font-size: 20pt" text-anchor="middle" x="1648.0" y="192.0">816.0</text>
  </g>
</svg>
