<?xml version="1.0" encoding="utf-8" ?>
<svg baseProfile="full" height="100%" version="1.1" width="100%" xmlns="http://www.w3.org/2000/svg" xmlns:ev="http://www.w3.org/2001/xml-events" xmlns:xlink="http://www.w3.org/1999/xlink">
  <defs/>
  <g transform="translate(32,32)">
    <line stroke="rgb(0,255,0)" stroke-width="4" x1="400.0" x2="400.0" y1="664.0" y2="624.0"/>
    <line stroke="rgb(0,255,0)" stroke-width="4" x1="400.0" x2="648.0" y1="664.0" y2="704.0"/>
    <line stroke="rgb(0,255,0)" stroke-width="4" x1="400.0" x2="248.0" y1="664.0" y2="704.0"/>
    <line stroke="rgb(0,255,0)" stroke-width="4" x1="400.0" x2="200.0" y1="560.0" y2="496.0"/>
    <line stroke="rgb(0,255,0)" stroke-width="4" x1="400.0" x2="600.0" y1="560.0" y2="496.0"/>
    <line stroke="rgb(0,255,0)" stroke-width="4" x1="400.0" x2="400.0" y1="560.0" y2="624.0"/>
    <line stroke="rgb(0,255,0)" stroke-width="4" x1="248.0" x2="248.0" y1="864.0" y2="704.0"/>
    <line stroke="rgb(0,255,0)" stroke-width="4" x1="248.0" x2="224.0" y1="864.0" y2="1024.0"/>
    <line stroke="rgb(0,255,0)" stroke-width="4" x1="648.0" x2="648.0" y1="864.0" y2="704.0"/>
    <line stroke="rgb(0,255,0)" stroke-width="4" x1="648.0" x2="648.0" y1="864.0" y2="1024.0"/>
    <line stroke="rgb(0,255,0)" stroke-width="4" x1="400.0" x2="400.0" y1="200.0" y2="112.0"/>
    <line stroke="rgb(0,255,0)" stroke-width="4" x1="400.0" x2="200.0" y1="200.0" y2="288.0"/>
    <line stroke="rgb(0,255,0)" stroke-width="4" x1="400.0" x2="400.0" y1="56.0" y2="112.0"/>
    <line stroke="rgb(0,255,0)" stroke-width="4" x1="224.0" x2="224.0" y1="1152.0" y2="1024.0"/>
    <line stroke="rgb(0,255,0)" stroke-width="4" x1="624.0" x2="648.0" y1="1152.0" y2="1024.0"/>
    <line stroke="rgb(0,255,0)" stroke-width="4" x1="200.0" x2="200.0" y1="392.0" y2="288.0"/>
    <line stroke="rgb(0,255,0)" stroke-width="4" x1="200.0" x2="200.0" y1="392.0" y2="496.0"/>
    <line stroke="rgb(0,255,0)" stroke-width="4" x1="600.0" x2="600.0" y1="392.0" y2="496.0"/>
    <line stroke="rgb(30,30,30)" stroke-linecap="round" stroke-width="12" x1="400.0" x2="0.0" y1="496.0" y2="496.0"/>
    <circle cx="88.07330322265625" cy="496.0" fill="yellowgreen" r="16" stroke="yellowgreen" stroke-width="1"/>
    <circle cx="88.07330322265625" cy="496.0" fill="red" r="8" stroke="red" stroke-width="1"/>
    <circle cx="184.07330322265625" cy="496.0" fill="yellow" r="8" stroke="yellow" stroke-width="1"/>
    <circle cx="88.07330322265625" cy="400.0" fill="blue" r="16" stroke="blue" stroke-width="1"/>
    <line stroke="rgb(0,0,0)" stroke-width="4" x1="88.07330322265625" x2="88.07330322265625" y1="496.0" y2="400.0"/>
    <line stroke="rgb(30,30,30)" stroke-linecap="round" stroke-width="12" x1="800.0" x2="400.0" y1="288.0" y2="288.0"/>
    <line stroke="rgb(30,30,30)" stroke-linecap="round" stroke-width="12" x1="400.0" x2="0.0" y1="288.0" y2="288.0"/>
    <circle cx="269.50628662109375" cy="288.0" fill="yellowgreen" r="16" stroke="yellowgreen" stroke-width="1"/>
    <circle cx="269.50628662109375" cy="288.0" fill="red" r="8" stroke="red" stroke-width="1"/>
    <circle cx="365.50628662109375" cy="288.0" fill="yellow" r="8" stroke="yellow" stroke-width="1"/>
    <circle cx="269.50628662109375" cy="192.0" fill="blue" r="16" stroke="blue" stroke-width="1"/>
    <line stroke="rgb(0,0,0)" stroke-width="4" x1="269.50628662109375" x2="269.50628662109375" y1="288.0" y2="192.0"/>
    <line stroke="rgb(30,30,30)" stroke-linecap="round" stroke-width="12" x1="400.0" x2="400.0" y1="496.0" y2="288.0"/>
    <line stroke="rgb(30,30,30)" stroke-linecap="round" stroke-width="12" x1="800.0" x2="800.0" y1="624.0" y2="704.0"/>
    <line stroke="rgb(30,30,30)" stroke-linecap="round" stroke-width="12" x1="800.0" x2="800" y1="1024.0" y2="1280"/>
    <line stroke="rgb(30,30,30)" stroke-linecap="round" stroke-width="12" x1="800.0" x2="496.0" y1="704.0" y2="704.0"/>
    <circle cx="533.875" cy="704.0" fill="yellowgreen" r="16" stroke="yellowgreen" stroke-width="1"/>
    <circle cx="533.875" cy="704.0" fill="red" r="8" stroke="red" stroke-width="1"/>
    <circle cx="629.875" cy="704.0" fill="yellow" r="8" stroke="yellow" stroke-width="1"/>
    <circle cx="533.875" cy="608.0" fill="blue" r="16" stroke="blue" stroke-width="1"/>
    <line stroke="rgb(0,0,0)" stroke-width="4" x1="533.875" x2="533.875" y1="704.0" y2="608.0"/>
    <line stroke="rgb(30,30,30)" stroke-linecap="round" stroke-width="12" x1="0" x2="0.0" y1="1280" y2="1024.0"/>
    <line stroke="rgb(30,30,30)" stroke-linecap="round" stroke-width="12" x1="496.0" x2="0.0" y1="704.0" y2="704.0"/>
    <circle cx="281.97991943359375" cy="704.0" fill="yellowgreen" r="16" stroke="yellowgreen" stroke-width="1"/>
    <circle cx="281.97991943359375" cy="704.0" fill="red" r="8" stroke="red" stroke-width="1"/>
    <circle cx="377.97991943359375" cy="704.0" fill="yellow" r="8" stroke="yellow" stroke-width="1"/>
    <circle cx="281.97991943359375" cy="608.0" fill="blue" r="16" stroke="blue" stroke-width="1"/>
    <line stroke="rgb(0,0,0)" stroke-width="4" x1="281.97991943359375" x2="281.97991943359375" y1="704.0" y2="608.0"/>
    <line stroke="rgb(30,30,30)" stroke-linecap="round" stroke-width="12" x1="448.0" x2="0" y1="1280.0" y2="1280"/>
    <line stroke="rgb(30,30,30)" stroke-linecap="round" stroke-width="12" x1="496.0" x2="496.0" y1="1024.0" y2="704.0"/>
    <line stroke="rgb(30,30,30)" stroke-linecap="round" stroke-width="12" x1="496.0" x2="448.0" y1="1024.0" y2="1024.0"/>
    <line stroke="rgb(30,30,30)" stroke-linecap="round" stroke-width="12" x1="800" x2="800.0" y1="0" y2="112.0"/>
    <line stroke="rgb(30,30,30)" stroke-linecap="round" stroke-width="12" x1="448.0" x2="0.0" y1="1024.0" y2="1024.0"/>
    <circle cx="118.52821350097656" cy="1024.0" fill="yellowgreen" r="16" stroke="yellowgreen" stroke-width="1"/>
    <circle cx="118.52821350097656" cy="1024.0" fill="red" r="8" stroke="red" stroke-width="1"/>
    <circle cx="214.52821350097656" cy="1024.0" fill="yellow" r="8" stroke="yellow" stroke-width="1"/>
    <circle cx="118.52821350097656" cy="928.0" fill="blue" r="16" stroke="blue" stroke-width="1"/>
    <line stroke="rgb(0,0,0)" stroke-width="4" x1="118.52821350097656" x2="118.52821350097656" y1="1024.0" y2="928.0"/>
    <line stroke="rgb(30,30,30)" stroke-linecap="round" stroke-width="12" x1="800.0" x2="800.0" y1="288.0" y2="496.0"/>
    <line stroke="rgb(30,30,30)" stroke-linecap="round" stroke-width="12" x1="800.0" x2="0.0" y1="624.0" y2="624.0"/>
    <circle cx="255.10623168945312" cy="624.0" fill="yellowgreen" r="16" stroke="yellowgreen" stroke-width="1"/>
    <circle cx="255.10623168945312" cy="624.0" fill="red" r="8" stroke="red" stroke-width="1"/>
    <circle cx="351.1062316894531" cy="624.0" fill="yellow" r="8" stroke="yellow" stroke-width="1"/>
    <circle cx="255.10623168945312" cy="528.0" fill="blue" r="16" stroke="blue" stroke-width="1"/>
    <line stroke="rgb(0,0,0)" stroke-width="4" x1="255.10623168945312" x2="255.10623168945312" y1="624.0" y2="528.0"/>
    <line stroke="rgb(30,30,30)" stroke-linecap="round" stroke-width="12" x1="800.0" x2="800.0" y1="704.0" y2="1024.0"/>
    <line stroke="rgb(30,30,30)" stroke-linecap="round" stroke-width="12" x1="448.0" x2="448.0" y1="1280.0" y2="1024.0"/>
    <line stroke="rgb(30,30,30)" stroke-linecap="round" stroke-width="12" x1="0.0" x2="0.0" y1="1024.0" y2="704.0"/>
    <line stroke="rgb(30,30,30)" stroke-linecap="round" stroke-width="12" x1="0.0" x2="0.0" y1="704.0" y2="624.0"/>
    <line stroke="rgb(30,30,30)" stroke-linecap="round" stroke-width="12" x1="800.0" x2="400.0" y1="496.0" y2="496.0"/>
    <circle cx="597.6566772460938" cy="496.0" fill="yellowgreen" r="16" stroke="yellowgreen" stroke-width="1"/>
    <circle cx="597.6566772460938" cy="496.0" fill="red" r="8" stroke="red" stroke-width="1"/>
    <circle cx="693.6566772460938" cy="496.0" fill="yellow" r="8" stroke="yellow" stroke-width="1"/>
    <circle cx="597.6566772460938" cy="400.0" fill="blue" r="16" stroke="blue" stroke-width="1"/>
    <line stroke="rgb(0,0,0)" stroke-width="4" x1="597.6566772460938" x2="597.6566772460938" y1="496.0" y2="400.0"/>
    <line stroke="rgb(30,30,30)" stroke-linecap="round" stroke-width="12" x1="800.0" x2="800.0" y1="112.0" y2="288.0"/>
    <line stroke="rgb(30,30,30)" stroke-linecap="round" stroke-width="12" x1="0.0" x2="0.0" y1="288.0" y2="112.0"/>
    <line stroke="rgb(30,30,30)" stroke-linecap="round" stroke-width="12" x1="0.0" x2="0" y1="112.0" y2="0"/>
    <line stroke="rgb(30,30,30)" stroke-linecap="round" stroke-width="12" x1="800.0" x2="800.0" y1="496.0" y2="624.0"/>
    <line stroke="rgb(30,30,30)" stroke-linecap="round" stroke-width="12" x1="800.0" x2="496.0" y1="1024.0" y2="1024.0"/>
    <circle cx="671.4188232421875" cy="1024.0" fill="yellowgreen" r="16" stroke="yellowgreen" stroke-width="1"/>
    <circle cx="671.4188232421875" cy="1024.0" fill="red" r="8" stroke="red" stroke-width="1"/>
    <circle cx="767.4188232421875" cy="1024.0" fill="yellow" r="8" stroke="yellow" stroke-width="1"/>
    <circle cx="671.4188232421875" cy="928.0" fill="blue" r="16" stroke="blue" stroke-width="1"/>
    <line stroke="rgb(0,0,0)" stroke-width="4" x1="671.4188232421875" x2="671.4188232421875" y1="1024.0" y2="928.0"/>
    <line stroke="rgb(30,30,30)" stroke-linecap="round" stroke-width="12" x1="800.0" x2="0.0" y1="112.0" y2="112.0"/>
    <circle cx="586.2711181640625" cy="112.0" fill="yellowgreen" r="16" stroke="yellowgreen" stroke-width="1"/>
    <circle cx="586.2711181640625" cy="112.0" fill="red" r="8" stroke="red" stroke-width="1"/>
    <circle cx="682.2711181640625" cy="112.0" fill="yellow" r="8" stroke="yellow" stroke-width="1"/>
    <circle cx="586.2711181640625" cy="16.0" fill="blue" r="16" stroke="blue" stroke-width="1"/>
    <line stroke="rgb(0,0,0)" stroke-width="4" x1="586.2711181640625" x2="586.2711181640625" y1="112.0" y2="16.0"/>
    <line stroke="rgb(30,30,30)" stroke-linecap="round" stroke-width="12" x1="0.0" x2="0.0" y1="624.0" y2="496.0"/>
    <line stroke="rgb(30,30,30)" stroke-linecap="round" stroke-width="12" x1="0.0" x2="0.0" y1="496.0" y2="288.0"/>
    <line stroke="rgb(30,30,30)" stroke-linecap="round" stroke-width="12" x1="800" x2="448.0" y1="1280" y2="1280.0"/>
    <line stroke="rgb(30,30,30)" stroke-linecap="round" stroke-width="12" x1="0" x2="800" y1="0" y2="0"/>
    <text style="font-family: sans-serif; font-size: 20pt" text-anchor="middle" x="400.0" y="664.0">250.0</text>
    <text style="font-family: sans-serif; font-size: 20pt" text-anchor="middle" x="400.0" y="560.0">400.0</text>
    <text style="font-family: sans-serif; font-size: 20pt" text-anchor="middle" x="248.0" y="864.0">620.0</text>
    <text style="font-family: sans-serif; font-size: 20pt" text-anchor="middle" x="648.0" y="864.0">380.0</text>
    <text style="font-family: sans-serif; font-size: 20pt" text-anchor="middle" x="400.0" y="200.0">550.0</text>
    <text style="font-family: sans-serif; font-size: 20pt" text-anchor="middle" x="400.0" y="56.0">350.0</text>
    <text style="font-family: sans-serif; font-size: 20pt" text-anchor="middle" x="224.0" y="1152.0">448.0</text>
    <text style="font-family: sans-serif; font-size: 20pt" text-anchor="middle" x="624.0" y="1152.0">352.0</text>
    <text style="font-family: sans-serif; font-size: 20pt" text-anchor="middle" x="200.0" y="392.0">325.0</text>
    <text style="font-family: sans-serif; font-size: 20pt" text-anchor="middle" x="600.0" y="392.0">325.0</text>
  </g>
</svg>
