<?xml version="1.0" encoding="utf-8" ?>
<svg baseProfile="full" height="100%" version="1.1" width="100%" xmlns="http://www.w3.org/2000/svg" xmlns:ev="http://www.w3.org/2001/xml-events" xmlns:xlink="http://www.w3.org/1999/xlink">
  <defs/>
  <g transform="translate(32,32)">
    <line stroke="rgb(0,255,0)" stroke-width="4" x1="1136.0" x2="1136.0" y1="800.0" y2="640.0"/>
    <line stroke="rgb(0,255,0)" stroke-width="4" x1="872.0" x2="872.0" y1="800.0" y2="640.0"/>
    <line stroke="rgb(0,255,0)" stroke-width="4" x1="184.0" x2="368.0" y1="800.0" y2="800.0"/>
    <line stroke="rgb(0,255,0)" stroke-width="4" x1="560.0" x2="608.0" y1="800.0" y2="640.0"/>
    <line stroke="rgb(0,255,0)" stroke-width="4" x1="560.0" x2="368.0" y1="800.0" y2="800.0"/>
    <line stroke="rgb(0,255,0)" stroke-width="4" x1="232.0" x2="464.0" y1="320.0" y2="320.0"/>
    <line stroke="rgb(0,255,0)" stroke-width="4" x1="872.0" x2="1280.0" y1="320.0" y2="320.0"/>
    <line stroke="rgb(0,255,0)" stroke-width="4" x1="872.0" x2="1136.0" y1="320.0" y2="640.0"/>
    <line stroke="rgb(0,255,0)" stroke-width="4" x1="872.0" x2="872.0" y1="320.0" y2="640.0"/>
    <line stroke="rgb(0,255,0)" stroke-width="4" x1="872.0" x2="608.0" y1="320.0" y2="640.0"/>
    <line stroke="rgb(0,255,0)" stroke-width="4" x1="872.0" x2="464.0" y1="320.0" y2="320.0"/>
    <line stroke="rgb(30,30,30)" stroke-linecap="round" stroke-width="12" x1="464.0" x2="464.0" y1="640.0" y2="0.0"/>
    <line stroke="white" stroke-width="12" x1="463.9999694824219" x2="463.9999694824219" y1="16.0" y2="112.0"/>
    <line stroke="rgb(0,0,0)" stroke-width="4" x1="463.9999694824219" x2="560.0" y1="16.0" y2="16.0"/>
    <path d="M463.9999694824219 112.0 A 96 96 -1 0,0 560.0 16.0" fill="none" stroke="black" stroke-width="2"/>
    <line stroke="rgb(30,30,30)" stroke-linecap="round" stroke-width="12" x1="368.0" x2="0.0" y1="640.0" y2="640.0"/>
    <line stroke="rgb(30,30,30)" stroke-linecap="round" stroke-width="12" x1="992.0" x2="752.0" y1="960.0" y2="960.0"/>
    <line stroke="rgb(30,30,30)" stroke-linecap="round" stroke-width="12" x1="1280.0" x2="1280" y1="640.0" y2="960"/>
    <line stroke="rgb(30,30,30)" stroke-linecap="round" stroke-width="12" x1="464.0" x2="1280" y1="0.0" y2="0"/>
    <line stroke="rgb(30,30,30)" stroke-linecap="round" stroke-width="12" x1="752.0" x2="368.0" y1="960.0" y2="960.0"/>
    <line stroke="rgb(30,30,30)" stroke-linecap="round" stroke-width="12" x1="992.0" x2="752.0" y1="640.0" y2="640.0"/>
    <line stroke="white" stroke-width="12" x1="976.0" x2="880.0" y1="640.0" y2="640.0"/>
    <line stroke="rgb(0,0,0)" stroke-width="4" x1="976.0" x2="976.0" y1="640.0" y2="544.0"/>
    <path d="M880.0 640.0 A 96 96 -1 0,1 976.0 544.0" fill="none" stroke="black" stroke-width="2"/>
    <line stroke="rgb(30,30,30)" stroke-linecap="round" stroke-width="12" x1="1280" x2="1280.0" y1="0" y2="640.0"/>
    <line stroke="white" stroke-width="12" x1="1280.0" x2="1280.0" y1="624.0" y2="528.0"/>
    <line stroke="rgb(0,0,0)" stroke-width="4" x1="1280.0" x2="1184.0" y1="624.0" y2="624.0"/>
    <path d="M1280.0 528.0 A 96 96 -1 0,0 1184.0 624.0" fill="none" stroke="black" stroke-width="2"/>
    <line stroke="rgb(30,30,30)" stroke-linecap="round" stroke-width="12" x1="0" x2="0.0" y1="960" y2="640.0"/>
    <line stroke="rgb(30,30,30)" stroke-linecap="round" stroke-width="12" x1="0.0" x2="0" y1="640.0" y2="0"/>
    <line stroke="rgb(30,30,30)" stroke-linecap="round" stroke-width="12" x1="752.0" x2="752.0" y1="960.0" y2="640.0"/>
    <line stroke="rgb(30,30,30)" stroke-linecap="round" stroke-width="12" x1="368.0" x2="368.0" y1="960.0" y2="640.0"/>
    <line stroke="white" stroke-width="12" x1="368.0" x2="368.0" y1="656.0" y2="752.0"/>
    <line stroke="rgb(0,0,0)" stroke-width="4" x1="368.0" x2="464.0" y1="656.0" y2="656.0"/>
    <path d="M368.0 752.0 A 96 96 -1 0,0 464.0 656.0" fill="none" stroke="black" stroke-width="2"/>
    <line stroke="rgb(30,30,30)" stroke-linecap="round" stroke-width="12" x1="464.0" x2="368.0" y1="640.0" y2="640.0"/>
    <line stroke="rgb(30,30,30)" stroke-linecap="round" stroke-width="12" x1="368.0" x2="0" y1="960.0" y2="960"/>
    <line stroke="rgb(30,30,30)" stroke-linecap="round" stroke-width="12" x1="1280.0" x2="992.0" y1="640.0" y2="640.0"/>
    <line stroke="white" stroke-width="12" x1="1264.0" x2="1168.0" y1="640.0" y2="640.0"/>
    <line stroke="rgb(0,0,0)" stroke-width="4" x1="1264.0" x2="1264.0" y1="640.0" y2="544.0"/>
    <path d="M1168.0 640.0 A 96 96 -1 0,1 1264.0 544.0" fill="none" stroke="black" stroke-width="2"/>
    <line stroke="rgb(30,30,30)" stroke-linecap="round" stroke-width="12" x1="1280" x2="992.0" y1="960" y2="960.0"/>
    <line stroke="rgb(30,30,30)" stroke-linecap="round" stroke-width="12" x1="752.0" x2="464.0" y1="640.0" y2="640.0"/>
    <line stroke="white" stroke-width="12" x1="736.0" x2="640.0" y1="640.0" y2="640.0"/>
    <line stroke="rgb(0,0,0)" stroke-width="4" x1="736.0" x2="736.0" y1="640.0" y2="544.0"/>
    <path d="M640.0 640.0 A 96 96 -1 0,1 736.0 544.0" fill="none" stroke="black" stroke-width="2"/>
    <line stroke="rgb(30,30,30)" stroke-linecap="round" stroke-width="12" x1="992.0" x2="992.0" y1="960.0" y2="640.0"/>
    <line stroke="rgb(30,30,30)" stroke-linecap="round" stroke-width="12" x1="0" x2="464.0" y1="0" y2="0.0"/>
    <text style="font-family: sans-serif; font-size: 20pt" text-anchor="middle" x="1136.0" y="800.0">BATH_725 360.0</text>
    <text style="font-family: sans-serif; font-size: 20pt" text-anchor="middle" x="872.0" y="800.0">BATH_240 300.0</text>
    <text style="font-family: sans-serif; font-size: 20pt" text-anchor="middle" x="184.0" y="800.0">BEDROOM_969 460.0</text>
    <text style="font-family: sans-serif; font-size: 20pt" text-anchor="middle" x="560.0" y="800.0">BEDROOM_639 480.0</text>
    <text style="font-family: sans-serif; font-size: 20pt" text-anchor="middle" x="232.0" y="320.0">BEDROOM_591 1160.0</text>
    <text style="font-family: sans-serif; font-size: 20pt" text-anchor="middle" x="872.0" y="320.0">LIVING_790 2040.0</text>
  </g>
</svg>
