<?xml version="1.0" encoding="utf-8" ?>
<svg baseProfile="full" height="100%" version="1.1" width="100%" xmlns="http://www.w3.org/2000/svg" xmlns:ev="http://www.w3.org/2001/xml-events" xmlns:xlink="http://www.w3.org/1999/xlink">
  <defs/>
  <g transform="translate(32,32)">
    <line stroke="rgb(0,255,0)" stroke-width="4" x1="576.0" x2="656.0" y1="640.0" y2="640.0"/>
    <line stroke="rgb(0,255,0)" stroke-width="4" x1="576.0" x2="496.0" y1="640.0" y2="640.0"/>
    <line stroke="rgb(0,255,0)" stroke-width="4" x1="728.0" x2="656.0" y1="640.0" y2="640.0"/>
    <line stroke="rgb(0,255,0)" stroke-width="4" x1="296.0" x2="368.0" y1="640.0" y2="640.0"/>
    <line stroke="rgb(0,255,0)" stroke-width="4" x1="296.0" x2="224.0" y1="640.0" y2="960.0"/>
    <line stroke="rgb(0,255,0)" stroke-width="4" x1="296.0" x2="224.0" y1="640.0" y2="320.0"/>
    <line stroke="rgb(0,255,0)" stroke-width="4" x1="432.0" x2="496.0" y1="640.0" y2="640.0"/>
    <line stroke="rgb(0,255,0)" stroke-width="4" x1="432.0" x2="368.0" y1="640.0" y2="640.0"/>
    <line stroke="rgb(0,255,0)" stroke-width="4" x1="112.0" x2="224.0" y1="960.0" y2="960.0"/>
    <line stroke="rgb(0,255,0)" stroke-width="4" x1="112.0" x2="224.0" y1="320.0" y2="320.0"/>
    <line stroke="rgb(30,30,30)" stroke-linecap="round" stroke-width="12" x1="368.0" x2="368.0" y1="1280.0" y2="0.0"/>
    <line stroke="white" stroke-width="12" x1="368.0" x2="368.0" y1="1143.794189453125" y2="1239.794189453125"/>
    <line stroke="rgb(0,0,0)" stroke-width="4" x1="368.0" x2="464.0" y1="1143.794189453125" y2="1143.794189453125"/>
    <path d="M368.0 1239.794189453125 A 96 96 -1 0,0 464.0 1143.794189453125" fill="none" stroke="black" stroke-width="2"/>
    <line stroke="rgb(30,30,30)" stroke-linecap="round" stroke-width="12" x1="496.0" x2="496.0" y1="1280.0" y2="0.0"/>
    <line stroke="white" stroke-width="12" x1="496.0" x2="496.0" y1="943.9179077148438" y2="847.9179077148438"/>
    <line stroke="rgb(0,0,0)" stroke-width="4" x1="496.0" x2="592.0" y1="943.9179077148438" y2="943.9179077148438"/>
    <path d="M496.0 847.9179077148438 A 96 96 -1 0,1 592.0 943.9179077148438" fill="none" stroke="black" stroke-width="2"/>
    <line stroke="rgb(30,30,30)" stroke-linecap="round" stroke-width="12" x1="496.0" x2="368.0" y1="1280.0" y2="1280.0"/>
    <line stroke="rgb(30,30,30)" stroke-linecap="round" stroke-width="12" x1="224.0" x2="224.0" y1="640.0" y2="0.0"/>
    <line stroke="white" stroke-width="12" x1="224.0" x2="224.0" y1="464.9244384765625" y2="560.9244384765625"/>
    <line stroke="rgb(0,0,0)" stroke-width="4" x1="224.0" x2="320.0" y1="464.9244384765625" y2="464.9244384765625"/>
    <path d="M224.0 560.9244384765625 A 96 96 -1 0,0 320.0 464.9244384765625" fill="none" stroke="black" stroke-width="2"/>
    <line stroke="rgb(30,30,30)" stroke-linecap="round" stroke-width="12" x1="0" x2="0.0" y1="1280" y2="640.0"/>
    <line stroke="rgb(30,30,30)" stroke-linecap="round" stroke-width="12" x1="0.0" x2="0" y1="640.0" y2="0"/>
    <line stroke="rgb(30,30,30)" stroke-linecap="round" stroke-width="12" x1="656.0" x2="496.0" y1="1280.0" y2="1280.0"/>
    <line stroke="rgb(30,30,30)" stroke-linecap="round" stroke-width="12" x1="800" x2="800" y1="0" y2="1280"/>
    <line stroke="rgb(30,30,30)" stroke-linecap="round" stroke-width="12" x1="224.0" x2="0.0" y1="640.0" y2="640.0"/>
    <line stroke="rgb(30,30,30)" stroke-linecap="round" stroke-width="12" x1="496.0" x2="656.0" y1="0.0" y2="0.0"/>
    <line stroke="rgb(30,30,30)" stroke-linecap="round" stroke-width="12" x1="224.0" x2="224.0" y1="1280.0" y2="640.0"/>
    <line stroke="white" stroke-width="12" x1="223.99998474121094" x2="223.99998474121094" y1="960.229248046875" y2="1056.229248046875"/>
    <line stroke="rgb(0,0,0)" stroke-width="4" x1="223.99998474121094" x2="320.0" y1="960.229248046875" y2="960.229248046875"/>
    <path d="M223.99998474121094 1056.229248046875 A 96 96 -1 0,0 320.0 960.229248046875" fill="none" stroke="black" stroke-width="2"/>
    <line stroke="rgb(30,30,30)" stroke-linecap="round" stroke-width="12" x1="224.0" x2="0" y1="1280.0" y2="1280"/>
    <line stroke="rgb(30,30,30)" stroke-linecap="round" stroke-width="12" x1="0" x2="224.0" y1="0" y2="0.0"/>
    <line stroke="rgb(30,30,30)" stroke-linecap="round" stroke-width="12" x1="656.0" x2="800" y1="0.0" y2="0"/>
    <line stroke="rgb(30,30,30)" stroke-linecap="round" stroke-width="12" x1="368.0" x2="224.0" y1="1280.0" y2="1280.0"/>
    <line stroke="rgb(30,30,30)" stroke-linecap="round" stroke-width="12" x1="656.0" x2="656.0" y1="1280.0" y2="0.0"/>
    <line stroke="white" stroke-width="12" x1="656.0" x2="656.0" y1="1193.305908203125" y2="1097.305908203125"/>
    <line stroke="rgb(0,0,0)" stroke-width="4" x1="656.0" x2="752.0" y1="1193.305908203125" y2="1193.305908203125"/>
    <path d="M656.0 1097.305908203125 A 96 96 -1 0,1 752.0 1193.305908203125" fill="none" stroke="black" stroke-width="2"/>
    <line stroke="rgb(30,30,30)" stroke-linecap="round" stroke-width="12" x1="368.0" x2="496.0" y1="0.0" y2="0.0"/>
    <line stroke="rgb(30,30,30)" stroke-linecap="round" stroke-width="12" x1="224.0" x2="368.0" y1="0.0" y2="0.0"/>
    <line stroke="rgb(30,30,30)" stroke-linecap="round" stroke-width="12" x1="800" x2="656.0" y1="1280" y2="1280.0"/>
    <text style="font-family: sans-serif; font-size: 20pt" text-anchor="middle" x="576.0" y="640.0">800.0</text>
    <text style="font-family: sans-serif; font-size: 20pt" text-anchor="middle" x="728.0" y="640.0">720.0</text>
    <text style="font-family: sans-serif; font-size: 20pt" text-anchor="middle" x="296.0" y="640.0">720.0</text>
    <text style="font-family: sans-serif; font-size: 20pt" text-anchor="middle" x="432.0" y="640.0">640.0</text>
    <text style="font-family: sans-serif; font-size: 20pt" text-anchor="middle" x="112.0" y="960.0">560.0</text>
    <text style="font-family: sans-serif; font-size: 20pt" text-anchor="middle" x="112.0" y="320.0">560.0</text>
  </g>
</svg>
