<?xml version="1.0" encoding="utf-8" ?>
<svg baseProfile="full" height="100%" version="1.1" width="100%" xmlns="http://www.w3.org/2000/svg" xmlns:ev="http://www.w3.org/2001/xml-events" xmlns:xlink="http://www.w3.org/1999/xlink">
  <defs/>
  <g transform="translate(32,32)">
    <line stroke="rgb(0,255,0)" stroke-width="4" x1="1152.0" x2="1152.0" y1="824.0" y2="688.0"/>
    <line stroke="rgb(0,255,0)" stroke-width="4" x1="256.0" x2="256.0" y1="824.0" y2="688.0"/>
    <line stroke="rgb(0,255,0)" stroke-width="4" x1="768.0" x2="768.0" y1="824.0" y2="688.0"/>
    <line stroke="rgb(0,255,0)" stroke-width="4" x1="640.0" x2="128.0" y1="584.0" y2="480.0"/>
    <line stroke="rgb(0,255,0)" stroke-width="4" x1="640.0" x2="1024.0" y1="584.0" y2="480.0"/>
    <line stroke="rgb(0,255,0)" stroke-width="4" x1="640.0" x2="1152.0" y1="584.0" y2="688.0"/>
    <line stroke="rgb(0,255,0)" stroke-width="4" x1="640.0" x2="768.0" y1="584.0" y2="688.0"/>
    <line stroke="rgb(0,255,0)" stroke-width="4" x1="640.0" x2="256.0" y1="584.0" y2="688.0"/>
    <line stroke="rgb(0,255,0)" stroke-width="4" x1="640.0" x2="0.0" y1="584.0" y2="584.0"/>
    <line stroke="rgb(0,255,0)" stroke-width="4" x1="640.0" x2="1280.0" y1="104.0" y2="104.0"/>
    <line stroke="rgb(0,255,0)" stroke-width="4" x1="640.0" x2="1024.0" y1="104.0" y2="208.0"/>
    <line stroke="rgb(0,255,0)" stroke-width="4" x1="640.0" x2="512.0" y1="104.0" y2="208.0"/>
    <line stroke="rgb(0,255,0)" stroke-width="4" x1="640.0" x2="0.0" y1="104.0" y2="104.0"/>
    <line stroke="rgb(0,255,0)" stroke-width="4" x1="128.0" x2="128.0" y1="344.0" y2="480.0"/>
    <line stroke="rgb(0,255,0)" stroke-width="4" x1="512.0" x2="512.0" y1="344.0" y2="208.0"/>
    <line stroke="rgb(0,255,0)" stroke-width="4" x1="1024.0" x2="1024.0" y1="344.0" y2="208.0"/>
    <line stroke="rgb(0,255,0)" stroke-width="4" x1="1024.0" x2="1024.0" y1="344.0" y2="480.0"/>
    <line stroke="rgb(30,30,30)" stroke-linecap="round" stroke-width="12" x1="512.0" x2="512.0" y1="960.0" y2="688.0"/>
    <line stroke="rgb(30,30,30)" stroke-linecap="round" stroke-width="12" x1="0" x2="0.0" y1="960" y2="688.0"/>
    <line stroke="rgb(30,30,30)" stroke-linecap="round" stroke-width="12" x1="1024.0" x2="1024.0" y1="960.0" y2="688.0"/>
    <line stroke="rgb(30,30,30)" stroke-linecap="round" stroke-width="12" x1="1024.0" x2="512.0" y1="688.0" y2="688.0"/>
    <line stroke="white" stroke-width="12" x1="1008.0" x2="912.0" y1="688.0" y2="688.0"/>
    <line stroke="rgb(0,0,0)" stroke-width="4" x1="1008.0" x2="1008.0" y1="688.0" y2="592.0"/>
    <path d="M912.0 688.0 A 96 96 -1 0,1 1008.0 592.0" fill="none" stroke="black" stroke-width="2"/>
    <line stroke="rgb(30,30,30)" stroke-linecap="round" stroke-width="12" x1="256.0" x2="0.0" y1="480.0" y2="480.0"/>
    <line stroke="white" stroke-width="12" x1="16.0" x2="112.0" y1="480.0" y2="480.0"/>
    <line stroke="rgb(0,0,0)" stroke-width="4" x1="16.0" x2="16.0" y1="480.0" y2="384.0"/>
    <path d="M112.0 480.0 A 96 96 -1 0,0 16.0 384.0" fill="none" stroke="black" stroke-width="2"/>
    <line stroke="rgb(30,30,30)" stroke-linecap="round" stroke-width="12" x1="256.0" x2="0.0" y1="208.0" y2="208.0"/>
    <line stroke="rgb(30,30,30)" stroke-linecap="round" stroke-width="12" x1="256.0" x2="256.0" y1="480.0" y2="208.0"/>
    <line stroke="rgb(30,30,30)" stroke-linecap="round" stroke-width="12" x1="1280.0" x2="1280.0" y1="480.0" y2="688.0"/>
    <line stroke="rgb(30,30,30)" stroke-linecap="round" stroke-width="12" x1="768.0" x2="256.0" y1="208.0" y2="208.0"/>
    <line stroke="white" stroke-width="12" x1="272.0" x2="368.0" y1="208.0" y2="208.0"/>
    <line stroke="rgb(0,0,0)" stroke-width="4" x1="272.0" x2="272.0" y1="208.0" y2="112.0"/>
    <path d="M368.0 208.0 A 96 96 -1 0,0 272.0 112.0" fill="none" stroke="black" stroke-width="2"/>
    <line stroke="rgb(30,30,30)" stroke-linecap="round" stroke-width="12" x1="512.0" x2="0.0" y1="688.0" y2="688.0"/>
    <line stroke="white" stroke-width="12" x1="16.0" x2="112.0" y1="688.0" y2="688.0"/>
    <line stroke="rgb(0,0,0)" stroke-width="4" x1="16.0" x2="16.0" y1="688.0" y2="592.0"/>
    <path d="M112.0 688.0 A 96 96 -1 0,0 16.0 592.0" fill="none" stroke="black" stroke-width="2"/>
    <line stroke="rgb(30,30,30)" stroke-linecap="round" stroke-width="12" x1="0.0" x2="0.0" y1="480.0" y2="208.0"/>
    <line stroke="rgb(30,30,30)" stroke-linecap="round" stroke-width="12" x1="0.0" x2="0" y1="208.0" y2="0"/>
    <line stroke="white" stroke-width="12" x1="0.0" x2="0.0" y1="192.0" y2="96.0"/>
    <line stroke="rgb(0,0,0)" stroke-width="4" x1="0.0" x2="96.0" y1="192.0" y2="192.0"/>
    <path d="M0.0 96.0 A 96 96 -1 0,1 96.0 192.0" fill="none" stroke="black" stroke-width="2"/>
    <line stroke="rgb(30,30,30)" stroke-linecap="round" stroke-width="12" x1="512.0" x2="0" y1="960.0" y2="960"/>
    <line stroke="rgb(30,30,30)" stroke-linecap="round" stroke-width="12" x1="768.0" x2="768.0" y1="480.0" y2="208.0"/>
    <line stroke="rgb(30,30,30)" stroke-linecap="round" stroke-width="12" x1="1280.0" x2="1280.0" y1="208.0" y2="480.0"/>
    <line stroke="rgb(30,30,30)" stroke-linecap="round" stroke-width="12" x1="1280.0" x2="768.0" y1="480.0" y2="480.0"/>
    <line stroke="white" stroke-width="12" x1="1264.0" x2="1168.0" y1="480.0" y2="480.0"/>
    <line stroke="rgb(0,0,0)" stroke-width="4" x1="1264.0" x2="1264.0" y1="480.0" y2="384.0"/>
    <path d="M1168.0 480.0 A 96 96 -1 0,1 1264.0 384.0" fill="none" stroke="black" stroke-width="2"/>
    <line stroke="rgb(30,30,30)" stroke-linecap="round" stroke-width="12" x1="768.0" x2="256.0" y1="480.0" y2="480.0"/>
    <line stroke="rgb(30,30,30)" stroke-linecap="round" stroke-width="12" x1="1024.0" x2="512.0" y1="960.0" y2="960.0"/>
    <line stroke="rgb(30,30,30)" stroke-linecap="round" stroke-width="12" x1="1280.0" x2="1024.0" y1="688.0" y2="688.0"/>
    <line stroke="white" stroke-width="12" x1="1264.0" x2="1168.0" y1="688.0" y2="688.0"/>
    <line stroke="rgb(0,0,0)" stroke-width="4" x1="1264.0" x2="1264.0" y1="688.0" y2="592.0"/>
    <path d="M1168.0 688.0 A 96 96 -1 0,1 1264.0 592.0" fill="none" stroke="black" stroke-width="2"/>
    <line stroke="rgb(30,30,30)" stroke-linecap="round" stroke-width="12" x1="1280" x2="1280.0" y1="0" y2="208.0"/>
    <line stroke="white" stroke-width="12" x1="1280.000007042518" x2="1280.000007042518" y1="16.0" y2="112.0"/>
    <line stroke="rgb(0,0,0)" stroke-width="4" x1="1280.000007042518" x2="1184.000007042518" y1="16.0" y2="16.0"/>
    <path d="M1280.000007042518 112.0 A 96 96 -1 0,1 1184.000007042518 16.0" fill="none" stroke="black" stroke-width="2"/>
    <line stroke="rgb(30,30,30)" stroke-linecap="round" stroke-width="12" x1="1280.0" x2="768.0" y1="208.0" y2="208.0"/>
    <line stroke="white" stroke-width="12" x1="784.0" x2="880.0" y1="208.0" y2="208.0"/>
    <line stroke="rgb(0,0,0)" stroke-width="4" x1="784.0" x2="784.0" y1="208.0" y2="112.0"/>
    <path d="M880.0 208.0 A 96 96 -1 0,0 784.0 112.0" fill="none" stroke="black" stroke-width="2"/>
    <line stroke="rgb(30,30,30)" stroke-linecap="round" stroke-width="12" x1="0.0" x2="0.0" y1="688.0" y2="480.0"/>
    <line stroke="white" stroke-width="12" x1="0.0" x2="0.0" y1="496.0" y2="592.0"/>
    <line stroke="rgb(0,0,0)" stroke-width="4" x1="0.0" x2="96.0" y1="496.0" y2="496.0"/>
    <path d="M0.0 592.0 A 96 96 -1 0,0 96.0 496.0" fill="none" stroke="black" stroke-width="2"/>
    <line stroke="rgb(30,30,30)" stroke-linecap="round" stroke-width="12" x1="0" x2="1280" y1="0" y2="0"/>
    <line stroke="rgb(30,30,30)" stroke-linecap="round" stroke-width="12" x1="1280.0" x2="1280" y1="688.0" y2="960"/>
    <line stroke="rgb(30,30,30)" stroke-linecap="round" stroke-width="12" x1="1280" x2="1024.0" y1="960" y2="960.0"/>
    <text style="font-family: sans-serif; font-size: 20pt" text-anchor="middle" x="1152.0" y="824.0">BATH_83 272.0</text>
    <text style="font-family: sans-serif; font-size: 20pt" text-anchor="middle" x="256.0" y="824.0">BEDROOM_37 544.0</text>
    <text style="font-family: sans-serif; font-size: 20pt" text-anchor="middle" x="768.0" y="824.0">BEDROOM_884 544.0</text>
    <text style="font-family: sans-serif; font-size: 20pt" text-anchor="middle" x="640.0" y="584.0">LIVING_140 1040.0</text>
    <text style="font-family: sans-serif; font-size: 20pt" text-anchor="middle" x="640.0" y="104.0">LIVING_561 1040.0</text>
    <text style="font-family: sans-serif; font-size: 20pt" text-anchor="middle" x="128.0" y="344.0">BATH_935 272.0</text>
    <text style="font-family: sans-serif; font-size: 20pt" text-anchor="middle" x="512.0" y="344.0">BEDROOM_784 544.0</text>
    <text style="font-family: sans-serif; font-size: 20pt" text-anchor="middle" x="1024.0" y="344.0">BEDROOM_226 544.0</text>
  </g>
</svg>
