<?xml version="1.0" encoding="utf-8" ?>
<svg baseProfile="full" height="100%" version="1.1" width="100%" xmlns="http://www.w3.org/2000/svg" xmlns:ev="http://www.w3.org/2001/xml-events" xmlns:xlink="http://www.w3.org/1999/xlink">
  <defs/>
  <g transform="translate(32,32)">
    <line stroke="rgb(30,30,30)" stroke-linecap="round" stroke-width="12" x1="2048.0" x2="2048.0" y1="480.0" y2="224.0"/>
    <circle cx="2048.0" cy="304.0" fill="yellowgreen" r="16" stroke="yellowgreen" stroke-width="1"/>
    <circle cx="2048.0" cy="304.0" fill="red" r="8" stroke="red" stroke-width="1"/>
    <circle cx="2048.0" cy="400.0" fill="yellow" r="8" stroke="yellow" stroke-width="1"/>
    <circle cx="2144.0" cy="304.0" fill="blue" r="16" stroke="blue" stroke-width="1"/>
    <line stroke="rgb(0,0,0)" stroke-width="4" x1="2048.0" x2="2144.0" y1="304.0" y2="304.0"/>
    <line stroke="rgb(30,30,30)" stroke-linecap="round" stroke-width="12" x1="2048.0" x2="2048.0" y1="224.0" y2="0.0"/>
    <circle cx="2048.0" cy="64.0" fill="yellowgreen" r="16" stroke="yellowgreen" stroke-width="1"/>
    <circle cx="2048.0" cy="64.0" fill="red" r="8" stroke="red" stroke-width="1"/>
    <circle cx="2048.0" cy="160.0" fill="yellow" r="8" stroke="yellow" stroke-width="1"/>
    <circle cx="2144.0" cy="64.0" fill="blue" r="16" stroke="blue" stroke-width="1"/>
    <line stroke="rgb(0,0,0)" stroke-width="4" x1="2048.0" x2="2144.0" y1="64.0" y2="64.0"/>
    <line stroke="rgb(30,30,30)" stroke-linecap="round" stroke-width="12" x1="1408.0" x2="1408.0" y1="480.0" y2="224.0"/>
    <circle cx="1408.0" cy="304.0" fill="yellowgreen" r="16" stroke="yellowgreen" stroke-width="1"/>
    <circle cx="1408.0" cy="304.0" fill="red" r="8" stroke="red" stroke-width="1"/>
    <circle cx="1408.0" cy="400.0" fill="yellow" r="8" stroke="yellow" stroke-width="1"/>
    <circle cx="1504.0" cy="304.0" fill="blue" r="16" stroke="blue" stroke-width="1"/>
    <line stroke="rgb(0,0,0)" stroke-width="4" x1="1408.0" x2="1504.0" y1="304.0" y2="304.0"/>
    <line stroke="rgb(30,30,30)" stroke-linecap="round" stroke-width="12" x1="1408.0" x2="1408.0" y1="224.0" y2="0.0"/>
    <circle cx="1408.0" cy="64.0" fill="yellowgreen" r="16" stroke="yellowgreen" stroke-width="1"/>
    <circle cx="1408.0" cy="64.0" fill="red" r="8" stroke="red" stroke-width="1"/>
    <circle cx="1408.0" cy="160.0" fill="yellow" r="8" stroke="yellow" stroke-width="1"/>
    <circle cx="1504.0" cy="64.0" fill="blue" r="16" stroke="blue" stroke-width="1"/>
    <line stroke="rgb(0,0,0)" stroke-width="4" x1="1408.0" x2="1504.0" y1="64.0" y2="64.0"/>
    <line stroke="rgb(30,30,30)" stroke-linecap="round" stroke-width="12" x1="2400.0" x2="2400" y1="480.0" y2="640"/>
    <circle cx="2400.0" cy="608.0" fill="yellowgreen" r="16" stroke="yellowgreen" stroke-width="1"/>
    <circle cx="2400.0" cy="608.0" fill="red" r="8" stroke="red" stroke-width="1"/>
    <circle cx="2400.0" cy="512.0" fill="yellow" r="8" stroke="yellow" stroke-width="1"/>
    <circle cx="2304.0" cy="608.0" fill="blue" r="16" stroke="blue" stroke-width="1"/>
    <line stroke="rgb(0,0,0)" stroke-width="4" x1="2400.0" x2="2304.0" y1="608.0" y2="608.0"/>
    <line stroke="rgb(30,30,30)" stroke-linecap="round" stroke-width="12" x1="2048.0" x2="1408.0" y1="224.0" y2="224.0"/>
    <circle cx="1680.0" cy="224.0" fill="yellowgreen" r="16" stroke="yellowgreen" stroke-width="1"/>
    <circle cx="1680.0" cy="224.0" fill="red" r="8" stroke="red" stroke-width="1"/>
    <circle cx="1776.0" cy="224.0" fill="yellow" r="8" stroke="yellow" stroke-width="1"/>
    <circle cx="1680.0" cy="128.0" fill="blue" r="16" stroke="blue" stroke-width="1"/>
    <line stroke="rgb(0,0,0)" stroke-width="4" x1="1680.0" x2="1680.0" y1="224.0" y2="128.0"/>
    <line stroke="rgb(30,30,30)" stroke-linecap="round" stroke-width="12" x1="1056.0" x2="1056.0" y1="640.0" y2="480.0"/>
    <circle cx="1056.0" cy="512.0" fill="yellowgreen" r="16" stroke="yellowgreen" stroke-width="1"/>
    <circle cx="1056.0" cy="512.0" fill="red" r="8" stroke="red" stroke-width="1"/>
    <circle cx="1056.0" cy="608.0" fill="yellow" r="8" stroke="yellow" stroke-width="1"/>
    <circle cx="1152.0" cy="512.0" fill="blue" r="16" stroke="blue" stroke-width="1"/>
    <line stroke="rgb(0,0,0)" stroke-width="4" x1="1056.0" x2="1152.0" y1="512.0" y2="512.0"/>
    <line stroke="rgb(30,30,30)" stroke-linecap="round" stroke-width="12" x1="1056.0" x2="1056.0" y1="320.0" y2="0.0"/>
    <circle cx="1056.0" cy="112.0" fill="yellowgreen" r="16" stroke="yellowgreen" stroke-width="1"/>
    <circle cx="1056.0" cy="112.0" fill="red" r="8" stroke="red" stroke-width="1"/>
    <circle cx="1056.0" cy="208.0" fill="yellow" r="8" stroke="yellow" stroke-width="1"/>
    <circle cx="1152.0" cy="112.0" fill="blue" r="16" stroke="blue" stroke-width="1"/>
    <line stroke="rgb(0,0,0)" stroke-width="4" x1="1056.0" x2="1152.0" y1="112.0" y2="112.0"/>
    <line stroke="rgb(30,30,30)" stroke-linecap="round" stroke-width="12" x1="1056.0" x2="1056.0" y1="480.0" y2="320.0"/>
    <circle cx="1056.0" cy="352.0" fill="yellowgreen" r="16" stroke="yellowgreen" stroke-width="1"/>
    <circle cx="1056.0" cy="352.0" fill="red" r="8" stroke="red" stroke-width="1"/>
    <circle cx="1056.0" cy="448.0" fill="yellow" r="8" stroke="yellow" stroke-width="1"/>
    <circle cx="1152.0" cy="352.0" fill="blue" r="16" stroke="blue" stroke-width="1"/>
    <line stroke="rgb(0,0,0)" stroke-width="4" x1="1056.0" x2="1152.0" y1="352.0" y2="352.0"/>
    <line stroke="rgb(30,30,30)" stroke-linecap="round" stroke-width="12" x1="640.0" x2="640.0" y1="640.0" y2="320.0"/>
    <circle cx="640.0" cy="432.0" fill="yellowgreen" r="16" stroke="yellowgreen" stroke-width="1"/>
    <circle cx="640.0" cy="432.0" fill="red" r="8" stroke="red" stroke-width="1"/>
    <circle cx="640.0" cy="528.0" fill="yellow" r="8" stroke="yellow" stroke-width="1"/>
    <circle cx="736.0" cy="432.0" fill="blue" r="16" stroke="blue" stroke-width="1"/>
    <line stroke="rgb(0,0,0)" stroke-width="4" x1="640.0" x2="736.0" y1="432.0" y2="432.0"/>
    <line stroke="rgb(30,30,30)" stroke-linecap="round" stroke-width="12" x1="640.0" x2="640.0" y1="320.0" y2="0.0"/>
    <circle cx="640.0" cy="112.0" fill="yellowgreen" r="16" stroke="yellowgreen" stroke-width="1"/>
    <circle cx="640.0" cy="112.0" fill="red" r="8" stroke="red" stroke-width="1"/>
    <circle cx="640.0" cy="208.0" fill="yellow" r="8" stroke="yellow" stroke-width="1"/>
    <circle cx="736.0" cy="112.0" fill="blue" r="16" stroke="blue" stroke-width="1"/>
    <line stroke="rgb(0,0,0)" stroke-width="4" x1="640.0" x2="736.0" y1="112.0" y2="112.0"/>
    <line stroke="rgb(30,30,30)" stroke-linecap="round" stroke-width="12" x1="2400.0" x2="2048.0" y1="480.0" y2="480.0"/>
    <circle cx="2176.0" cy="480.0" fill="yellowgreen" r="16" stroke="yellowgreen" stroke-width="1"/>
    <circle cx="2176.0" cy="480.0" fill="red" r="8" stroke="red" stroke-width="1"/>
    <circle cx="2272.0" cy="480.0" fill="yellow" r="8" stroke="yellow" stroke-width="1"/>
    <circle cx="2176.0" cy="384.0" fill="blue" r="16" stroke="blue" stroke-width="1"/>
    <line stroke="rgb(0,0,0)" stroke-width="4" x1="2176.0" x2="2176.0" y1="480.0" y2="384.0"/>
    <line stroke="rgb(30,30,30)" stroke-linecap="round" stroke-width="12" x1="1056.0" x2="640.0" y1="320.0" y2="320.0"/>
    <circle cx="800.0" cy="320.0" fill="yellowgreen" r="16" stroke="yellowgreen" stroke-width="1"/>
    <circle cx="800.0" cy="320.0" fill="red" r="8" stroke="red" stroke-width="1"/>
    <circle cx="896.0" cy="320.0" fill="yellow" r="8" stroke="yellow" stroke-width="1"/>
    <circle cx="800.0" cy="224.0" fill="blue" r="16" stroke="blue" stroke-width="1"/>
    <line stroke="rgb(0,0,0)" stroke-width="4" x1="800.0" x2="800.0" y1="320.0" y2="224.0"/>
    <line stroke="rgb(30,30,30)" stroke-linecap="round" stroke-width="12" x1="2400" x2="1056.0" y1="640" y2="640.0"/>
    <circle cx="1680.0" cy="640.0" fill="yellowgreen" r="16" stroke="yellowgreen" stroke-width="1"/>
    <circle cx="1680.0" cy="640.0" fill="red" r="8" stroke="red" stroke-width="1"/>
    <circle cx="1776.0" cy="640.0" fill="yellow" r="8" stroke="yellow" stroke-width="1"/>
    <circle cx="1680.0" cy="544.0" fill="blue" r="16" stroke="blue" stroke-width="1"/>
    <line stroke="rgb(0,0,0)" stroke-width="4" x1="1680.0" x2="1680.0" y1="640.0" y2="544.0"/>
    <line stroke="rgb(30,30,30)" stroke-linecap="round" stroke-width="12" x1="0" x2="0" y1="640" y2="0"/>
    <circle cx="0.0" cy="272.0" fill="yellowgreen" r="16" stroke="yellowgreen" stroke-width="1"/>
    <circle cx="0.0" cy="272.0" fill="red" r="8" stroke="red" stroke-width="1"/>
    <circle cx="0.0" cy="368.0" fill="yellow" r="8" stroke="yellow" stroke-width="1"/>
    <circle cx="96.0" cy="272.0" fill="blue" r="16" stroke="blue" stroke-width="1"/>
    <line stroke="rgb(0,0,0)" stroke-width="4" x1="0.0" x2="96.0" y1="272.0" y2="272.0"/>
    <line stroke="rgb(30,30,30)" stroke-linecap="round" stroke-width="12" x1="1408.0" x2="1056.0" y1="480.0" y2="480.0"/>
    <circle cx="1184.0" cy="480.0" fill="yellowgreen" r="16" stroke="yellowgreen" stroke-width="1"/>
    <circle cx="1184.0" cy="480.0" fill="red" r="8" stroke="red" stroke-width="1"/>
    <circle cx="1280.0" cy="480.0" fill="yellow" r="8" stroke="yellow" stroke-width="1"/>
    <circle cx="1184.0" cy="384.0" fill="blue" r="16" stroke="blue" stroke-width="1"/>
    <line stroke="rgb(0,0,0)" stroke-width="4" x1="1184.0" x2="1184.0" y1="480.0" y2="384.0"/>
    <line stroke="rgb(30,30,30)" stroke-linecap="round" stroke-width="12" x1="1056.0" x2="1408.0" y1="0.0" y2="0.0"/>
    <circle cx="1280.0" cy="0.0" fill="yellowgreen" r="16" stroke="yellowgreen" stroke-width="1"/>
    <circle cx="1280.0" cy="0.0" fill="red" r="8" stroke="red" stroke-width="1"/>
    <circle cx="1184.0" cy="0.0" fill="yellow" r="8" stroke="yellow" stroke-width="1"/>
    <circle cx="1280.0" cy="96.0" fill="blue" r="16" stroke="blue" stroke-width="1"/>
    <line stroke="rgb(0,0,0)" stroke-width="4" x1="1280.0" x2="1280.0" y1="0.0" y2="96.0"/>
    <line stroke="rgb(30,30,30)" stroke-linecap="round" stroke-width="12" x1="1056.0" x2="640.0" y1="640.0" y2="640.0"/>
    <circle cx="800.0" cy="640.0" fill="yellowgreen" r="16" stroke="yellowgreen" stroke-width="1"/>
    <circle cx="800.0" cy="640.0" fill="red" r="8" stroke="red" stroke-width="1"/>
    <circle cx="896.0" cy="640.0" fill="yellow" r="8" stroke="yellow" stroke-width="1"/>
    <circle cx="800.0" cy="544.0" fill="blue" r="16" stroke="blue" stroke-width="1"/>
    <line stroke="rgb(0,0,0)" stroke-width="4" x1="800.0" x2="800.0" y1="640.0" y2="544.0"/>
    <line stroke="rgb(30,30,30)" stroke-linecap="round" stroke-width="12" x1="640.0" x2="1056.0" y1="0.0" y2="0.0"/>
    <circle cx="896.0" cy="0.0" fill="yellowgreen" r="16" stroke="yellowgreen" stroke-width="1"/>
    <circle cx="896.0" cy="0.0" fill="red" r="8" stroke="red" stroke-width="1"/>
    <circle cx="800.0" cy="0.0" fill="yellow" r="8" stroke="yellow" stroke-width="1"/>
    <circle cx="896.0" cy="96.0" fill="blue" r="16" stroke="blue" stroke-width="1"/>
    <line stroke="rgb(0,0,0)" stroke-width="4" x1="896.0" x2="896.0" y1="0.0" y2="96.0"/>
    <line stroke="rgb(30,30,30)" stroke-linecap="round" stroke-width="12" x1="2400" x2="2400.0" y1="0" y2="480.0"/>
    <circle cx="2400.0" cy="288.0" fill="yellowgreen" r="16" stroke="yellowgreen" stroke-width="1"/>
    <circle cx="2400.0" cy="288.0" fill="red" r="8" stroke="red" stroke-width="1"/>
    <circle cx="2400.0" cy="192.0" fill="yellow" r="8" stroke="yellow" stroke-width="1"/>
    <circle cx="2304.0" cy="288.0" fill="blue" r="16" stroke="blue" stroke-width="1"/>
    <line stroke="rgb(0,0,0)" stroke-width="4" x1="2400.0" x2="2304.0" y1="288.0" y2="288.0"/>
    <line stroke="rgb(30,30,30)" stroke-linecap="round" stroke-width="12" x1="2048.0" x2="1408.0" y1="480.0" y2="480.0"/>
    <circle cx="1680.0" cy="480.0" fill="yellowgreen" r="16" stroke="yellowgreen" stroke-width="1"/>
    <circle cx="1680.0" cy="480.0" fill="red" r="8" stroke="red" stroke-width="1"/>
    <circle cx="1776.0" cy="480.0" fill="yellow" r="8" stroke="yellow" stroke-width="1"/>
    <circle cx="1680.0" cy="384.0" fill="blue" r="16" stroke="blue" stroke-width="1"/>
    <line stroke="rgb(0,0,0)" stroke-width="4" x1="1680.0" x2="1680.0" y1="480.0" y2="384.0"/>
    <line stroke="rgb(30,30,30)" stroke-linecap="round" stroke-width="12" x1="1408.0" x2="2048.0" y1="0.0" y2="0.0"/>
    <circle cx="1776.0" cy="0.0" fill="yellowgreen" r="16" stroke="yellowgreen" stroke-width="1"/>
    <circle cx="1776.0" cy="0.0" fill="red" r="8" stroke="red" stroke-width="1"/>
    <circle cx="1680.0" cy="0.0" fill="yellow" r="8" stroke="yellow" stroke-width="1"/>
    <circle cx="1776.0" cy="96.0" fill="blue" r="16" stroke="blue" stroke-width="1"/>
    <line stroke="rgb(0,0,0)" stroke-width="4" x1="1776.0" x2="1776.0" y1="0.0" y2="96.0"/>
    <line stroke="rgb(30,30,30)" stroke-linecap="round" stroke-width="12" x1="2048.0" x2="2400" y1="0.0" y2="0"/>
    <circle cx="2272.0" cy="0.0" fill="yellowgreen" r="16" stroke="yellowgreen" stroke-width="1"/>
    <circle cx="2272.0" cy="0.0" fill="red" r="8" stroke="red" stroke-width="1"/>
    <circle cx="2176.0" cy="0.0" fill="yellow" r="8" stroke="yellow" stroke-width="1"/>
    <circle cx="2272.0" cy="96.0" fill="blue" r="16" stroke="blue" stroke-width="1"/>
    <line stroke="rgb(0,0,0)" stroke-width="4" x1="2272.0" x2="2272.0" y1="0.0" y2="96.0"/>
    <line stroke="rgb(30,30,30)" stroke-linecap="round" stroke-width="12" x1="640.0" x2="0" y1="640.0" y2="640"/>
    <circle cx="272.0" cy="640.0" fill="yellowgreen" r="16" stroke="yellowgreen" stroke-width="1"/>
    <circle cx="272.0" cy="640.0" fill="red" r="8" stroke="red" stroke-width="1"/>
    <circle cx="368.0" cy="640.0" fill="yellow" r="8" stroke="yellow" stroke-width="1"/>
    <circle cx="272.0" cy="544.0" fill="blue" r="16" stroke="blue" stroke-width="1"/>
    <line stroke="rgb(0,0,0)" stroke-width="4" x1="272.0" x2="272.0" y1="640.0" y2="544.0"/>
    <line stroke="rgb(30,30,30)" stroke-linecap="round" stroke-width="12" x1="0" x2="640.0" y1="0" y2="0.0"/>
    <circle cx="368.0" cy="0.0" fill="yellowgreen" r="16" stroke="yellowgreen" stroke-width="1"/>
    <circle cx="368.0" cy="0.0" fill="red" r="8" stroke="red" stroke-width="1"/>
    <circle cx="272.0" cy="0.0" fill="yellow" r="8" stroke="yellow" stroke-width="1"/>
    <circle cx="368.0" cy="96.0" fill="blue" r="16" stroke="blue" stroke-width="1"/>
    <line stroke="rgb(0,0,0)" stroke-width="4" x1="368.0" x2="368.0" y1="0.0" y2="96.0"/>
    <text style="font-family: sans-serif; font-size: 20pt" text-anchor="middle" x="320.0" y="320.0">ROOM</text>
    <text style="font-family: sans-serif; font-size: 20pt" text-anchor="middle" x="848.0" y="480.0">ROOM</text>
    <text style="font-family: sans-serif; font-size: 20pt" text-anchor="middle" x="848.0" y="160.0">ROOM</text>
    <text style="font-family: sans-serif; font-size: 20pt" text-anchor="middle" x="1728.0" y="560.0">ROOM</text>
    <text style="font-family: sans-serif; font-size: 20pt" text-anchor="middle" x="1232.0" y="240.0">ROOM</text>
    <text style="font-family: sans-serif; font-size: 20pt" text-anchor="middle" x="2224.0" y="240.0">ROOM</text>
    <text style="font-family: sans-serif; font-size: 20pt" text-anchor="middle" x="1728.0" y="352.0">ROOM</text>
    <text style="font-family: sans-serif; font-size: 20pt" text-anchor="middle" x="1728.0" y="112.0">ROOM</text>
  </g>
</svg>
