<?xml version="1.0" encoding="utf-8" ?>
<svg baseProfile="full" height="1344" version="1.1" width="1664" xmlns="http://www.w3.org/2000/svg" xmlns:ev="http://www.w3.org/2001/xml-events" xmlns:xlink="http://www.w3.org/1999/xlink">
  <defs/>
  <g transform="translate(32,32)">
    <rect fill="#eeeeee" height="128.0" width="928.0" x="0.0" y="288.0"/>
    <rect fill="#e6b8af" height="864.0" width="352.0" x="0.0" y="416.0"/>
    <rect fill="#fce5cd" height="864.0" width="576.0" x="352.0" y="416.0"/>
    <rect fill="#cfe2f3" height="288.0" width="336.0" x="0" y="0"/>
    <rect fill="#d9ead3" height="288.0" width="592.0" x="336.0" y="0.0"/>
    <rect fill="#fff2cc" height="384.0" width="672.0" x="928.0" y="896.0"/>
    <rect fill="#d9ead3" height="336.0" width="672.0" x="928.0" y="560.0"/>
    <rect fill="#d9ead3" height="560.0" width="448.0" x="928.0" y="0.0"/>
    <rect fill="#cfe2f3" height="560.0" width="224.0" x="1376.0" y="0.0"/>
    <line stroke="#595959" stroke-linecap="round" stroke-width="12" x1="0" x2="0.0" y1="1280" y2="416.0"/>
    <line stroke="#595959" stroke-linecap="round" stroke-width="12" x1="352.0" x2="352.0" y1="1280.0" y2="416.0"/>
    <line stroke="#595959" stroke-linecap="round" stroke-width="12" x1="1600.0" x2="1600" y1="896.0" y2="1280"/>
    <line stroke="#595959" stroke-linecap="round" stroke-width="12" x1="928.0" x2="352.0" y1="1280.0" y2="1280.0"/>
    <line stroke="#595959" stroke-linecap="round" stroke-width="12" x1="928.0" x2="928.0" y1="288.0" y2="0.0"/>
    <line stroke="#595959" stroke-linecap="round" stroke-width="12" x1="1600" x2="1600.0" y1="0" y2="560.0"/>
    <line stroke="#595959" stroke-linecap="round" stroke-width="12" x1="1600.0" x2="928.0" y1="896.0" y2="896.0"/>
    <line stroke="#595959" stroke-linecap="round" stroke-width="12" x1="928.0" x2="352.0" y1="416.0" y2="416.0"/>
    <line stroke="#595959" stroke-linecap="round" stroke-width="12" x1="0.0" x2="0.0" y1="416.0" y2="288.0"/>
    <line stroke="#595959" stroke-linecap="round" stroke-width="12" x1="1600" x2="928.0" y1="1280" y2="1280.0"/>
    <line stroke="#595959" stroke-linecap="round" stroke-width="12" x1="0.0" x2="0" y1="288.0" y2="0"/>
    <line stroke="#595959" stroke-linecap="round" stroke-width="12" x1="336.0" x2="0.0" y1="288.0" y2="288.0"/>
    <line stroke="#595959" stroke-linecap="round" stroke-width="12" x1="1376.0" x2="1600" y1="0.0" y2="0"/>
    <line stroke="#595959" stroke-linecap="round" stroke-width="12" x1="1600.0" x2="1600.0" y1="560.0" y2="896.0"/>
    <line stroke="#595959" stroke-linecap="round" stroke-width="12" x1="928.0" x2="336.0" y1="288.0" y2="288.0"/>
    <line stroke="#595959" stroke-linecap="round" stroke-width="12" x1="928.0" x2="928.0" y1="416.0" y2="288.0"/>
    <line stroke="#595959" stroke-linecap="round" stroke-width="12" x1="336.0" x2="336.0" y1="288.0" y2="0.0"/>
    <line stroke="#595959" stroke-linecap="round" stroke-width="12" x1="1376.0" x2="928.0" y1="560.0" y2="560.0"/>
    <line stroke="#595959" stroke-linecap="round" stroke-width="12" x1="928.0" x2="928.0" y1="896.0" y2="560.0"/>
    <line stroke="#595959" stroke-linecap="round" stroke-width="12" x1="352.0" x2="0.0" y1="416.0" y2="416.0"/>
    <line stroke="#595959" stroke-linecap="round" stroke-width="12" x1="1376.0" x2="1376.0" y1="560.0" y2="0.0"/>
    <line stroke="#595959" stroke-linecap="round" stroke-width="12" x1="352.0" x2="0" y1="1280.0" y2="1280"/>
    <line stroke="#595959" stroke-linecap="round" stroke-width="12" x1="1600.0" x2="1376.0" y1="560.0" y2="560.0"/>
    <line stroke="#595959" stroke-linecap="round" stroke-width="12" x1="928.0" x2="1376.0" y1="0.0" y2="0.0"/>
    <line stroke="#595959" stroke-linecap="round" stroke-width="12" x1="928.0" x2="928.0" y1="560.0" y2="416.0"/>
    <line stroke="#595959" stroke-linecap="round" stroke-width="12" x1="336.0" x2="928.0" y1="0.0" y2="0.0"/>
    <line stroke="#595959" stroke-linecap="round" stroke-width="12" x1="0" x2="336.0" y1="0" y2="0.0"/>
    <line stroke="#595959" stroke-linecap="round" stroke-width="12" x1="928.0" x2="928.0" y1="1280.0" y2="896.0"/>
    <text style="font-family: 'Source Code Pro; font-size: 30pt" text-anchor="middle" x="464.0" y="352.0"/>
    <text style="font-family: 'Source Code Pro; font-size: 30pt" text-anchor="middle" x="176.0" y="848.0">Dining</text>
    <text style="font-family: 'Source Code Pro; font-size: 30pt" text-anchor="middle" x="640.0" y="848.0">Living</text>
    <text style="font-family: 'Source Code Pro; font-size: 30pt" text-anchor="middle" x="168.0" y="144.0">Bath</text>
    <text style="font-family: 'Source Code Pro; font-size: 30pt" text-anchor="middle" x="632.0" y="144.0">Bedroom</text>
    <text style="font-family: 'Source Code Pro; font-size: 30pt" text-anchor="middle" x="1264.0" y="1088.0">Kitchen</text>
    <text style="font-family: 'Source Code Pro; font-size: 30pt" text-anchor="middle" x="1264.0" y="728.0">Bedroom</text>
    <text style="font-family: 'Source Code Pro; font-size: 30pt" text-anchor="middle" x="1152.0" y="280.0">Bedroom</text>
    <text style="font-family: 'Source Code Pro; font-size: 30pt" text-anchor="middle" x="1488.0" y="280.0">Bath</text>
  </g>
</svg>
