<?xml version="1.0" encoding="utf-8" ?>
<svg baseProfile="full" height="1344" version="1.1" width="1664" xmlns="http://www.w3.org/2000/svg" xmlns:ev="http://www.w3.org/2001/xml-events" xmlns:xlink="http://www.w3.org/1999/xlink">
  <defs/>
  <g transform="translate(32,32)">
    <rect fill="#eeeeee" height="1280.0" width="128.0" x="720.0" y="0.0"/>
    <rect fill="#d9ead3" height="816.0" width="256.0" x="0.0" y="464.0"/>
    <rect fill="#cfe2f3" height="464.0" width="256.0" x="0" y="0"/>
    <rect fill="#fce5cd" height="1024.0" width="464.0" x="256.0" y="256.0"/>
    <rect fill="#cfe2f3" height="256.0" width="464.0" x="256.0" y="0.0"/>
    <rect fill="#e6b8af" height="688.0" width="416.0" x="848.0" y="592.0"/>
    <rect fill="#fff2cc" height="688.0" width="336.0" x="1264.0" y="592.0"/>
    <rect fill="#d9ead3" height="288.0" width="752.0" x="848.0" y="304.0"/>
    <rect fill="#d9ead3" height="304.0" width="752.0" x="848.0" y="0.0"/>
    <line stroke="#595959" stroke-linecap="round" stroke-width="12" x1="720.0" x2="720.0" y1="256.0" y2="0.0"/>
    <line stroke="#595959" stroke-linecap="round" stroke-width="12" x1="256.0" x2="256.0" y1="1280.0" y2="464.0"/>
    <line stroke="#595959" stroke-linecap="round" stroke-width="12" x1="720.0" x2="848.0" y1="0.0" y2="0.0"/>
    <line stroke="#595959" stroke-linecap="round" stroke-width="12" x1="720.0" x2="256.0" y1="256.0" y2="256.0"/>
    <line stroke="#595959" stroke-linecap="round" stroke-width="12" x1="256.0" x2="720.0" y1="0.0" y2="0.0"/>
    <line stroke="#595959" stroke-linecap="round" stroke-width="12" x1="848.0" x2="1600" y1="0.0" y2="0"/>
    <line stroke="#595959" stroke-linecap="round" stroke-width="12" x1="1600.0" x2="1264.0" y1="592.0" y2="592.0"/>
    <line stroke="#595959" stroke-linecap="round" stroke-width="12" x1="1600" x2="1264.0" y1="1280" y2="1280.0"/>
    <line stroke="#595959" stroke-linecap="round" stroke-width="12" x1="1264.0" x2="848.0" y1="592.0" y2="592.0"/>
    <line stroke="#595959" stroke-linecap="round" stroke-width="12" x1="720.0" x2="720.0" y1="1280.0" y2="256.0"/>
    <line stroke="#595959" stroke-linecap="round" stroke-width="12" x1="1264.0" x2="1264.0" y1="1280.0" y2="592.0"/>
    <line stroke="#595959" stroke-linecap="round" stroke-width="12" x1="256.0" x2="0" y1="1280.0" y2="1280"/>
    <line stroke="#595959" stroke-linecap="round" stroke-width="12" x1="1600.0" x2="1600" y1="592.0" y2="1280"/>
    <line stroke="#595959" stroke-linecap="round" stroke-width="12" x1="256.0" x2="256.0" y1="256.0" y2="0.0"/>
    <line stroke="#595959" stroke-linecap="round" stroke-width="12" x1="0" x2="256.0" y1="0" y2="0.0"/>
    <line stroke="#595959" stroke-linecap="round" stroke-width="12" x1="1600.0" x2="1600.0" y1="304.0" y2="592.0"/>
    <line stroke="#595959" stroke-linecap="round" stroke-width="12" x1="1600.0" x2="848.0" y1="304.0" y2="304.0"/>
    <line stroke="#595959" stroke-linecap="round" stroke-width="12" x1="848.0" x2="848.0" y1="1280.0" y2="592.0"/>
    <line stroke="#595959" stroke-linecap="round" stroke-width="12" x1="1600" x2="1600.0" y1="0" y2="304.0"/>
    <line stroke="#595959" stroke-linecap="round" stroke-width="12" x1="0.0" x2="0" y1="464.0" y2="0"/>
    <line stroke="#595959" stroke-linecap="round" stroke-width="12" x1="848.0" x2="720.0" y1="1280.0" y2="1280.0"/>
    <line stroke="#595959" stroke-linecap="round" stroke-width="12" x1="0" x2="0.0" y1="1280" y2="464.0"/>
    <line stroke="#595959" stroke-linecap="round" stroke-width="12" x1="848.0" x2="848.0" y1="304.0" y2="0.0"/>
    <line stroke="#595959" stroke-linecap="round" stroke-width="12" x1="256.0" x2="0.0" y1="464.0" y2="464.0"/>
    <line stroke="#595959" stroke-linecap="round" stroke-width="12" x1="720.0" x2="256.0" y1="1280.0" y2="1280.0"/>
    <line stroke="#595959" stroke-linecap="round" stroke-width="12" x1="256.0" x2="256.0" y1="464.0" y2="256.0"/>
    <line stroke="#595959" stroke-linecap="round" stroke-width="12" x1="1264.0" x2="848.0" y1="1280.0" y2="1280.0"/>
    <line stroke="#595959" stroke-linecap="round" stroke-width="12" x1="848.0" x2="848.0" y1="592.0" y2="304.0"/>
    <text style="font-family: 'Source Code Pro; font-size: 30pt" text-anchor="middle" x="784.0" y="640.0"/>
    <text style="font-family: 'Source Code Pro; font-size: 30pt" text-anchor="middle" x="128.0" y="872.0">Bedroom</text>
    <text style="font-family: 'Source Code Pro; font-size: 30pt" text-anchor="middle" x="128.0" y="232.0">Bath</text>
    <text style="font-family: 'Source Code Pro; font-size: 30pt" text-anchor="middle" x="488.0" y="768.0">Living</text>
    <text style="font-family: 'Source Code Pro; font-size: 30pt" text-anchor="middle" x="488.0" y="128.0">Bath</text>
    <text style="font-family: 'Source Code Pro; font-size: 30pt" text-anchor="middle" x="1056.0" y="936.0">Dining</text>
    <text style="font-family: 'Source Code Pro; font-size: 30pt" text-anchor="middle" x="1432.0" y="936.0">Kitchen</text>
    <text style="font-family: 'Source Code Pro; font-size: 30pt" text-anchor="middle" x="1224.0" y="448.0">Bedroom</text>
    <text style="font-family: 'Source Code Pro; font-size: 30pt" text-anchor="middle" x="1224.0" y="152.0">Bedroom</text>
  </g>
</svg>
