<?xml version="1.0" encoding="utf-8" ?>
<svg baseProfile="full" height="1344" version="1.1" width="1664" xmlns="http://www.w3.org/2000/svg" xmlns:ev="http://www.w3.org/2001/xml-events" xmlns:xlink="http://www.w3.org/1999/xlink">
  <defs/>
  <g transform="translate(32,32)">
    <rect fill="#eeeeee" height="128.0" width="1600.0" x="0.0" y="576.0"/>
    <rect fill="#d9ead3" height="576.0" width="352.0" x="0.0" y="704.0"/>
    <rect fill="#d9ead3" height="576.0" width="352.0" x="352.0" y="704.0"/>
    <rect fill="#e6b8af" height="576.0" width="496.0" x="704.0" y="704.0"/>
    <rect fill="#d9ead3" height="576.0" width="400.0" x="1200.0" y="704.0"/>
    <rect fill="#fce5cd" height="576.0" width="800.0" x="0" y="0"/>
    <rect fill="#cfe2f3" height="576.0" width="192.0" x="800.0" y="0.0"/>
    <rect fill="#cfe2f3" height="576.0" width="208.0" x="992.0" y="0.0"/>
    <rect fill="#fff2cc" height="576.0" width="400.0" x="1200.0" y="0.0"/>
    <line stroke="#595959" stroke-linecap="round" stroke-width="12" x1="1600" x2="1600.0" y1="0" y2="576.0"/>
    <line stroke="#595959" stroke-linecap="round" stroke-width="12" x1="992.0" x2="800.0" y1="576.0" y2="576.0"/>
    <line stroke="#595959" stroke-linecap="round" stroke-width="12" x1="704.0" x2="704.0" y1="1280.0" y2="704.0"/>
    <line stroke="#595959" stroke-linecap="round" stroke-width="12" x1="1600.0" x2="1200.0" y1="704.0" y2="704.0"/>
    <line stroke="#595959" stroke-linecap="round" stroke-width="12" x1="992.0" x2="992.0" y1="576.0" y2="0.0"/>
    <line stroke="#595959" stroke-linecap="round" stroke-width="12" x1="1200.0" x2="704.0" y1="1280.0" y2="1280.0"/>
    <line stroke="#595959" stroke-linecap="round" stroke-width="12" x1="1600.0" x2="1600" y1="704.0" y2="1280"/>
    <line stroke="#595959" stroke-linecap="round" stroke-width="12" x1="992.0" x2="1200.0" y1="0.0" y2="0.0"/>
    <line stroke="#595959" stroke-linecap="round" stroke-width="12" x1="1600" x2="1200.0" y1="1280" y2="1280.0"/>
    <line stroke="#595959" stroke-linecap="round" stroke-width="12" x1="352.0" x2="352.0" y1="1280.0" y2="704.0"/>
    <line stroke="#595959" stroke-linecap="round" stroke-width="12" x1="800.0" x2="992.0" y1="0.0" y2="0.0"/>
    <line stroke="#595959" stroke-linecap="round" stroke-width="12" x1="1200.0" x2="1600" y1="0.0" y2="0"/>
    <line stroke="#595959" stroke-linecap="round" stroke-width="12" x1="0.0" x2="0" y1="576.0" y2="0"/>
    <line stroke="#595959" stroke-linecap="round" stroke-width="12" x1="800.0" x2="800.0" y1="576.0" y2="0.0"/>
    <line stroke="#595959" stroke-linecap="round" stroke-width="12" x1="0" x2="800.0" y1="0" y2="0.0"/>
    <line stroke="#595959" stroke-linecap="round" stroke-width="12" x1="1600.0" x2="1200.0" y1="576.0" y2="576.0"/>
    <line stroke="#595959" stroke-linecap="round" stroke-width="12" x1="704.0" x2="352.0" y1="704.0" y2="704.0"/>
    <line stroke="#595959" stroke-linecap="round" stroke-width="12" x1="1200.0" x2="1200.0" y1="1280.0" y2="704.0"/>
    <line stroke="#595959" stroke-linecap="round" stroke-width="12" x1="1600.0" x2="1600.0" y1="576.0" y2="704.0"/>
    <line stroke="#595959" stroke-linecap="round" stroke-width="12" x1="352.0" x2="0.0" y1="704.0" y2="704.0"/>
    <line stroke="#595959" stroke-linecap="round" stroke-width="12" x1="704.0" x2="352.0" y1="1280.0" y2="1280.0"/>
    <line stroke="#595959" stroke-linecap="round" stroke-width="12" x1="352.0" x2="0" y1="1280.0" y2="1280"/>
    <line stroke="#595959" stroke-linecap="round" stroke-width="12" x1="1200.0" x2="992.0" y1="576.0" y2="576.0"/>
    <line stroke="#595959" stroke-linecap="round" stroke-width="12" x1="0.0" x2="0.0" y1="704.0" y2="576.0"/>
    <line stroke="#595959" stroke-linecap="round" stroke-width="12" x1="1200.0" x2="1200.0" y1="576.0" y2="0.0"/>
    <line stroke="#595959" stroke-linecap="round" stroke-width="12" x1="1200.0" x2="704.0" y1="704.0" y2="704.0"/>
    <line stroke="#595959" stroke-linecap="round" stroke-width="12" x1="0" x2="0.0" y1="1280" y2="704.0"/>
    <line stroke="#595959" stroke-linecap="round" stroke-width="12" x1="800.0" x2="0.0" y1="576.0" y2="576.0"/>
    <text style="font-family: 'Source Code Pro; font-size: 30pt" text-anchor="middle" x="800.0" y="640.0"/>
    <text style="font-family: 'Source Code Pro; font-size: 30pt" text-anchor="middle" x="176.0" y="992.0">Bedroom</text>
    <text style="font-family: 'Source Code Pro; font-size: 30pt" text-anchor="middle" x="528.0" y="992.0">Bedroom</text>
    <text style="font-family: 'Source Code Pro; font-size: 30pt" text-anchor="middle" x="952.0" y="992.0">Dining</text>
    <text style="font-family: 'Source Code Pro; font-size: 30pt" text-anchor="middle" x="1400.0" y="992.0">Bedroom</text>
    <text style="font-family: 'Source Code Pro; font-size: 30pt" text-anchor="middle" x="400.0" y="288.0">Living</text>
    <text style="font-family: 'Source Code Pro; font-size: 30pt" text-anchor="middle" x="896.0" y="288.0">Bath</text>
    <text style="font-family: 'Source Code Pro; font-size: 30pt" text-anchor="middle" x="1096.0" y="288.0">Bath</text>
    <text style="font-family: 'Source Code Pro; font-size: 30pt" text-anchor="middle" x="1400.0" y="288.0">Kitchen</text>
  </g>
</svg>
