<?xml version="1.0" encoding="utf-8" ?>
<svg baseProfile="full" height="1344" version="1.1" width="1664" xmlns="http://www.w3.org/2000/svg" xmlns:ev="http://www.w3.org/2001/xml-events" xmlns:xlink="http://www.w3.org/1999/xlink">
  <defs/>
  <g transform="translate(32,32)">
    <rect fill="#eeeeee" height="1280.0" width="128.0" x="864.0" y="0.0"/>
    <rect fill="#fce5cd" height="848.0" width="544.0" x="0.0" y="432.0"/>
    <rect fill="#fff2cc" height="432.0" width="544.0" x="0" y="0"/>
    <rect fill="#cfe2f3" height="368.0" width="320.0" x="544.0" y="912.0"/>
    <rect fill="#e6b8af" height="912.0" width="320.0" x="544.0" y="0.0"/>
    <rect fill="#cfe2f3" height="192.0" width="608.0" x="992.0" y="1088.0"/>
    <rect fill="#d9ead3" height="352.0" width="608.0" x="992.0" y="736.0"/>
    <rect fill="#d9ead3" height="352.0" width="608.0" x="992.0" y="384.0"/>
    <rect fill="#d9ead3" height="384.0" width="608.0" x="992.0" y="0.0"/>
    <line stroke="#595959" stroke-linecap="round" stroke-width="12" x1="864.0" x2="864.0" y1="1280.0" y2="912.0"/>
    <line stroke="#595959" stroke-linecap="round" stroke-width="12" x1="864.0" x2="864.0" y1="912.0" y2="0.0"/>
    <line stroke="#595959" stroke-linecap="round" stroke-width="12" x1="992.0" x2="992.0" y1="736.0" y2="384.0"/>
    <line stroke="#595959" stroke-linecap="round" stroke-width="12" x1="1600.0" x2="992.0" y1="384.0" y2="384.0"/>
    <line stroke="#595959" stroke-linecap="round" stroke-width="12" x1="544.0" x2="544.0" y1="912.0" y2="432.0"/>
    <line stroke="#595959" stroke-linecap="round" stroke-width="12" x1="1600" x2="992.0" y1="1280" y2="1280.0"/>
    <line stroke="#595959" stroke-linecap="round" stroke-width="12" x1="1600.0" x2="1600.0" y1="736.0" y2="1088.0"/>
    <line stroke="#595959" stroke-linecap="round" stroke-width="12" x1="864.0" x2="544.0" y1="912.0" y2="912.0"/>
    <line stroke="#595959" stroke-linecap="round" stroke-width="12" x1="0" x2="544.0" y1="0" y2="0.0"/>
    <line stroke="#595959" stroke-linecap="round" stroke-width="12" x1="544.0" x2="544.0" y1="1280.0" y2="912.0"/>
    <line stroke="#595959" stroke-linecap="round" stroke-width="12" x1="1600" x2="1600.0" y1="0" y2="384.0"/>
    <line stroke="#595959" stroke-linecap="round" stroke-width="12" x1="1600.0" x2="992.0" y1="736.0" y2="736.0"/>
    <line stroke="#595959" stroke-linecap="round" stroke-width="12" x1="992.0" x2="864.0" y1="1280.0" y2="1280.0"/>
    <line stroke="#595959" stroke-linecap="round" stroke-width="12" x1="1600.0" x2="1600.0" y1="384.0" y2="736.0"/>
    <line stroke="#595959" stroke-linecap="round" stroke-width="12" x1="0" x2="0.0" y1="1280" y2="432.0"/>
    <line stroke="#595959" stroke-linecap="round" stroke-width="12" x1="1600.0" x2="1600" y1="1088.0" y2="1280"/>
    <line stroke="#595959" stroke-linecap="round" stroke-width="12" x1="992.0" x2="992.0" y1="1280.0" y2="1088.0"/>
    <line stroke="#595959" stroke-linecap="round" stroke-width="12" x1="992.0" x2="1600" y1="0.0" y2="0"/>
    <line stroke="#595959" stroke-linecap="round" stroke-width="12" x1="864.0" x2="544.0" y1="1280.0" y2="1280.0"/>
    <line stroke="#595959" stroke-linecap="round" stroke-width="12" x1="544.0" x2="544.0" y1="432.0" y2="0.0"/>
    <line stroke="#595959" stroke-linecap="round" stroke-width="12" x1="544.0" x2="0" y1="1280.0" y2="1280"/>
    <line stroke="#595959" stroke-linecap="round" stroke-width="12" x1="992.0" x2="992.0" y1="384.0" y2="0.0"/>
    <line stroke="#595959" stroke-linecap="round" stroke-width="12" x1="544.0" x2="0.0" y1="432.0" y2="432.0"/>
    <line stroke="#595959" stroke-linecap="round" stroke-width="12" x1="864.0" x2="992.0" y1="0.0" y2="0.0"/>
    <line stroke="#595959" stroke-linecap="round" stroke-width="12" x1="0.0" x2="0" y1="432.0" y2="0"/>
    <line stroke="#595959" stroke-linecap="round" stroke-width="12" x1="544.0" x2="864.0" y1="0.0" y2="0.0"/>
    <line stroke="#595959" stroke-linecap="round" stroke-width="12" x1="992.0" x2="992.0" y1="1088.0" y2="736.0"/>
    <line stroke="#595959" stroke-linecap="round" stroke-width="12" x1="1600.0" x2="992.0" y1="1088.0" y2="1088.0"/>
    <text style="font-family: 'Source Code Pro; font-size: 30pt" text-anchor="middle" x="928.0" y="640.0"/>
    <text style="font-family: 'Source Code Pro; font-size: 30pt" text-anchor="middle" x="272.0" y="856.0">Living</text>
    <text style="font-family: 'Source Code Pro; font-size: 30pt" text-anchor="middle" x="272.0" y="216.0">Kitchen</text>
    <text style="font-family: 'Source Code Pro; font-size: 30pt" text-anchor="middle" x="704.0" y="1096.0">Bath</text>
    <text style="font-family: 'Source Code Pro; font-size: 30pt" text-anchor="middle" x="704.0" y="456.0">Dining</text>
    <text style="font-family: 'Source Code Pro; font-size: 30pt" text-anchor="middle" x="1296.0" y="1184.0">Bath</text>
    <text style="font-family: 'Source Code Pro; font-size: 30pt" text-anchor="middle" x="1296.0" y="912.0">Bedroom</text>
    <text style="font-family: 'Source Code Pro; font-size: 30pt" text-anchor="middle" x="1296.0" y="560.0">Bedroom</text>
    <text style="font-family: 'Source Code Pro; font-size: 30pt" text-anchor="middle" x="1296.0" y="192.0">Bedroom</text>
  </g>
</svg>
