<?xml version="1.0" encoding="utf-8" ?>
<svg baseProfile="full" height="1344" version="1.1" width="1664" xmlns="http://www.w3.org/2000/svg" xmlns:ev="http://www.w3.org/2001/xml-events" xmlns:xlink="http://www.w3.org/1999/xlink">
  <defs/>
  <g transform="translate(32,32)">
    <rect fill="#d9ead3" height="304.0" width="752.0" x="0.0" y="976.0"/>
    <rect fill="#d9ead3" height="304.0" width="848.0" x="752.0" y="976.0"/>
    <rect fill="#d9ead3" height="464.0" width="496.0" x="0.0" y="512.0"/>
    <rect fill="#fce5cd" height="464.0" width="1104.0" x="496.0" y="512.0"/>
    <rect fill="#cfe2f3" height="512.0" width="240.0" x="0" y="0"/>
    <rect fill="#fff2cc" height="512.0" width="496.0" x="240.0" y="0.0"/>
    <rect fill="#e6b8af" height="512.0" width="624.0" x="736.0" y="0.0"/>
    <rect fill="#cfe2f3" height="512.0" width="240.0" x="1360.0" y="0.0"/>
    <line stroke="#595959" stroke-linecap="round" stroke-width="12" x1="1600.0" x2="752.0" y1="976.0" y2="976.0"/>
    <line stroke="#595959" stroke-linecap="round" stroke-width="12" x1="736.0" x2="496.0" y1="512.0" y2="512.0"/>
    <line stroke="#595959" stroke-linecap="round" stroke-width="12" x1="1360.0" x2="1600" y1="0.0" y2="0"/>
    <line stroke="#595959" stroke-linecap="round" stroke-width="12" x1="496.0" x2="496.0" y1="976.0" y2="512.0"/>
    <line stroke="#595959" stroke-linecap="round" stroke-width="12" x1="736.0" x2="1360.0" y1="0.0" y2="0.0"/>
    <line stroke="#595959" stroke-linecap="round" stroke-width="12" x1="1360.0" x2="736.0" y1="512.0" y2="512.0"/>
    <line stroke="#595959" stroke-linecap="round" stroke-width="12" x1="1600" x2="1600.0" y1="0" y2="512.0"/>
    <line stroke="#595959" stroke-linecap="round" stroke-width="12" x1="496.0" x2="0.0" y1="976.0" y2="976.0"/>
    <line stroke="#595959" stroke-linecap="round" stroke-width="12" x1="0.0" x2="0" y1="512.0" y2="0"/>
    <line stroke="#595959" stroke-linecap="round" stroke-width="12" x1="1360.0" x2="1360.0" y1="512.0" y2="0.0"/>
    <line stroke="#595959" stroke-linecap="round" stroke-width="12" x1="240.0" x2="736.0" y1="0.0" y2="0.0"/>
    <line stroke="#595959" stroke-linecap="round" stroke-width="12" x1="752.0" x2="0" y1="1280.0" y2="1280"/>
    <line stroke="#595959" stroke-linecap="round" stroke-width="12" x1="0" x2="0.0" y1="1280" y2="976.0"/>
    <line stroke="#595959" stroke-linecap="round" stroke-width="12" x1="1600.0" x2="1360.0" y1="512.0" y2="512.0"/>
    <line stroke="#595959" stroke-linecap="round" stroke-width="12" x1="1600.0" x2="1600.0" y1="512.0" y2="976.0"/>
    <line stroke="#595959" stroke-linecap="round" stroke-width="12" x1="0.0" x2="0.0" y1="976.0" y2="512.0"/>
    <line stroke="#595959" stroke-linecap="round" stroke-width="12" x1="0" x2="240.0" y1="0" y2="0.0"/>
    <line stroke="#595959" stroke-linecap="round" stroke-width="12" x1="752.0" x2="496.0" y1="976.0" y2="976.0"/>
    <line stroke="#595959" stroke-linecap="round" stroke-width="12" x1="736.0" x2="736.0" y1="512.0" y2="0.0"/>
    <line stroke="#595959" stroke-linecap="round" stroke-width="12" x1="240.0" x2="0.0" y1="512.0" y2="512.0"/>
    <line stroke="#595959" stroke-linecap="round" stroke-width="12" x1="1600.0" x2="1600" y1="976.0" y2="1280"/>
    <line stroke="#595959" stroke-linecap="round" stroke-width="12" x1="240.0" x2="240.0" y1="512.0" y2="0.0"/>
    <line stroke="#595959" stroke-linecap="round" stroke-width="12" x1="496.0" x2="240.0" y1="512.0" y2="512.0"/>
    <line stroke="#595959" stroke-linecap="round" stroke-width="12" x1="752.0" x2="752.0" y1="1280.0" y2="976.0"/>
    <line stroke="#595959" stroke-linecap="round" stroke-width="12" x1="1600" x2="752.0" y1="1280" y2="1280.0"/>
    <text style="font-family: 'Source Code Pro; font-size: 30pt" text-anchor="middle" x="376.0" y="1128.0">Bedroom</text>
    <text style="font-family: 'Source Code Pro; font-size: 30pt" text-anchor="middle" x="1176.0" y="1128.0">Bedroom</text>
    <text style="font-family: 'Source Code Pro; font-size: 30pt" text-anchor="middle" x="248.0" y="744.0">Bedroom</text>
    <text style="font-family: 'Source Code Pro; font-size: 30pt" text-anchor="middle" x="1048.0" y="744.0">Living</text>
    <text style="font-family: 'Source Code Pro; font-size: 30pt" text-anchor="middle" x="120.0" y="256.0">Bath</text>
    <text style="font-family: 'Source Code Pro; font-size: 30pt" text-anchor="middle" x="488.0" y="256.0">Kitchen</text>
    <text style="font-family: 'Source Code Pro; font-size: 30pt" text-anchor="middle" x="1048.0" y="256.0">Dining</text>
    <text style="font-family: 'Source Code Pro; font-size: 30pt" text-anchor="middle" x="1480.0" y="256.0">Bath</text>
  </g>
</svg>
